%TF.GenerationSoftware,KiCad,Pcbnew,7.0.2*%
%TF.CreationDate,2024-01-28T20:17:23-05:00*%
%TF.ProjectId,dpx_perv_5x30,6470785f-7065-4727-965f-357833302e6b,rev?*%
%TF.SameCoordinates,Original*%
%TF.FileFunction,Copper,L3,Inr*%
%TF.FilePolarity,Positive*%
%FSLAX46Y46*%
G04 Gerber Fmt 4.6, Leading zero omitted, Abs format (unit mm)*
G04 Created by KiCad (PCBNEW 7.0.2) date 2024-01-28 20:17:23*
%MOMM*%
%LPD*%
G01*
G04 APERTURE LIST*
%TA.AperFunction,ComponentPad*%
%ADD10R,1.700000X1.700000*%
%TD*%
%TA.AperFunction,ComponentPad*%
%ADD11O,1.700000X1.700000*%
%TD*%
G04 APERTURE END LIST*
D10*
%TO.N,VCC*%
%TO.C,J1*%
X46220000Y-33615000D03*
D11*
%TO.N,GND*%
X43680000Y-33615000D03*
%TO.N,VCC*%
X46220000Y-36155000D03*
%TO.N,GND*%
X43680000Y-36155000D03*
%TO.N,VCC*%
X46220000Y-38695000D03*
%TO.N,GND*%
X43680000Y-38695000D03*
%TO.N,VCC*%
X46220000Y-41235000D03*
%TO.N,GND*%
X43680000Y-41235000D03*
%TO.N,VCC*%
X46220000Y-43775000D03*
%TO.N,GND*%
X43680000Y-43775000D03*
%TO.N,VCC*%
X46220000Y-46315000D03*
%TO.N,GND*%
X43680000Y-46315000D03*
%TO.N,VCC*%
X46220000Y-48855000D03*
%TO.N,GND*%
X43680000Y-48855000D03*
%TO.N,VCC*%
X46220000Y-51395000D03*
%TO.N,GND*%
X43680000Y-51395000D03*
%TO.N,VCC*%
X46220000Y-53935000D03*
%TO.N,GND*%
X43680000Y-53935000D03*
%TO.N,VCC*%
X46220000Y-56475000D03*
%TO.N,GND*%
X43680000Y-56475000D03*
%TO.N,VCC*%
X46220000Y-59015000D03*
%TO.N,GND*%
X43680000Y-59015000D03*
%TO.N,VCC*%
X46220000Y-61555000D03*
%TO.N,GND*%
X43680000Y-61555000D03*
%TO.N,VCC*%
X46220000Y-64095000D03*
%TO.N,GND*%
X43680000Y-64095000D03*
%TO.N,VCC*%
X46220000Y-66635000D03*
%TO.N,GND*%
X43680000Y-66635000D03*
%TO.N,VCC*%
X46220000Y-69175000D03*
%TO.N,GND*%
X43680000Y-69175000D03*
%TO.N,VCC*%
X46220000Y-71715000D03*
%TO.N,GND*%
X43680000Y-71715000D03*
%TO.N,VCC*%
X46220000Y-74255000D03*
%TO.N,GND*%
X43680000Y-74255000D03*
%TO.N,VCC*%
X46220000Y-76795000D03*
%TO.N,GND*%
X43680000Y-76795000D03*
%TO.N,VCC*%
X46220000Y-79335000D03*
%TO.N,GND*%
X43680000Y-79335000D03*
%TO.N,VCC*%
X46220000Y-81875000D03*
%TO.N,GND*%
X43680000Y-81875000D03*
%TO.N,VCC*%
X46220000Y-84415000D03*
%TO.N,GND*%
X43680000Y-84415000D03*
%TO.N,VCC*%
X46220000Y-86955000D03*
%TO.N,GND*%
X43680000Y-86955000D03*
%TO.N,VCC*%
X46220000Y-89495000D03*
%TO.N,GND*%
X43680000Y-89495000D03*
%TO.N,VCC*%
X46220000Y-92035000D03*
%TO.N,GND*%
X43680000Y-92035000D03*
%TO.N,VCC*%
X46220000Y-94575000D03*
%TO.N,GND*%
X43680000Y-94575000D03*
%TO.N,VCC*%
X46220000Y-97115000D03*
%TO.N,GND*%
X43680000Y-97115000D03*
%TO.N,VCC*%
X46220000Y-99655000D03*
%TO.N,GND*%
X43680000Y-99655000D03*
%TO.N,VCC*%
X46220000Y-102195000D03*
%TO.N,GND*%
X43680000Y-102195000D03*
%TO.N,VCC*%
X46220000Y-104735000D03*
%TO.N,GND*%
X43680000Y-104735000D03*
%TO.N,VCC*%
X46220000Y-107275000D03*
%TO.N,GND*%
X43680000Y-107275000D03*
%TD*%
D10*
%TO.N,VCC*%
%TO.C,J2*%
X86770000Y-33615000D03*
D11*
%TO.N,GND*%
X84230000Y-33615000D03*
%TO.N,VCC*%
X86770000Y-36155000D03*
%TO.N,GND*%
X84230000Y-36155000D03*
%TO.N,VCC*%
X86770000Y-38695000D03*
%TO.N,GND*%
X84230000Y-38695000D03*
%TO.N,VCC*%
X86770000Y-41235000D03*
%TO.N,GND*%
X84230000Y-41235000D03*
%TO.N,VCC*%
X86770000Y-43775000D03*
%TO.N,GND*%
X84230000Y-43775000D03*
%TO.N,VCC*%
X86770000Y-46315000D03*
%TO.N,GND*%
X84230000Y-46315000D03*
%TO.N,VCC*%
X86770000Y-48855000D03*
%TO.N,GND*%
X84230000Y-48855000D03*
%TO.N,VCC*%
X86770000Y-51395000D03*
%TO.N,GND*%
X84230000Y-51395000D03*
%TO.N,VCC*%
X86770000Y-53935000D03*
%TO.N,GND*%
X84230000Y-53935000D03*
%TO.N,VCC*%
X86770000Y-56475000D03*
%TO.N,GND*%
X84230000Y-56475000D03*
%TO.N,VCC*%
X86770000Y-59015000D03*
%TO.N,GND*%
X84230000Y-59015000D03*
%TO.N,VCC*%
X86770000Y-61555000D03*
%TO.N,GND*%
X84230000Y-61555000D03*
%TO.N,VCC*%
X86770000Y-64095000D03*
%TO.N,GND*%
X84230000Y-64095000D03*
%TO.N,VCC*%
X86770000Y-66635000D03*
%TO.N,GND*%
X84230000Y-66635000D03*
%TO.N,VCC*%
X86770000Y-69175000D03*
%TO.N,GND*%
X84230000Y-69175000D03*
%TO.N,VCC*%
X86770000Y-71715000D03*
%TO.N,GND*%
X84230000Y-71715000D03*
%TO.N,VCC*%
X86770000Y-74255000D03*
%TO.N,GND*%
X84230000Y-74255000D03*
%TO.N,VCC*%
X86770000Y-76795000D03*
%TO.N,GND*%
X84230000Y-76795000D03*
%TO.N,VCC*%
X86770000Y-79335000D03*
%TO.N,GND*%
X84230000Y-79335000D03*
%TO.N,VCC*%
X86770000Y-81875000D03*
%TO.N,GND*%
X84230000Y-81875000D03*
%TO.N,VCC*%
X86770000Y-84415000D03*
%TO.N,GND*%
X84230000Y-84415000D03*
%TO.N,VCC*%
X86770000Y-86955000D03*
%TO.N,GND*%
X84230000Y-86955000D03*
%TO.N,VCC*%
X86770000Y-89495000D03*
%TO.N,GND*%
X84230000Y-89495000D03*
%TO.N,VCC*%
X86770000Y-92035000D03*
%TO.N,GND*%
X84230000Y-92035000D03*
%TO.N,VCC*%
X86770000Y-94575000D03*
%TO.N,GND*%
X84230000Y-94575000D03*
%TO.N,VCC*%
X86770000Y-97115000D03*
%TO.N,GND*%
X84230000Y-97115000D03*
%TO.N,VCC*%
X86770000Y-99655000D03*
%TO.N,GND*%
X84230000Y-99655000D03*
%TO.N,VCC*%
X86770000Y-102195000D03*
%TO.N,GND*%
X84230000Y-102195000D03*
%TO.N,VCC*%
X86770000Y-104735000D03*
%TO.N,GND*%
X84230000Y-104735000D03*
%TO.N,VCC*%
X86770000Y-107275000D03*
%TO.N,GND*%
X84230000Y-107275000D03*
%TD*%
%TO.N,N/C*%
%TO.C,U6*%
X79165000Y-97110000D03*
X76625000Y-97110000D03*
X74085000Y-97110000D03*
X71545000Y-97110000D03*
X69005000Y-97110000D03*
X61405000Y-97110000D03*
X79165000Y-99650000D03*
X76625000Y-99650000D03*
X74085000Y-99650000D03*
X71545000Y-99650000D03*
X69005000Y-99650000D03*
X61405000Y-99650000D03*
X58865000Y-99650000D03*
X58855000Y-97110000D03*
X56325000Y-99650000D03*
X56315000Y-97110000D03*
X53785000Y-99650000D03*
X53775000Y-97110000D03*
X51245000Y-99650000D03*
X51235000Y-97110000D03*
X79165000Y-102190000D03*
X76625000Y-102190000D03*
X74085000Y-102190000D03*
X71545000Y-102190000D03*
X69005000Y-102190000D03*
X61405000Y-102190000D03*
X58865000Y-102190000D03*
X56325000Y-102190000D03*
X53785000Y-102190000D03*
X51245000Y-102190000D03*
X79165000Y-104730000D03*
X76625000Y-104730000D03*
X74085000Y-104730000D03*
X71545000Y-104730000D03*
X69005000Y-104730000D03*
X61405000Y-104730000D03*
X58865000Y-104730000D03*
X56325000Y-104730000D03*
X53785000Y-104730000D03*
X51245000Y-104730000D03*
X79165000Y-107270000D03*
X76625000Y-107270000D03*
X74085000Y-107270000D03*
X71545000Y-107270000D03*
X69005000Y-107270000D03*
X61405000Y-107270000D03*
X58865000Y-107270000D03*
X56325000Y-107270000D03*
X53785000Y-107270000D03*
X51245000Y-107270000D03*
%TD*%
%TO.N,N/C*%
%TO.C,U2*%
X79195000Y-46310000D03*
X76655000Y-46310000D03*
X74115000Y-46310000D03*
X71575000Y-46310000D03*
X69035000Y-46310000D03*
X61435000Y-46310000D03*
X79195000Y-48850000D03*
X76655000Y-48850000D03*
X74115000Y-48850000D03*
X71575000Y-48850000D03*
X69035000Y-48850000D03*
X61435000Y-48850000D03*
X58895000Y-48850000D03*
X58885000Y-46310000D03*
X56355000Y-48850000D03*
X56345000Y-46310000D03*
X53815000Y-48850000D03*
X53805000Y-46310000D03*
X51275000Y-48850000D03*
X51265000Y-46310000D03*
X79195000Y-51390000D03*
X76655000Y-51390000D03*
X74115000Y-51390000D03*
X71575000Y-51390000D03*
X69035000Y-51390000D03*
X61435000Y-51390000D03*
X58895000Y-51390000D03*
X56355000Y-51390000D03*
X53815000Y-51390000D03*
X51275000Y-51390000D03*
X79195000Y-53930000D03*
X76655000Y-53930000D03*
X74115000Y-53930000D03*
X71575000Y-53930000D03*
X69035000Y-53930000D03*
X61435000Y-53930000D03*
X58895000Y-53930000D03*
X56355000Y-53930000D03*
X53815000Y-53930000D03*
X51275000Y-53930000D03*
X79195000Y-56470000D03*
X76655000Y-56470000D03*
X74115000Y-56470000D03*
X71575000Y-56470000D03*
X69035000Y-56470000D03*
X61435000Y-56470000D03*
X58895000Y-56470000D03*
X56355000Y-56470000D03*
X53815000Y-56470000D03*
X51275000Y-56470000D03*
%TD*%
%TO.N,N/C*%
%TO.C,U1*%
X79180000Y-33615000D03*
X76640000Y-33615000D03*
X74100000Y-33615000D03*
X71560000Y-33615000D03*
X69020000Y-33615000D03*
X61420000Y-33615000D03*
X79180000Y-36155000D03*
X76640000Y-36155000D03*
X74100000Y-36155000D03*
X71560000Y-36155000D03*
X69020000Y-36155000D03*
X61420000Y-36155000D03*
X58880000Y-36155000D03*
X58870000Y-33615000D03*
X56340000Y-36155000D03*
X56330000Y-33615000D03*
X53800000Y-36155000D03*
X53790000Y-33615000D03*
X51260000Y-36155000D03*
X51250000Y-33615000D03*
X79180000Y-38695000D03*
X76640000Y-38695000D03*
X74100000Y-38695000D03*
X71560000Y-38695000D03*
X69020000Y-38695000D03*
X61420000Y-38695000D03*
X58880000Y-38695000D03*
X56340000Y-38695000D03*
X53800000Y-38695000D03*
X51260000Y-38695000D03*
X79180000Y-41235000D03*
X76640000Y-41235000D03*
X74100000Y-41235000D03*
X71560000Y-41235000D03*
X69020000Y-41235000D03*
X61420000Y-41235000D03*
X58880000Y-41235000D03*
X56340000Y-41235000D03*
X53800000Y-41235000D03*
X51260000Y-41235000D03*
X79180000Y-43775000D03*
X76640000Y-43775000D03*
X74100000Y-43775000D03*
X71560000Y-43775000D03*
X69020000Y-43775000D03*
X61420000Y-43775000D03*
X58880000Y-43775000D03*
X56340000Y-43775000D03*
X53800000Y-43775000D03*
X51260000Y-43775000D03*
%TD*%
%TO.N,N/C*%
%TO.C,U4*%
X79185000Y-71710000D03*
X76645000Y-71710000D03*
X74105000Y-71710000D03*
X71565000Y-71710000D03*
X69025000Y-71710000D03*
X61425000Y-71710000D03*
X79185000Y-74250000D03*
X76645000Y-74250000D03*
X74105000Y-74250000D03*
X71565000Y-74250000D03*
X69025000Y-74250000D03*
X61425000Y-74250000D03*
X58885000Y-74250000D03*
X58875000Y-71710000D03*
X56345000Y-74250000D03*
X56335000Y-71710000D03*
X53805000Y-74250000D03*
X53795000Y-71710000D03*
X51265000Y-74250000D03*
X51255000Y-71710000D03*
X79185000Y-76790000D03*
X76645000Y-76790000D03*
X74105000Y-76790000D03*
X71565000Y-76790000D03*
X69025000Y-76790000D03*
X61425000Y-76790000D03*
X58885000Y-76790000D03*
X56345000Y-76790000D03*
X53805000Y-76790000D03*
X51265000Y-76790000D03*
X79185000Y-79330000D03*
X76645000Y-79330000D03*
X74105000Y-79330000D03*
X71565000Y-79330000D03*
X69025000Y-79330000D03*
X61425000Y-79330000D03*
X58885000Y-79330000D03*
X56345000Y-79330000D03*
X53805000Y-79330000D03*
X51265000Y-79330000D03*
X79185000Y-81870000D03*
X76645000Y-81870000D03*
X74105000Y-81870000D03*
X71565000Y-81870000D03*
X69025000Y-81870000D03*
X61425000Y-81870000D03*
X58885000Y-81870000D03*
X56345000Y-81870000D03*
X53805000Y-81870000D03*
X51265000Y-81870000D03*
%TD*%
%TO.N,N/C*%
%TO.C,U3*%
X79185000Y-59020000D03*
X76645000Y-59020000D03*
X74105000Y-59020000D03*
X71565000Y-59020000D03*
X69025000Y-59020000D03*
X61425000Y-59020000D03*
X79185000Y-61560000D03*
X76645000Y-61560000D03*
X74105000Y-61560000D03*
X71565000Y-61560000D03*
X69025000Y-61560000D03*
X61425000Y-61560000D03*
X58885000Y-61560000D03*
X58875000Y-59020000D03*
X56345000Y-61560000D03*
X56335000Y-59020000D03*
X53805000Y-61560000D03*
X53795000Y-59020000D03*
X51265000Y-61560000D03*
X51255000Y-59020000D03*
X79185000Y-64100000D03*
X76645000Y-64100000D03*
X74105000Y-64100000D03*
X71565000Y-64100000D03*
X69025000Y-64100000D03*
X61425000Y-64100000D03*
X58885000Y-64100000D03*
X56345000Y-64100000D03*
X53805000Y-64100000D03*
X51265000Y-64100000D03*
X79185000Y-66640000D03*
X76645000Y-66640000D03*
X74105000Y-66640000D03*
X71565000Y-66640000D03*
X69025000Y-66640000D03*
X61425000Y-66640000D03*
X58885000Y-66640000D03*
X56345000Y-66640000D03*
X53805000Y-66640000D03*
X51265000Y-66640000D03*
X79185000Y-69180000D03*
X76645000Y-69180000D03*
X74105000Y-69180000D03*
X71565000Y-69180000D03*
X69025000Y-69180000D03*
X61425000Y-69180000D03*
X58885000Y-69180000D03*
X56345000Y-69180000D03*
X53805000Y-69180000D03*
X51265000Y-69180000D03*
%TD*%
%TO.N,N/C*%
%TO.C,U5*%
X79165000Y-84400000D03*
X76625000Y-84400000D03*
X74085000Y-84400000D03*
X71545000Y-84400000D03*
X69005000Y-84400000D03*
X61405000Y-84400000D03*
X79165000Y-86940000D03*
X76625000Y-86940000D03*
X74085000Y-86940000D03*
X71545000Y-86940000D03*
X69005000Y-86940000D03*
X61405000Y-86940000D03*
X58865000Y-86940000D03*
X58855000Y-84400000D03*
X56325000Y-86940000D03*
X56315000Y-84400000D03*
X53785000Y-86940000D03*
X53775000Y-84400000D03*
X51245000Y-86940000D03*
X51235000Y-84400000D03*
X79165000Y-89480000D03*
X76625000Y-89480000D03*
X74085000Y-89480000D03*
X71545000Y-89480000D03*
X69005000Y-89480000D03*
X61405000Y-89480000D03*
X58865000Y-89480000D03*
X56325000Y-89480000D03*
X53785000Y-89480000D03*
X51245000Y-89480000D03*
X79165000Y-92020000D03*
X76625000Y-92020000D03*
X74085000Y-92020000D03*
X71545000Y-92020000D03*
X69005000Y-92020000D03*
X61405000Y-92020000D03*
X58865000Y-92020000D03*
X56325000Y-92020000D03*
X53785000Y-92020000D03*
X51245000Y-92020000D03*
X79165000Y-94560000D03*
X76625000Y-94560000D03*
X74085000Y-94560000D03*
X71545000Y-94560000D03*
X69005000Y-94560000D03*
X61405000Y-94560000D03*
X58865000Y-94560000D03*
X56325000Y-94560000D03*
X53785000Y-94560000D03*
X51245000Y-94560000D03*
%TD*%
%TA.AperFunction,Conductor*%
%TO.N,GND*%
G36*
X43930000Y-106839498D02*
G01*
X43822315Y-106790320D01*
X43715763Y-106775000D01*
X43644237Y-106775000D01*
X43537685Y-106790320D01*
X43429999Y-106839498D01*
X43429999Y-105170501D01*
X43537685Y-105219680D01*
X43644237Y-105235000D01*
X43715763Y-105235000D01*
X43822315Y-105219680D01*
X43930000Y-105170501D01*
X43930000Y-106839498D01*
G37*
%TD.AperFunction*%
%TA.AperFunction,Conductor*%
G36*
X43930000Y-104299498D02*
G01*
X43822315Y-104250320D01*
X43715763Y-104235000D01*
X43644237Y-104235000D01*
X43537685Y-104250320D01*
X43429999Y-104299498D01*
X43429999Y-102630501D01*
X43537685Y-102679680D01*
X43644237Y-102695000D01*
X43715763Y-102695000D01*
X43822315Y-102679680D01*
X43930000Y-102630501D01*
X43930000Y-104299498D01*
G37*
%TD.AperFunction*%
%TA.AperFunction,Conductor*%
G36*
X43930000Y-101759498D02*
G01*
X43822315Y-101710320D01*
X43715763Y-101695000D01*
X43644237Y-101695000D01*
X43537685Y-101710320D01*
X43429999Y-101759498D01*
X43429999Y-100090501D01*
X43537685Y-100139680D01*
X43644237Y-100155000D01*
X43715763Y-100155000D01*
X43822315Y-100139680D01*
X43930000Y-100090501D01*
X43930000Y-101759498D01*
G37*
%TD.AperFunction*%
%TA.AperFunction,Conductor*%
G36*
X43930000Y-99219498D02*
G01*
X43822315Y-99170320D01*
X43715763Y-99155000D01*
X43644237Y-99155000D01*
X43537685Y-99170320D01*
X43429999Y-99219498D01*
X43429999Y-97550501D01*
X43537685Y-97599680D01*
X43644237Y-97615000D01*
X43715763Y-97615000D01*
X43822315Y-97599680D01*
X43930000Y-97550501D01*
X43930000Y-99219498D01*
G37*
%TD.AperFunction*%
%TA.AperFunction,Conductor*%
G36*
X43930000Y-96679498D02*
G01*
X43822315Y-96630320D01*
X43715763Y-96615000D01*
X43644237Y-96615000D01*
X43537685Y-96630320D01*
X43429999Y-96679498D01*
X43429999Y-95010501D01*
X43537685Y-95059680D01*
X43644237Y-95075000D01*
X43715763Y-95075000D01*
X43822315Y-95059680D01*
X43930000Y-95010501D01*
X43930000Y-96679498D01*
G37*
%TD.AperFunction*%
%TA.AperFunction,Conductor*%
G36*
X43930000Y-94139498D02*
G01*
X43822315Y-94090320D01*
X43715763Y-94075000D01*
X43644237Y-94075000D01*
X43537685Y-94090320D01*
X43429999Y-94139498D01*
X43429999Y-92470501D01*
X43537685Y-92519680D01*
X43644237Y-92535000D01*
X43715763Y-92535000D01*
X43822315Y-92519680D01*
X43930000Y-92470501D01*
X43930000Y-94139498D01*
G37*
%TD.AperFunction*%
%TA.AperFunction,Conductor*%
G36*
X43930000Y-91599498D02*
G01*
X43822315Y-91550320D01*
X43715763Y-91535000D01*
X43644237Y-91535000D01*
X43537685Y-91550320D01*
X43429999Y-91599498D01*
X43429999Y-89930501D01*
X43537685Y-89979680D01*
X43644237Y-89995000D01*
X43715763Y-89995000D01*
X43822315Y-89979680D01*
X43930000Y-89930501D01*
X43930000Y-91599498D01*
G37*
%TD.AperFunction*%
%TA.AperFunction,Conductor*%
G36*
X43930000Y-89059498D02*
G01*
X43822315Y-89010320D01*
X43715763Y-88995000D01*
X43644237Y-88995000D01*
X43537685Y-89010320D01*
X43429999Y-89059498D01*
X43429999Y-87390501D01*
X43537685Y-87439680D01*
X43644237Y-87455000D01*
X43715763Y-87455000D01*
X43822315Y-87439680D01*
X43930000Y-87390501D01*
X43930000Y-89059498D01*
G37*
%TD.AperFunction*%
%TA.AperFunction,Conductor*%
G36*
X43930000Y-86519498D02*
G01*
X43822315Y-86470320D01*
X43715763Y-86455000D01*
X43644237Y-86455000D01*
X43537685Y-86470320D01*
X43429999Y-86519498D01*
X43429999Y-84850501D01*
X43537685Y-84899680D01*
X43644237Y-84915000D01*
X43715763Y-84915000D01*
X43822315Y-84899680D01*
X43930000Y-84850501D01*
X43930000Y-86519498D01*
G37*
%TD.AperFunction*%
%TA.AperFunction,Conductor*%
G36*
X43930000Y-83979498D02*
G01*
X43822315Y-83930320D01*
X43715763Y-83915000D01*
X43644237Y-83915000D01*
X43537685Y-83930320D01*
X43429999Y-83979498D01*
X43429999Y-82310501D01*
X43537685Y-82359680D01*
X43644237Y-82375000D01*
X43715763Y-82375000D01*
X43822315Y-82359680D01*
X43930000Y-82310501D01*
X43930000Y-83979498D01*
G37*
%TD.AperFunction*%
%TA.AperFunction,Conductor*%
G36*
X43930000Y-81439498D02*
G01*
X43822315Y-81390320D01*
X43715763Y-81375000D01*
X43644237Y-81375000D01*
X43537685Y-81390320D01*
X43429999Y-81439498D01*
X43429999Y-79770501D01*
X43537685Y-79819680D01*
X43644237Y-79835000D01*
X43715763Y-79835000D01*
X43822315Y-79819680D01*
X43930000Y-79770501D01*
X43930000Y-81439498D01*
G37*
%TD.AperFunction*%
%TA.AperFunction,Conductor*%
G36*
X43930000Y-78899498D02*
G01*
X43822315Y-78850320D01*
X43715763Y-78835000D01*
X43644237Y-78835000D01*
X43537685Y-78850320D01*
X43429999Y-78899498D01*
X43429999Y-77230501D01*
X43537685Y-77279680D01*
X43644237Y-77295000D01*
X43715763Y-77295000D01*
X43822315Y-77279680D01*
X43930000Y-77230501D01*
X43930000Y-78899498D01*
G37*
%TD.AperFunction*%
%TA.AperFunction,Conductor*%
G36*
X43930000Y-76359498D02*
G01*
X43822315Y-76310320D01*
X43715763Y-76295000D01*
X43644237Y-76295000D01*
X43537685Y-76310320D01*
X43429999Y-76359498D01*
X43429999Y-74690501D01*
X43537685Y-74739680D01*
X43644237Y-74755000D01*
X43715763Y-74755000D01*
X43822315Y-74739680D01*
X43930000Y-74690501D01*
X43930000Y-76359498D01*
G37*
%TD.AperFunction*%
%TA.AperFunction,Conductor*%
G36*
X43930000Y-73819498D02*
G01*
X43822315Y-73770320D01*
X43715763Y-73755000D01*
X43644237Y-73755000D01*
X43537685Y-73770320D01*
X43429999Y-73819498D01*
X43429999Y-72150501D01*
X43537685Y-72199680D01*
X43644237Y-72215000D01*
X43715763Y-72215000D01*
X43822315Y-72199680D01*
X43930000Y-72150501D01*
X43930000Y-73819498D01*
G37*
%TD.AperFunction*%
%TA.AperFunction,Conductor*%
G36*
X43930000Y-71279498D02*
G01*
X43822315Y-71230320D01*
X43715763Y-71215000D01*
X43644237Y-71215000D01*
X43537685Y-71230320D01*
X43429999Y-71279498D01*
X43429999Y-69610501D01*
X43537685Y-69659680D01*
X43644237Y-69675000D01*
X43715763Y-69675000D01*
X43822315Y-69659680D01*
X43930000Y-69610501D01*
X43930000Y-71279498D01*
G37*
%TD.AperFunction*%
%TA.AperFunction,Conductor*%
G36*
X43930000Y-68739498D02*
G01*
X43822315Y-68690320D01*
X43715763Y-68675000D01*
X43644237Y-68675000D01*
X43537685Y-68690320D01*
X43429999Y-68739498D01*
X43429999Y-67070501D01*
X43537685Y-67119680D01*
X43644237Y-67135000D01*
X43715763Y-67135000D01*
X43822315Y-67119680D01*
X43930000Y-67070501D01*
X43930000Y-68739498D01*
G37*
%TD.AperFunction*%
%TA.AperFunction,Conductor*%
G36*
X43930000Y-66199498D02*
G01*
X43822315Y-66150320D01*
X43715763Y-66135000D01*
X43644237Y-66135000D01*
X43537685Y-66150320D01*
X43429999Y-66199498D01*
X43429999Y-64530501D01*
X43537685Y-64579680D01*
X43644237Y-64595000D01*
X43715763Y-64595000D01*
X43822315Y-64579680D01*
X43930000Y-64530501D01*
X43930000Y-66199498D01*
G37*
%TD.AperFunction*%
%TA.AperFunction,Conductor*%
G36*
X43930000Y-63659498D02*
G01*
X43822315Y-63610320D01*
X43715763Y-63595000D01*
X43644237Y-63595000D01*
X43537685Y-63610320D01*
X43429999Y-63659498D01*
X43429999Y-61990501D01*
X43537685Y-62039680D01*
X43644237Y-62055000D01*
X43715763Y-62055000D01*
X43822315Y-62039680D01*
X43930000Y-61990501D01*
X43930000Y-63659498D01*
G37*
%TD.AperFunction*%
%TA.AperFunction,Conductor*%
G36*
X43930000Y-61119498D02*
G01*
X43822315Y-61070320D01*
X43715763Y-61055000D01*
X43644237Y-61055000D01*
X43537685Y-61070320D01*
X43429999Y-61119498D01*
X43429999Y-59450501D01*
X43537685Y-59499680D01*
X43644237Y-59515000D01*
X43715763Y-59515000D01*
X43822315Y-59499680D01*
X43930000Y-59450501D01*
X43930000Y-61119498D01*
G37*
%TD.AperFunction*%
%TA.AperFunction,Conductor*%
G36*
X43930000Y-58579498D02*
G01*
X43822315Y-58530320D01*
X43715763Y-58515000D01*
X43644237Y-58515000D01*
X43537685Y-58530320D01*
X43429999Y-58579498D01*
X43429999Y-56910501D01*
X43537685Y-56959680D01*
X43644237Y-56975000D01*
X43715763Y-56975000D01*
X43822315Y-56959680D01*
X43930000Y-56910501D01*
X43930000Y-58579498D01*
G37*
%TD.AperFunction*%
%TA.AperFunction,Conductor*%
G36*
X43930000Y-56039498D02*
G01*
X43822315Y-55990320D01*
X43715763Y-55975000D01*
X43644237Y-55975000D01*
X43537685Y-55990320D01*
X43429999Y-56039498D01*
X43429999Y-54370501D01*
X43537685Y-54419680D01*
X43644237Y-54435000D01*
X43715763Y-54435000D01*
X43822315Y-54419680D01*
X43930000Y-54370501D01*
X43930000Y-56039498D01*
G37*
%TD.AperFunction*%
%TA.AperFunction,Conductor*%
G36*
X43930000Y-53499498D02*
G01*
X43822315Y-53450320D01*
X43715763Y-53435000D01*
X43644237Y-53435000D01*
X43537685Y-53450320D01*
X43429999Y-53499498D01*
X43429999Y-51830501D01*
X43537685Y-51879680D01*
X43644237Y-51895000D01*
X43715763Y-51895000D01*
X43822315Y-51879680D01*
X43930000Y-51830501D01*
X43930000Y-53499498D01*
G37*
%TD.AperFunction*%
%TA.AperFunction,Conductor*%
G36*
X43930000Y-50959498D02*
G01*
X43822315Y-50910320D01*
X43715763Y-50895000D01*
X43644237Y-50895000D01*
X43537685Y-50910320D01*
X43429999Y-50959498D01*
X43429999Y-49290501D01*
X43537685Y-49339680D01*
X43644237Y-49355000D01*
X43715763Y-49355000D01*
X43822315Y-49339680D01*
X43930000Y-49290501D01*
X43930000Y-50959498D01*
G37*
%TD.AperFunction*%
%TA.AperFunction,Conductor*%
G36*
X43930000Y-48419498D02*
G01*
X43822315Y-48370320D01*
X43715763Y-48355000D01*
X43644237Y-48355000D01*
X43537685Y-48370320D01*
X43429999Y-48419498D01*
X43429999Y-46750501D01*
X43537685Y-46799680D01*
X43644237Y-46815000D01*
X43715763Y-46815000D01*
X43822315Y-46799680D01*
X43930000Y-46750501D01*
X43930000Y-48419498D01*
G37*
%TD.AperFunction*%
%TA.AperFunction,Conductor*%
G36*
X43930000Y-45879498D02*
G01*
X43822315Y-45830320D01*
X43715763Y-45815000D01*
X43644237Y-45815000D01*
X43537685Y-45830320D01*
X43429999Y-45879498D01*
X43429999Y-44210501D01*
X43537685Y-44259680D01*
X43644237Y-44275000D01*
X43715763Y-44275000D01*
X43822315Y-44259680D01*
X43930000Y-44210501D01*
X43930000Y-45879498D01*
G37*
%TD.AperFunction*%
%TA.AperFunction,Conductor*%
G36*
X43930000Y-43339498D02*
G01*
X43822315Y-43290320D01*
X43715763Y-43275000D01*
X43644237Y-43275000D01*
X43537685Y-43290320D01*
X43429999Y-43339498D01*
X43429999Y-41670501D01*
X43537685Y-41719680D01*
X43644237Y-41735000D01*
X43715763Y-41735000D01*
X43822315Y-41719680D01*
X43930000Y-41670501D01*
X43930000Y-43339498D01*
G37*
%TD.AperFunction*%
%TA.AperFunction,Conductor*%
G36*
X43930000Y-40799498D02*
G01*
X43822315Y-40750320D01*
X43715763Y-40735000D01*
X43644237Y-40735000D01*
X43537685Y-40750320D01*
X43429999Y-40799498D01*
X43429999Y-39130501D01*
X43537685Y-39179680D01*
X43644237Y-39195000D01*
X43715763Y-39195000D01*
X43822315Y-39179680D01*
X43930000Y-39130501D01*
X43930000Y-40799498D01*
G37*
%TD.AperFunction*%
%TA.AperFunction,Conductor*%
G36*
X43930000Y-38259498D02*
G01*
X43822315Y-38210320D01*
X43715763Y-38195000D01*
X43644237Y-38195000D01*
X43537685Y-38210320D01*
X43429999Y-38259498D01*
X43429999Y-36590501D01*
X43537685Y-36639680D01*
X43644237Y-36655000D01*
X43715763Y-36655000D01*
X43822315Y-36639680D01*
X43930000Y-36590501D01*
X43930000Y-38259498D01*
G37*
%TD.AperFunction*%
%TA.AperFunction,Conductor*%
G36*
X43930000Y-35719498D02*
G01*
X43822315Y-35670320D01*
X43715763Y-35655000D01*
X43644237Y-35655000D01*
X43537685Y-35670320D01*
X43429999Y-35719498D01*
X43429999Y-34050501D01*
X43537685Y-34099680D01*
X43644237Y-34115000D01*
X43715763Y-34115000D01*
X43822315Y-34099680D01*
X43930000Y-34050501D01*
X43930000Y-35719498D01*
G37*
%TD.AperFunction*%
%TA.AperFunction,Conductor*%
G36*
X84480000Y-106839498D02*
G01*
X84372315Y-106790320D01*
X84265763Y-106775000D01*
X84194237Y-106775000D01*
X84087685Y-106790320D01*
X83979999Y-106839498D01*
X83979999Y-105170501D01*
X84087685Y-105219680D01*
X84194237Y-105235000D01*
X84265763Y-105235000D01*
X84372315Y-105219680D01*
X84480000Y-105170501D01*
X84480000Y-106839498D01*
G37*
%TD.AperFunction*%
%TA.AperFunction,Conductor*%
G36*
X84480000Y-104299498D02*
G01*
X84372315Y-104250320D01*
X84265763Y-104235000D01*
X84194237Y-104235000D01*
X84087685Y-104250320D01*
X83979999Y-104299498D01*
X83979999Y-102630501D01*
X84087685Y-102679680D01*
X84194237Y-102695000D01*
X84265763Y-102695000D01*
X84372315Y-102679680D01*
X84480000Y-102630501D01*
X84480000Y-104299498D01*
G37*
%TD.AperFunction*%
%TA.AperFunction,Conductor*%
G36*
X84480000Y-101759498D02*
G01*
X84372315Y-101710320D01*
X84265763Y-101695000D01*
X84194237Y-101695000D01*
X84087685Y-101710320D01*
X83979999Y-101759498D01*
X83979999Y-100090501D01*
X84087685Y-100139680D01*
X84194237Y-100155000D01*
X84265763Y-100155000D01*
X84372315Y-100139680D01*
X84480000Y-100090501D01*
X84480000Y-101759498D01*
G37*
%TD.AperFunction*%
%TA.AperFunction,Conductor*%
G36*
X84480000Y-99219498D02*
G01*
X84372315Y-99170320D01*
X84265763Y-99155000D01*
X84194237Y-99155000D01*
X84087685Y-99170320D01*
X83979999Y-99219498D01*
X83979999Y-97550501D01*
X84087685Y-97599680D01*
X84194237Y-97615000D01*
X84265763Y-97615000D01*
X84372315Y-97599680D01*
X84480000Y-97550501D01*
X84480000Y-99219498D01*
G37*
%TD.AperFunction*%
%TA.AperFunction,Conductor*%
G36*
X84480000Y-96679498D02*
G01*
X84372315Y-96630320D01*
X84265763Y-96615000D01*
X84194237Y-96615000D01*
X84087685Y-96630320D01*
X83979999Y-96679498D01*
X83979999Y-95010501D01*
X84087685Y-95059680D01*
X84194237Y-95075000D01*
X84265763Y-95075000D01*
X84372315Y-95059680D01*
X84480000Y-95010501D01*
X84480000Y-96679498D01*
G37*
%TD.AperFunction*%
%TA.AperFunction,Conductor*%
G36*
X84480000Y-94139498D02*
G01*
X84372315Y-94090320D01*
X84265763Y-94075000D01*
X84194237Y-94075000D01*
X84087685Y-94090320D01*
X83979999Y-94139498D01*
X83979999Y-92470501D01*
X84087685Y-92519680D01*
X84194237Y-92535000D01*
X84265763Y-92535000D01*
X84372315Y-92519680D01*
X84480000Y-92470501D01*
X84480000Y-94139498D01*
G37*
%TD.AperFunction*%
%TA.AperFunction,Conductor*%
G36*
X84480000Y-91599498D02*
G01*
X84372315Y-91550320D01*
X84265763Y-91535000D01*
X84194237Y-91535000D01*
X84087685Y-91550320D01*
X83979999Y-91599498D01*
X83979999Y-89930501D01*
X84087685Y-89979680D01*
X84194237Y-89995000D01*
X84265763Y-89995000D01*
X84372315Y-89979680D01*
X84480000Y-89930501D01*
X84480000Y-91599498D01*
G37*
%TD.AperFunction*%
%TA.AperFunction,Conductor*%
G36*
X84480000Y-89059498D02*
G01*
X84372315Y-89010320D01*
X84265763Y-88995000D01*
X84194237Y-88995000D01*
X84087685Y-89010320D01*
X83979999Y-89059498D01*
X83979999Y-87390501D01*
X84087685Y-87439680D01*
X84194237Y-87455000D01*
X84265763Y-87455000D01*
X84372315Y-87439680D01*
X84480000Y-87390501D01*
X84480000Y-89059498D01*
G37*
%TD.AperFunction*%
%TA.AperFunction,Conductor*%
G36*
X84480000Y-86519498D02*
G01*
X84372315Y-86470320D01*
X84265763Y-86455000D01*
X84194237Y-86455000D01*
X84087685Y-86470320D01*
X83979999Y-86519498D01*
X83979999Y-84850501D01*
X84087685Y-84899680D01*
X84194237Y-84915000D01*
X84265763Y-84915000D01*
X84372315Y-84899680D01*
X84480000Y-84850501D01*
X84480000Y-86519498D01*
G37*
%TD.AperFunction*%
%TA.AperFunction,Conductor*%
G36*
X84480000Y-83979498D02*
G01*
X84372315Y-83930320D01*
X84265763Y-83915000D01*
X84194237Y-83915000D01*
X84087685Y-83930320D01*
X83979999Y-83979498D01*
X83979999Y-82310501D01*
X84087685Y-82359680D01*
X84194237Y-82375000D01*
X84265763Y-82375000D01*
X84372315Y-82359680D01*
X84480000Y-82310501D01*
X84480000Y-83979498D01*
G37*
%TD.AperFunction*%
%TA.AperFunction,Conductor*%
G36*
X84480000Y-81439498D02*
G01*
X84372315Y-81390320D01*
X84265763Y-81375000D01*
X84194237Y-81375000D01*
X84087685Y-81390320D01*
X83979999Y-81439498D01*
X83979999Y-79770501D01*
X84087685Y-79819680D01*
X84194237Y-79835000D01*
X84265763Y-79835000D01*
X84372315Y-79819680D01*
X84480000Y-79770501D01*
X84480000Y-81439498D01*
G37*
%TD.AperFunction*%
%TA.AperFunction,Conductor*%
G36*
X84480000Y-78899498D02*
G01*
X84372315Y-78850320D01*
X84265763Y-78835000D01*
X84194237Y-78835000D01*
X84087685Y-78850320D01*
X83979999Y-78899498D01*
X83979999Y-77230501D01*
X84087685Y-77279680D01*
X84194237Y-77295000D01*
X84265763Y-77295000D01*
X84372315Y-77279680D01*
X84480000Y-77230501D01*
X84480000Y-78899498D01*
G37*
%TD.AperFunction*%
%TA.AperFunction,Conductor*%
G36*
X84480000Y-76359498D02*
G01*
X84372315Y-76310320D01*
X84265763Y-76295000D01*
X84194237Y-76295000D01*
X84087685Y-76310320D01*
X83979999Y-76359498D01*
X83979999Y-74690501D01*
X84087685Y-74739680D01*
X84194237Y-74755000D01*
X84265763Y-74755000D01*
X84372315Y-74739680D01*
X84480000Y-74690501D01*
X84480000Y-76359498D01*
G37*
%TD.AperFunction*%
%TA.AperFunction,Conductor*%
G36*
X84480000Y-73819498D02*
G01*
X84372315Y-73770320D01*
X84265763Y-73755000D01*
X84194237Y-73755000D01*
X84087685Y-73770320D01*
X83979999Y-73819498D01*
X83979999Y-72150501D01*
X84087685Y-72199680D01*
X84194237Y-72215000D01*
X84265763Y-72215000D01*
X84372315Y-72199680D01*
X84480000Y-72150501D01*
X84480000Y-73819498D01*
G37*
%TD.AperFunction*%
%TA.AperFunction,Conductor*%
G36*
X84480000Y-71279498D02*
G01*
X84372315Y-71230320D01*
X84265763Y-71215000D01*
X84194237Y-71215000D01*
X84087685Y-71230320D01*
X83979999Y-71279498D01*
X83979999Y-69610501D01*
X84087685Y-69659680D01*
X84194237Y-69675000D01*
X84265763Y-69675000D01*
X84372315Y-69659680D01*
X84480000Y-69610501D01*
X84480000Y-71279498D01*
G37*
%TD.AperFunction*%
%TA.AperFunction,Conductor*%
G36*
X84480000Y-68739498D02*
G01*
X84372315Y-68690320D01*
X84265763Y-68675000D01*
X84194237Y-68675000D01*
X84087685Y-68690320D01*
X83979999Y-68739498D01*
X83979999Y-67070501D01*
X84087685Y-67119680D01*
X84194237Y-67135000D01*
X84265763Y-67135000D01*
X84372315Y-67119680D01*
X84480000Y-67070501D01*
X84480000Y-68739498D01*
G37*
%TD.AperFunction*%
%TA.AperFunction,Conductor*%
G36*
X84480000Y-66199498D02*
G01*
X84372315Y-66150320D01*
X84265763Y-66135000D01*
X84194237Y-66135000D01*
X84087685Y-66150320D01*
X83979999Y-66199498D01*
X83979999Y-64530501D01*
X84087685Y-64579680D01*
X84194237Y-64595000D01*
X84265763Y-64595000D01*
X84372315Y-64579680D01*
X84480000Y-64530501D01*
X84480000Y-66199498D01*
G37*
%TD.AperFunction*%
%TA.AperFunction,Conductor*%
G36*
X84480000Y-63659498D02*
G01*
X84372315Y-63610320D01*
X84265763Y-63595000D01*
X84194237Y-63595000D01*
X84087685Y-63610320D01*
X83979999Y-63659498D01*
X83979999Y-61990501D01*
X84087685Y-62039680D01*
X84194237Y-62055000D01*
X84265763Y-62055000D01*
X84372315Y-62039680D01*
X84480000Y-61990501D01*
X84480000Y-63659498D01*
G37*
%TD.AperFunction*%
%TA.AperFunction,Conductor*%
G36*
X84480000Y-61119498D02*
G01*
X84372315Y-61070320D01*
X84265763Y-61055000D01*
X84194237Y-61055000D01*
X84087685Y-61070320D01*
X83979999Y-61119498D01*
X83979999Y-59450501D01*
X84087685Y-59499680D01*
X84194237Y-59515000D01*
X84265763Y-59515000D01*
X84372315Y-59499680D01*
X84480000Y-59450501D01*
X84480000Y-61119498D01*
G37*
%TD.AperFunction*%
%TA.AperFunction,Conductor*%
G36*
X84480000Y-58579498D02*
G01*
X84372315Y-58530320D01*
X84265763Y-58515000D01*
X84194237Y-58515000D01*
X84087685Y-58530320D01*
X83979999Y-58579498D01*
X83979999Y-56910501D01*
X84087685Y-56959680D01*
X84194237Y-56975000D01*
X84265763Y-56975000D01*
X84372315Y-56959680D01*
X84480000Y-56910501D01*
X84480000Y-58579498D01*
G37*
%TD.AperFunction*%
%TA.AperFunction,Conductor*%
G36*
X84480000Y-56039498D02*
G01*
X84372315Y-55990320D01*
X84265763Y-55975000D01*
X84194237Y-55975000D01*
X84087685Y-55990320D01*
X83979999Y-56039498D01*
X83979999Y-54370501D01*
X84087685Y-54419680D01*
X84194237Y-54435000D01*
X84265763Y-54435000D01*
X84372315Y-54419680D01*
X84480000Y-54370501D01*
X84480000Y-56039498D01*
G37*
%TD.AperFunction*%
%TA.AperFunction,Conductor*%
G36*
X84480000Y-53499498D02*
G01*
X84372315Y-53450320D01*
X84265763Y-53435000D01*
X84194237Y-53435000D01*
X84087685Y-53450320D01*
X83979999Y-53499498D01*
X83979999Y-51830501D01*
X84087685Y-51879680D01*
X84194237Y-51895000D01*
X84265763Y-51895000D01*
X84372315Y-51879680D01*
X84480000Y-51830501D01*
X84480000Y-53499498D01*
G37*
%TD.AperFunction*%
%TA.AperFunction,Conductor*%
G36*
X84480000Y-50959498D02*
G01*
X84372315Y-50910320D01*
X84265763Y-50895000D01*
X84194237Y-50895000D01*
X84087685Y-50910320D01*
X83979999Y-50959498D01*
X83979999Y-49290501D01*
X84087685Y-49339680D01*
X84194237Y-49355000D01*
X84265763Y-49355000D01*
X84372315Y-49339680D01*
X84480000Y-49290501D01*
X84480000Y-50959498D01*
G37*
%TD.AperFunction*%
%TA.AperFunction,Conductor*%
G36*
X84480000Y-48419498D02*
G01*
X84372315Y-48370320D01*
X84265763Y-48355000D01*
X84194237Y-48355000D01*
X84087685Y-48370320D01*
X83979999Y-48419498D01*
X83979999Y-46750501D01*
X84087685Y-46799680D01*
X84194237Y-46815000D01*
X84265763Y-46815000D01*
X84372315Y-46799680D01*
X84480000Y-46750501D01*
X84480000Y-48419498D01*
G37*
%TD.AperFunction*%
%TA.AperFunction,Conductor*%
G36*
X84480000Y-45879498D02*
G01*
X84372315Y-45830320D01*
X84265763Y-45815000D01*
X84194237Y-45815000D01*
X84087685Y-45830320D01*
X83979999Y-45879498D01*
X83979999Y-44210501D01*
X84087685Y-44259680D01*
X84194237Y-44275000D01*
X84265763Y-44275000D01*
X84372315Y-44259680D01*
X84480000Y-44210501D01*
X84480000Y-45879498D01*
G37*
%TD.AperFunction*%
%TA.AperFunction,Conductor*%
G36*
X84480000Y-43339498D02*
G01*
X84372315Y-43290320D01*
X84265763Y-43275000D01*
X84194237Y-43275000D01*
X84087685Y-43290320D01*
X83979999Y-43339498D01*
X83979999Y-41670501D01*
X84087685Y-41719680D01*
X84194237Y-41735000D01*
X84265763Y-41735000D01*
X84372315Y-41719680D01*
X84480000Y-41670501D01*
X84480000Y-43339498D01*
G37*
%TD.AperFunction*%
%TA.AperFunction,Conductor*%
G36*
X84480000Y-40799498D02*
G01*
X84372315Y-40750320D01*
X84265763Y-40735000D01*
X84194237Y-40735000D01*
X84087685Y-40750320D01*
X83979999Y-40799498D01*
X83979999Y-39130501D01*
X84087685Y-39179680D01*
X84194237Y-39195000D01*
X84265763Y-39195000D01*
X84372315Y-39179680D01*
X84480000Y-39130501D01*
X84480000Y-40799498D01*
G37*
%TD.AperFunction*%
%TA.AperFunction,Conductor*%
G36*
X84480000Y-38259498D02*
G01*
X84372315Y-38210320D01*
X84265763Y-38195000D01*
X84194237Y-38195000D01*
X84087685Y-38210320D01*
X83979999Y-38259498D01*
X83979999Y-36590501D01*
X84087685Y-36639680D01*
X84194237Y-36655000D01*
X84265763Y-36655000D01*
X84372315Y-36639680D01*
X84480000Y-36590501D01*
X84480000Y-38259498D01*
G37*
%TD.AperFunction*%
%TA.AperFunction,Conductor*%
G36*
X84480000Y-35719498D02*
G01*
X84372315Y-35670320D01*
X84265763Y-35655000D01*
X84194237Y-35655000D01*
X84087685Y-35670320D01*
X83979999Y-35719498D01*
X83979999Y-34050501D01*
X84087685Y-34099680D01*
X84194237Y-34115000D01*
X84265763Y-34115000D01*
X84372315Y-34099680D01*
X84480000Y-34050501D01*
X84480000Y-35719498D01*
G37*
%TD.AperFunction*%
%TA.AperFunction,Conductor*%
G36*
X87624042Y-29850764D02*
G01*
X87703743Y-29855988D01*
X87881590Y-29868709D01*
X87896904Y-29870772D01*
X88009441Y-29893157D01*
X88150277Y-29923794D01*
X88163690Y-29927518D01*
X88277725Y-29966228D01*
X88281074Y-29967420D01*
X88408808Y-30015062D01*
X88420300Y-30020024D01*
X88530687Y-30074461D01*
X88535187Y-30076798D01*
X88652478Y-30140844D01*
X88661942Y-30146574D01*
X88765269Y-30215615D01*
X88770688Y-30219450D01*
X88876727Y-30298830D01*
X88884145Y-30304844D01*
X88977976Y-30387131D01*
X88983898Y-30392678D01*
X89077320Y-30486100D01*
X89082867Y-30492022D01*
X89165150Y-30585848D01*
X89171173Y-30593278D01*
X89208691Y-30643396D01*
X89250548Y-30699310D01*
X89254383Y-30704729D01*
X89323424Y-30808056D01*
X89329154Y-30817520D01*
X89393183Y-30934779D01*
X89395564Y-30939363D01*
X89449969Y-31049687D01*
X89454938Y-31061196D01*
X89502556Y-31188863D01*
X89503793Y-31192338D01*
X89542470Y-31306276D01*
X89546217Y-31319777D01*
X89576847Y-31460580D01*
X89599230Y-31573107D01*
X89601290Y-31588414D01*
X89614017Y-31766350D01*
X89615267Y-31785418D01*
X89619235Y-31845956D01*
X89619500Y-31854051D01*
X89619499Y-109005947D01*
X89619234Y-109014056D01*
X89614022Y-109093572D01*
X89610098Y-109148448D01*
X89601291Y-109271574D01*
X89599225Y-109286916D01*
X89587797Y-109344370D01*
X89576902Y-109399148D01*
X89576851Y-109399402D01*
X89546212Y-109540244D01*
X89542473Y-109553714D01*
X89503793Y-109667660D01*
X89502556Y-109671135D01*
X89454938Y-109798802D01*
X89449969Y-109810311D01*
X89395564Y-109920635D01*
X89393183Y-109925219D01*
X89329154Y-110042478D01*
X89323424Y-110051942D01*
X89254383Y-110155269D01*
X89250548Y-110160688D01*
X89171181Y-110266711D01*
X89165142Y-110274160D01*
X89082867Y-110367976D01*
X89077320Y-110373898D01*
X88983898Y-110467320D01*
X88977976Y-110472867D01*
X88884160Y-110555142D01*
X88876711Y-110561181D01*
X88770688Y-110640548D01*
X88765269Y-110644383D01*
X88661942Y-110713424D01*
X88652478Y-110719154D01*
X88535228Y-110783178D01*
X88530646Y-110785558D01*
X88446182Y-110827212D01*
X88391337Y-110840000D01*
X42108662Y-110840000D01*
X42053818Y-110827212D01*
X41969363Y-110785563D01*
X41964780Y-110783183D01*
X41847520Y-110719154D01*
X41838056Y-110713424D01*
X41734729Y-110644383D01*
X41729310Y-110640548D01*
X41673396Y-110598691D01*
X41623278Y-110561173D01*
X41615848Y-110555150D01*
X41522022Y-110472867D01*
X41516100Y-110467320D01*
X41422678Y-110373898D01*
X41417131Y-110367976D01*
X41385450Y-110331851D01*
X41334844Y-110274145D01*
X41328830Y-110266727D01*
X41249450Y-110160688D01*
X41245615Y-110155269D01*
X41176574Y-110051942D01*
X41170844Y-110042478D01*
X41106798Y-109925187D01*
X41104461Y-109920687D01*
X41050024Y-109810300D01*
X41045060Y-109798802D01*
X40997420Y-109671074D01*
X40996228Y-109667725D01*
X40957522Y-109553703D01*
X40953786Y-109540240D01*
X40923157Y-109399441D01*
X40900767Y-109286879D01*
X40898709Y-109271593D01*
X40885988Y-109093743D01*
X40880765Y-109014041D01*
X40880500Y-109005936D01*
X40880500Y-107525000D01*
X42349364Y-107525000D01*
X42406569Y-107738492D01*
X42506399Y-107952576D01*
X42641893Y-108146081D01*
X42808918Y-108313106D01*
X43002423Y-108448600D01*
X43216509Y-108548430D01*
X43430000Y-108605634D01*
X43430000Y-107710501D01*
X43537685Y-107759680D01*
X43644237Y-107775000D01*
X43715763Y-107775000D01*
X43822315Y-107759680D01*
X43930000Y-107710501D01*
X43930000Y-108605633D01*
X44143490Y-108548430D01*
X44357576Y-108448600D01*
X44551081Y-108313106D01*
X44718109Y-108146078D01*
X44848119Y-107960405D01*
X44902696Y-107916780D01*
X44972194Y-107909586D01*
X45034549Y-107941109D01*
X45051265Y-107960400D01*
X45181505Y-108146401D01*
X45348599Y-108313495D01*
X45542170Y-108449035D01*
X45756337Y-108548903D01*
X45984592Y-108610063D01*
X46220000Y-108630659D01*
X46455408Y-108610063D01*
X46683663Y-108548903D01*
X46897830Y-108449035D01*
X47091401Y-108313495D01*
X47258495Y-108146401D01*
X47394035Y-107952830D01*
X47493903Y-107738663D01*
X47555063Y-107510408D01*
X47575659Y-107275000D01*
X47555063Y-107039592D01*
X47493903Y-106811337D01*
X47394035Y-106597171D01*
X47258495Y-106403599D01*
X47091401Y-106236505D01*
X46905839Y-106106573D01*
X46862216Y-106051998D01*
X46855022Y-105982500D01*
X46886545Y-105920145D01*
X46905837Y-105903428D01*
X47091401Y-105773495D01*
X47258495Y-105606401D01*
X47394035Y-105412830D01*
X47493903Y-105198663D01*
X47555063Y-104970408D01*
X47575659Y-104735000D01*
X47555063Y-104499592D01*
X47493903Y-104271337D01*
X47394035Y-104057171D01*
X47258495Y-103863599D01*
X47091401Y-103696505D01*
X46905839Y-103566573D01*
X46862216Y-103511998D01*
X46855022Y-103442500D01*
X46886545Y-103380145D01*
X46905837Y-103363428D01*
X47091401Y-103233495D01*
X47258495Y-103066401D01*
X47394035Y-102872830D01*
X47493903Y-102658663D01*
X47555063Y-102430408D01*
X47575659Y-102195000D01*
X47555063Y-101959592D01*
X47493903Y-101731337D01*
X47394035Y-101517171D01*
X47258495Y-101323599D01*
X47091401Y-101156505D01*
X46905839Y-101026573D01*
X46862216Y-100971998D01*
X46855022Y-100902500D01*
X46886545Y-100840145D01*
X46905837Y-100823428D01*
X47091401Y-100693495D01*
X47258495Y-100526401D01*
X47394035Y-100332830D01*
X47493903Y-100118663D01*
X47555063Y-99890408D01*
X47575659Y-99655000D01*
X47555063Y-99419592D01*
X47493903Y-99191337D01*
X47394035Y-98977171D01*
X47258495Y-98783599D01*
X47091401Y-98616505D01*
X46905839Y-98486573D01*
X46862216Y-98431998D01*
X46855022Y-98362500D01*
X46886545Y-98300145D01*
X46905837Y-98283428D01*
X47091401Y-98153495D01*
X47258495Y-97986401D01*
X47394035Y-97792830D01*
X47493903Y-97578663D01*
X47555063Y-97350408D01*
X47575659Y-97115000D01*
X47575221Y-97109999D01*
X49879340Y-97109999D01*
X49899936Y-97345407D01*
X49926836Y-97445798D01*
X49961097Y-97573663D01*
X50060965Y-97787830D01*
X50196505Y-97981401D01*
X50363599Y-98148495D01*
X50554160Y-98281927D01*
X50597783Y-98336503D01*
X50604976Y-98406002D01*
X50573454Y-98468356D01*
X50554159Y-98485076D01*
X50373595Y-98611508D01*
X50206505Y-98778598D01*
X50070965Y-98972170D01*
X49971097Y-99186336D01*
X49909936Y-99414592D01*
X49889340Y-99649999D01*
X49909936Y-99885407D01*
X49936836Y-99985798D01*
X49971097Y-100113663D01*
X50070965Y-100327830D01*
X50206505Y-100521401D01*
X50373599Y-100688495D01*
X50559160Y-100818426D01*
X50602783Y-100873002D01*
X50609976Y-100942501D01*
X50578454Y-101004855D01*
X50559159Y-101021575D01*
X50373595Y-101151508D01*
X50206505Y-101318598D01*
X50070965Y-101512170D01*
X49971097Y-101726336D01*
X49909936Y-101954592D01*
X49889340Y-102189999D01*
X49909936Y-102425407D01*
X49936836Y-102525798D01*
X49971097Y-102653663D01*
X50070965Y-102867830D01*
X50206505Y-103061401D01*
X50373599Y-103228495D01*
X50559160Y-103358426D01*
X50602783Y-103413002D01*
X50609976Y-103482501D01*
X50578454Y-103544855D01*
X50559159Y-103561575D01*
X50373595Y-103691508D01*
X50206505Y-103858598D01*
X50070965Y-104052170D01*
X49971097Y-104266336D01*
X49909936Y-104494592D01*
X49889340Y-104730000D01*
X49909936Y-104965407D01*
X49936836Y-105065798D01*
X49971097Y-105193663D01*
X50070965Y-105407830D01*
X50206505Y-105601401D01*
X50373599Y-105768495D01*
X50559160Y-105898426D01*
X50602783Y-105953002D01*
X50609976Y-106022501D01*
X50578454Y-106084855D01*
X50559159Y-106101575D01*
X50373595Y-106231508D01*
X50206505Y-106398598D01*
X50070965Y-106592170D01*
X49971097Y-106806336D01*
X49909936Y-107034592D01*
X49889340Y-107270000D01*
X49909936Y-107505407D01*
X49936836Y-107605798D01*
X49971097Y-107733663D01*
X50070965Y-107947830D01*
X50206505Y-108141401D01*
X50373599Y-108308495D01*
X50567170Y-108444035D01*
X50781337Y-108543903D01*
X51009592Y-108605063D01*
X51245000Y-108625659D01*
X51480408Y-108605063D01*
X51708663Y-108543903D01*
X51922830Y-108444035D01*
X52116401Y-108308495D01*
X52283495Y-108141401D01*
X52413426Y-107955839D01*
X52468002Y-107912217D01*
X52537501Y-107905024D01*
X52599855Y-107936546D01*
X52616571Y-107955837D01*
X52746505Y-108141401D01*
X52913599Y-108308495D01*
X53107170Y-108444035D01*
X53321337Y-108543903D01*
X53549592Y-108605063D01*
X53785000Y-108625659D01*
X54020408Y-108605063D01*
X54248663Y-108543903D01*
X54462830Y-108444035D01*
X54656401Y-108308495D01*
X54823495Y-108141401D01*
X54953426Y-107955839D01*
X55008002Y-107912217D01*
X55077501Y-107905024D01*
X55139855Y-107936546D01*
X55156571Y-107955837D01*
X55286505Y-108141401D01*
X55453599Y-108308495D01*
X55647170Y-108444035D01*
X55861337Y-108543903D01*
X56089592Y-108605063D01*
X56324999Y-108625659D01*
X56324999Y-108625658D01*
X56325000Y-108625659D01*
X56560408Y-108605063D01*
X56788663Y-108543903D01*
X57002830Y-108444035D01*
X57196401Y-108308495D01*
X57363495Y-108141401D01*
X57493427Y-107955838D01*
X57548001Y-107912216D01*
X57617499Y-107905022D01*
X57679854Y-107936545D01*
X57696572Y-107955838D01*
X57826505Y-108141401D01*
X57993599Y-108308495D01*
X58187170Y-108444035D01*
X58401337Y-108543903D01*
X58629591Y-108605063D01*
X58629592Y-108605063D01*
X58864999Y-108625659D01*
X58864999Y-108625658D01*
X58865000Y-108625659D01*
X59100408Y-108605063D01*
X59328663Y-108543903D01*
X59542830Y-108444035D01*
X59736401Y-108308495D01*
X59903495Y-108141401D01*
X60033426Y-107955839D01*
X60088002Y-107912217D01*
X60157501Y-107905024D01*
X60219855Y-107936546D01*
X60236571Y-107955837D01*
X60366505Y-108141401D01*
X60533599Y-108308495D01*
X60727170Y-108444035D01*
X60941337Y-108543903D01*
X61169592Y-108605063D01*
X61405000Y-108625659D01*
X61640408Y-108605063D01*
X61868663Y-108543903D01*
X62082830Y-108444035D01*
X62276401Y-108308495D01*
X62443495Y-108141401D01*
X62579035Y-107947830D01*
X62678903Y-107733663D01*
X62740063Y-107505408D01*
X62747535Y-107420000D01*
X63434389Y-107420000D01*
X63454804Y-107705429D01*
X63515629Y-107985041D01*
X63515631Y-107985046D01*
X63575813Y-108146401D01*
X63615634Y-108253163D01*
X63752772Y-108504313D01*
X63782408Y-108543902D01*
X63924261Y-108733395D01*
X64126605Y-108935739D01*
X64298414Y-109064354D01*
X64355686Y-109107227D01*
X64417757Y-109141120D01*
X64606839Y-109244367D01*
X64874954Y-109344369D01*
X64874957Y-109344369D01*
X64874958Y-109344370D01*
X64927217Y-109355738D01*
X65154572Y-109405196D01*
X65440000Y-109425610D01*
X65725428Y-109405196D01*
X66005046Y-109344369D01*
X66273161Y-109244367D01*
X66524315Y-109107226D01*
X66753395Y-108935739D01*
X66955739Y-108733395D01*
X67127226Y-108504315D01*
X67264367Y-108253161D01*
X67364369Y-107985046D01*
X67425196Y-107705428D01*
X67435445Y-107562122D01*
X67459862Y-107496659D01*
X67515795Y-107454787D01*
X67585487Y-107449803D01*
X67646810Y-107483288D01*
X67678904Y-107538875D01*
X67731097Y-107733664D01*
X67743229Y-107759680D01*
X67830965Y-107947830D01*
X67966505Y-108141401D01*
X68133599Y-108308495D01*
X68327170Y-108444035D01*
X68541337Y-108543903D01*
X68769592Y-108605063D01*
X69005000Y-108625659D01*
X69240408Y-108605063D01*
X69468663Y-108543903D01*
X69682830Y-108444035D01*
X69876401Y-108308495D01*
X70043495Y-108141401D01*
X70173426Y-107955839D01*
X70228002Y-107912216D01*
X70297500Y-107905022D01*
X70359855Y-107936545D01*
X70376571Y-107955837D01*
X70506505Y-108141401D01*
X70673599Y-108308495D01*
X70867170Y-108444035D01*
X71081337Y-108543903D01*
X71309592Y-108605063D01*
X71545000Y-108625659D01*
X71780408Y-108605063D01*
X72008663Y-108543903D01*
X72222830Y-108444035D01*
X72416401Y-108308495D01*
X72583495Y-108141401D01*
X72713426Y-107955839D01*
X72768002Y-107912216D01*
X72837500Y-107905022D01*
X72899855Y-107936545D01*
X72916571Y-107955837D01*
X73046505Y-108141401D01*
X73213599Y-108308495D01*
X73407170Y-108444035D01*
X73621337Y-108543903D01*
X73849592Y-108605063D01*
X74085000Y-108625659D01*
X74320408Y-108605063D01*
X74548663Y-108543903D01*
X74762830Y-108444035D01*
X74956401Y-108308495D01*
X75123495Y-108141401D01*
X75253426Y-107955839D01*
X75308002Y-107912216D01*
X75377500Y-107905022D01*
X75439855Y-107936545D01*
X75456571Y-107955837D01*
X75586505Y-108141401D01*
X75753599Y-108308495D01*
X75947170Y-108444035D01*
X76161337Y-108543903D01*
X76389591Y-108605063D01*
X76389592Y-108605063D01*
X76624999Y-108625659D01*
X76624999Y-108625658D01*
X76625000Y-108625659D01*
X76860408Y-108605063D01*
X77088663Y-108543903D01*
X77302830Y-108444035D01*
X77496401Y-108308495D01*
X77663495Y-108141401D01*
X77793426Y-107955839D01*
X77848002Y-107912216D01*
X77917500Y-107905022D01*
X77979855Y-107936545D01*
X77996571Y-107955837D01*
X78126505Y-108141401D01*
X78293599Y-108308495D01*
X78487170Y-108444035D01*
X78701337Y-108543903D01*
X78929591Y-108605063D01*
X78929592Y-108605063D01*
X79164999Y-108625659D01*
X79164999Y-108625658D01*
X79165000Y-108625659D01*
X79400408Y-108605063D01*
X79628663Y-108543903D01*
X79842830Y-108444035D01*
X80036401Y-108308495D01*
X80203495Y-108141401D01*
X80339035Y-107947830D01*
X80438903Y-107733663D01*
X80494813Y-107525000D01*
X82899364Y-107525000D01*
X82956569Y-107738492D01*
X83056399Y-107952576D01*
X83191893Y-108146081D01*
X83358918Y-108313106D01*
X83552423Y-108448600D01*
X83766509Y-108548430D01*
X83980000Y-108605634D01*
X83980000Y-107710501D01*
X84087685Y-107759680D01*
X84194237Y-107775000D01*
X84265763Y-107775000D01*
X84372315Y-107759680D01*
X84480000Y-107710501D01*
X84480000Y-108605633D01*
X84693490Y-108548430D01*
X84907576Y-108448600D01*
X85101081Y-108313106D01*
X85268109Y-108146078D01*
X85398119Y-107960405D01*
X85452696Y-107916780D01*
X85522194Y-107909586D01*
X85584549Y-107941109D01*
X85601265Y-107960400D01*
X85731505Y-108146401D01*
X85898599Y-108313495D01*
X86092170Y-108449035D01*
X86306337Y-108548903D01*
X86534592Y-108610063D01*
X86770000Y-108630659D01*
X87005408Y-108610063D01*
X87233663Y-108548903D01*
X87447830Y-108449035D01*
X87641401Y-108313495D01*
X87808495Y-108146401D01*
X87944035Y-107952830D01*
X88043903Y-107738663D01*
X88105063Y-107510408D01*
X88125659Y-107275000D01*
X88105063Y-107039592D01*
X88043903Y-106811337D01*
X87944035Y-106597171D01*
X87808495Y-106403599D01*
X87641401Y-106236505D01*
X87455839Y-106106573D01*
X87412216Y-106051998D01*
X87405022Y-105982500D01*
X87436545Y-105920145D01*
X87455837Y-105903428D01*
X87641401Y-105773495D01*
X87808495Y-105606401D01*
X87944035Y-105412830D01*
X88043903Y-105198663D01*
X88105063Y-104970408D01*
X88125659Y-104735000D01*
X88105063Y-104499592D01*
X88043903Y-104271337D01*
X87944035Y-104057171D01*
X87808495Y-103863599D01*
X87641401Y-103696505D01*
X87455839Y-103566573D01*
X87412217Y-103511998D01*
X87405024Y-103442499D01*
X87436546Y-103380145D01*
X87455837Y-103363428D01*
X87641401Y-103233495D01*
X87808495Y-103066401D01*
X87944035Y-102872830D01*
X88043903Y-102658663D01*
X88105063Y-102430408D01*
X88125659Y-102195000D01*
X88105063Y-101959592D01*
X88043903Y-101731337D01*
X87944035Y-101517171D01*
X87808495Y-101323599D01*
X87641401Y-101156505D01*
X87455839Y-101026573D01*
X87412216Y-100971998D01*
X87405022Y-100902500D01*
X87436545Y-100840145D01*
X87455837Y-100823428D01*
X87641401Y-100693495D01*
X87808495Y-100526401D01*
X87944035Y-100332830D01*
X88043903Y-100118663D01*
X88105063Y-99890408D01*
X88125659Y-99655000D01*
X88125221Y-99649999D01*
X88105063Y-99419592D01*
X88101153Y-99404999D01*
X88043903Y-99191337D01*
X87944035Y-98977171D01*
X87808495Y-98783599D01*
X87641401Y-98616505D01*
X87455839Y-98486573D01*
X87412216Y-98431998D01*
X87405022Y-98362500D01*
X87436545Y-98300145D01*
X87455837Y-98283428D01*
X87641401Y-98153495D01*
X87808495Y-97986401D01*
X87944035Y-97792830D01*
X88043903Y-97578663D01*
X88105063Y-97350408D01*
X88125659Y-97115000D01*
X88125221Y-97109999D01*
X88105063Y-96879592D01*
X88101153Y-96864999D01*
X88043903Y-96651337D01*
X87944035Y-96437171D01*
X87808495Y-96243599D01*
X87641401Y-96076505D01*
X87455839Y-95946573D01*
X87412216Y-95891998D01*
X87405022Y-95822500D01*
X87436545Y-95760145D01*
X87455837Y-95743428D01*
X87641401Y-95613495D01*
X87808495Y-95446401D01*
X87944035Y-95252830D01*
X88043903Y-95038663D01*
X88105063Y-94810408D01*
X88125659Y-94575000D01*
X88105063Y-94339592D01*
X88043903Y-94111337D01*
X87944035Y-93897171D01*
X87808495Y-93703599D01*
X87641401Y-93536505D01*
X87455839Y-93406573D01*
X87412217Y-93351998D01*
X87405024Y-93282499D01*
X87436546Y-93220145D01*
X87455837Y-93203428D01*
X87641401Y-93073495D01*
X87808495Y-92906401D01*
X87944035Y-92712830D01*
X88043903Y-92498663D01*
X88105063Y-92270408D01*
X88125659Y-92035000D01*
X88105063Y-91799592D01*
X88043903Y-91571337D01*
X87944035Y-91357171D01*
X87808495Y-91163599D01*
X87641401Y-90996505D01*
X87455839Y-90866573D01*
X87412216Y-90811998D01*
X87405022Y-90742500D01*
X87436545Y-90680145D01*
X87455837Y-90663428D01*
X87641401Y-90533495D01*
X87808495Y-90366401D01*
X87944035Y-90172830D01*
X88043903Y-89958663D01*
X88105063Y-89730408D01*
X88125659Y-89495000D01*
X88105063Y-89259592D01*
X88043903Y-89031337D01*
X87944035Y-88817171D01*
X87808495Y-88623599D01*
X87641401Y-88456505D01*
X87455839Y-88326573D01*
X87412216Y-88271998D01*
X87405022Y-88202500D01*
X87436545Y-88140145D01*
X87455837Y-88123428D01*
X87641401Y-87993495D01*
X87808495Y-87826401D01*
X87944035Y-87632830D01*
X88043903Y-87418663D01*
X88105063Y-87190408D01*
X88125659Y-86955000D01*
X88105063Y-86719592D01*
X88043903Y-86491337D01*
X87944035Y-86277171D01*
X87808495Y-86083599D01*
X87641401Y-85916505D01*
X87455839Y-85786573D01*
X87412216Y-85731998D01*
X87405022Y-85662500D01*
X87436545Y-85600145D01*
X87455837Y-85583428D01*
X87641401Y-85453495D01*
X87808495Y-85286401D01*
X87944035Y-85092830D01*
X88043903Y-84878663D01*
X88105063Y-84650408D01*
X88125659Y-84415000D01*
X88105063Y-84179592D01*
X88043903Y-83951337D01*
X87944035Y-83737171D01*
X87808495Y-83543599D01*
X87641401Y-83376505D01*
X87455839Y-83246573D01*
X87412217Y-83191998D01*
X87405024Y-83122499D01*
X87436546Y-83060145D01*
X87455837Y-83043428D01*
X87641401Y-82913495D01*
X87808495Y-82746401D01*
X87944035Y-82552830D01*
X88043903Y-82338663D01*
X88105063Y-82110408D01*
X88125659Y-81875000D01*
X88105063Y-81639592D01*
X88043903Y-81411337D01*
X87944035Y-81197171D01*
X87808495Y-81003599D01*
X87641401Y-80836505D01*
X87455839Y-80706573D01*
X87412216Y-80651998D01*
X87405022Y-80582500D01*
X87436545Y-80520145D01*
X87455837Y-80503428D01*
X87641401Y-80373495D01*
X87808495Y-80206401D01*
X87944035Y-80012830D01*
X88043903Y-79798663D01*
X88105063Y-79570408D01*
X88125659Y-79335000D01*
X88105063Y-79099592D01*
X88043903Y-78871337D01*
X87944035Y-78657171D01*
X87808495Y-78463599D01*
X87641401Y-78296505D01*
X87455839Y-78166573D01*
X87412216Y-78111998D01*
X87405022Y-78042500D01*
X87436545Y-77980145D01*
X87455837Y-77963428D01*
X87641401Y-77833495D01*
X87808495Y-77666401D01*
X87944035Y-77472830D01*
X88043903Y-77258663D01*
X88105063Y-77030408D01*
X88125659Y-76795000D01*
X88125221Y-76789999D01*
X88105063Y-76559592D01*
X88101153Y-76544999D01*
X88043903Y-76331337D01*
X87944035Y-76117171D01*
X87808495Y-75923599D01*
X87641401Y-75756505D01*
X87455839Y-75626573D01*
X87412216Y-75571998D01*
X87405022Y-75502500D01*
X87436545Y-75440145D01*
X87455837Y-75423428D01*
X87641401Y-75293495D01*
X87808495Y-75126401D01*
X87944035Y-74932830D01*
X88043903Y-74718663D01*
X88105063Y-74490408D01*
X88125659Y-74255000D01*
X88105063Y-74019592D01*
X88043903Y-73791337D01*
X87944035Y-73577171D01*
X87808495Y-73383599D01*
X87641401Y-73216505D01*
X87455839Y-73086573D01*
X87412217Y-73031998D01*
X87405024Y-72962499D01*
X87436546Y-72900145D01*
X87455837Y-72883428D01*
X87641401Y-72753495D01*
X87808495Y-72586401D01*
X87944035Y-72392830D01*
X88043903Y-72178663D01*
X88105063Y-71950408D01*
X88125659Y-71715000D01*
X88105063Y-71479592D01*
X88043903Y-71251337D01*
X87944035Y-71037171D01*
X87808495Y-70843599D01*
X87641401Y-70676505D01*
X87455839Y-70546573D01*
X87412216Y-70491998D01*
X87405022Y-70422500D01*
X87436545Y-70360145D01*
X87455837Y-70343428D01*
X87641401Y-70213495D01*
X87808495Y-70046401D01*
X87944035Y-69852830D01*
X88043903Y-69638663D01*
X88105063Y-69410408D01*
X88125659Y-69175000D01*
X88105063Y-68939592D01*
X88043903Y-68711337D01*
X87944035Y-68497171D01*
X87808495Y-68303599D01*
X87641401Y-68136505D01*
X87455839Y-68006573D01*
X87412216Y-67951998D01*
X87405022Y-67882500D01*
X87436545Y-67820145D01*
X87455837Y-67803428D01*
X87641401Y-67673495D01*
X87808495Y-67506401D01*
X87944035Y-67312830D01*
X88043903Y-67098663D01*
X88105063Y-66870408D01*
X88125659Y-66635000D01*
X88105063Y-66399592D01*
X88043903Y-66171337D01*
X87944035Y-65957171D01*
X87808495Y-65763599D01*
X87641401Y-65596505D01*
X87455839Y-65466573D01*
X87412216Y-65411998D01*
X87405022Y-65342500D01*
X87436545Y-65280145D01*
X87455837Y-65263428D01*
X87641401Y-65133495D01*
X87808495Y-64966401D01*
X87944035Y-64772830D01*
X88043903Y-64558663D01*
X88105063Y-64330408D01*
X88125659Y-64095000D01*
X88105063Y-63859592D01*
X88043903Y-63631337D01*
X87944035Y-63417171D01*
X87808495Y-63223599D01*
X87641401Y-63056505D01*
X87455839Y-62926573D01*
X87412216Y-62871998D01*
X87405022Y-62802500D01*
X87436545Y-62740145D01*
X87455837Y-62723428D01*
X87641401Y-62593495D01*
X87808495Y-62426401D01*
X87944035Y-62232830D01*
X88043903Y-62018663D01*
X88105063Y-61790408D01*
X88125659Y-61555000D01*
X88105063Y-61319592D01*
X88043903Y-61091337D01*
X87944035Y-60877171D01*
X87808495Y-60683599D01*
X87641401Y-60516505D01*
X87455839Y-60386573D01*
X87412216Y-60331998D01*
X87405022Y-60262500D01*
X87436545Y-60200145D01*
X87455837Y-60183428D01*
X87641401Y-60053495D01*
X87808495Y-59886401D01*
X87944035Y-59692830D01*
X88043903Y-59478663D01*
X88105063Y-59250408D01*
X88125659Y-59015000D01*
X88105063Y-58779592D01*
X88043903Y-58551337D01*
X87944035Y-58337171D01*
X87808495Y-58143599D01*
X87641401Y-57976505D01*
X87455839Y-57846573D01*
X87412216Y-57791998D01*
X87405022Y-57722500D01*
X87436545Y-57660145D01*
X87455837Y-57643428D01*
X87641401Y-57513495D01*
X87808495Y-57346401D01*
X87944035Y-57152830D01*
X88043903Y-56938663D01*
X88105063Y-56710408D01*
X88125659Y-56475000D01*
X88125221Y-56469999D01*
X88105063Y-56239592D01*
X88101153Y-56224999D01*
X88043903Y-56011337D01*
X87944035Y-55797171D01*
X87808495Y-55603599D01*
X87641401Y-55436505D01*
X87455839Y-55306573D01*
X87412216Y-55251998D01*
X87405022Y-55182500D01*
X87436545Y-55120145D01*
X87455837Y-55103428D01*
X87641401Y-54973495D01*
X87808495Y-54806401D01*
X87944035Y-54612830D01*
X88043903Y-54398663D01*
X88105063Y-54170408D01*
X88125659Y-53935000D01*
X88105063Y-53699592D01*
X88043903Y-53471337D01*
X87944035Y-53257171D01*
X87808495Y-53063599D01*
X87641401Y-52896505D01*
X87455839Y-52766573D01*
X87412216Y-52711998D01*
X87405022Y-52642500D01*
X87436545Y-52580145D01*
X87455837Y-52563428D01*
X87641401Y-52433495D01*
X87808495Y-52266401D01*
X87944035Y-52072830D01*
X88043903Y-51858663D01*
X88105063Y-51630408D01*
X88125659Y-51395000D01*
X88125221Y-51389999D01*
X88105063Y-51159592D01*
X88101153Y-51144999D01*
X88043903Y-50931337D01*
X87944035Y-50717171D01*
X87808495Y-50523599D01*
X87641401Y-50356505D01*
X87455839Y-50226573D01*
X87412216Y-50171998D01*
X87405022Y-50102500D01*
X87436545Y-50040145D01*
X87455837Y-50023428D01*
X87641401Y-49893495D01*
X87808495Y-49726401D01*
X87944035Y-49532830D01*
X88043903Y-49318663D01*
X88105063Y-49090408D01*
X88125659Y-48855000D01*
X88105063Y-48619592D01*
X88043903Y-48391337D01*
X87944035Y-48177171D01*
X87808495Y-47983599D01*
X87641401Y-47816505D01*
X87455839Y-47686573D01*
X87412216Y-47631998D01*
X87405022Y-47562500D01*
X87436545Y-47500145D01*
X87455837Y-47483428D01*
X87641401Y-47353495D01*
X87808495Y-47186401D01*
X87944035Y-46992830D01*
X88043903Y-46778663D01*
X88105063Y-46550408D01*
X88125659Y-46315000D01*
X88105063Y-46079592D01*
X88043903Y-45851337D01*
X87944035Y-45637171D01*
X87808495Y-45443599D01*
X87641401Y-45276505D01*
X87455839Y-45146573D01*
X87412216Y-45091998D01*
X87405022Y-45022500D01*
X87436545Y-44960145D01*
X87455837Y-44943428D01*
X87641401Y-44813495D01*
X87808495Y-44646401D01*
X87944035Y-44452830D01*
X88043903Y-44238663D01*
X88105063Y-44010408D01*
X88125659Y-43775000D01*
X88105063Y-43539592D01*
X88043903Y-43311337D01*
X87944035Y-43097171D01*
X87808495Y-42903599D01*
X87641401Y-42736505D01*
X87455839Y-42606573D01*
X87412216Y-42551998D01*
X87405022Y-42482500D01*
X87436545Y-42420145D01*
X87455837Y-42403428D01*
X87641401Y-42273495D01*
X87808495Y-42106401D01*
X87944035Y-41912830D01*
X88043903Y-41698663D01*
X88105063Y-41470408D01*
X88125659Y-41235000D01*
X88105063Y-40999592D01*
X88043903Y-40771337D01*
X87944035Y-40557171D01*
X87808495Y-40363599D01*
X87641401Y-40196505D01*
X87455839Y-40066573D01*
X87412216Y-40011998D01*
X87405022Y-39942500D01*
X87436545Y-39880145D01*
X87455837Y-39863428D01*
X87641401Y-39733495D01*
X87808495Y-39566401D01*
X87944035Y-39372830D01*
X88043903Y-39158663D01*
X88105063Y-38930408D01*
X88125659Y-38695000D01*
X88105063Y-38459592D01*
X88043903Y-38231337D01*
X87944035Y-38017171D01*
X87808495Y-37823599D01*
X87641401Y-37656505D01*
X87455839Y-37526573D01*
X87412216Y-37471998D01*
X87405022Y-37402500D01*
X87436545Y-37340145D01*
X87455837Y-37323428D01*
X87641401Y-37193495D01*
X87808495Y-37026401D01*
X87944035Y-36832830D01*
X88043903Y-36618663D01*
X88105063Y-36390408D01*
X88125659Y-36155000D01*
X88105063Y-35919592D01*
X88043903Y-35691337D01*
X87944035Y-35477171D01*
X87808495Y-35283599D01*
X87686569Y-35161673D01*
X87653084Y-35100350D01*
X87658068Y-35030658D01*
X87699940Y-34974725D01*
X87730915Y-34957810D01*
X87862331Y-34908796D01*
X87977546Y-34822546D01*
X88063796Y-34707331D01*
X88114091Y-34572483D01*
X88120500Y-34512873D01*
X88120499Y-32717128D01*
X88114091Y-32657517D01*
X88063796Y-32522669D01*
X87977546Y-32407454D01*
X87862331Y-32321204D01*
X87727483Y-32270909D01*
X87667873Y-32264500D01*
X87664550Y-32264500D01*
X85875439Y-32264500D01*
X85875420Y-32264500D01*
X85872128Y-32264501D01*
X85868848Y-32264853D01*
X85868840Y-32264854D01*
X85812515Y-32270909D01*
X85677669Y-32321204D01*
X85562454Y-32407454D01*
X85476204Y-32522669D01*
X85426997Y-32654599D01*
X85385125Y-32710532D01*
X85319661Y-32734949D01*
X85251388Y-32720097D01*
X85223134Y-32698946D01*
X85101081Y-32576893D01*
X84907576Y-32441399D01*
X84693492Y-32341569D01*
X84480000Y-32284364D01*
X84480000Y-33179498D01*
X84372315Y-33130320D01*
X84265763Y-33115000D01*
X84194237Y-33115000D01*
X84087685Y-33130320D01*
X83980000Y-33179498D01*
X83980000Y-32284364D01*
X83979999Y-32284364D01*
X83766507Y-32341569D01*
X83552421Y-32441400D01*
X83358921Y-32576890D01*
X83191890Y-32743921D01*
X83056400Y-32937421D01*
X82956569Y-33151507D01*
X82899364Y-33364999D01*
X82899364Y-33365000D01*
X83796314Y-33365000D01*
X83770507Y-33405156D01*
X83730000Y-33543111D01*
X83730000Y-33686889D01*
X83770507Y-33824844D01*
X83796314Y-33865000D01*
X82899364Y-33865000D01*
X82956569Y-34078492D01*
X83056399Y-34292576D01*
X83191893Y-34486081D01*
X83358918Y-34653106D01*
X83545031Y-34783425D01*
X83588656Y-34838002D01*
X83595848Y-34907501D01*
X83564326Y-34969855D01*
X83545031Y-34986575D01*
X83358918Y-35116893D01*
X83191890Y-35283921D01*
X83056400Y-35477421D01*
X82956569Y-35691507D01*
X82899364Y-35904999D01*
X82899364Y-35905000D01*
X83796314Y-35905000D01*
X83770507Y-35945156D01*
X83730000Y-36083111D01*
X83730000Y-36226889D01*
X83770507Y-36364844D01*
X83796314Y-36405000D01*
X82899364Y-36405000D01*
X82956569Y-36618492D01*
X83056399Y-36832576D01*
X83191893Y-37026081D01*
X83358918Y-37193106D01*
X83545031Y-37323425D01*
X83588656Y-37378002D01*
X83595848Y-37447501D01*
X83564326Y-37509855D01*
X83545031Y-37526575D01*
X83358918Y-37656893D01*
X83191890Y-37823921D01*
X83056400Y-38017421D01*
X82956569Y-38231507D01*
X82899364Y-38444999D01*
X82899364Y-38445000D01*
X83796314Y-38445000D01*
X83770507Y-38485156D01*
X83730000Y-38623111D01*
X83730000Y-38766889D01*
X83770507Y-38904844D01*
X83796314Y-38945000D01*
X82899364Y-38945000D01*
X82956569Y-39158492D01*
X83056399Y-39372576D01*
X83191893Y-39566081D01*
X83358918Y-39733106D01*
X83545031Y-39863425D01*
X83588656Y-39918002D01*
X83595848Y-39987501D01*
X83564326Y-40049855D01*
X83545031Y-40066575D01*
X83358918Y-40196893D01*
X83191890Y-40363921D01*
X83056400Y-40557421D01*
X82956569Y-40771507D01*
X82899364Y-40984999D01*
X82899364Y-40985000D01*
X83796314Y-40985000D01*
X83770507Y-41025156D01*
X83730000Y-41163111D01*
X83730000Y-41306889D01*
X83770507Y-41444844D01*
X83796314Y-41485000D01*
X82899364Y-41485000D01*
X82956569Y-41698492D01*
X83056399Y-41912576D01*
X83191893Y-42106081D01*
X83358918Y-42273106D01*
X83545031Y-42403425D01*
X83588656Y-42458002D01*
X83595848Y-42527501D01*
X83564326Y-42589855D01*
X83545031Y-42606575D01*
X83358918Y-42736893D01*
X83191890Y-42903921D01*
X83056400Y-43097421D01*
X82956569Y-43311507D01*
X82899364Y-43524999D01*
X82899364Y-43525000D01*
X83796314Y-43525000D01*
X83770507Y-43565156D01*
X83730000Y-43703111D01*
X83730000Y-43846889D01*
X83770507Y-43984844D01*
X83796314Y-44025000D01*
X82899364Y-44025000D01*
X82956569Y-44238492D01*
X83056399Y-44452576D01*
X83191893Y-44646081D01*
X83358918Y-44813106D01*
X83545031Y-44943425D01*
X83588656Y-44998002D01*
X83595848Y-45067501D01*
X83564326Y-45129855D01*
X83545031Y-45146575D01*
X83358918Y-45276893D01*
X83191890Y-45443921D01*
X83056400Y-45637421D01*
X82956569Y-45851507D01*
X82899364Y-46064999D01*
X82899364Y-46065000D01*
X83796314Y-46065000D01*
X83770507Y-46105156D01*
X83730000Y-46243111D01*
X83730000Y-46386889D01*
X83770507Y-46524844D01*
X83796314Y-46565000D01*
X82899364Y-46565000D01*
X82956569Y-46778492D01*
X83056399Y-46992576D01*
X83191893Y-47186081D01*
X83358918Y-47353106D01*
X83545031Y-47483425D01*
X83588656Y-47538002D01*
X83595848Y-47607501D01*
X83564326Y-47669855D01*
X83545031Y-47686575D01*
X83358918Y-47816893D01*
X83191890Y-47983921D01*
X83056400Y-48177421D01*
X82956569Y-48391507D01*
X82899364Y-48604999D01*
X82899364Y-48605000D01*
X83796314Y-48605000D01*
X83770507Y-48645156D01*
X83730000Y-48783111D01*
X83730000Y-48926889D01*
X83770507Y-49064844D01*
X83796314Y-49105000D01*
X82899364Y-49105000D01*
X82956569Y-49318492D01*
X83056399Y-49532576D01*
X83191893Y-49726081D01*
X83358918Y-49893106D01*
X83545031Y-50023425D01*
X83588656Y-50078002D01*
X83595848Y-50147501D01*
X83564326Y-50209855D01*
X83545031Y-50226575D01*
X83358918Y-50356893D01*
X83191890Y-50523921D01*
X83056400Y-50717421D01*
X82956569Y-50931507D01*
X82899364Y-51144999D01*
X82899364Y-51145000D01*
X83796314Y-51145000D01*
X83770507Y-51185156D01*
X83730000Y-51323111D01*
X83730000Y-51466889D01*
X83770507Y-51604844D01*
X83796314Y-51645000D01*
X82899364Y-51645000D01*
X82956569Y-51858492D01*
X83056399Y-52072576D01*
X83191893Y-52266081D01*
X83358918Y-52433106D01*
X83545031Y-52563425D01*
X83588656Y-52618002D01*
X83595848Y-52687501D01*
X83564326Y-52749855D01*
X83545031Y-52766575D01*
X83358918Y-52896893D01*
X83191890Y-53063921D01*
X83056400Y-53257421D01*
X82956569Y-53471507D01*
X82899364Y-53684999D01*
X82899364Y-53685000D01*
X83796314Y-53685000D01*
X83770507Y-53725156D01*
X83730000Y-53863111D01*
X83730000Y-54006889D01*
X83770507Y-54144844D01*
X83796314Y-54185000D01*
X82899364Y-54185000D01*
X82956569Y-54398492D01*
X83056399Y-54612576D01*
X83191893Y-54806081D01*
X83358918Y-54973106D01*
X83545031Y-55103425D01*
X83588656Y-55158002D01*
X83595848Y-55227501D01*
X83564326Y-55289855D01*
X83545031Y-55306575D01*
X83358918Y-55436893D01*
X83191890Y-55603921D01*
X83056400Y-55797421D01*
X82956569Y-56011507D01*
X82899364Y-56224999D01*
X82899364Y-56225000D01*
X83796314Y-56225000D01*
X83770507Y-56265156D01*
X83730000Y-56403111D01*
X83730000Y-56546889D01*
X83770507Y-56684844D01*
X83796314Y-56725000D01*
X82899364Y-56725000D01*
X82956569Y-56938492D01*
X83056399Y-57152576D01*
X83191893Y-57346081D01*
X83358918Y-57513106D01*
X83545031Y-57643425D01*
X83588656Y-57698002D01*
X83595848Y-57767501D01*
X83564326Y-57829855D01*
X83545031Y-57846575D01*
X83358918Y-57976893D01*
X83191890Y-58143921D01*
X83056400Y-58337421D01*
X82956569Y-58551507D01*
X82899364Y-58764999D01*
X82899364Y-58765000D01*
X83796314Y-58765000D01*
X83770507Y-58805156D01*
X83730000Y-58943111D01*
X83730000Y-59086889D01*
X83770507Y-59224844D01*
X83796314Y-59265000D01*
X82899364Y-59265000D01*
X82956569Y-59478492D01*
X83056399Y-59692576D01*
X83191893Y-59886081D01*
X83358918Y-60053106D01*
X83545031Y-60183425D01*
X83588656Y-60238002D01*
X83595848Y-60307501D01*
X83564326Y-60369855D01*
X83545031Y-60386575D01*
X83358918Y-60516893D01*
X83191890Y-60683921D01*
X83056400Y-60877421D01*
X82956569Y-61091507D01*
X82899364Y-61304999D01*
X82899364Y-61305000D01*
X83796314Y-61305000D01*
X83770507Y-61345156D01*
X83730000Y-61483111D01*
X83730000Y-61626889D01*
X83770507Y-61764844D01*
X83796314Y-61805000D01*
X82899364Y-61805000D01*
X82956569Y-62018492D01*
X83056399Y-62232576D01*
X83191893Y-62426081D01*
X83358918Y-62593106D01*
X83545031Y-62723425D01*
X83588656Y-62778002D01*
X83595848Y-62847501D01*
X83564326Y-62909855D01*
X83545031Y-62926575D01*
X83358918Y-63056893D01*
X83191890Y-63223921D01*
X83056400Y-63417421D01*
X82956569Y-63631507D01*
X82899364Y-63844999D01*
X82899364Y-63845000D01*
X83796314Y-63845000D01*
X83770507Y-63885156D01*
X83730000Y-64023111D01*
X83730000Y-64166889D01*
X83770507Y-64304844D01*
X83796314Y-64345000D01*
X82899364Y-64345000D01*
X82956569Y-64558492D01*
X83056399Y-64772576D01*
X83191893Y-64966081D01*
X83358918Y-65133106D01*
X83545031Y-65263425D01*
X83588656Y-65318002D01*
X83595848Y-65387501D01*
X83564326Y-65449855D01*
X83545031Y-65466575D01*
X83358918Y-65596893D01*
X83191890Y-65763921D01*
X83056400Y-65957421D01*
X82956569Y-66171507D01*
X82899364Y-66384999D01*
X82899364Y-66385000D01*
X83796314Y-66385000D01*
X83770507Y-66425156D01*
X83730000Y-66563111D01*
X83730000Y-66706889D01*
X83770507Y-66844844D01*
X83796314Y-66885000D01*
X82899364Y-66885000D01*
X82956569Y-67098492D01*
X83056399Y-67312576D01*
X83191893Y-67506081D01*
X83358918Y-67673106D01*
X83545031Y-67803425D01*
X83588656Y-67858002D01*
X83595848Y-67927501D01*
X83564326Y-67989855D01*
X83545031Y-68006575D01*
X83358918Y-68136893D01*
X83191890Y-68303921D01*
X83056400Y-68497421D01*
X82956569Y-68711507D01*
X82899364Y-68924999D01*
X82899364Y-68925000D01*
X83796314Y-68925000D01*
X83770507Y-68965156D01*
X83730000Y-69103111D01*
X83730000Y-69246889D01*
X83770507Y-69384844D01*
X83796314Y-69425000D01*
X82899364Y-69425000D01*
X82956569Y-69638492D01*
X83056399Y-69852576D01*
X83191893Y-70046081D01*
X83358918Y-70213106D01*
X83545031Y-70343425D01*
X83588656Y-70398002D01*
X83595848Y-70467501D01*
X83564326Y-70529855D01*
X83545031Y-70546575D01*
X83358918Y-70676893D01*
X83191890Y-70843921D01*
X83056400Y-71037421D01*
X82956569Y-71251507D01*
X82899364Y-71464999D01*
X82899364Y-71465000D01*
X83796314Y-71465000D01*
X83770507Y-71505156D01*
X83730000Y-71643111D01*
X83730000Y-71786889D01*
X83770507Y-71924844D01*
X83796314Y-71965000D01*
X82899364Y-71965000D01*
X82956569Y-72178492D01*
X83056399Y-72392576D01*
X83191893Y-72586081D01*
X83358918Y-72753106D01*
X83545031Y-72883425D01*
X83588656Y-72938002D01*
X83595848Y-73007501D01*
X83564326Y-73069855D01*
X83545031Y-73086575D01*
X83358918Y-73216893D01*
X83191890Y-73383921D01*
X83056400Y-73577421D01*
X82956569Y-73791507D01*
X82899364Y-74004999D01*
X82899364Y-74005000D01*
X83796314Y-74005000D01*
X83770507Y-74045156D01*
X83730000Y-74183111D01*
X83730000Y-74326889D01*
X83770507Y-74464844D01*
X83796314Y-74505000D01*
X82899364Y-74505000D01*
X82956569Y-74718492D01*
X83056399Y-74932576D01*
X83191893Y-75126081D01*
X83358918Y-75293106D01*
X83545031Y-75423425D01*
X83588656Y-75478002D01*
X83595848Y-75547501D01*
X83564326Y-75609855D01*
X83545031Y-75626575D01*
X83358918Y-75756893D01*
X83191890Y-75923921D01*
X83056400Y-76117421D01*
X82956569Y-76331507D01*
X82899364Y-76544999D01*
X82899364Y-76545000D01*
X83796314Y-76545000D01*
X83770507Y-76585156D01*
X83730000Y-76723111D01*
X83730000Y-76866889D01*
X83770507Y-77004844D01*
X83796314Y-77045000D01*
X82899364Y-77045000D01*
X82956569Y-77258492D01*
X83056399Y-77472576D01*
X83191893Y-77666081D01*
X83358918Y-77833106D01*
X83545031Y-77963425D01*
X83588656Y-78018002D01*
X83595848Y-78087501D01*
X83564326Y-78149855D01*
X83545031Y-78166575D01*
X83358918Y-78296893D01*
X83191890Y-78463921D01*
X83056400Y-78657421D01*
X82956569Y-78871507D01*
X82899364Y-79084999D01*
X82899364Y-79085000D01*
X83796314Y-79085000D01*
X83770507Y-79125156D01*
X83730000Y-79263111D01*
X83730000Y-79406889D01*
X83770507Y-79544844D01*
X83796314Y-79585000D01*
X82899364Y-79585000D01*
X82956569Y-79798492D01*
X83056399Y-80012576D01*
X83191893Y-80206081D01*
X83358918Y-80373106D01*
X83545031Y-80503425D01*
X83588656Y-80558002D01*
X83595848Y-80627501D01*
X83564326Y-80689855D01*
X83545031Y-80706575D01*
X83358918Y-80836893D01*
X83191890Y-81003921D01*
X83056400Y-81197421D01*
X82956569Y-81411507D01*
X82899364Y-81624999D01*
X82899364Y-81625000D01*
X83796314Y-81625000D01*
X83770507Y-81665156D01*
X83730000Y-81803111D01*
X83730000Y-81946889D01*
X83770507Y-82084844D01*
X83796314Y-82125000D01*
X82899364Y-82125000D01*
X82956569Y-82338492D01*
X83056399Y-82552576D01*
X83191893Y-82746081D01*
X83358918Y-82913106D01*
X83545031Y-83043425D01*
X83588656Y-83098002D01*
X83595848Y-83167501D01*
X83564326Y-83229855D01*
X83545031Y-83246575D01*
X83358918Y-83376893D01*
X83191890Y-83543921D01*
X83056400Y-83737421D01*
X82956569Y-83951507D01*
X82899364Y-84164999D01*
X82899364Y-84165000D01*
X83796314Y-84165000D01*
X83770507Y-84205156D01*
X83730000Y-84343111D01*
X83730000Y-84486889D01*
X83770507Y-84624844D01*
X83796314Y-84665000D01*
X82899364Y-84665000D01*
X82956569Y-84878492D01*
X83056399Y-85092576D01*
X83191893Y-85286081D01*
X83358918Y-85453106D01*
X83545031Y-85583425D01*
X83588656Y-85638002D01*
X83595848Y-85707501D01*
X83564326Y-85769855D01*
X83545031Y-85786575D01*
X83358918Y-85916893D01*
X83191890Y-86083921D01*
X83056400Y-86277421D01*
X82956569Y-86491507D01*
X82899364Y-86704999D01*
X82899364Y-86705000D01*
X83796314Y-86705000D01*
X83770507Y-86745156D01*
X83730000Y-86883111D01*
X83730000Y-87026889D01*
X83770507Y-87164844D01*
X83796314Y-87205000D01*
X82899364Y-87205000D01*
X82956569Y-87418492D01*
X83056399Y-87632576D01*
X83191893Y-87826081D01*
X83358918Y-87993106D01*
X83545031Y-88123425D01*
X83588656Y-88178002D01*
X83595848Y-88247501D01*
X83564326Y-88309855D01*
X83545031Y-88326575D01*
X83358918Y-88456893D01*
X83191890Y-88623921D01*
X83056400Y-88817421D01*
X82956569Y-89031507D01*
X82899364Y-89244999D01*
X82899364Y-89245000D01*
X83796314Y-89245000D01*
X83770507Y-89285156D01*
X83730000Y-89423111D01*
X83730000Y-89566889D01*
X83770507Y-89704844D01*
X83796314Y-89745000D01*
X82899364Y-89745000D01*
X82956569Y-89958492D01*
X83056399Y-90172576D01*
X83191893Y-90366081D01*
X83358918Y-90533106D01*
X83545031Y-90663425D01*
X83588656Y-90718002D01*
X83595848Y-90787501D01*
X83564326Y-90849855D01*
X83545031Y-90866575D01*
X83358918Y-90996893D01*
X83191890Y-91163921D01*
X83056400Y-91357421D01*
X82956569Y-91571507D01*
X82899364Y-91784999D01*
X82899364Y-91785000D01*
X83796314Y-91785000D01*
X83770507Y-91825156D01*
X83730000Y-91963111D01*
X83730000Y-92106889D01*
X83770507Y-92244844D01*
X83796314Y-92285000D01*
X82899364Y-92285000D01*
X82956569Y-92498492D01*
X83056399Y-92712576D01*
X83191893Y-92906081D01*
X83358918Y-93073106D01*
X83545031Y-93203425D01*
X83588656Y-93258002D01*
X83595848Y-93327501D01*
X83564326Y-93389855D01*
X83545031Y-93406575D01*
X83358918Y-93536893D01*
X83191890Y-93703921D01*
X83056400Y-93897421D01*
X82956569Y-94111507D01*
X82899364Y-94324999D01*
X82899364Y-94325000D01*
X83796314Y-94325000D01*
X83770507Y-94365156D01*
X83730000Y-94503111D01*
X83730000Y-94646889D01*
X83770507Y-94784844D01*
X83796314Y-94825000D01*
X82899364Y-94825000D01*
X82956569Y-95038492D01*
X83056399Y-95252576D01*
X83191893Y-95446081D01*
X83358918Y-95613106D01*
X83545031Y-95743425D01*
X83588656Y-95798002D01*
X83595848Y-95867501D01*
X83564326Y-95929855D01*
X83545031Y-95946575D01*
X83358918Y-96076893D01*
X83191890Y-96243921D01*
X83056400Y-96437421D01*
X82956569Y-96651507D01*
X82899364Y-96864999D01*
X82899364Y-96865000D01*
X83796314Y-96865000D01*
X83770507Y-96905156D01*
X83730000Y-97043111D01*
X83730000Y-97186889D01*
X83770507Y-97324844D01*
X83796314Y-97365000D01*
X82899364Y-97365000D01*
X82956569Y-97578492D01*
X83056399Y-97792576D01*
X83191893Y-97986081D01*
X83358918Y-98153106D01*
X83545031Y-98283425D01*
X83588656Y-98338002D01*
X83595848Y-98407501D01*
X83564326Y-98469855D01*
X83545031Y-98486575D01*
X83358918Y-98616893D01*
X83191890Y-98783921D01*
X83056400Y-98977421D01*
X82956569Y-99191507D01*
X82899364Y-99404999D01*
X82899364Y-99405000D01*
X83796314Y-99405000D01*
X83770507Y-99445156D01*
X83730000Y-99583111D01*
X83730000Y-99726889D01*
X83770507Y-99864844D01*
X83796314Y-99905000D01*
X82899364Y-99905000D01*
X82956569Y-100118492D01*
X83056399Y-100332576D01*
X83191893Y-100526081D01*
X83358918Y-100693106D01*
X83545031Y-100823425D01*
X83588656Y-100878002D01*
X83595848Y-100947501D01*
X83564326Y-101009855D01*
X83545031Y-101026575D01*
X83358918Y-101156893D01*
X83191890Y-101323921D01*
X83056400Y-101517421D01*
X82956569Y-101731507D01*
X82899364Y-101944999D01*
X82899364Y-101945000D01*
X83796314Y-101945000D01*
X83770507Y-101985156D01*
X83730000Y-102123111D01*
X83730000Y-102266889D01*
X83770507Y-102404844D01*
X83796314Y-102445000D01*
X82899364Y-102445000D01*
X82956569Y-102658492D01*
X83056399Y-102872576D01*
X83191893Y-103066081D01*
X83358918Y-103233106D01*
X83545031Y-103363425D01*
X83588656Y-103418002D01*
X83595848Y-103487501D01*
X83564326Y-103549855D01*
X83545031Y-103566575D01*
X83358918Y-103696893D01*
X83191890Y-103863921D01*
X83056400Y-104057421D01*
X82956569Y-104271507D01*
X82899364Y-104484999D01*
X82899364Y-104485000D01*
X83796314Y-104485000D01*
X83770507Y-104525156D01*
X83730000Y-104663111D01*
X83730000Y-104806889D01*
X83770507Y-104944844D01*
X83796314Y-104985000D01*
X82899364Y-104985000D01*
X82956569Y-105198492D01*
X83056399Y-105412576D01*
X83191893Y-105606081D01*
X83358918Y-105773106D01*
X83545031Y-105903425D01*
X83588656Y-105958002D01*
X83595848Y-106027501D01*
X83564326Y-106089855D01*
X83545031Y-106106575D01*
X83358918Y-106236893D01*
X83191890Y-106403921D01*
X83056400Y-106597421D01*
X82956569Y-106811507D01*
X82899364Y-107024999D01*
X82899364Y-107025000D01*
X83796314Y-107025000D01*
X83770507Y-107065156D01*
X83730000Y-107203111D01*
X83730000Y-107346889D01*
X83770507Y-107484844D01*
X83796314Y-107525000D01*
X82899364Y-107525000D01*
X80494813Y-107525000D01*
X80500063Y-107505408D01*
X80520659Y-107270000D01*
X80500063Y-107034592D01*
X80438903Y-106806337D01*
X80339035Y-106592171D01*
X80203495Y-106398599D01*
X80036401Y-106231505D01*
X79850839Y-106101573D01*
X79807216Y-106046998D01*
X79800022Y-105977500D01*
X79831545Y-105915145D01*
X79850837Y-105898428D01*
X80036401Y-105768495D01*
X80203495Y-105601401D01*
X80339035Y-105407830D01*
X80438903Y-105193663D01*
X80500063Y-104965408D01*
X80520659Y-104730000D01*
X80500063Y-104494592D01*
X80438903Y-104266337D01*
X80339035Y-104052171D01*
X80203495Y-103858599D01*
X80036401Y-103691505D01*
X79850839Y-103561573D01*
X79807216Y-103506998D01*
X79800022Y-103437500D01*
X79831545Y-103375145D01*
X79850837Y-103358428D01*
X80036401Y-103228495D01*
X80203495Y-103061401D01*
X80339035Y-102867830D01*
X80438903Y-102653663D01*
X80500063Y-102425408D01*
X80520659Y-102190000D01*
X80500063Y-101954592D01*
X80438903Y-101726337D01*
X80339035Y-101512171D01*
X80203495Y-101318599D01*
X80036401Y-101151505D01*
X79850839Y-101021573D01*
X79807216Y-100966998D01*
X79800022Y-100897500D01*
X79831545Y-100835145D01*
X79850837Y-100818428D01*
X80036401Y-100688495D01*
X80203495Y-100521401D01*
X80339035Y-100327830D01*
X80438903Y-100113663D01*
X80500063Y-99885408D01*
X80520659Y-99650000D01*
X80500063Y-99414592D01*
X80438903Y-99186337D01*
X80339035Y-98972171D01*
X80203495Y-98778599D01*
X80036401Y-98611505D01*
X79850839Y-98481573D01*
X79807216Y-98426998D01*
X79800022Y-98357500D01*
X79831545Y-98295145D01*
X79850837Y-98278428D01*
X80036401Y-98148495D01*
X80203495Y-97981401D01*
X80339035Y-97787830D01*
X80438903Y-97573663D01*
X80500063Y-97345408D01*
X80520659Y-97110000D01*
X80500063Y-96874592D01*
X80438903Y-96646337D01*
X80339035Y-96432171D01*
X80203495Y-96238599D01*
X80036401Y-96071505D01*
X79843698Y-95936573D01*
X79800076Y-95881998D01*
X79792883Y-95812499D01*
X79824405Y-95750145D01*
X79843695Y-95733429D01*
X80036401Y-95598495D01*
X80203495Y-95431401D01*
X80339035Y-95237830D01*
X80438903Y-95023663D01*
X80500063Y-94795408D01*
X80520659Y-94560000D01*
X80500063Y-94324592D01*
X80438903Y-94096337D01*
X80339035Y-93882171D01*
X80203495Y-93688599D01*
X80036401Y-93521505D01*
X79850839Y-93391573D01*
X79807216Y-93336998D01*
X79800022Y-93267500D01*
X79831545Y-93205145D01*
X79850837Y-93188428D01*
X80036401Y-93058495D01*
X80203495Y-92891401D01*
X80339035Y-92697830D01*
X80438903Y-92483663D01*
X80500063Y-92255408D01*
X80520659Y-92020000D01*
X80500063Y-91784592D01*
X80438903Y-91556337D01*
X80339035Y-91342171D01*
X80203495Y-91148599D01*
X80036401Y-90981505D01*
X79850839Y-90851573D01*
X79807216Y-90796998D01*
X79800022Y-90727500D01*
X79831545Y-90665145D01*
X79850837Y-90648428D01*
X80036401Y-90518495D01*
X80203495Y-90351401D01*
X80339035Y-90157830D01*
X80438903Y-89943663D01*
X80500063Y-89715408D01*
X80520659Y-89480000D01*
X80500063Y-89244592D01*
X80438903Y-89016337D01*
X80339035Y-88802171D01*
X80203495Y-88608599D01*
X80036401Y-88441505D01*
X79850839Y-88311573D01*
X79807215Y-88256997D01*
X79800023Y-88187498D01*
X79831545Y-88125144D01*
X79850831Y-88108432D01*
X80036401Y-87978495D01*
X80203495Y-87811401D01*
X80339035Y-87617830D01*
X80438903Y-87403663D01*
X80500063Y-87175408D01*
X80520659Y-86940000D01*
X80500063Y-86704592D01*
X80438903Y-86476337D01*
X80339035Y-86262171D01*
X80203495Y-86068599D01*
X80036401Y-85901505D01*
X79850839Y-85771573D01*
X79807216Y-85716998D01*
X79800022Y-85647500D01*
X79831545Y-85585145D01*
X79850837Y-85568428D01*
X80036401Y-85438495D01*
X80203495Y-85271401D01*
X80339035Y-85077830D01*
X80438903Y-84863663D01*
X80500063Y-84635408D01*
X80520659Y-84400000D01*
X80500063Y-84164592D01*
X80438903Y-83936337D01*
X80339035Y-83722171D01*
X80203495Y-83528599D01*
X80036401Y-83361505D01*
X79867981Y-83243576D01*
X79824357Y-83189000D01*
X79817164Y-83119502D01*
X79848686Y-83057147D01*
X79867978Y-83040429D01*
X80056401Y-82908495D01*
X80223495Y-82741401D01*
X80359035Y-82547830D01*
X80458903Y-82333663D01*
X80520063Y-82105408D01*
X80540659Y-81870000D01*
X80520063Y-81634592D01*
X80458903Y-81406337D01*
X80359035Y-81192171D01*
X80223495Y-80998599D01*
X80056401Y-80831505D01*
X79870839Y-80701573D01*
X79827216Y-80646998D01*
X79820022Y-80577500D01*
X79851545Y-80515145D01*
X79870837Y-80498428D01*
X80056401Y-80368495D01*
X80223495Y-80201401D01*
X80359035Y-80007830D01*
X80458903Y-79793663D01*
X80520063Y-79565408D01*
X80540659Y-79330000D01*
X80520063Y-79094592D01*
X80458903Y-78866337D01*
X80359035Y-78652171D01*
X80223495Y-78458599D01*
X80056401Y-78291505D01*
X79870839Y-78161573D01*
X79827216Y-78106998D01*
X79820022Y-78037500D01*
X79851545Y-77975145D01*
X79870837Y-77958428D01*
X80056401Y-77828495D01*
X80223495Y-77661401D01*
X80359035Y-77467830D01*
X80458903Y-77253663D01*
X80520063Y-77025408D01*
X80540659Y-76790000D01*
X80520063Y-76554592D01*
X80458903Y-76326337D01*
X80359035Y-76112171D01*
X80223495Y-75918599D01*
X80056401Y-75751505D01*
X79870839Y-75621573D01*
X79827216Y-75566998D01*
X79820022Y-75497500D01*
X79851545Y-75435145D01*
X79870837Y-75418428D01*
X80056401Y-75288495D01*
X80223495Y-75121401D01*
X80359035Y-74927830D01*
X80458903Y-74713663D01*
X80520063Y-74485408D01*
X80540659Y-74250000D01*
X80520063Y-74014592D01*
X80458903Y-73786337D01*
X80359035Y-73572171D01*
X80223495Y-73378599D01*
X80056401Y-73211505D01*
X79870839Y-73081573D01*
X79827216Y-73026998D01*
X79820022Y-72957500D01*
X79851545Y-72895145D01*
X79870837Y-72878428D01*
X80056401Y-72748495D01*
X80223495Y-72581401D01*
X80359035Y-72387830D01*
X80458903Y-72173663D01*
X80520063Y-71945408D01*
X80540659Y-71710000D01*
X80520063Y-71474592D01*
X80458903Y-71246337D01*
X80359035Y-71032171D01*
X80223495Y-70838599D01*
X80056401Y-70671505D01*
X79877981Y-70546573D01*
X79834357Y-70491998D01*
X79827163Y-70422500D01*
X79858686Y-70360145D01*
X79877979Y-70343427D01*
X80056401Y-70218495D01*
X80223495Y-70051401D01*
X80359035Y-69857830D01*
X80458903Y-69643663D01*
X80520063Y-69415408D01*
X80540659Y-69180000D01*
X80520063Y-68944592D01*
X80458903Y-68716337D01*
X80359035Y-68502171D01*
X80223495Y-68308599D01*
X80056401Y-68141505D01*
X79870839Y-68011573D01*
X79827216Y-67956998D01*
X79820022Y-67887500D01*
X79851545Y-67825145D01*
X79870837Y-67808428D01*
X80056401Y-67678495D01*
X80223495Y-67511401D01*
X80359035Y-67317830D01*
X80458903Y-67103663D01*
X80520063Y-66875408D01*
X80540659Y-66640000D01*
X80540221Y-66634999D01*
X80520063Y-66404592D01*
X80493164Y-66304202D01*
X80458903Y-66176337D01*
X80359035Y-65962171D01*
X80223495Y-65768599D01*
X80056401Y-65601505D01*
X79870839Y-65471573D01*
X79827216Y-65416998D01*
X79820022Y-65347500D01*
X79851545Y-65285145D01*
X79870837Y-65268428D01*
X80056401Y-65138495D01*
X80223495Y-64971401D01*
X80359035Y-64777830D01*
X80458903Y-64563663D01*
X80520063Y-64335408D01*
X80540659Y-64100000D01*
X80520063Y-63864592D01*
X80458903Y-63636337D01*
X80359035Y-63422171D01*
X80223495Y-63228599D01*
X80056401Y-63061505D01*
X79870839Y-62931573D01*
X79827216Y-62876998D01*
X79820022Y-62807500D01*
X79851545Y-62745145D01*
X79870837Y-62728428D01*
X80056401Y-62598495D01*
X80223495Y-62431401D01*
X80359035Y-62237830D01*
X80458903Y-62023663D01*
X80520063Y-61795408D01*
X80540659Y-61560000D01*
X80520063Y-61324592D01*
X80458903Y-61096337D01*
X80359035Y-60882171D01*
X80223495Y-60688599D01*
X80056401Y-60521505D01*
X79870839Y-60391573D01*
X79827216Y-60336998D01*
X79820022Y-60267500D01*
X79851545Y-60205145D01*
X79870837Y-60188428D01*
X80056401Y-60058495D01*
X80223495Y-59891401D01*
X80359035Y-59697830D01*
X80458903Y-59483663D01*
X80520063Y-59255408D01*
X80540659Y-59020000D01*
X80520063Y-58784592D01*
X80458903Y-58556337D01*
X80359035Y-58342171D01*
X80223495Y-58148599D01*
X80056401Y-57981505D01*
X79868698Y-57850074D01*
X79825076Y-57795499D01*
X79817883Y-57726000D01*
X79849405Y-57663646D01*
X79868700Y-57646926D01*
X79872826Y-57644036D01*
X79872830Y-57644035D01*
X80066401Y-57508495D01*
X80233495Y-57341401D01*
X80369035Y-57147830D01*
X80468903Y-56933663D01*
X80530063Y-56705408D01*
X80550659Y-56470000D01*
X80530063Y-56234592D01*
X80468903Y-56006337D01*
X80369035Y-55792171D01*
X80233495Y-55598599D01*
X80066401Y-55431505D01*
X79880839Y-55301573D01*
X79837216Y-55246998D01*
X79830022Y-55177500D01*
X79861545Y-55115145D01*
X79880837Y-55098428D01*
X80066401Y-54968495D01*
X80233495Y-54801401D01*
X80369035Y-54607830D01*
X80468903Y-54393663D01*
X80530063Y-54165408D01*
X80550659Y-53930000D01*
X80530063Y-53694592D01*
X80468903Y-53466337D01*
X80369035Y-53252171D01*
X80233495Y-53058599D01*
X80066401Y-52891505D01*
X79880839Y-52761573D01*
X79837217Y-52706998D01*
X79830024Y-52637499D01*
X79861546Y-52575145D01*
X79880837Y-52558428D01*
X80066401Y-52428495D01*
X80233495Y-52261401D01*
X80369035Y-52067830D01*
X80468903Y-51853663D01*
X80530063Y-51625408D01*
X80550659Y-51390000D01*
X80530063Y-51154592D01*
X80468903Y-50926337D01*
X80369035Y-50712171D01*
X80233495Y-50518599D01*
X80066401Y-50351505D01*
X79880839Y-50221573D01*
X79837216Y-50166998D01*
X79830022Y-50097500D01*
X79861545Y-50035145D01*
X79880837Y-50018428D01*
X80066401Y-49888495D01*
X80233495Y-49721401D01*
X80369035Y-49527830D01*
X80468903Y-49313663D01*
X80530063Y-49085408D01*
X80550659Y-48850000D01*
X80530063Y-48614592D01*
X80468903Y-48386337D01*
X80369035Y-48172171D01*
X80233495Y-47978599D01*
X80066401Y-47811505D01*
X79880839Y-47681573D01*
X79837216Y-47626998D01*
X79830022Y-47557500D01*
X79861545Y-47495145D01*
X79880837Y-47478428D01*
X80066401Y-47348495D01*
X80233495Y-47181401D01*
X80369035Y-46987830D01*
X80468903Y-46773663D01*
X80530063Y-46545408D01*
X80550659Y-46310000D01*
X80530063Y-46074592D01*
X80468903Y-45846337D01*
X80369035Y-45632171D01*
X80233495Y-45438599D01*
X80066401Y-45271505D01*
X79876910Y-45138821D01*
X79833287Y-45084246D01*
X79826094Y-45014747D01*
X79857616Y-44952393D01*
X79876908Y-44935676D01*
X80051401Y-44813495D01*
X80218495Y-44646401D01*
X80354035Y-44452830D01*
X80453903Y-44238663D01*
X80515063Y-44010408D01*
X80535659Y-43775000D01*
X80515063Y-43539592D01*
X80453903Y-43311337D01*
X80354035Y-43097171D01*
X80218495Y-42903599D01*
X80051401Y-42736505D01*
X79865839Y-42606573D01*
X79822216Y-42551998D01*
X79815022Y-42482500D01*
X79846545Y-42420145D01*
X79865837Y-42403428D01*
X80051401Y-42273495D01*
X80218495Y-42106401D01*
X80354035Y-41912830D01*
X80453903Y-41698663D01*
X80515063Y-41470408D01*
X80535659Y-41235000D01*
X80515063Y-40999592D01*
X80453903Y-40771337D01*
X80354035Y-40557171D01*
X80218495Y-40363599D01*
X80051401Y-40196505D01*
X79865839Y-40066573D01*
X79822216Y-40011998D01*
X79815022Y-39942500D01*
X79846545Y-39880145D01*
X79865837Y-39863428D01*
X80051401Y-39733495D01*
X80218495Y-39566401D01*
X80354035Y-39372830D01*
X80453903Y-39158663D01*
X80515063Y-38930408D01*
X80535659Y-38695000D01*
X80515063Y-38459592D01*
X80453903Y-38231337D01*
X80354035Y-38017171D01*
X80218495Y-37823599D01*
X80051401Y-37656505D01*
X79865839Y-37526573D01*
X79822216Y-37471998D01*
X79815022Y-37402500D01*
X79846545Y-37340145D01*
X79865837Y-37323428D01*
X80051401Y-37193495D01*
X80218495Y-37026401D01*
X80354035Y-36832830D01*
X80453903Y-36618663D01*
X80515063Y-36390408D01*
X80535659Y-36155000D01*
X80515063Y-35919592D01*
X80453903Y-35691337D01*
X80354035Y-35477171D01*
X80218495Y-35283599D01*
X80051401Y-35116505D01*
X79865839Y-34986573D01*
X79822216Y-34931998D01*
X79815022Y-34862500D01*
X79846545Y-34800145D01*
X79865837Y-34783428D01*
X80051401Y-34653495D01*
X80218495Y-34486401D01*
X80354035Y-34292830D01*
X80453903Y-34078663D01*
X80515063Y-33850408D01*
X80535659Y-33615000D01*
X80515063Y-33379592D01*
X80453903Y-33151337D01*
X80354035Y-32937171D01*
X80218495Y-32743599D01*
X80051401Y-32576505D01*
X79857830Y-32440965D01*
X79643663Y-32341097D01*
X79582501Y-32324709D01*
X79415407Y-32279936D01*
X79180000Y-32259340D01*
X78944592Y-32279936D01*
X78716336Y-32341097D01*
X78502170Y-32440965D01*
X78308598Y-32576505D01*
X78141505Y-32743598D01*
X78011575Y-32929159D01*
X77956998Y-32972784D01*
X77887500Y-32979978D01*
X77825145Y-32948455D01*
X77808425Y-32929159D01*
X77793449Y-32907771D01*
X77678495Y-32743599D01*
X77511401Y-32576505D01*
X77317830Y-32440965D01*
X77103663Y-32341097D01*
X77042502Y-32324709D01*
X76875407Y-32279936D01*
X76640000Y-32259340D01*
X76404592Y-32279936D01*
X76176336Y-32341097D01*
X75962170Y-32440965D01*
X75768598Y-32576505D01*
X75601505Y-32743598D01*
X75471575Y-32929159D01*
X75416998Y-32972784D01*
X75347500Y-32979978D01*
X75285145Y-32948455D01*
X75268425Y-32929159D01*
X75253449Y-32907771D01*
X75138495Y-32743599D01*
X74971401Y-32576505D01*
X74777830Y-32440965D01*
X74563663Y-32341097D01*
X74502502Y-32324709D01*
X74335407Y-32279936D01*
X74100000Y-32259340D01*
X73864592Y-32279936D01*
X73636336Y-32341097D01*
X73422170Y-32440965D01*
X73228598Y-32576505D01*
X73061505Y-32743598D01*
X72931575Y-32929159D01*
X72876998Y-32972784D01*
X72807500Y-32979978D01*
X72745145Y-32948455D01*
X72728425Y-32929159D01*
X72713449Y-32907771D01*
X72598495Y-32743599D01*
X72431401Y-32576505D01*
X72237830Y-32440965D01*
X72023663Y-32341097D01*
X71962502Y-32324709D01*
X71795407Y-32279936D01*
X71560000Y-32259340D01*
X71324592Y-32279936D01*
X71096336Y-32341097D01*
X70882170Y-32440965D01*
X70688598Y-32576505D01*
X70521505Y-32743598D01*
X70391575Y-32929159D01*
X70336998Y-32972784D01*
X70267500Y-32979978D01*
X70205145Y-32948455D01*
X70188425Y-32929159D01*
X70173449Y-32907771D01*
X70058495Y-32743599D01*
X69891401Y-32576505D01*
X69697830Y-32440965D01*
X69483663Y-32341097D01*
X69422502Y-32324709D01*
X69255407Y-32279936D01*
X69019999Y-32259340D01*
X68784592Y-32279936D01*
X68556336Y-32341097D01*
X68342170Y-32440965D01*
X68148598Y-32576505D01*
X67981505Y-32743598D01*
X67845965Y-32937170D01*
X67746097Y-33151336D01*
X67684936Y-33379592D01*
X67664340Y-33614999D01*
X67684936Y-33850407D01*
X67691641Y-33875429D01*
X67746097Y-34078663D01*
X67845965Y-34292830D01*
X67981505Y-34486401D01*
X68148599Y-34653495D01*
X68334160Y-34783426D01*
X68377783Y-34838002D01*
X68384976Y-34907501D01*
X68353454Y-34969855D01*
X68334159Y-34986575D01*
X68148595Y-35116508D01*
X67981505Y-35283598D01*
X67845965Y-35477170D01*
X67746097Y-35691336D01*
X67684936Y-35919592D01*
X67664340Y-36155000D01*
X67684936Y-36390407D01*
X67710496Y-36485798D01*
X67746097Y-36618663D01*
X67845965Y-36832830D01*
X67981505Y-37026401D01*
X68148599Y-37193495D01*
X68334160Y-37323426D01*
X68377783Y-37378002D01*
X68384976Y-37447501D01*
X68353454Y-37509855D01*
X68334159Y-37526575D01*
X68148595Y-37656508D01*
X67981505Y-37823598D01*
X67845965Y-38017170D01*
X67746097Y-38231336D01*
X67684936Y-38459592D01*
X67664340Y-38694999D01*
X67684936Y-38930407D01*
X67710496Y-39025798D01*
X67746097Y-39158663D01*
X67845965Y-39372830D01*
X67981505Y-39566401D01*
X68148599Y-39733495D01*
X68334160Y-39863426D01*
X68377783Y-39918002D01*
X68384976Y-39987501D01*
X68353454Y-40049855D01*
X68334159Y-40066575D01*
X68148595Y-40196508D01*
X67981505Y-40363598D01*
X67845965Y-40557170D01*
X67746097Y-40771336D01*
X67684936Y-40999592D01*
X67664340Y-41235000D01*
X67684936Y-41470407D01*
X67710496Y-41565798D01*
X67746097Y-41698663D01*
X67845965Y-41912830D01*
X67981505Y-42106401D01*
X68148599Y-42273495D01*
X68334160Y-42403426D01*
X68377783Y-42458002D01*
X68384976Y-42527501D01*
X68353454Y-42589855D01*
X68334159Y-42606575D01*
X68148595Y-42736508D01*
X67981505Y-42903598D01*
X67845965Y-43097170D01*
X67746097Y-43311336D01*
X67684936Y-43539592D01*
X67664340Y-43774999D01*
X67684936Y-44010407D01*
X67710496Y-44105798D01*
X67746097Y-44238663D01*
X67845965Y-44452830D01*
X67981505Y-44646401D01*
X68148599Y-44813495D01*
X68338089Y-44946177D01*
X68381713Y-45000753D01*
X68388907Y-45070251D01*
X68357384Y-45132606D01*
X68338089Y-45149326D01*
X68163595Y-45271508D01*
X67996505Y-45438598D01*
X67860965Y-45632170D01*
X67761097Y-45846336D01*
X67699936Y-46074592D01*
X67679340Y-46310000D01*
X67699936Y-46545407D01*
X67726836Y-46645798D01*
X67761097Y-46773663D01*
X67860965Y-46987830D01*
X67996505Y-47181401D01*
X68163599Y-47348495D01*
X68349160Y-47478426D01*
X68392783Y-47533002D01*
X68399976Y-47602501D01*
X68368454Y-47664855D01*
X68349159Y-47681575D01*
X68163595Y-47811508D01*
X67996505Y-47978598D01*
X67860965Y-48172170D01*
X67761097Y-48386336D01*
X67699936Y-48614592D01*
X67679340Y-48850000D01*
X67699936Y-49085407D01*
X67726836Y-49185798D01*
X67761097Y-49313663D01*
X67860965Y-49527830D01*
X67996505Y-49721401D01*
X68163599Y-49888495D01*
X68349160Y-50018426D01*
X68392783Y-50073002D01*
X68399976Y-50142501D01*
X68368454Y-50204855D01*
X68349159Y-50221575D01*
X68163595Y-50351508D01*
X67996505Y-50518598D01*
X67860965Y-50712170D01*
X67761097Y-50926336D01*
X67699936Y-51154592D01*
X67679340Y-51389999D01*
X67699936Y-51625407D01*
X67726836Y-51725798D01*
X67761097Y-51853663D01*
X67860965Y-52067830D01*
X67996505Y-52261401D01*
X68163599Y-52428495D01*
X68349160Y-52558426D01*
X68392783Y-52613002D01*
X68399976Y-52682501D01*
X68368454Y-52744855D01*
X68349159Y-52761575D01*
X68163595Y-52891508D01*
X67996505Y-53058598D01*
X67860965Y-53252170D01*
X67761097Y-53466336D01*
X67699936Y-53694592D01*
X67679340Y-53930000D01*
X67699936Y-54165407D01*
X67726836Y-54265798D01*
X67761097Y-54393663D01*
X67860965Y-54607830D01*
X67996505Y-54801401D01*
X68163599Y-54968495D01*
X68349160Y-55098426D01*
X68392783Y-55153002D01*
X68399976Y-55222501D01*
X68368454Y-55284855D01*
X68349159Y-55301575D01*
X68163595Y-55431508D01*
X67996505Y-55598598D01*
X67860965Y-55792170D01*
X67761097Y-56006336D01*
X67699936Y-56234592D01*
X67679340Y-56470000D01*
X67699936Y-56705407D01*
X67726836Y-56805798D01*
X67761097Y-56933663D01*
X67860965Y-57147830D01*
X67996505Y-57341401D01*
X68163599Y-57508495D01*
X68351301Y-57639925D01*
X68394924Y-57694501D01*
X68402117Y-57764000D01*
X68370595Y-57826354D01*
X68351300Y-57843074D01*
X68347171Y-57845964D01*
X68347171Y-57845965D01*
X68160736Y-57976508D01*
X68153595Y-57981508D01*
X67986505Y-58148598D01*
X67850965Y-58342170D01*
X67751097Y-58556336D01*
X67689936Y-58784592D01*
X67669340Y-59020000D01*
X67689936Y-59255407D01*
X67734709Y-59422501D01*
X67751097Y-59483663D01*
X67850965Y-59697830D01*
X67986505Y-59891401D01*
X68153599Y-60058495D01*
X68339160Y-60188426D01*
X68382783Y-60243002D01*
X68389976Y-60312501D01*
X68358454Y-60374855D01*
X68339158Y-60391575D01*
X68160736Y-60516508D01*
X68153595Y-60521508D01*
X67986505Y-60688598D01*
X67850965Y-60882170D01*
X67751097Y-61096336D01*
X67689936Y-61324592D01*
X67669340Y-61560000D01*
X67689936Y-61795407D01*
X67734709Y-61962502D01*
X67751097Y-62023663D01*
X67850965Y-62237830D01*
X67986505Y-62431401D01*
X68153599Y-62598495D01*
X68339160Y-62728426D01*
X68382783Y-62783002D01*
X68389976Y-62852501D01*
X68358454Y-62914855D01*
X68339158Y-62931575D01*
X68160736Y-63056508D01*
X68153595Y-63061508D01*
X67986505Y-63228598D01*
X67850965Y-63422170D01*
X67751097Y-63636336D01*
X67689936Y-63864592D01*
X67669340Y-64099999D01*
X67689936Y-64335407D01*
X67734709Y-64502501D01*
X67751097Y-64563663D01*
X67850965Y-64777830D01*
X67986505Y-64971401D01*
X68153599Y-65138495D01*
X68339160Y-65268426D01*
X68382783Y-65323002D01*
X68389976Y-65392501D01*
X68358454Y-65454855D01*
X68339158Y-65471575D01*
X68160736Y-65596508D01*
X68153595Y-65601508D01*
X67986505Y-65768598D01*
X67850965Y-65962170D01*
X67751097Y-66176336D01*
X67689936Y-66404592D01*
X67669340Y-66639999D01*
X67689936Y-66875407D01*
X67734709Y-67042502D01*
X67751097Y-67103663D01*
X67850965Y-67317830D01*
X67986505Y-67511401D01*
X68153599Y-67678495D01*
X68339160Y-67808426D01*
X68382783Y-67863002D01*
X68389976Y-67932501D01*
X68358454Y-67994855D01*
X68339158Y-68011575D01*
X68160736Y-68136508D01*
X68153595Y-68141508D01*
X67986505Y-68308598D01*
X67850965Y-68502170D01*
X67751097Y-68716336D01*
X67689936Y-68944592D01*
X67669340Y-69180000D01*
X67689936Y-69415407D01*
X67734709Y-69582502D01*
X67751097Y-69643663D01*
X67850965Y-69857830D01*
X67986505Y-70051401D01*
X68153599Y-70218495D01*
X68332018Y-70343426D01*
X68375642Y-70398002D01*
X68382835Y-70467501D01*
X68351313Y-70529855D01*
X68332018Y-70546575D01*
X68153595Y-70671508D01*
X67986505Y-70838598D01*
X67850965Y-71032170D01*
X67751097Y-71246336D01*
X67689936Y-71474592D01*
X67669340Y-71709999D01*
X67689936Y-71945407D01*
X67716836Y-72045798D01*
X67751097Y-72173663D01*
X67850965Y-72387830D01*
X67986505Y-72581401D01*
X68153599Y-72748495D01*
X68339160Y-72878426D01*
X68382783Y-72933002D01*
X68389976Y-73002501D01*
X68358454Y-73064855D01*
X68339159Y-73081575D01*
X68153595Y-73211508D01*
X67986505Y-73378598D01*
X67850965Y-73572170D01*
X67751097Y-73786336D01*
X67689936Y-74014592D01*
X67669340Y-74250000D01*
X67689936Y-74485407D01*
X67716836Y-74585798D01*
X67751097Y-74713663D01*
X67850965Y-74927830D01*
X67986505Y-75121401D01*
X68153599Y-75288495D01*
X68339160Y-75418426D01*
X68382783Y-75473002D01*
X68389976Y-75542501D01*
X68358454Y-75604855D01*
X68339159Y-75621575D01*
X68153595Y-75751508D01*
X67986505Y-75918598D01*
X67850965Y-76112170D01*
X67751097Y-76326336D01*
X67689936Y-76554592D01*
X67669340Y-76790000D01*
X67689936Y-77025407D01*
X67716836Y-77125798D01*
X67751097Y-77253663D01*
X67850965Y-77467830D01*
X67986505Y-77661401D01*
X68153599Y-77828495D01*
X68339160Y-77958426D01*
X68382783Y-78013002D01*
X68389976Y-78082501D01*
X68358454Y-78144855D01*
X68339159Y-78161575D01*
X68153595Y-78291508D01*
X67986505Y-78458598D01*
X67850965Y-78652170D01*
X67751097Y-78866336D01*
X67689936Y-79094592D01*
X67669340Y-79329999D01*
X67689936Y-79565407D01*
X67716836Y-79665798D01*
X67751097Y-79793663D01*
X67850965Y-80007830D01*
X67986505Y-80201401D01*
X68153599Y-80368495D01*
X68339160Y-80498426D01*
X68382783Y-80553002D01*
X68389976Y-80622501D01*
X68358454Y-80684855D01*
X68339159Y-80701575D01*
X68153595Y-80831508D01*
X67986505Y-80998598D01*
X67850965Y-81192170D01*
X67751097Y-81406336D01*
X67689936Y-81634592D01*
X67669340Y-81869999D01*
X67689936Y-82105407D01*
X67716836Y-82205798D01*
X67751097Y-82333663D01*
X67850965Y-82547830D01*
X67986505Y-82741401D01*
X68153599Y-82908495D01*
X68322018Y-83026423D01*
X68365643Y-83081000D01*
X68372835Y-83150499D01*
X68341313Y-83212853D01*
X68322018Y-83229573D01*
X68133595Y-83361508D01*
X67966505Y-83528598D01*
X67830965Y-83722170D01*
X67731097Y-83936336D01*
X67669936Y-84164592D01*
X67649340Y-84400000D01*
X67669936Y-84635407D01*
X67714709Y-84802502D01*
X67731097Y-84863663D01*
X67830965Y-85077830D01*
X67966505Y-85271401D01*
X68133599Y-85438495D01*
X68319160Y-85568426D01*
X68362783Y-85623002D01*
X68369976Y-85692501D01*
X68338454Y-85754855D01*
X68319159Y-85771575D01*
X68133595Y-85901508D01*
X67966505Y-86068598D01*
X67830965Y-86262170D01*
X67731097Y-86476336D01*
X67669936Y-86704592D01*
X67649340Y-86940000D01*
X67669936Y-87175407D01*
X67714709Y-87342501D01*
X67731097Y-87403663D01*
X67830965Y-87617830D01*
X67966505Y-87811401D01*
X68133599Y-87978495D01*
X68319160Y-88108426D01*
X68362783Y-88163002D01*
X68369976Y-88232501D01*
X68338454Y-88294855D01*
X68319159Y-88311575D01*
X68133595Y-88441508D01*
X67966505Y-88608598D01*
X67830965Y-88802170D01*
X67731097Y-89016336D01*
X67669936Y-89244592D01*
X67649340Y-89479999D01*
X67669936Y-89715407D01*
X67714709Y-89882501D01*
X67731097Y-89943663D01*
X67830965Y-90157830D01*
X67966505Y-90351401D01*
X68133599Y-90518495D01*
X68319160Y-90648426D01*
X68362783Y-90703002D01*
X68369976Y-90772501D01*
X68338454Y-90834855D01*
X68319159Y-90851575D01*
X68133595Y-90981508D01*
X67966505Y-91148598D01*
X67830965Y-91342170D01*
X67731097Y-91556336D01*
X67669936Y-91784592D01*
X67649340Y-92020000D01*
X67669936Y-92255407D01*
X67714709Y-92422501D01*
X67731097Y-92483663D01*
X67830965Y-92697830D01*
X67966505Y-92891401D01*
X68133599Y-93058495D01*
X68319160Y-93188426D01*
X68362783Y-93243002D01*
X68369976Y-93312501D01*
X68338454Y-93374855D01*
X68319159Y-93391575D01*
X68133595Y-93521508D01*
X67966505Y-93688598D01*
X67830965Y-93882170D01*
X67731097Y-94096336D01*
X67669936Y-94324592D01*
X67649340Y-94559999D01*
X67669936Y-94795407D01*
X67714709Y-94962502D01*
X67731097Y-95023663D01*
X67830965Y-95237830D01*
X67966505Y-95431401D01*
X68133599Y-95598495D01*
X68326301Y-95733426D01*
X68369924Y-95788002D01*
X68377117Y-95857501D01*
X68345595Y-95919855D01*
X68326300Y-95936575D01*
X68133595Y-96071508D01*
X67966505Y-96238598D01*
X67830965Y-96432170D01*
X67731097Y-96646336D01*
X67669936Y-96874592D01*
X67649340Y-97109999D01*
X67669936Y-97345407D01*
X67696836Y-97445798D01*
X67731097Y-97573663D01*
X67830965Y-97787830D01*
X67966505Y-97981401D01*
X68133599Y-98148495D01*
X68319160Y-98278426D01*
X68362783Y-98333002D01*
X68369976Y-98402501D01*
X68338454Y-98464855D01*
X68319159Y-98481575D01*
X68133595Y-98611508D01*
X67966505Y-98778598D01*
X67830965Y-98972170D01*
X67731097Y-99186336D01*
X67669936Y-99414592D01*
X67649340Y-99649999D01*
X67669936Y-99885407D01*
X67696836Y-99985798D01*
X67731097Y-100113663D01*
X67830965Y-100327830D01*
X67966505Y-100521401D01*
X68133599Y-100688495D01*
X68319160Y-100818426D01*
X68362783Y-100873002D01*
X68369976Y-100942501D01*
X68338454Y-101004855D01*
X68319159Y-101021575D01*
X68133595Y-101151508D01*
X67966505Y-101318598D01*
X67830965Y-101512170D01*
X67731097Y-101726336D01*
X67669936Y-101954592D01*
X67649340Y-102189999D01*
X67669936Y-102425407D01*
X67696836Y-102525798D01*
X67731097Y-102653663D01*
X67830965Y-102867830D01*
X67966505Y-103061401D01*
X68133599Y-103228495D01*
X68319160Y-103358426D01*
X68362783Y-103413002D01*
X68369976Y-103482501D01*
X68338454Y-103544855D01*
X68319159Y-103561575D01*
X68133595Y-103691508D01*
X67966505Y-103858598D01*
X67830965Y-104052170D01*
X67731097Y-104266336D01*
X67669936Y-104494592D01*
X67649340Y-104730000D01*
X67669936Y-104965407D01*
X67696836Y-105065798D01*
X67731097Y-105193663D01*
X67830965Y-105407830D01*
X67966505Y-105601401D01*
X68133599Y-105768495D01*
X68319160Y-105898426D01*
X68362783Y-105953002D01*
X68369976Y-106022501D01*
X68338454Y-106084855D01*
X68319159Y-106101575D01*
X68133595Y-106231508D01*
X67966505Y-106398598D01*
X67830965Y-106592170D01*
X67731097Y-106806336D01*
X67669936Y-107034592D01*
X67664655Y-107094957D01*
X67639202Y-107160025D01*
X67582611Y-107201004D01*
X67512849Y-107204882D01*
X67452065Y-107170428D01*
X67419961Y-107110507D01*
X67364370Y-106854958D01*
X67348164Y-106811507D01*
X67264367Y-106586839D01*
X67164310Y-106403599D01*
X67127227Y-106335686D01*
X67053271Y-106236893D01*
X66955739Y-106106605D01*
X66753395Y-105904261D01*
X66578707Y-105773491D01*
X66524313Y-105732772D01*
X66273163Y-105595634D01*
X66273162Y-105595633D01*
X66273161Y-105595633D01*
X66098123Y-105530347D01*
X66005041Y-105495629D01*
X65725429Y-105434804D01*
X65440000Y-105414389D01*
X65154570Y-105434804D01*
X64874958Y-105495629D01*
X64606836Y-105595634D01*
X64355686Y-105732772D01*
X64126602Y-105904263D01*
X63924263Y-106106602D01*
X63752772Y-106335686D01*
X63615634Y-106586836D01*
X63515629Y-106854958D01*
X63454804Y-107134570D01*
X63434389Y-107420000D01*
X62747535Y-107420000D01*
X62760659Y-107270000D01*
X62740063Y-107034592D01*
X62678903Y-106806337D01*
X62579035Y-106592171D01*
X62443495Y-106398599D01*
X62276401Y-106231505D01*
X62090839Y-106101573D01*
X62047216Y-106046998D01*
X62040022Y-105977500D01*
X62071545Y-105915145D01*
X62090837Y-105898428D01*
X62276401Y-105768495D01*
X62443495Y-105601401D01*
X62579035Y-105407830D01*
X62678903Y-105193663D01*
X62740063Y-104965408D01*
X62760659Y-104730000D01*
X62740063Y-104494592D01*
X62678903Y-104266337D01*
X62579035Y-104052171D01*
X62443495Y-103858599D01*
X62276401Y-103691505D01*
X62090839Y-103561573D01*
X62047216Y-103506998D01*
X62040022Y-103437500D01*
X62071545Y-103375145D01*
X62090837Y-103358428D01*
X62276401Y-103228495D01*
X62443495Y-103061401D01*
X62579035Y-102867830D01*
X62678903Y-102653663D01*
X62740063Y-102425408D01*
X62760659Y-102190000D01*
X62740063Y-101954592D01*
X62678903Y-101726337D01*
X62579035Y-101512171D01*
X62443495Y-101318599D01*
X62276401Y-101151505D01*
X62090839Y-101021573D01*
X62047216Y-100966998D01*
X62040022Y-100897500D01*
X62071545Y-100835145D01*
X62090837Y-100818428D01*
X62276401Y-100688495D01*
X62443495Y-100521401D01*
X62579035Y-100327830D01*
X62678903Y-100113663D01*
X62740063Y-99885408D01*
X62760659Y-99650000D01*
X62740063Y-99414592D01*
X62678903Y-99186337D01*
X62579035Y-98972171D01*
X62443495Y-98778599D01*
X62276401Y-98611505D01*
X62090839Y-98481573D01*
X62047216Y-98426998D01*
X62040022Y-98357500D01*
X62071545Y-98295145D01*
X62090837Y-98278428D01*
X62276401Y-98148495D01*
X62443495Y-97981401D01*
X62579035Y-97787830D01*
X62678903Y-97573663D01*
X62740063Y-97345408D01*
X62760659Y-97110000D01*
X62740063Y-96874592D01*
X62678903Y-96646337D01*
X62579035Y-96432171D01*
X62443495Y-96238599D01*
X62276401Y-96071505D01*
X62083698Y-95936573D01*
X62040076Y-95881998D01*
X62032883Y-95812499D01*
X62064405Y-95750145D01*
X62083695Y-95733429D01*
X62276401Y-95598495D01*
X62443495Y-95431401D01*
X62579035Y-95237830D01*
X62678903Y-95023663D01*
X62740063Y-94795408D01*
X62760659Y-94560000D01*
X62740063Y-94324592D01*
X62678903Y-94096337D01*
X62579035Y-93882171D01*
X62443495Y-93688599D01*
X62276401Y-93521505D01*
X62090839Y-93391573D01*
X62047216Y-93336998D01*
X62040022Y-93267500D01*
X62071545Y-93205145D01*
X62090837Y-93188428D01*
X62276401Y-93058495D01*
X62443495Y-92891401D01*
X62579035Y-92697830D01*
X62678903Y-92483663D01*
X62740063Y-92255408D01*
X62760659Y-92020000D01*
X62740063Y-91784592D01*
X62678903Y-91556337D01*
X62579035Y-91342171D01*
X62443495Y-91148599D01*
X62276401Y-90981505D01*
X62090839Y-90851573D01*
X62047216Y-90796998D01*
X62040022Y-90727500D01*
X62071545Y-90665145D01*
X62090837Y-90648428D01*
X62276401Y-90518495D01*
X62443495Y-90351401D01*
X62579035Y-90157830D01*
X62678903Y-89943663D01*
X62740063Y-89715408D01*
X62760659Y-89480000D01*
X62740063Y-89244592D01*
X62678903Y-89016337D01*
X62579035Y-88802171D01*
X62443495Y-88608599D01*
X62276401Y-88441505D01*
X62090839Y-88311573D01*
X62047216Y-88256998D01*
X62040022Y-88187500D01*
X62071545Y-88125145D01*
X62090837Y-88108428D01*
X62276401Y-87978495D01*
X62443495Y-87811401D01*
X62579035Y-87617830D01*
X62678903Y-87403663D01*
X62740063Y-87175408D01*
X62760659Y-86940000D01*
X62740063Y-86704592D01*
X62678903Y-86476337D01*
X62579035Y-86262171D01*
X62443495Y-86068599D01*
X62276401Y-85901505D01*
X62090839Y-85771573D01*
X62047216Y-85716998D01*
X62040022Y-85647500D01*
X62071545Y-85585145D01*
X62090837Y-85568428D01*
X62276401Y-85438495D01*
X62443495Y-85271401D01*
X62579035Y-85077830D01*
X62678903Y-84863663D01*
X62740063Y-84635408D01*
X62760659Y-84400000D01*
X62740063Y-84164592D01*
X62678903Y-83936337D01*
X62579035Y-83722171D01*
X62443495Y-83528599D01*
X62276401Y-83361505D01*
X62107981Y-83243576D01*
X62064357Y-83189000D01*
X62057164Y-83119502D01*
X62088686Y-83057147D01*
X62107978Y-83040429D01*
X62296401Y-82908495D01*
X62463495Y-82741401D01*
X62599035Y-82547830D01*
X62698903Y-82333663D01*
X62760063Y-82105408D01*
X62780659Y-81870000D01*
X62760063Y-81634592D01*
X62698903Y-81406337D01*
X62599035Y-81192171D01*
X62463495Y-80998599D01*
X62296401Y-80831505D01*
X62110839Y-80701573D01*
X62067216Y-80646998D01*
X62060022Y-80577500D01*
X62091545Y-80515145D01*
X62110837Y-80498428D01*
X62296401Y-80368495D01*
X62463495Y-80201401D01*
X62599035Y-80007830D01*
X62698903Y-79793663D01*
X62760063Y-79565408D01*
X62780659Y-79330000D01*
X62760063Y-79094592D01*
X62698903Y-78866337D01*
X62599035Y-78652171D01*
X62463495Y-78458599D01*
X62296401Y-78291505D01*
X62110839Y-78161573D01*
X62067216Y-78106998D01*
X62060022Y-78037500D01*
X62091545Y-77975145D01*
X62110837Y-77958428D01*
X62296401Y-77828495D01*
X62463495Y-77661401D01*
X62599035Y-77467830D01*
X62698903Y-77253663D01*
X62760063Y-77025408D01*
X62780659Y-76790000D01*
X62760063Y-76554592D01*
X62698903Y-76326337D01*
X62599035Y-76112171D01*
X62463495Y-75918599D01*
X62296401Y-75751505D01*
X62110839Y-75621573D01*
X62067216Y-75566998D01*
X62060022Y-75497500D01*
X62091545Y-75435145D01*
X62110837Y-75418428D01*
X62296401Y-75288495D01*
X62463495Y-75121401D01*
X62599035Y-74927830D01*
X62698903Y-74713663D01*
X62760063Y-74485408D01*
X62780659Y-74250000D01*
X62760063Y-74014592D01*
X62698903Y-73786337D01*
X62599035Y-73572171D01*
X62463495Y-73378599D01*
X62296401Y-73211505D01*
X62110839Y-73081573D01*
X62067216Y-73026998D01*
X62060022Y-72957500D01*
X62091545Y-72895145D01*
X62110837Y-72878428D01*
X62296401Y-72748495D01*
X62463495Y-72581401D01*
X62599035Y-72387830D01*
X62698903Y-72173663D01*
X62760063Y-71945408D01*
X62780659Y-71710000D01*
X62760063Y-71474592D01*
X62698903Y-71246337D01*
X62599035Y-71032171D01*
X62463495Y-70838599D01*
X62296401Y-70671505D01*
X62117981Y-70546573D01*
X62074357Y-70491998D01*
X62067163Y-70422500D01*
X62098686Y-70360145D01*
X62117979Y-70343427D01*
X62296401Y-70218495D01*
X62463495Y-70051401D01*
X62599035Y-69857830D01*
X62698903Y-69643663D01*
X62760063Y-69415408D01*
X62780659Y-69180000D01*
X62760063Y-68944592D01*
X62698903Y-68716337D01*
X62599035Y-68502171D01*
X62463495Y-68308599D01*
X62296401Y-68141505D01*
X62110839Y-68011573D01*
X62067216Y-67956998D01*
X62060022Y-67887500D01*
X62091545Y-67825145D01*
X62110837Y-67808428D01*
X62296401Y-67678495D01*
X62463495Y-67511401D01*
X62599035Y-67317830D01*
X62698903Y-67103663D01*
X62760063Y-66875408D01*
X62780659Y-66640000D01*
X62780221Y-66634999D01*
X62760063Y-66404592D01*
X62733164Y-66304202D01*
X62698903Y-66176337D01*
X62599035Y-65962171D01*
X62463495Y-65768599D01*
X62296401Y-65601505D01*
X62110839Y-65471573D01*
X62067216Y-65416998D01*
X62060022Y-65347500D01*
X62091545Y-65285145D01*
X62110837Y-65268428D01*
X62296401Y-65138495D01*
X62463495Y-64971401D01*
X62599035Y-64777830D01*
X62698903Y-64563663D01*
X62760063Y-64335408D01*
X62780659Y-64100000D01*
X62760063Y-63864592D01*
X62698903Y-63636337D01*
X62599035Y-63422171D01*
X62463495Y-63228599D01*
X62296401Y-63061505D01*
X62110839Y-62931573D01*
X62067216Y-62876998D01*
X62060022Y-62807500D01*
X62091545Y-62745145D01*
X62110837Y-62728428D01*
X62296401Y-62598495D01*
X62463495Y-62431401D01*
X62599035Y-62237830D01*
X62698903Y-62023663D01*
X62760063Y-61795408D01*
X62780659Y-61560000D01*
X62760063Y-61324592D01*
X62698903Y-61096337D01*
X62599035Y-60882171D01*
X62463495Y-60688599D01*
X62296401Y-60521505D01*
X62110839Y-60391573D01*
X62067216Y-60336998D01*
X62060022Y-60267500D01*
X62091545Y-60205145D01*
X62110837Y-60188428D01*
X62296401Y-60058495D01*
X62463495Y-59891401D01*
X62599035Y-59697830D01*
X62698903Y-59483663D01*
X62760063Y-59255408D01*
X62780659Y-59020000D01*
X62760063Y-58784592D01*
X62698903Y-58556337D01*
X62599035Y-58342171D01*
X62463495Y-58148599D01*
X62296401Y-57981505D01*
X62108698Y-57850074D01*
X62065076Y-57795499D01*
X62057883Y-57726000D01*
X62089405Y-57663646D01*
X62108700Y-57646926D01*
X62112826Y-57644036D01*
X62112830Y-57644035D01*
X62306401Y-57508495D01*
X62473495Y-57341401D01*
X62609035Y-57147830D01*
X62708903Y-56933663D01*
X62770063Y-56705408D01*
X62790659Y-56470000D01*
X62770063Y-56234592D01*
X62708903Y-56006337D01*
X62609035Y-55792171D01*
X62473495Y-55598599D01*
X62306401Y-55431505D01*
X62120839Y-55301573D01*
X62077216Y-55246998D01*
X62070022Y-55177500D01*
X62101545Y-55115145D01*
X62120837Y-55098428D01*
X62306401Y-54968495D01*
X62473495Y-54801401D01*
X62609035Y-54607830D01*
X62708903Y-54393663D01*
X62770063Y-54165408D01*
X62790659Y-53930000D01*
X62770063Y-53694592D01*
X62708903Y-53466337D01*
X62609035Y-53252171D01*
X62473495Y-53058599D01*
X62306401Y-52891505D01*
X62120839Y-52761573D01*
X62077217Y-52706998D01*
X62070024Y-52637499D01*
X62101546Y-52575145D01*
X62120837Y-52558428D01*
X62306401Y-52428495D01*
X62473495Y-52261401D01*
X62609035Y-52067830D01*
X62708903Y-51853663D01*
X62770063Y-51625408D01*
X62790659Y-51390000D01*
X62770063Y-51154592D01*
X62708903Y-50926337D01*
X62609035Y-50712171D01*
X62473495Y-50518599D01*
X62306401Y-50351505D01*
X62120839Y-50221573D01*
X62077216Y-50166998D01*
X62070022Y-50097500D01*
X62101545Y-50035145D01*
X62120837Y-50018428D01*
X62306401Y-49888495D01*
X62473495Y-49721401D01*
X62609035Y-49527830D01*
X62708903Y-49313663D01*
X62770063Y-49085408D01*
X62790659Y-48850000D01*
X62770063Y-48614592D01*
X62708903Y-48386337D01*
X62609035Y-48172171D01*
X62473495Y-47978599D01*
X62306401Y-47811505D01*
X62120839Y-47681573D01*
X62077217Y-47626998D01*
X62070024Y-47557499D01*
X62101546Y-47495145D01*
X62120837Y-47478428D01*
X62306401Y-47348495D01*
X62473495Y-47181401D01*
X62609035Y-46987830D01*
X62708903Y-46773663D01*
X62770063Y-46545408D01*
X62790659Y-46310000D01*
X62770063Y-46074592D01*
X62708903Y-45846337D01*
X62609035Y-45632171D01*
X62473495Y-45438599D01*
X62306401Y-45271505D01*
X62116910Y-45138821D01*
X62073287Y-45084246D01*
X62066094Y-45014747D01*
X62097616Y-44952393D01*
X62116908Y-44935676D01*
X62291401Y-44813495D01*
X62458495Y-44646401D01*
X62594035Y-44452830D01*
X62693903Y-44238663D01*
X62755063Y-44010408D01*
X62775659Y-43775000D01*
X62755063Y-43539592D01*
X62693903Y-43311337D01*
X62594035Y-43097171D01*
X62458495Y-42903599D01*
X62291401Y-42736505D01*
X62105839Y-42606573D01*
X62062215Y-42551997D01*
X62055023Y-42482498D01*
X62086545Y-42420144D01*
X62105831Y-42403432D01*
X62291401Y-42273495D01*
X62458495Y-42106401D01*
X62594035Y-41912830D01*
X62693903Y-41698663D01*
X62755063Y-41470408D01*
X62775659Y-41235000D01*
X62755063Y-40999592D01*
X62693903Y-40771337D01*
X62594035Y-40557171D01*
X62458495Y-40363599D01*
X62291401Y-40196505D01*
X62105839Y-40066573D01*
X62062215Y-40011997D01*
X62055023Y-39942498D01*
X62086545Y-39880144D01*
X62105831Y-39863432D01*
X62291401Y-39733495D01*
X62458495Y-39566401D01*
X62594035Y-39372830D01*
X62693903Y-39158663D01*
X62755063Y-38930408D01*
X62775659Y-38695000D01*
X62755063Y-38459592D01*
X62693903Y-38231337D01*
X62594035Y-38017171D01*
X62458495Y-37823599D01*
X62291401Y-37656505D01*
X62105839Y-37526573D01*
X62062215Y-37471997D01*
X62055023Y-37402498D01*
X62086545Y-37340144D01*
X62105831Y-37323432D01*
X62291401Y-37193495D01*
X62458495Y-37026401D01*
X62594035Y-36832830D01*
X62693903Y-36618663D01*
X62755063Y-36390408D01*
X62775659Y-36155000D01*
X62755063Y-35919592D01*
X62693903Y-35691337D01*
X62594035Y-35477171D01*
X62458495Y-35283599D01*
X62291401Y-35116505D01*
X62105839Y-34986573D01*
X62062216Y-34931998D01*
X62055022Y-34862500D01*
X62086545Y-34800145D01*
X62105837Y-34783428D01*
X62291401Y-34653495D01*
X62458495Y-34486401D01*
X62594035Y-34292830D01*
X62693903Y-34078663D01*
X62755063Y-33850408D01*
X62775659Y-33615000D01*
X62773472Y-33590000D01*
X63234389Y-33590000D01*
X63254804Y-33875429D01*
X63315629Y-34155041D01*
X63415634Y-34423163D01*
X63552772Y-34674313D01*
X63577489Y-34707331D01*
X63724261Y-34903395D01*
X63926605Y-35105739D01*
X64098415Y-35234354D01*
X64155686Y-35277227D01*
X64295435Y-35353535D01*
X64406839Y-35414367D01*
X64674954Y-35514369D01*
X64674957Y-35514369D01*
X64674958Y-35514370D01*
X64700738Y-35519978D01*
X64954572Y-35575196D01*
X65240000Y-35595610D01*
X65525428Y-35575196D01*
X65805046Y-35514369D01*
X66073161Y-35414367D01*
X66324315Y-35277226D01*
X66553395Y-35105739D01*
X66755739Y-34903395D01*
X66927226Y-34674315D01*
X67064367Y-34423161D01*
X67164369Y-34155046D01*
X67225196Y-33875428D01*
X67245610Y-33590000D01*
X67225196Y-33304572D01*
X67164369Y-33024954D01*
X67064367Y-32756839D01*
X66966107Y-32576890D01*
X66927227Y-32505686D01*
X66878777Y-32440965D01*
X66755739Y-32276605D01*
X66553395Y-32074261D01*
X66438855Y-31988517D01*
X66324313Y-31902772D01*
X66073163Y-31765634D01*
X66073162Y-31765633D01*
X66073161Y-31765633D01*
X65898123Y-31700347D01*
X65805041Y-31665629D01*
X65525429Y-31604804D01*
X65240000Y-31584389D01*
X64954570Y-31604804D01*
X64674958Y-31665629D01*
X64406836Y-31765634D01*
X64155686Y-31902772D01*
X63926602Y-32074263D01*
X63724263Y-32276602D01*
X63552772Y-32505686D01*
X63415634Y-32756836D01*
X63315629Y-33024958D01*
X63254804Y-33304570D01*
X63234389Y-33590000D01*
X62773472Y-33590000D01*
X62755063Y-33379592D01*
X62693903Y-33151337D01*
X62594035Y-32937171D01*
X62458495Y-32743599D01*
X62291401Y-32576505D01*
X62097830Y-32440965D01*
X61883663Y-32341097D01*
X61822502Y-32324709D01*
X61655407Y-32279936D01*
X61420000Y-32259340D01*
X61184592Y-32279936D01*
X60956336Y-32341097D01*
X60742170Y-32440965D01*
X60548598Y-32576505D01*
X60381508Y-32743595D01*
X60381505Y-32743598D01*
X60381505Y-32743599D01*
X60251575Y-32929159D01*
X60246575Y-32936300D01*
X60191998Y-32979924D01*
X60122499Y-32987117D01*
X60060145Y-32955595D01*
X60043425Y-32936300D01*
X60038425Y-32929159D01*
X59908495Y-32743599D01*
X59741401Y-32576505D01*
X59547830Y-32440965D01*
X59333663Y-32341097D01*
X59272502Y-32324709D01*
X59105407Y-32279936D01*
X58869999Y-32259340D01*
X58634592Y-32279936D01*
X58406336Y-32341097D01*
X58192170Y-32440965D01*
X57998598Y-32576505D01*
X57831505Y-32743598D01*
X57701575Y-32929159D01*
X57646998Y-32972784D01*
X57577500Y-32979978D01*
X57515145Y-32948455D01*
X57498425Y-32929159D01*
X57483449Y-32907771D01*
X57368495Y-32743599D01*
X57201401Y-32576505D01*
X57007830Y-32440965D01*
X56793663Y-32341097D01*
X56732502Y-32324709D01*
X56565407Y-32279936D01*
X56330000Y-32259340D01*
X56094592Y-32279936D01*
X55866336Y-32341097D01*
X55652170Y-32440965D01*
X55458598Y-32576505D01*
X55291505Y-32743598D01*
X55161575Y-32929159D01*
X55106998Y-32972784D01*
X55037500Y-32979978D01*
X54975145Y-32948455D01*
X54958425Y-32929159D01*
X54943449Y-32907771D01*
X54828495Y-32743599D01*
X54661401Y-32576505D01*
X54467830Y-32440965D01*
X54253663Y-32341097D01*
X54192502Y-32324709D01*
X54025407Y-32279936D01*
X53790000Y-32259340D01*
X53554592Y-32279936D01*
X53326336Y-32341097D01*
X53112170Y-32440965D01*
X52918598Y-32576505D01*
X52751505Y-32743598D01*
X52621575Y-32929159D01*
X52566998Y-32972784D01*
X52497500Y-32979978D01*
X52435145Y-32948455D01*
X52418425Y-32929159D01*
X52403449Y-32907771D01*
X52288495Y-32743599D01*
X52121401Y-32576505D01*
X51927830Y-32440965D01*
X51713663Y-32341097D01*
X51652502Y-32324709D01*
X51485407Y-32279936D01*
X51249999Y-32259340D01*
X51014592Y-32279936D01*
X50786336Y-32341097D01*
X50572170Y-32440965D01*
X50378598Y-32576505D01*
X50211505Y-32743598D01*
X50075965Y-32937170D01*
X49976097Y-33151336D01*
X49914936Y-33379592D01*
X49894340Y-33615000D01*
X49914936Y-33850407D01*
X49921641Y-33875429D01*
X49976097Y-34078663D01*
X50075965Y-34292830D01*
X50211505Y-34486401D01*
X50378599Y-34653495D01*
X50569160Y-34786927D01*
X50612783Y-34841503D01*
X50619976Y-34911002D01*
X50588454Y-34973356D01*
X50569159Y-34990076D01*
X50388595Y-35116508D01*
X50221505Y-35283598D01*
X50085965Y-35477170D01*
X49986097Y-35691336D01*
X49924936Y-35919592D01*
X49904340Y-36155000D01*
X49924936Y-36390407D01*
X49950496Y-36485798D01*
X49986097Y-36618663D01*
X50085965Y-36832830D01*
X50221505Y-37026401D01*
X50388599Y-37193495D01*
X50574160Y-37323426D01*
X50617783Y-37378002D01*
X50624976Y-37447501D01*
X50593454Y-37509855D01*
X50574159Y-37526575D01*
X50388595Y-37656508D01*
X50221505Y-37823598D01*
X50085965Y-38017170D01*
X49986097Y-38231336D01*
X49924936Y-38459592D01*
X49904340Y-38694999D01*
X49924936Y-38930407D01*
X49950496Y-39025798D01*
X49986097Y-39158663D01*
X50085965Y-39372830D01*
X50221505Y-39566401D01*
X50388599Y-39733495D01*
X50574160Y-39863426D01*
X50617783Y-39918002D01*
X50624976Y-39987501D01*
X50593454Y-40049855D01*
X50574159Y-40066575D01*
X50388595Y-40196508D01*
X50221505Y-40363598D01*
X50085965Y-40557170D01*
X49986097Y-40771336D01*
X49924936Y-40999592D01*
X49904340Y-41235000D01*
X49924936Y-41470407D01*
X49950496Y-41565798D01*
X49986097Y-41698663D01*
X50085965Y-41912830D01*
X50221505Y-42106401D01*
X50388599Y-42273495D01*
X50574160Y-42403426D01*
X50617783Y-42458002D01*
X50624976Y-42527501D01*
X50593454Y-42589855D01*
X50574159Y-42606575D01*
X50388595Y-42736508D01*
X50221505Y-42903598D01*
X50085965Y-43097170D01*
X49986097Y-43311336D01*
X49924936Y-43539592D01*
X49904340Y-43775000D01*
X49924936Y-44010407D01*
X49950496Y-44105798D01*
X49986097Y-44238663D01*
X50085965Y-44452830D01*
X50221505Y-44646401D01*
X50388599Y-44813495D01*
X50573089Y-44942676D01*
X50616713Y-44997252D01*
X50623907Y-45066750D01*
X50592384Y-45129105D01*
X50573089Y-45145825D01*
X50393595Y-45271508D01*
X50226505Y-45438598D01*
X50090965Y-45632170D01*
X49991097Y-45846336D01*
X49929936Y-46074592D01*
X49909340Y-46310000D01*
X49929936Y-46545407D01*
X49956836Y-46645798D01*
X49991097Y-46773663D01*
X50090965Y-46987830D01*
X50226505Y-47181401D01*
X50393599Y-47348495D01*
X50584160Y-47481927D01*
X50627783Y-47536503D01*
X50634976Y-47606002D01*
X50603454Y-47668356D01*
X50584159Y-47685076D01*
X50403595Y-47811508D01*
X50236505Y-47978598D01*
X50100965Y-48172170D01*
X50001097Y-48386336D01*
X49939936Y-48614592D01*
X49919340Y-48850000D01*
X49939936Y-49085407D01*
X49966836Y-49185798D01*
X50001097Y-49313663D01*
X50100965Y-49527830D01*
X50236505Y-49721401D01*
X50403599Y-49888495D01*
X50589160Y-50018426D01*
X50632783Y-50073002D01*
X50639976Y-50142501D01*
X50608454Y-50204855D01*
X50589159Y-50221575D01*
X50403595Y-50351508D01*
X50236505Y-50518598D01*
X50100965Y-50712170D01*
X50001097Y-50926336D01*
X49939936Y-51154592D01*
X49919340Y-51389999D01*
X49939936Y-51625407D01*
X49966836Y-51725798D01*
X50001097Y-51853663D01*
X50100965Y-52067830D01*
X50236505Y-52261401D01*
X50403599Y-52428495D01*
X50589160Y-52558426D01*
X50632783Y-52613002D01*
X50639976Y-52682501D01*
X50608454Y-52744855D01*
X50589159Y-52761575D01*
X50403595Y-52891508D01*
X50236505Y-53058598D01*
X50100965Y-53252170D01*
X50001097Y-53466336D01*
X49939936Y-53694592D01*
X49919340Y-53930000D01*
X49939936Y-54165407D01*
X49966836Y-54265798D01*
X50001097Y-54393663D01*
X50100965Y-54607830D01*
X50236505Y-54801401D01*
X50403599Y-54968495D01*
X50589160Y-55098426D01*
X50632783Y-55153002D01*
X50639976Y-55222501D01*
X50608454Y-55284855D01*
X50589159Y-55301575D01*
X50403595Y-55431508D01*
X50236505Y-55598598D01*
X50100965Y-55792170D01*
X50001097Y-56006336D01*
X49939936Y-56234592D01*
X49919340Y-56469999D01*
X49939936Y-56705407D01*
X49966836Y-56805798D01*
X50001097Y-56933663D01*
X50100965Y-57147830D01*
X50236505Y-57341401D01*
X50403599Y-57508495D01*
X50410738Y-57513494D01*
X50586348Y-57636457D01*
X50629973Y-57691034D01*
X50637166Y-57760532D01*
X50605644Y-57822887D01*
X50584821Y-57837978D01*
X50586057Y-57839743D01*
X50383598Y-57981505D01*
X50216505Y-58148598D01*
X50080965Y-58342170D01*
X49981097Y-58556336D01*
X49919936Y-58784592D01*
X49899340Y-59020000D01*
X49919936Y-59255407D01*
X49964709Y-59422502D01*
X49981097Y-59483663D01*
X50080965Y-59697830D01*
X50216505Y-59891401D01*
X50383599Y-60058495D01*
X50574160Y-60191927D01*
X50617783Y-60246503D01*
X50624976Y-60316002D01*
X50593454Y-60378356D01*
X50574158Y-60395076D01*
X50400736Y-60516508D01*
X50393595Y-60521508D01*
X50226505Y-60688598D01*
X50090965Y-60882170D01*
X49991097Y-61096336D01*
X49929936Y-61324592D01*
X49909340Y-61560000D01*
X49929936Y-61795407D01*
X49974709Y-61962502D01*
X49991097Y-62023663D01*
X50090965Y-62237830D01*
X50226505Y-62431401D01*
X50393599Y-62598495D01*
X50579160Y-62728426D01*
X50622783Y-62783002D01*
X50629976Y-62852501D01*
X50598454Y-62914855D01*
X50579158Y-62931575D01*
X50400736Y-63056508D01*
X50393595Y-63061508D01*
X50226505Y-63228598D01*
X50090965Y-63422170D01*
X49991097Y-63636336D01*
X49929936Y-63864592D01*
X49909340Y-64100000D01*
X49929936Y-64335407D01*
X49974709Y-64502502D01*
X49991097Y-64563663D01*
X50090965Y-64777830D01*
X50226505Y-64971401D01*
X50393599Y-65138495D01*
X50579160Y-65268426D01*
X50622783Y-65323002D01*
X50629976Y-65392501D01*
X50598454Y-65454855D01*
X50579158Y-65471575D01*
X50400736Y-65596508D01*
X50393595Y-65601508D01*
X50226505Y-65768598D01*
X50090965Y-65962170D01*
X49991097Y-66176336D01*
X49929936Y-66404592D01*
X49909340Y-66639999D01*
X49929936Y-66875407D01*
X49974709Y-67042502D01*
X49991097Y-67103663D01*
X50090965Y-67317830D01*
X50226505Y-67511401D01*
X50393599Y-67678495D01*
X50579160Y-67808426D01*
X50622783Y-67863002D01*
X50629976Y-67932501D01*
X50598454Y-67994855D01*
X50579158Y-68011575D01*
X50400736Y-68136508D01*
X50393595Y-68141508D01*
X50226505Y-68308598D01*
X50090965Y-68502170D01*
X49991097Y-68716336D01*
X49929936Y-68944592D01*
X49909340Y-69180000D01*
X49929936Y-69415407D01*
X49974709Y-69582501D01*
X49991097Y-69643663D01*
X50090965Y-69857830D01*
X50226505Y-70051401D01*
X50393599Y-70218495D01*
X50567018Y-70339924D01*
X50610643Y-70394501D01*
X50617835Y-70464000D01*
X50586313Y-70526354D01*
X50567018Y-70543074D01*
X50383595Y-70671508D01*
X50216505Y-70838598D01*
X50080965Y-71032170D01*
X49981097Y-71246336D01*
X49919936Y-71474592D01*
X49899340Y-71710000D01*
X49919936Y-71945407D01*
X49946836Y-72045798D01*
X49981097Y-72173663D01*
X50080965Y-72387830D01*
X50216505Y-72581401D01*
X50383599Y-72748495D01*
X50574160Y-72881927D01*
X50617783Y-72936503D01*
X50624976Y-73006002D01*
X50593454Y-73068356D01*
X50574159Y-73085076D01*
X50393595Y-73211508D01*
X50226505Y-73378598D01*
X50090965Y-73572170D01*
X49991097Y-73786336D01*
X49929936Y-74014592D01*
X49909340Y-74250000D01*
X49929936Y-74485407D01*
X49956836Y-74585798D01*
X49991097Y-74713663D01*
X50090965Y-74927830D01*
X50226505Y-75121401D01*
X50393599Y-75288495D01*
X50579160Y-75418426D01*
X50622783Y-75473002D01*
X50629976Y-75542501D01*
X50598454Y-75604855D01*
X50579159Y-75621575D01*
X50393595Y-75751508D01*
X50226505Y-75918598D01*
X50090965Y-76112170D01*
X49991097Y-76326336D01*
X49929936Y-76554592D01*
X49909340Y-76789999D01*
X49929936Y-77025407D01*
X49956836Y-77125798D01*
X49991097Y-77253663D01*
X50090965Y-77467830D01*
X50226505Y-77661401D01*
X50393599Y-77828495D01*
X50579160Y-77958426D01*
X50622783Y-78013002D01*
X50629976Y-78082501D01*
X50598454Y-78144855D01*
X50579159Y-78161575D01*
X50393595Y-78291508D01*
X50226505Y-78458598D01*
X50090965Y-78652170D01*
X49991097Y-78866336D01*
X49929936Y-79094592D01*
X49909340Y-79329999D01*
X49929936Y-79565407D01*
X49956836Y-79665798D01*
X49991097Y-79793663D01*
X50090965Y-80007830D01*
X50226505Y-80201401D01*
X50393599Y-80368495D01*
X50579160Y-80498426D01*
X50622783Y-80553002D01*
X50629976Y-80622501D01*
X50598454Y-80684855D01*
X50579159Y-80701575D01*
X50393595Y-80831508D01*
X50226505Y-80998598D01*
X50090965Y-81192170D01*
X49991097Y-81406336D01*
X49929936Y-81634592D01*
X49909340Y-81869999D01*
X49929936Y-82105407D01*
X49956836Y-82205798D01*
X49991097Y-82333663D01*
X50090965Y-82547830D01*
X50226505Y-82741401D01*
X50393599Y-82908495D01*
X50557018Y-83022922D01*
X50600643Y-83077499D01*
X50607835Y-83146998D01*
X50576313Y-83209352D01*
X50557018Y-83226072D01*
X50363595Y-83361508D01*
X50196505Y-83528598D01*
X50060965Y-83722170D01*
X49961097Y-83936336D01*
X49899936Y-84164592D01*
X49879340Y-84400000D01*
X49899936Y-84635407D01*
X49944709Y-84802502D01*
X49961097Y-84863663D01*
X50060965Y-85077830D01*
X50196505Y-85271401D01*
X50363599Y-85438495D01*
X50554160Y-85571927D01*
X50597783Y-85626503D01*
X50604976Y-85696002D01*
X50573454Y-85758356D01*
X50554159Y-85775076D01*
X50373595Y-85901508D01*
X50206505Y-86068598D01*
X50070965Y-86262170D01*
X49971097Y-86476336D01*
X49909936Y-86704592D01*
X49889340Y-86939999D01*
X49909936Y-87175407D01*
X49954709Y-87342501D01*
X49971097Y-87403663D01*
X50070965Y-87617830D01*
X50206505Y-87811401D01*
X50373599Y-87978495D01*
X50559160Y-88108426D01*
X50602783Y-88163002D01*
X50609976Y-88232501D01*
X50578454Y-88294855D01*
X50559159Y-88311575D01*
X50373595Y-88441508D01*
X50206505Y-88608598D01*
X50070965Y-88802170D01*
X49971097Y-89016336D01*
X49909936Y-89244592D01*
X49889340Y-89479999D01*
X49909936Y-89715407D01*
X49954709Y-89882501D01*
X49971097Y-89943663D01*
X50070965Y-90157830D01*
X50206505Y-90351401D01*
X50373599Y-90518495D01*
X50559160Y-90648426D01*
X50602783Y-90703002D01*
X50609976Y-90772501D01*
X50578454Y-90834855D01*
X50559159Y-90851575D01*
X50373595Y-90981508D01*
X50206505Y-91148598D01*
X50070965Y-91342170D01*
X49971097Y-91556336D01*
X49909936Y-91784592D01*
X49889340Y-92020000D01*
X49909936Y-92255407D01*
X49954709Y-92422501D01*
X49971097Y-92483663D01*
X50070965Y-92697830D01*
X50206505Y-92891401D01*
X50373599Y-93058495D01*
X50559160Y-93188426D01*
X50602783Y-93243002D01*
X50609976Y-93312501D01*
X50578454Y-93374855D01*
X50559159Y-93391575D01*
X50373595Y-93521508D01*
X50206505Y-93688598D01*
X50070965Y-93882170D01*
X49971097Y-94096336D01*
X49909936Y-94324592D01*
X49889340Y-94560000D01*
X49909936Y-94795407D01*
X49954709Y-94962502D01*
X49971097Y-95023663D01*
X50070965Y-95237830D01*
X50206505Y-95431401D01*
X50373599Y-95598495D01*
X50561301Y-95729925D01*
X50604924Y-95784501D01*
X50612117Y-95854000D01*
X50580595Y-95916354D01*
X50561300Y-95933074D01*
X50363595Y-96071508D01*
X50196505Y-96238598D01*
X50060965Y-96432170D01*
X49961097Y-96646336D01*
X49899936Y-96874592D01*
X49879340Y-97109999D01*
X47575221Y-97109999D01*
X47555063Y-96879592D01*
X47493903Y-96651337D01*
X47394035Y-96437171D01*
X47258495Y-96243599D01*
X47091401Y-96076505D01*
X46905839Y-95946573D01*
X46862216Y-95891998D01*
X46855022Y-95822500D01*
X46886545Y-95760145D01*
X46905837Y-95743428D01*
X47091401Y-95613495D01*
X47258495Y-95446401D01*
X47394035Y-95252830D01*
X47493903Y-95038663D01*
X47555063Y-94810408D01*
X47575659Y-94575000D01*
X47555063Y-94339592D01*
X47493903Y-94111337D01*
X47394035Y-93897171D01*
X47258495Y-93703599D01*
X47091401Y-93536505D01*
X46905839Y-93406573D01*
X46862216Y-93351998D01*
X46855022Y-93282500D01*
X46886545Y-93220145D01*
X46905837Y-93203428D01*
X47091401Y-93073495D01*
X47258495Y-92906401D01*
X47394035Y-92712830D01*
X47493903Y-92498663D01*
X47555063Y-92270408D01*
X47575659Y-92035000D01*
X47555063Y-91799592D01*
X47493903Y-91571337D01*
X47394035Y-91357171D01*
X47258495Y-91163599D01*
X47091401Y-90996505D01*
X46905839Y-90866573D01*
X46862216Y-90811998D01*
X46855022Y-90742500D01*
X46886545Y-90680145D01*
X46905837Y-90663428D01*
X47091401Y-90533495D01*
X47258495Y-90366401D01*
X47394035Y-90172830D01*
X47493903Y-89958663D01*
X47555063Y-89730408D01*
X47575659Y-89495000D01*
X47555063Y-89259592D01*
X47493903Y-89031337D01*
X47394035Y-88817171D01*
X47258495Y-88623599D01*
X47091401Y-88456505D01*
X46905839Y-88326573D01*
X46862216Y-88271998D01*
X46855022Y-88202500D01*
X46886545Y-88140145D01*
X46905837Y-88123428D01*
X47091401Y-87993495D01*
X47258495Y-87826401D01*
X47394035Y-87632830D01*
X47493903Y-87418663D01*
X47555063Y-87190408D01*
X47575659Y-86955000D01*
X47555063Y-86719592D01*
X47493903Y-86491337D01*
X47394035Y-86277171D01*
X47258495Y-86083599D01*
X47091401Y-85916505D01*
X46905839Y-85786573D01*
X46862216Y-85731998D01*
X46855022Y-85662500D01*
X46886545Y-85600145D01*
X46905837Y-85583428D01*
X47091401Y-85453495D01*
X47258495Y-85286401D01*
X47394035Y-85092830D01*
X47493903Y-84878663D01*
X47555063Y-84650408D01*
X47575659Y-84415000D01*
X47555063Y-84179592D01*
X47493903Y-83951337D01*
X47394035Y-83737171D01*
X47258495Y-83543599D01*
X47091401Y-83376505D01*
X46905839Y-83246573D01*
X46862217Y-83191998D01*
X46855024Y-83122499D01*
X46886546Y-83060145D01*
X46905837Y-83043428D01*
X47091401Y-82913495D01*
X47258495Y-82746401D01*
X47394035Y-82552830D01*
X47493903Y-82338663D01*
X47555063Y-82110408D01*
X47575659Y-81875000D01*
X47555063Y-81639592D01*
X47493903Y-81411337D01*
X47394035Y-81197171D01*
X47258495Y-81003599D01*
X47091401Y-80836505D01*
X46905839Y-80706573D01*
X46862216Y-80651998D01*
X46855022Y-80582500D01*
X46886545Y-80520145D01*
X46905837Y-80503428D01*
X47091401Y-80373495D01*
X47258495Y-80206401D01*
X47394035Y-80012830D01*
X47493903Y-79798663D01*
X47555063Y-79570408D01*
X47575659Y-79335000D01*
X47555063Y-79099592D01*
X47493903Y-78871337D01*
X47394035Y-78657171D01*
X47258495Y-78463599D01*
X47091401Y-78296505D01*
X46905839Y-78166573D01*
X46862216Y-78111998D01*
X46855022Y-78042500D01*
X46886545Y-77980145D01*
X46905837Y-77963428D01*
X47091401Y-77833495D01*
X47258495Y-77666401D01*
X47394035Y-77472830D01*
X47493903Y-77258663D01*
X47555063Y-77030408D01*
X47575659Y-76795000D01*
X47575221Y-76789999D01*
X47555063Y-76559592D01*
X47551153Y-76544999D01*
X47493903Y-76331337D01*
X47394035Y-76117171D01*
X47258495Y-75923599D01*
X47091401Y-75756505D01*
X46905839Y-75626573D01*
X46862216Y-75571998D01*
X46855022Y-75502500D01*
X46886545Y-75440145D01*
X46905837Y-75423428D01*
X47091401Y-75293495D01*
X47258495Y-75126401D01*
X47394035Y-74932830D01*
X47493903Y-74718663D01*
X47555063Y-74490408D01*
X47575659Y-74255000D01*
X47555063Y-74019592D01*
X47493903Y-73791337D01*
X47394035Y-73577171D01*
X47258495Y-73383599D01*
X47091401Y-73216505D01*
X46905839Y-73086573D01*
X46862217Y-73031998D01*
X46855024Y-72962499D01*
X46886546Y-72900145D01*
X46905837Y-72883428D01*
X47091401Y-72753495D01*
X47258495Y-72586401D01*
X47394035Y-72392830D01*
X47493903Y-72178663D01*
X47555063Y-71950408D01*
X47575659Y-71715000D01*
X47575221Y-71709999D01*
X47555063Y-71479592D01*
X47551153Y-71464999D01*
X47493903Y-71251337D01*
X47394035Y-71037171D01*
X47258495Y-70843599D01*
X47091401Y-70676505D01*
X46905839Y-70546573D01*
X46862216Y-70491998D01*
X46855022Y-70422500D01*
X46886545Y-70360145D01*
X46905837Y-70343428D01*
X47091401Y-70213495D01*
X47258495Y-70046401D01*
X47394035Y-69852830D01*
X47493903Y-69638663D01*
X47555063Y-69410408D01*
X47575659Y-69175000D01*
X47555063Y-68939592D01*
X47493903Y-68711337D01*
X47394035Y-68497171D01*
X47258495Y-68303599D01*
X47091401Y-68136505D01*
X46905839Y-68006573D01*
X46862216Y-67951998D01*
X46855022Y-67882500D01*
X46886545Y-67820145D01*
X46905837Y-67803428D01*
X47091401Y-67673495D01*
X47258495Y-67506401D01*
X47394035Y-67312830D01*
X47493903Y-67098663D01*
X47555063Y-66870408D01*
X47575659Y-66635000D01*
X47555063Y-66399592D01*
X47493903Y-66171337D01*
X47394035Y-65957171D01*
X47258495Y-65763599D01*
X47091401Y-65596505D01*
X46905839Y-65466573D01*
X46862216Y-65411998D01*
X46855022Y-65342500D01*
X46886545Y-65280145D01*
X46905837Y-65263428D01*
X47091401Y-65133495D01*
X47258495Y-64966401D01*
X47394035Y-64772830D01*
X47493903Y-64558663D01*
X47555063Y-64330408D01*
X47575659Y-64095000D01*
X47555063Y-63859592D01*
X47493903Y-63631337D01*
X47394035Y-63417171D01*
X47258495Y-63223599D01*
X47091401Y-63056505D01*
X46905839Y-62926573D01*
X46862217Y-62871998D01*
X46855024Y-62802499D01*
X46886546Y-62740145D01*
X46905837Y-62723428D01*
X47091401Y-62593495D01*
X47258495Y-62426401D01*
X47394035Y-62232830D01*
X47493903Y-62018663D01*
X47555063Y-61790408D01*
X47575659Y-61555000D01*
X47555063Y-61319592D01*
X47493903Y-61091337D01*
X47394035Y-60877171D01*
X47258495Y-60683599D01*
X47091401Y-60516505D01*
X46905839Y-60386573D01*
X46862216Y-60331998D01*
X46855022Y-60262500D01*
X46886545Y-60200145D01*
X46905837Y-60183428D01*
X47091401Y-60053495D01*
X47258495Y-59886401D01*
X47394035Y-59692830D01*
X47493903Y-59478663D01*
X47555063Y-59250408D01*
X47575659Y-59015000D01*
X47555063Y-58779592D01*
X47493903Y-58551337D01*
X47394035Y-58337171D01*
X47258495Y-58143599D01*
X47091401Y-57976505D01*
X46905839Y-57846573D01*
X46862216Y-57791998D01*
X46855022Y-57722500D01*
X46886545Y-57660145D01*
X46905837Y-57643428D01*
X47091401Y-57513495D01*
X47258495Y-57346401D01*
X47394035Y-57152830D01*
X47493903Y-56938663D01*
X47555063Y-56710408D01*
X47575659Y-56475000D01*
X47555063Y-56239592D01*
X47493903Y-56011337D01*
X47394035Y-55797171D01*
X47258495Y-55603599D01*
X47091401Y-55436505D01*
X46905839Y-55306573D01*
X46862216Y-55251998D01*
X46855022Y-55182500D01*
X46886545Y-55120145D01*
X46905837Y-55103428D01*
X47091401Y-54973495D01*
X47258495Y-54806401D01*
X47394035Y-54612830D01*
X47493903Y-54398663D01*
X47555063Y-54170408D01*
X47575659Y-53935000D01*
X47555063Y-53699592D01*
X47493903Y-53471337D01*
X47394035Y-53257171D01*
X47258495Y-53063599D01*
X47091401Y-52896505D01*
X46905839Y-52766573D01*
X46862216Y-52711998D01*
X46855022Y-52642500D01*
X46886545Y-52580145D01*
X46905837Y-52563428D01*
X47091401Y-52433495D01*
X47258495Y-52266401D01*
X47394035Y-52072830D01*
X47493903Y-51858663D01*
X47555063Y-51630408D01*
X47575659Y-51395000D01*
X47555063Y-51159592D01*
X47493903Y-50931337D01*
X47394035Y-50717171D01*
X47258495Y-50523599D01*
X47091401Y-50356505D01*
X46905839Y-50226573D01*
X46862216Y-50171998D01*
X46855022Y-50102500D01*
X46886545Y-50040145D01*
X46905837Y-50023428D01*
X47091401Y-49893495D01*
X47258495Y-49726401D01*
X47394035Y-49532830D01*
X47493903Y-49318663D01*
X47555063Y-49090408D01*
X47575659Y-48855000D01*
X47575221Y-48849999D01*
X47555063Y-48619592D01*
X47551153Y-48604999D01*
X47493903Y-48391337D01*
X47394035Y-48177171D01*
X47258495Y-47983599D01*
X47091401Y-47816505D01*
X46905839Y-47686573D01*
X46862216Y-47631998D01*
X46855022Y-47562500D01*
X46886545Y-47500145D01*
X46905837Y-47483428D01*
X47091401Y-47353495D01*
X47258495Y-47186401D01*
X47394035Y-46992830D01*
X47493903Y-46778663D01*
X47555063Y-46550408D01*
X47575659Y-46315000D01*
X47555063Y-46079592D01*
X47493903Y-45851337D01*
X47394035Y-45637171D01*
X47258495Y-45443599D01*
X47091401Y-45276505D01*
X46905839Y-45146573D01*
X46862216Y-45091998D01*
X46855022Y-45022500D01*
X46886545Y-44960145D01*
X46905837Y-44943428D01*
X47091401Y-44813495D01*
X47258495Y-44646401D01*
X47394035Y-44452830D01*
X47493903Y-44238663D01*
X47555063Y-44010408D01*
X47575659Y-43775000D01*
X47555063Y-43539592D01*
X47493903Y-43311337D01*
X47394035Y-43097171D01*
X47258495Y-42903599D01*
X47091401Y-42736505D01*
X46905839Y-42606573D01*
X46862216Y-42551998D01*
X46855022Y-42482500D01*
X46886545Y-42420145D01*
X46905837Y-42403428D01*
X47091401Y-42273495D01*
X47258495Y-42106401D01*
X47394035Y-41912830D01*
X47493903Y-41698663D01*
X47555063Y-41470408D01*
X47575659Y-41235000D01*
X47555063Y-40999592D01*
X47493903Y-40771337D01*
X47394035Y-40557171D01*
X47258495Y-40363599D01*
X47091401Y-40196505D01*
X46905839Y-40066573D01*
X46862215Y-40011997D01*
X46855023Y-39942498D01*
X46886545Y-39880144D01*
X46905831Y-39863432D01*
X47091401Y-39733495D01*
X47258495Y-39566401D01*
X47394035Y-39372830D01*
X47493903Y-39158663D01*
X47555063Y-38930408D01*
X47575659Y-38695000D01*
X47555063Y-38459592D01*
X47493903Y-38231337D01*
X47394035Y-38017171D01*
X47258495Y-37823599D01*
X47091401Y-37656505D01*
X46905839Y-37526573D01*
X46862215Y-37471997D01*
X46855023Y-37402498D01*
X46886545Y-37340144D01*
X46905831Y-37323432D01*
X47091401Y-37193495D01*
X47258495Y-37026401D01*
X47394035Y-36832830D01*
X47493903Y-36618663D01*
X47555063Y-36390408D01*
X47575659Y-36155000D01*
X47555063Y-35919592D01*
X47493903Y-35691337D01*
X47394035Y-35477171D01*
X47258495Y-35283599D01*
X47136569Y-35161673D01*
X47103084Y-35100350D01*
X47108068Y-35030658D01*
X47149940Y-34974725D01*
X47180915Y-34957810D01*
X47312331Y-34908796D01*
X47427546Y-34822546D01*
X47513796Y-34707331D01*
X47564091Y-34572483D01*
X47570500Y-34512873D01*
X47570499Y-32717128D01*
X47564091Y-32657517D01*
X47513796Y-32522669D01*
X47427546Y-32407454D01*
X47312331Y-32321204D01*
X47177483Y-32270909D01*
X47117873Y-32264500D01*
X47114550Y-32264500D01*
X45325439Y-32264500D01*
X45325420Y-32264500D01*
X45322128Y-32264501D01*
X45318848Y-32264853D01*
X45318840Y-32264854D01*
X45262515Y-32270909D01*
X45127669Y-32321204D01*
X45012454Y-32407454D01*
X44926204Y-32522669D01*
X44876997Y-32654599D01*
X44835125Y-32710532D01*
X44769661Y-32734949D01*
X44701388Y-32720097D01*
X44673134Y-32698946D01*
X44551081Y-32576893D01*
X44357576Y-32441399D01*
X44143492Y-32341569D01*
X43930000Y-32284364D01*
X43930000Y-33179498D01*
X43822315Y-33130320D01*
X43715763Y-33115000D01*
X43644237Y-33115000D01*
X43537685Y-33130320D01*
X43430000Y-33179498D01*
X43430000Y-32284364D01*
X43429999Y-32284364D01*
X43216507Y-32341569D01*
X43002421Y-32441400D01*
X42808921Y-32576890D01*
X42641890Y-32743921D01*
X42506400Y-32937421D01*
X42406569Y-33151507D01*
X42349364Y-33364999D01*
X42349364Y-33365000D01*
X43246314Y-33365000D01*
X43220507Y-33405156D01*
X43180000Y-33543111D01*
X43180000Y-33686889D01*
X43220507Y-33824844D01*
X43246314Y-33865000D01*
X42349364Y-33865000D01*
X42406569Y-34078492D01*
X42506399Y-34292576D01*
X42641893Y-34486081D01*
X42808918Y-34653106D01*
X42995031Y-34783425D01*
X43038656Y-34838002D01*
X43045848Y-34907501D01*
X43014326Y-34969855D01*
X42995031Y-34986575D01*
X42808918Y-35116893D01*
X42641890Y-35283921D01*
X42506400Y-35477421D01*
X42406569Y-35691507D01*
X42349364Y-35904999D01*
X42349364Y-35905000D01*
X43246314Y-35905000D01*
X43220507Y-35945156D01*
X43180000Y-36083111D01*
X43180000Y-36226889D01*
X43220507Y-36364844D01*
X43246314Y-36405000D01*
X42349364Y-36405000D01*
X42406569Y-36618492D01*
X42506399Y-36832576D01*
X42641893Y-37026081D01*
X42808918Y-37193106D01*
X42995031Y-37323425D01*
X43038656Y-37378002D01*
X43045848Y-37447501D01*
X43014326Y-37509855D01*
X42995031Y-37526575D01*
X42808918Y-37656893D01*
X42641890Y-37823921D01*
X42506400Y-38017421D01*
X42406569Y-38231507D01*
X42349364Y-38444999D01*
X42349364Y-38445000D01*
X43246314Y-38445000D01*
X43220507Y-38485156D01*
X43180000Y-38623111D01*
X43180000Y-38766889D01*
X43220507Y-38904844D01*
X43246314Y-38945000D01*
X42349364Y-38945000D01*
X42406569Y-39158492D01*
X42506399Y-39372576D01*
X42641893Y-39566081D01*
X42808918Y-39733106D01*
X42995031Y-39863425D01*
X43038656Y-39918002D01*
X43045848Y-39987501D01*
X43014326Y-40049855D01*
X42995031Y-40066575D01*
X42808918Y-40196893D01*
X42641890Y-40363921D01*
X42506400Y-40557421D01*
X42406569Y-40771507D01*
X42349364Y-40984999D01*
X42349364Y-40985000D01*
X43246314Y-40985000D01*
X43220507Y-41025156D01*
X43180000Y-41163111D01*
X43180000Y-41306889D01*
X43220507Y-41444844D01*
X43246314Y-41485000D01*
X42349364Y-41485000D01*
X42406569Y-41698492D01*
X42506399Y-41912576D01*
X42641893Y-42106081D01*
X42808918Y-42273106D01*
X42995031Y-42403425D01*
X43038656Y-42458002D01*
X43045848Y-42527501D01*
X43014326Y-42589855D01*
X42995031Y-42606575D01*
X42808918Y-42736893D01*
X42641890Y-42903921D01*
X42506400Y-43097421D01*
X42406569Y-43311507D01*
X42349364Y-43524999D01*
X42349364Y-43525000D01*
X43246314Y-43525000D01*
X43220507Y-43565156D01*
X43180000Y-43703111D01*
X43180000Y-43846889D01*
X43220507Y-43984844D01*
X43246314Y-44025000D01*
X42349364Y-44025000D01*
X42406569Y-44238492D01*
X42506399Y-44452576D01*
X42641893Y-44646081D01*
X42808918Y-44813106D01*
X42995031Y-44943425D01*
X43038656Y-44998002D01*
X43045848Y-45067501D01*
X43014326Y-45129855D01*
X42995031Y-45146575D01*
X42808918Y-45276893D01*
X42641890Y-45443921D01*
X42506400Y-45637421D01*
X42406569Y-45851507D01*
X42349364Y-46064999D01*
X42349364Y-46065000D01*
X43246314Y-46065000D01*
X43220507Y-46105156D01*
X43180000Y-46243111D01*
X43180000Y-46386889D01*
X43220507Y-46524844D01*
X43246314Y-46565000D01*
X42349364Y-46565000D01*
X42406569Y-46778492D01*
X42506399Y-46992576D01*
X42641893Y-47186081D01*
X42808918Y-47353106D01*
X42995031Y-47483425D01*
X43038656Y-47538002D01*
X43045848Y-47607501D01*
X43014326Y-47669855D01*
X42995031Y-47686575D01*
X42808918Y-47816893D01*
X42641890Y-47983921D01*
X42506400Y-48177421D01*
X42406569Y-48391507D01*
X42349364Y-48604999D01*
X42349364Y-48605000D01*
X43246314Y-48605000D01*
X43220507Y-48645156D01*
X43180000Y-48783111D01*
X43180000Y-48926889D01*
X43220507Y-49064844D01*
X43246314Y-49105000D01*
X42349364Y-49105000D01*
X42406569Y-49318492D01*
X42506399Y-49532576D01*
X42641893Y-49726081D01*
X42808918Y-49893106D01*
X42995031Y-50023425D01*
X43038656Y-50078002D01*
X43045848Y-50147501D01*
X43014326Y-50209855D01*
X42995031Y-50226575D01*
X42808918Y-50356893D01*
X42641890Y-50523921D01*
X42506400Y-50717421D01*
X42406569Y-50931507D01*
X42349364Y-51144999D01*
X42349364Y-51145000D01*
X43246314Y-51145000D01*
X43220507Y-51185156D01*
X43180000Y-51323111D01*
X43180000Y-51466889D01*
X43220507Y-51604844D01*
X43246314Y-51645000D01*
X42349364Y-51645000D01*
X42406569Y-51858492D01*
X42506399Y-52072576D01*
X42641893Y-52266081D01*
X42808918Y-52433106D01*
X42995031Y-52563425D01*
X43038656Y-52618002D01*
X43045848Y-52687501D01*
X43014326Y-52749855D01*
X42995031Y-52766575D01*
X42808918Y-52896893D01*
X42641890Y-53063921D01*
X42506400Y-53257421D01*
X42406569Y-53471507D01*
X42349364Y-53684999D01*
X42349364Y-53685000D01*
X43246314Y-53685000D01*
X43220507Y-53725156D01*
X43180000Y-53863111D01*
X43180000Y-54006889D01*
X43220507Y-54144844D01*
X43246314Y-54185000D01*
X42349364Y-54185000D01*
X42406569Y-54398492D01*
X42506399Y-54612576D01*
X42641893Y-54806081D01*
X42808918Y-54973106D01*
X42995031Y-55103425D01*
X43038656Y-55158002D01*
X43045848Y-55227501D01*
X43014326Y-55289855D01*
X42995031Y-55306575D01*
X42808918Y-55436893D01*
X42641890Y-55603921D01*
X42506400Y-55797421D01*
X42406569Y-56011507D01*
X42349364Y-56224999D01*
X42349364Y-56225000D01*
X43246314Y-56225000D01*
X43220507Y-56265156D01*
X43180000Y-56403111D01*
X43180000Y-56546889D01*
X43220507Y-56684844D01*
X43246314Y-56725000D01*
X42349364Y-56725000D01*
X42406569Y-56938492D01*
X42506399Y-57152576D01*
X42641893Y-57346081D01*
X42808918Y-57513106D01*
X42995031Y-57643425D01*
X43038656Y-57698002D01*
X43045848Y-57767501D01*
X43014326Y-57829855D01*
X42995031Y-57846575D01*
X42808918Y-57976893D01*
X42641890Y-58143921D01*
X42506400Y-58337421D01*
X42406569Y-58551507D01*
X42349364Y-58764999D01*
X42349364Y-58765000D01*
X43246314Y-58765000D01*
X43220507Y-58805156D01*
X43180000Y-58943111D01*
X43180000Y-59086889D01*
X43220507Y-59224844D01*
X43246314Y-59265000D01*
X42349364Y-59265000D01*
X42406569Y-59478492D01*
X42506399Y-59692576D01*
X42641893Y-59886081D01*
X42808918Y-60053106D01*
X42995031Y-60183425D01*
X43038656Y-60238002D01*
X43045848Y-60307501D01*
X43014326Y-60369855D01*
X42995031Y-60386575D01*
X42808918Y-60516893D01*
X42641890Y-60683921D01*
X42506400Y-60877421D01*
X42406569Y-61091507D01*
X42349364Y-61304999D01*
X42349364Y-61305000D01*
X43246314Y-61305000D01*
X43220507Y-61345156D01*
X43180000Y-61483111D01*
X43180000Y-61626889D01*
X43220507Y-61764844D01*
X43246314Y-61805000D01*
X42349364Y-61805000D01*
X42406569Y-62018492D01*
X42506399Y-62232576D01*
X42641893Y-62426081D01*
X42808918Y-62593106D01*
X42995031Y-62723425D01*
X43038656Y-62778002D01*
X43045848Y-62847501D01*
X43014326Y-62909855D01*
X42995031Y-62926575D01*
X42808918Y-63056893D01*
X42641890Y-63223921D01*
X42506400Y-63417421D01*
X42406569Y-63631507D01*
X42349364Y-63844999D01*
X42349364Y-63845000D01*
X43246314Y-63845000D01*
X43220507Y-63885156D01*
X43180000Y-64023111D01*
X43180000Y-64166889D01*
X43220507Y-64304844D01*
X43246314Y-64345000D01*
X42349364Y-64345000D01*
X42406569Y-64558492D01*
X42506399Y-64772576D01*
X42641893Y-64966081D01*
X42808918Y-65133106D01*
X42995031Y-65263425D01*
X43038656Y-65318002D01*
X43045848Y-65387501D01*
X43014326Y-65449855D01*
X42995031Y-65466575D01*
X42808918Y-65596893D01*
X42641890Y-65763921D01*
X42506400Y-65957421D01*
X42406569Y-66171507D01*
X42349364Y-66384999D01*
X42349364Y-66385000D01*
X43246314Y-66385000D01*
X43220507Y-66425156D01*
X43180000Y-66563111D01*
X43180000Y-66706889D01*
X43220507Y-66844844D01*
X43246314Y-66885000D01*
X42349364Y-66885000D01*
X42406569Y-67098492D01*
X42506399Y-67312576D01*
X42641893Y-67506081D01*
X42808918Y-67673106D01*
X42995031Y-67803425D01*
X43038656Y-67858002D01*
X43045848Y-67927501D01*
X43014326Y-67989855D01*
X42995031Y-68006575D01*
X42808918Y-68136893D01*
X42641890Y-68303921D01*
X42506400Y-68497421D01*
X42406569Y-68711507D01*
X42349364Y-68924999D01*
X42349364Y-68925000D01*
X43246314Y-68925000D01*
X43220507Y-68965156D01*
X43180000Y-69103111D01*
X43180000Y-69246889D01*
X43220507Y-69384844D01*
X43246314Y-69425000D01*
X42349364Y-69425000D01*
X42406569Y-69638492D01*
X42506399Y-69852576D01*
X42641893Y-70046081D01*
X42808918Y-70213106D01*
X42995031Y-70343425D01*
X43038656Y-70398002D01*
X43045848Y-70467501D01*
X43014326Y-70529855D01*
X42995031Y-70546575D01*
X42808918Y-70676893D01*
X42641890Y-70843921D01*
X42506400Y-71037421D01*
X42406569Y-71251507D01*
X42349364Y-71464999D01*
X42349364Y-71465000D01*
X43246314Y-71465000D01*
X43220507Y-71505156D01*
X43180000Y-71643111D01*
X43180000Y-71786889D01*
X43220507Y-71924844D01*
X43246314Y-71965000D01*
X42349364Y-71965000D01*
X42406569Y-72178492D01*
X42506399Y-72392576D01*
X42641893Y-72586081D01*
X42808918Y-72753106D01*
X42995031Y-72883425D01*
X43038656Y-72938002D01*
X43045848Y-73007501D01*
X43014326Y-73069855D01*
X42995031Y-73086575D01*
X42808918Y-73216893D01*
X42641890Y-73383921D01*
X42506400Y-73577421D01*
X42406569Y-73791507D01*
X42349364Y-74004999D01*
X42349364Y-74005000D01*
X43246314Y-74005000D01*
X43220507Y-74045156D01*
X43180000Y-74183111D01*
X43180000Y-74326889D01*
X43220507Y-74464844D01*
X43246314Y-74505000D01*
X42349364Y-74505000D01*
X42406569Y-74718492D01*
X42506399Y-74932576D01*
X42641893Y-75126081D01*
X42808918Y-75293106D01*
X42995031Y-75423425D01*
X43038656Y-75478002D01*
X43045848Y-75547501D01*
X43014326Y-75609855D01*
X42995031Y-75626575D01*
X42808918Y-75756893D01*
X42641890Y-75923921D01*
X42506400Y-76117421D01*
X42406569Y-76331507D01*
X42349364Y-76544999D01*
X42349364Y-76545000D01*
X43246314Y-76545000D01*
X43220507Y-76585156D01*
X43180000Y-76723111D01*
X43180000Y-76866889D01*
X43220507Y-77004844D01*
X43246314Y-77045000D01*
X42349364Y-77045000D01*
X42406569Y-77258492D01*
X42506399Y-77472576D01*
X42641893Y-77666081D01*
X42808918Y-77833106D01*
X42995031Y-77963425D01*
X43038656Y-78018002D01*
X43045848Y-78087501D01*
X43014326Y-78149855D01*
X42995031Y-78166575D01*
X42808918Y-78296893D01*
X42641890Y-78463921D01*
X42506400Y-78657421D01*
X42406569Y-78871507D01*
X42349364Y-79084999D01*
X42349364Y-79085000D01*
X43246314Y-79085000D01*
X43220507Y-79125156D01*
X43180000Y-79263111D01*
X43180000Y-79406889D01*
X43220507Y-79544844D01*
X43246314Y-79585000D01*
X42349364Y-79585000D01*
X42406569Y-79798492D01*
X42506399Y-80012576D01*
X42641893Y-80206081D01*
X42808918Y-80373106D01*
X42995031Y-80503425D01*
X43038656Y-80558002D01*
X43045848Y-80627501D01*
X43014326Y-80689855D01*
X42995031Y-80706575D01*
X42808918Y-80836893D01*
X42641890Y-81003921D01*
X42506400Y-81197421D01*
X42406569Y-81411507D01*
X42349364Y-81624999D01*
X42349364Y-81625000D01*
X43246314Y-81625000D01*
X43220507Y-81665156D01*
X43180000Y-81803111D01*
X43180000Y-81946889D01*
X43220507Y-82084844D01*
X43246314Y-82125000D01*
X42349364Y-82125000D01*
X42406569Y-82338492D01*
X42506399Y-82552576D01*
X42641893Y-82746081D01*
X42808918Y-82913106D01*
X42995031Y-83043425D01*
X43038656Y-83098002D01*
X43045848Y-83167501D01*
X43014326Y-83229855D01*
X42995031Y-83246575D01*
X42808918Y-83376893D01*
X42641890Y-83543921D01*
X42506400Y-83737421D01*
X42406569Y-83951507D01*
X42349364Y-84164999D01*
X42349364Y-84165000D01*
X43246314Y-84165000D01*
X43220507Y-84205156D01*
X43180000Y-84343111D01*
X43180000Y-84486889D01*
X43220507Y-84624844D01*
X43246314Y-84665000D01*
X42349364Y-84665000D01*
X42406569Y-84878492D01*
X42506399Y-85092576D01*
X42641893Y-85286081D01*
X42808918Y-85453106D01*
X42995031Y-85583425D01*
X43038656Y-85638002D01*
X43045848Y-85707501D01*
X43014326Y-85769855D01*
X42995031Y-85786575D01*
X42808918Y-85916893D01*
X42641890Y-86083921D01*
X42506400Y-86277421D01*
X42406569Y-86491507D01*
X42349364Y-86704999D01*
X42349364Y-86705000D01*
X43246314Y-86705000D01*
X43220507Y-86745156D01*
X43180000Y-86883111D01*
X43180000Y-87026889D01*
X43220507Y-87164844D01*
X43246314Y-87205000D01*
X42349364Y-87205000D01*
X42406569Y-87418492D01*
X42506399Y-87632576D01*
X42641893Y-87826081D01*
X42808918Y-87993106D01*
X42995031Y-88123425D01*
X43038656Y-88178002D01*
X43045848Y-88247501D01*
X43014326Y-88309855D01*
X42995031Y-88326575D01*
X42808918Y-88456893D01*
X42641890Y-88623921D01*
X42506400Y-88817421D01*
X42406569Y-89031507D01*
X42349364Y-89244999D01*
X42349364Y-89245000D01*
X43246314Y-89245000D01*
X43220507Y-89285156D01*
X43180000Y-89423111D01*
X43180000Y-89566889D01*
X43220507Y-89704844D01*
X43246314Y-89745000D01*
X42349364Y-89745000D01*
X42406569Y-89958492D01*
X42506399Y-90172576D01*
X42641893Y-90366081D01*
X42808918Y-90533106D01*
X42995031Y-90663425D01*
X43038656Y-90718002D01*
X43045848Y-90787501D01*
X43014326Y-90849855D01*
X42995031Y-90866575D01*
X42808918Y-90996893D01*
X42641890Y-91163921D01*
X42506400Y-91357421D01*
X42406569Y-91571507D01*
X42349364Y-91784999D01*
X42349364Y-91785000D01*
X43246314Y-91785000D01*
X43220507Y-91825156D01*
X43180000Y-91963111D01*
X43180000Y-92106889D01*
X43220507Y-92244844D01*
X43246314Y-92285000D01*
X42349364Y-92285000D01*
X42406569Y-92498492D01*
X42506399Y-92712576D01*
X42641893Y-92906081D01*
X42808918Y-93073106D01*
X42995031Y-93203425D01*
X43038656Y-93258002D01*
X43045848Y-93327501D01*
X43014326Y-93389855D01*
X42995031Y-93406575D01*
X42808918Y-93536893D01*
X42641890Y-93703921D01*
X42506400Y-93897421D01*
X42406569Y-94111507D01*
X42349364Y-94324999D01*
X42349364Y-94325000D01*
X43246314Y-94325000D01*
X43220507Y-94365156D01*
X43180000Y-94503111D01*
X43180000Y-94646889D01*
X43220507Y-94784844D01*
X43246314Y-94825000D01*
X42349364Y-94825000D01*
X42406569Y-95038492D01*
X42506399Y-95252576D01*
X42641893Y-95446081D01*
X42808918Y-95613106D01*
X42995031Y-95743425D01*
X43038656Y-95798002D01*
X43045848Y-95867501D01*
X43014326Y-95929855D01*
X42995031Y-95946575D01*
X42808918Y-96076893D01*
X42641890Y-96243921D01*
X42506400Y-96437421D01*
X42406569Y-96651507D01*
X42349364Y-96864999D01*
X42349364Y-96865000D01*
X43246314Y-96865000D01*
X43220507Y-96905156D01*
X43180000Y-97043111D01*
X43180000Y-97186889D01*
X43220507Y-97324844D01*
X43246314Y-97365000D01*
X42349364Y-97365000D01*
X42406569Y-97578492D01*
X42506399Y-97792576D01*
X42641893Y-97986081D01*
X42808918Y-98153106D01*
X42995031Y-98283425D01*
X43038656Y-98338002D01*
X43045848Y-98407501D01*
X43014326Y-98469855D01*
X42995031Y-98486575D01*
X42808918Y-98616893D01*
X42641890Y-98783921D01*
X42506400Y-98977421D01*
X42406569Y-99191507D01*
X42349364Y-99404999D01*
X42349364Y-99405000D01*
X43246314Y-99405000D01*
X43220507Y-99445156D01*
X43180000Y-99583111D01*
X43180000Y-99726889D01*
X43220507Y-99864844D01*
X43246314Y-99905000D01*
X42349364Y-99905000D01*
X42406569Y-100118492D01*
X42506399Y-100332576D01*
X42641893Y-100526081D01*
X42808918Y-100693106D01*
X42995031Y-100823425D01*
X43038656Y-100878002D01*
X43045848Y-100947501D01*
X43014326Y-101009855D01*
X42995031Y-101026575D01*
X42808918Y-101156893D01*
X42641890Y-101323921D01*
X42506400Y-101517421D01*
X42406569Y-101731507D01*
X42349364Y-101944999D01*
X42349364Y-101945000D01*
X43246314Y-101945000D01*
X43220507Y-101985156D01*
X43180000Y-102123111D01*
X43180000Y-102266889D01*
X43220507Y-102404844D01*
X43246314Y-102445000D01*
X42349364Y-102445000D01*
X42406569Y-102658492D01*
X42506399Y-102872576D01*
X42641893Y-103066081D01*
X42808918Y-103233106D01*
X42995031Y-103363425D01*
X43038656Y-103418002D01*
X43045848Y-103487501D01*
X43014326Y-103549855D01*
X42995031Y-103566575D01*
X42808918Y-103696893D01*
X42641890Y-103863921D01*
X42506400Y-104057421D01*
X42406569Y-104271507D01*
X42349364Y-104484999D01*
X42349364Y-104485000D01*
X43246314Y-104485000D01*
X43220507Y-104525156D01*
X43180000Y-104663111D01*
X43180000Y-104806889D01*
X43220507Y-104944844D01*
X43246314Y-104985000D01*
X42349364Y-104985000D01*
X42406569Y-105198492D01*
X42506399Y-105412576D01*
X42641893Y-105606081D01*
X42808918Y-105773106D01*
X42995031Y-105903425D01*
X43038656Y-105958002D01*
X43045848Y-106027501D01*
X43014326Y-106089855D01*
X42995031Y-106106575D01*
X42808918Y-106236893D01*
X42641890Y-106403921D01*
X42506400Y-106597421D01*
X42406569Y-106811507D01*
X42349364Y-107024999D01*
X42349364Y-107025000D01*
X43246314Y-107025000D01*
X43220507Y-107065156D01*
X43180000Y-107203111D01*
X43180000Y-107346889D01*
X43220507Y-107484844D01*
X43246314Y-107525000D01*
X42349364Y-107525000D01*
X40880500Y-107525000D01*
X40880500Y-31854065D01*
X40880765Y-31845956D01*
X40880766Y-31845943D01*
X40885991Y-31766208D01*
X40898709Y-31588405D01*
X40900770Y-31573101D01*
X40923163Y-31460523D01*
X40953795Y-31319717D01*
X40957515Y-31306318D01*
X40996243Y-31192230D01*
X40997404Y-31188967D01*
X41045068Y-31061177D01*
X41050017Y-31049713D01*
X41104481Y-30939272D01*
X41106777Y-30934851D01*
X41170855Y-30817501D01*
X41176562Y-30808075D01*
X41245639Y-30704694D01*
X41249425Y-30699344D01*
X41328850Y-30593246D01*
X41334823Y-30585878D01*
X41417161Y-30491989D01*
X41422648Y-30486131D01*
X41516131Y-30392648D01*
X41521989Y-30387161D01*
X41615878Y-30304823D01*
X41623246Y-30298850D01*
X41729344Y-30219425D01*
X41734694Y-30215639D01*
X41838075Y-30146562D01*
X41847501Y-30140855D01*
X41964851Y-30076777D01*
X41969272Y-30074481D01*
X42079713Y-30020017D01*
X42091177Y-30015068D01*
X42218967Y-29967404D01*
X42222230Y-29966243D01*
X42336305Y-29927519D01*
X42349754Y-29923787D01*
X42490546Y-29893159D01*
X42603125Y-29870766D01*
X42618402Y-29868709D01*
X42796208Y-29855991D01*
X42872267Y-29851006D01*
X42875958Y-29850765D01*
X42884063Y-29850500D01*
X87615935Y-29850500D01*
X87624042Y-29850764D01*
G37*
%TD.AperFunction*%
%TD*%
M02*
