%TF.GenerationSoftware,KiCad,Pcbnew,7.0.2*%
%TF.CreationDate,2024-01-28T20:17:23-05:00*%
%TF.ProjectId,dpx_perv_5x30,6470785f-7065-4727-965f-357833302e6b,rev?*%
%TF.SameCoordinates,Original*%
%TF.FileFunction,Soldermask,Bot*%
%TF.FilePolarity,Negative*%
%FSLAX46Y46*%
G04 Gerber Fmt 4.6, Leading zero omitted, Abs format (unit mm)*
G04 Created by KiCad (PCBNEW 7.0.2) date 2024-01-28 20:17:23*
%MOMM*%
%LPD*%
G01*
G04 APERTURE LIST*
%ADD10R,1.700000X1.700000*%
%ADD11O,1.700000X1.700000*%
G04 APERTURE END LIST*
D10*
%TO.C,J1*%
X46220000Y-33615000D03*
D11*
X43680000Y-33615000D03*
X46220000Y-36155000D03*
X43680000Y-36155000D03*
X46220000Y-38695000D03*
X43680000Y-38695000D03*
X46220000Y-41235000D03*
X43680000Y-41235000D03*
X46220000Y-43775000D03*
X43680000Y-43775000D03*
X46220000Y-46315000D03*
X43680000Y-46315000D03*
X46220000Y-48855000D03*
X43680000Y-48855000D03*
X46220000Y-51395000D03*
X43680000Y-51395000D03*
X46220000Y-53935000D03*
X43680000Y-53935000D03*
X46220000Y-56475000D03*
X43680000Y-56475000D03*
X46220000Y-59015000D03*
X43680000Y-59015000D03*
X46220000Y-61555000D03*
X43680000Y-61555000D03*
X46220000Y-64095000D03*
X43680000Y-64095000D03*
X46220000Y-66635000D03*
X43680000Y-66635000D03*
X46220000Y-69175000D03*
X43680000Y-69175000D03*
X46220000Y-71715000D03*
X43680000Y-71715000D03*
X46220000Y-74255000D03*
X43680000Y-74255000D03*
X46220000Y-76795000D03*
X43680000Y-76795000D03*
X46220000Y-79335000D03*
X43680000Y-79335000D03*
X46220000Y-81875000D03*
X43680000Y-81875000D03*
X46220000Y-84415000D03*
X43680000Y-84415000D03*
X46220000Y-86955000D03*
X43680000Y-86955000D03*
X46220000Y-89495000D03*
X43680000Y-89495000D03*
X46220000Y-92035000D03*
X43680000Y-92035000D03*
X46220000Y-94575000D03*
X43680000Y-94575000D03*
X46220000Y-97115000D03*
X43680000Y-97115000D03*
X46220000Y-99655000D03*
X43680000Y-99655000D03*
X46220000Y-102195000D03*
X43680000Y-102195000D03*
X46220000Y-104735000D03*
X43680000Y-104735000D03*
X46220000Y-107275000D03*
X43680000Y-107275000D03*
%TD*%
D10*
%TO.C,J2*%
X86770000Y-33615000D03*
D11*
X84230000Y-33615000D03*
X86770000Y-36155000D03*
X84230000Y-36155000D03*
X86770000Y-38695000D03*
X84230000Y-38695000D03*
X86770000Y-41235000D03*
X84230000Y-41235000D03*
X86770000Y-43775000D03*
X84230000Y-43775000D03*
X86770000Y-46315000D03*
X84230000Y-46315000D03*
X86770000Y-48855000D03*
X84230000Y-48855000D03*
X86770000Y-51395000D03*
X84230000Y-51395000D03*
X86770000Y-53935000D03*
X84230000Y-53935000D03*
X86770000Y-56475000D03*
X84230000Y-56475000D03*
X86770000Y-59015000D03*
X84230000Y-59015000D03*
X86770000Y-61555000D03*
X84230000Y-61555000D03*
X86770000Y-64095000D03*
X84230000Y-64095000D03*
X86770000Y-66635000D03*
X84230000Y-66635000D03*
X86770000Y-69175000D03*
X84230000Y-69175000D03*
X86770000Y-71715000D03*
X84230000Y-71715000D03*
X86770000Y-74255000D03*
X84230000Y-74255000D03*
X86770000Y-76795000D03*
X84230000Y-76795000D03*
X86770000Y-79335000D03*
X84230000Y-79335000D03*
X86770000Y-81875000D03*
X84230000Y-81875000D03*
X86770000Y-84415000D03*
X84230000Y-84415000D03*
X86770000Y-86955000D03*
X84230000Y-86955000D03*
X86770000Y-89495000D03*
X84230000Y-89495000D03*
X86770000Y-92035000D03*
X84230000Y-92035000D03*
X86770000Y-94575000D03*
X84230000Y-94575000D03*
X86770000Y-97115000D03*
X84230000Y-97115000D03*
X86770000Y-99655000D03*
X84230000Y-99655000D03*
X86770000Y-102195000D03*
X84230000Y-102195000D03*
X86770000Y-104735000D03*
X84230000Y-104735000D03*
X86770000Y-107275000D03*
X84230000Y-107275000D03*
%TD*%
%TO.C,U6*%
X79165000Y-97110000D03*
X76625000Y-97110000D03*
X74085000Y-97110000D03*
X71545000Y-97110000D03*
X69005000Y-97110000D03*
X61405000Y-97110000D03*
X79165000Y-99650000D03*
X76625000Y-99650000D03*
X74085000Y-99650000D03*
X71545000Y-99650000D03*
X69005000Y-99650000D03*
X61405000Y-99650000D03*
X58865000Y-99650000D03*
X58855000Y-97110000D03*
X56325000Y-99650000D03*
X56315000Y-97110000D03*
X53785000Y-99650000D03*
X53775000Y-97110000D03*
X51245000Y-99650000D03*
X51235000Y-97110000D03*
X79165000Y-102190000D03*
X76625000Y-102190000D03*
X74085000Y-102190000D03*
X71545000Y-102190000D03*
X69005000Y-102190000D03*
X61405000Y-102190000D03*
X58865000Y-102190000D03*
X56325000Y-102190000D03*
X53785000Y-102190000D03*
X51245000Y-102190000D03*
X79165000Y-104730000D03*
X76625000Y-104730000D03*
X74085000Y-104730000D03*
X71545000Y-104730000D03*
X69005000Y-104730000D03*
X61405000Y-104730000D03*
X58865000Y-104730000D03*
X56325000Y-104730000D03*
X53785000Y-104730000D03*
X51245000Y-104730000D03*
X79165000Y-107270000D03*
X76625000Y-107270000D03*
X74085000Y-107270000D03*
X71545000Y-107270000D03*
X69005000Y-107270000D03*
X61405000Y-107270000D03*
X58865000Y-107270000D03*
X56325000Y-107270000D03*
X53785000Y-107270000D03*
X51245000Y-107270000D03*
%TD*%
%TO.C,U2*%
X79195000Y-46310000D03*
X76655000Y-46310000D03*
X74115000Y-46310000D03*
X71575000Y-46310000D03*
X69035000Y-46310000D03*
X61435000Y-46310000D03*
X79195000Y-48850000D03*
X76655000Y-48850000D03*
X74115000Y-48850000D03*
X71575000Y-48850000D03*
X69035000Y-48850000D03*
X61435000Y-48850000D03*
X58895000Y-48850000D03*
X58885000Y-46310000D03*
X56355000Y-48850000D03*
X56345000Y-46310000D03*
X53815000Y-48850000D03*
X53805000Y-46310000D03*
X51275000Y-48850000D03*
X51265000Y-46310000D03*
X79195000Y-51390000D03*
X76655000Y-51390000D03*
X74115000Y-51390000D03*
X71575000Y-51390000D03*
X69035000Y-51390000D03*
X61435000Y-51390000D03*
X58895000Y-51390000D03*
X56355000Y-51390000D03*
X53815000Y-51390000D03*
X51275000Y-51390000D03*
X79195000Y-53930000D03*
X76655000Y-53930000D03*
X74115000Y-53930000D03*
X71575000Y-53930000D03*
X69035000Y-53930000D03*
X61435000Y-53930000D03*
X58895000Y-53930000D03*
X56355000Y-53930000D03*
X53815000Y-53930000D03*
X51275000Y-53930000D03*
X79195000Y-56470000D03*
X76655000Y-56470000D03*
X74115000Y-56470000D03*
X71575000Y-56470000D03*
X69035000Y-56470000D03*
X61435000Y-56470000D03*
X58895000Y-56470000D03*
X56355000Y-56470000D03*
X53815000Y-56470000D03*
X51275000Y-56470000D03*
%TD*%
%TO.C,U1*%
X79180000Y-33615000D03*
X76640000Y-33615000D03*
X74100000Y-33615000D03*
X71560000Y-33615000D03*
X69020000Y-33615000D03*
X61420000Y-33615000D03*
X79180000Y-36155000D03*
X76640000Y-36155000D03*
X74100000Y-36155000D03*
X71560000Y-36155000D03*
X69020000Y-36155000D03*
X61420000Y-36155000D03*
X58880000Y-36155000D03*
X58870000Y-33615000D03*
X56340000Y-36155000D03*
X56330000Y-33615000D03*
X53800000Y-36155000D03*
X53790000Y-33615000D03*
X51260000Y-36155000D03*
X51250000Y-33615000D03*
X79180000Y-38695000D03*
X76640000Y-38695000D03*
X74100000Y-38695000D03*
X71560000Y-38695000D03*
X69020000Y-38695000D03*
X61420000Y-38695000D03*
X58880000Y-38695000D03*
X56340000Y-38695000D03*
X53800000Y-38695000D03*
X51260000Y-38695000D03*
X79180000Y-41235000D03*
X76640000Y-41235000D03*
X74100000Y-41235000D03*
X71560000Y-41235000D03*
X69020000Y-41235000D03*
X61420000Y-41235000D03*
X58880000Y-41235000D03*
X56340000Y-41235000D03*
X53800000Y-41235000D03*
X51260000Y-41235000D03*
X79180000Y-43775000D03*
X76640000Y-43775000D03*
X74100000Y-43775000D03*
X71560000Y-43775000D03*
X69020000Y-43775000D03*
X61420000Y-43775000D03*
X58880000Y-43775000D03*
X56340000Y-43775000D03*
X53800000Y-43775000D03*
X51260000Y-43775000D03*
%TD*%
%TO.C,U4*%
X79185000Y-71710000D03*
X76645000Y-71710000D03*
X74105000Y-71710000D03*
X71565000Y-71710000D03*
X69025000Y-71710000D03*
X61425000Y-71710000D03*
X79185000Y-74250000D03*
X76645000Y-74250000D03*
X74105000Y-74250000D03*
X71565000Y-74250000D03*
X69025000Y-74250000D03*
X61425000Y-74250000D03*
X58885000Y-74250000D03*
X58875000Y-71710000D03*
X56345000Y-74250000D03*
X56335000Y-71710000D03*
X53805000Y-74250000D03*
X53795000Y-71710000D03*
X51265000Y-74250000D03*
X51255000Y-71710000D03*
X79185000Y-76790000D03*
X76645000Y-76790000D03*
X74105000Y-76790000D03*
X71565000Y-76790000D03*
X69025000Y-76790000D03*
X61425000Y-76790000D03*
X58885000Y-76790000D03*
X56345000Y-76790000D03*
X53805000Y-76790000D03*
X51265000Y-76790000D03*
X79185000Y-79330000D03*
X76645000Y-79330000D03*
X74105000Y-79330000D03*
X71565000Y-79330000D03*
X69025000Y-79330000D03*
X61425000Y-79330000D03*
X58885000Y-79330000D03*
X56345000Y-79330000D03*
X53805000Y-79330000D03*
X51265000Y-79330000D03*
X79185000Y-81870000D03*
X76645000Y-81870000D03*
X74105000Y-81870000D03*
X71565000Y-81870000D03*
X69025000Y-81870000D03*
X61425000Y-81870000D03*
X58885000Y-81870000D03*
X56345000Y-81870000D03*
X53805000Y-81870000D03*
X51265000Y-81870000D03*
%TD*%
%TO.C,U3*%
X79185000Y-59020000D03*
X76645000Y-59020000D03*
X74105000Y-59020000D03*
X71565000Y-59020000D03*
X69025000Y-59020000D03*
X61425000Y-59020000D03*
X79185000Y-61560000D03*
X76645000Y-61560000D03*
X74105000Y-61560000D03*
X71565000Y-61560000D03*
X69025000Y-61560000D03*
X61425000Y-61560000D03*
X58885000Y-61560000D03*
X58875000Y-59020000D03*
X56345000Y-61560000D03*
X56335000Y-59020000D03*
X53805000Y-61560000D03*
X53795000Y-59020000D03*
X51265000Y-61560000D03*
X51255000Y-59020000D03*
X79185000Y-64100000D03*
X76645000Y-64100000D03*
X74105000Y-64100000D03*
X71565000Y-64100000D03*
X69025000Y-64100000D03*
X61425000Y-64100000D03*
X58885000Y-64100000D03*
X56345000Y-64100000D03*
X53805000Y-64100000D03*
X51265000Y-64100000D03*
X79185000Y-66640000D03*
X76645000Y-66640000D03*
X74105000Y-66640000D03*
X71565000Y-66640000D03*
X69025000Y-66640000D03*
X61425000Y-66640000D03*
X58885000Y-66640000D03*
X56345000Y-66640000D03*
X53805000Y-66640000D03*
X51265000Y-66640000D03*
X79185000Y-69180000D03*
X76645000Y-69180000D03*
X74105000Y-69180000D03*
X71565000Y-69180000D03*
X69025000Y-69180000D03*
X61425000Y-69180000D03*
X58885000Y-69180000D03*
X56345000Y-69180000D03*
X53805000Y-69180000D03*
X51265000Y-69180000D03*
%TD*%
%TO.C,U5*%
X79165000Y-84400000D03*
X76625000Y-84400000D03*
X74085000Y-84400000D03*
X71545000Y-84400000D03*
X69005000Y-84400000D03*
X61405000Y-84400000D03*
X79165000Y-86940000D03*
X76625000Y-86940000D03*
X74085000Y-86940000D03*
X71545000Y-86940000D03*
X69005000Y-86940000D03*
X61405000Y-86940000D03*
X58865000Y-86940000D03*
X58855000Y-84400000D03*
X56325000Y-86940000D03*
X56315000Y-84400000D03*
X53785000Y-86940000D03*
X53775000Y-84400000D03*
X51245000Y-86940000D03*
X51235000Y-84400000D03*
X79165000Y-89480000D03*
X76625000Y-89480000D03*
X74085000Y-89480000D03*
X71545000Y-89480000D03*
X69005000Y-89480000D03*
X61405000Y-89480000D03*
X58865000Y-89480000D03*
X56325000Y-89480000D03*
X53785000Y-89480000D03*
X51245000Y-89480000D03*
X79165000Y-92020000D03*
X76625000Y-92020000D03*
X74085000Y-92020000D03*
X71545000Y-92020000D03*
X69005000Y-92020000D03*
X61405000Y-92020000D03*
X58865000Y-92020000D03*
X56325000Y-92020000D03*
X53785000Y-92020000D03*
X51245000Y-92020000D03*
X79165000Y-94560000D03*
X76625000Y-94560000D03*
X74085000Y-94560000D03*
X71545000Y-94560000D03*
X69005000Y-94560000D03*
X61405000Y-94560000D03*
X58865000Y-94560000D03*
X56325000Y-94560000D03*
X53785000Y-94560000D03*
X51245000Y-94560000D03*
%TD*%
G36*
X87624418Y-29850316D02*
G01*
X87895785Y-29869724D01*
X87913297Y-29872242D01*
X88174794Y-29929127D01*
X88191770Y-29934111D01*
X88442524Y-30027638D01*
X88458617Y-30034988D01*
X88693496Y-30163241D01*
X88708380Y-30172806D01*
X88922624Y-30333188D01*
X88935994Y-30344774D01*
X89125225Y-30534005D01*
X89136811Y-30547375D01*
X89297193Y-30761619D01*
X89306758Y-30776503D01*
X89435011Y-31011382D01*
X89442361Y-31027475D01*
X89535888Y-31278229D01*
X89540872Y-31295205D01*
X89597757Y-31556702D01*
X89600275Y-31574214D01*
X89619684Y-31845581D01*
X89620000Y-31854427D01*
X89620000Y-109005572D01*
X89619684Y-109014418D01*
X89600275Y-109285785D01*
X89597757Y-109303297D01*
X89540872Y-109564794D01*
X89535888Y-109581770D01*
X89442361Y-109832524D01*
X89435011Y-109848617D01*
X89306758Y-110083496D01*
X89297193Y-110098380D01*
X89136811Y-110312624D01*
X89125225Y-110325994D01*
X88935994Y-110515225D01*
X88922624Y-110526811D01*
X88708380Y-110687193D01*
X88693496Y-110696758D01*
X88458616Y-110825012D01*
X88442525Y-110832361D01*
X88416198Y-110842181D01*
X88372862Y-110850000D01*
X42127138Y-110850000D01*
X42083804Y-110842182D01*
X42057476Y-110832362D01*
X42041383Y-110825012D01*
X41806503Y-110696758D01*
X41791619Y-110687193D01*
X41577375Y-110526811D01*
X41564005Y-110515225D01*
X41374774Y-110325994D01*
X41363188Y-110312624D01*
X41202806Y-110098380D01*
X41193241Y-110083496D01*
X41064988Y-109848617D01*
X41057638Y-109832524D01*
X40964111Y-109581770D01*
X40959126Y-109564790D01*
X40952833Y-109535857D01*
X40950000Y-109509503D01*
X40950000Y-107419999D01*
X63439999Y-107419999D01*
X63460357Y-107704630D01*
X63521012Y-107983460D01*
X63620738Y-108250833D01*
X63757491Y-108501280D01*
X63928503Y-108729723D01*
X64130276Y-108931496D01*
X64358719Y-109102508D01*
X64609166Y-109239261D01*
X64876539Y-109338987D01*
X65155369Y-109399642D01*
X65440000Y-109420000D01*
X65724630Y-109399642D01*
X66003460Y-109338987D01*
X66270833Y-109239261D01*
X66521280Y-109102508D01*
X66749723Y-108931496D01*
X66951496Y-108729723D01*
X67122508Y-108501280D01*
X67259261Y-108250833D01*
X67358987Y-107983460D01*
X67419642Y-107704630D01*
X67440000Y-107419999D01*
X67419642Y-107135369D01*
X67358987Y-106856539D01*
X67259261Y-106589166D01*
X67122508Y-106338719D01*
X66951496Y-106110276D01*
X66749723Y-105908503D01*
X66521280Y-105737491D01*
X66270833Y-105600738D01*
X66003460Y-105501012D01*
X65724630Y-105440357D01*
X65439999Y-105419999D01*
X65155369Y-105440357D01*
X64876539Y-105501012D01*
X64609166Y-105600738D01*
X64358719Y-105737491D01*
X64130276Y-105908503D01*
X63928503Y-106110276D01*
X63757491Y-106338719D01*
X63620738Y-106589166D01*
X63521012Y-106856539D01*
X63460357Y-107135369D01*
X63439999Y-107419999D01*
X40950000Y-107419999D01*
X40950000Y-33589999D01*
X63239999Y-33589999D01*
X63260357Y-33874630D01*
X63321012Y-34153460D01*
X63420738Y-34420833D01*
X63557491Y-34671280D01*
X63728503Y-34899723D01*
X63930276Y-35101496D01*
X64158719Y-35272508D01*
X64409166Y-35409261D01*
X64676539Y-35508987D01*
X64955369Y-35569642D01*
X65239999Y-35590000D01*
X65524630Y-35569642D01*
X65803460Y-35508987D01*
X66070833Y-35409261D01*
X66321280Y-35272508D01*
X66549723Y-35101496D01*
X66751496Y-34899723D01*
X66922508Y-34671280D01*
X67059261Y-34420833D01*
X67158987Y-34153460D01*
X67219642Y-33874630D01*
X67240000Y-33589999D01*
X67219642Y-33305369D01*
X67158987Y-33026539D01*
X67059261Y-32759166D01*
X66922508Y-32508719D01*
X66751496Y-32280276D01*
X66549723Y-32078503D01*
X66321280Y-31907491D01*
X66070833Y-31770738D01*
X65803460Y-31671012D01*
X65524630Y-31610357D01*
X65240000Y-31589999D01*
X64955369Y-31610357D01*
X64676539Y-31671012D01*
X64409166Y-31770738D01*
X64158719Y-31907491D01*
X63930276Y-32078503D01*
X63728503Y-32280276D01*
X63557491Y-32508719D01*
X63420738Y-32759166D01*
X63321012Y-33026539D01*
X63260357Y-33305369D01*
X63239999Y-33589999D01*
X40950000Y-33589999D01*
X40950000Y-31350495D01*
X40952833Y-31324140D01*
X40959126Y-31295208D01*
X40964111Y-31278229D01*
X41057638Y-31027475D01*
X41064988Y-31011382D01*
X41193241Y-30776503D01*
X41202806Y-30761619D01*
X41363188Y-30547375D01*
X41374774Y-30534005D01*
X41564005Y-30344774D01*
X41577375Y-30333188D01*
X41791619Y-30172806D01*
X41806503Y-30163241D01*
X42041382Y-30034988D01*
X42057475Y-30027638D01*
X42308229Y-29934111D01*
X42325205Y-29929127D01*
X42586702Y-29872242D01*
X42604214Y-29869724D01*
X42875582Y-29850316D01*
X42884428Y-29850000D01*
X87615572Y-29850000D01*
X87624418Y-29850316D01*
G37*
M02*
