%TF.GenerationSoftware,KiCad,Pcbnew,7.0.2*%
%TF.CreationDate,2024-01-29T22:05:23-05:00*%
%TF.ProjectId,dpx_perv_5x10-smt,6470785f-7065-4727-965f-357831302d73,rev?*%
%TF.SameCoordinates,Original*%
%TF.FileFunction,Copper,L3,Inr*%
%TF.FilePolarity,Positive*%
%FSLAX46Y46*%
G04 Gerber Fmt 4.6, Leading zero omitted, Abs format (unit mm)*
G04 Created by KiCad (PCBNEW 7.0.2) date 2024-01-29 22:05:23*
%MOMM*%
%LPD*%
G01*
G04 APERTURE LIST*
%TA.AperFunction,ComponentPad*%
%ADD10R,1.700000X1.700000*%
%TD*%
%TA.AperFunction,ComponentPad*%
%ADD11O,1.700000X1.700000*%
%TD*%
%TA.AperFunction,ViaPad*%
%ADD12C,0.800000*%
%TD*%
G04 APERTURE END LIST*
D10*
%TO.N,N/C*%
%TO.C,REF\u002A\u002A*%
X51280000Y-59030000D03*
D11*
X51280000Y-61570000D03*
X51280000Y-64110000D03*
X51280000Y-66650000D03*
X51280000Y-69190000D03*
%TD*%
D10*
%TO.N,VCC*%
%TO.C,J1*%
X46220000Y-33615000D03*
D11*
%TO.N,GND*%
X43680000Y-33615000D03*
%TO.N,VCC*%
X46220000Y-36155000D03*
%TO.N,GND*%
X43680000Y-36155000D03*
%TO.N,VCC*%
X46220000Y-38695000D03*
%TO.N,GND*%
X43680000Y-38695000D03*
%TO.N,VCC*%
X46220000Y-41235000D03*
%TO.N,GND*%
X43680000Y-41235000D03*
%TO.N,VCC*%
X46220000Y-43775000D03*
%TO.N,GND*%
X43680000Y-43775000D03*
%TO.N,VCC*%
X46220000Y-46315000D03*
%TO.N,GND*%
X43680000Y-46315000D03*
%TO.N,VCC*%
X46220000Y-48855000D03*
%TO.N,GND*%
X43680000Y-48855000D03*
%TO.N,VCC*%
X46220000Y-51395000D03*
%TO.N,GND*%
X43680000Y-51395000D03*
%TO.N,VCC*%
X46220000Y-53935000D03*
%TO.N,GND*%
X43680000Y-53935000D03*
%TO.N,VCC*%
X46220000Y-56475000D03*
%TO.N,GND*%
X43680000Y-56475000D03*
%TO.N,N/C*%
X46220000Y-59015000D03*
X43680000Y-59015000D03*
X46220000Y-61555000D03*
X43680000Y-61555000D03*
X46220000Y-64095000D03*
X43680000Y-64095000D03*
X46220000Y-66635000D03*
X43680000Y-66635000D03*
X46220000Y-69175000D03*
X43680000Y-69175000D03*
%TD*%
D10*
%TO.N,VCC*%
%TO.C,J2*%
X86770000Y-33615000D03*
D11*
%TO.N,GND*%
X84230000Y-33615000D03*
%TO.N,VCC*%
X86770000Y-36155000D03*
%TO.N,GND*%
X84230000Y-36155000D03*
%TO.N,VCC*%
X86770000Y-38695000D03*
%TO.N,GND*%
X84230000Y-38695000D03*
%TO.N,VCC*%
X86770000Y-41235000D03*
%TO.N,GND*%
X84230000Y-41235000D03*
%TO.N,VCC*%
X86770000Y-43775000D03*
%TO.N,GND*%
X84230000Y-43775000D03*
%TO.N,VCC*%
X86770000Y-46315000D03*
%TO.N,GND*%
X84230000Y-46315000D03*
%TO.N,VCC*%
X86770000Y-48855000D03*
%TO.N,GND*%
X84230000Y-48855000D03*
%TO.N,VCC*%
X86770000Y-51395000D03*
%TO.N,GND*%
X84230000Y-51395000D03*
%TO.N,VCC*%
X86770000Y-53935000D03*
%TO.N,GND*%
X84230000Y-53935000D03*
%TO.N,VCC*%
X86770000Y-56475000D03*
%TO.N,GND*%
X84230000Y-56475000D03*
%TO.N,N/C*%
X86770000Y-59015000D03*
X84230000Y-59015000D03*
X86770000Y-61555000D03*
X84230000Y-61555000D03*
X86770000Y-64095000D03*
X84230000Y-64095000D03*
X86770000Y-66635000D03*
X84230000Y-66635000D03*
X86770000Y-69175000D03*
X84230000Y-69175000D03*
%TD*%
D10*
%TO.N,N/C*%
%TO.C,REF\u002A\u002A*%
X79210000Y-59030000D03*
D11*
X79210000Y-61570000D03*
X79210000Y-64110000D03*
X79210000Y-66650000D03*
X79210000Y-69190000D03*
%TD*%
D10*
%TO.N,N/C*%
%TO.C,REF\u002A\u002A*%
X61440000Y-59030000D03*
D11*
X61440000Y-61570000D03*
X61440000Y-64110000D03*
X61440000Y-66650000D03*
X61440000Y-69190000D03*
%TD*%
%TO.N,N/C*%
%TO.C,*%
X74240000Y-65270000D03*
%TD*%
D10*
%TO.N,N/C*%
%TO.C,REF\u002A\u002A*%
X69050000Y-59030000D03*
D11*
X69050000Y-61570000D03*
X69050000Y-64110000D03*
X69050000Y-66650000D03*
X69050000Y-69190000D03*
%TD*%
%TO.N,N/C*%
%TO.C,U2*%
X79195000Y-46310000D03*
X76655000Y-46310000D03*
X74115000Y-46310000D03*
X71575000Y-46310000D03*
X69035000Y-46310000D03*
X61435000Y-46310000D03*
X79195000Y-48850000D03*
X76655000Y-48850000D03*
X74115000Y-48850000D03*
X71575000Y-48850000D03*
X69035000Y-48850000D03*
X61435000Y-48850000D03*
X58895000Y-48850000D03*
X58885000Y-46310000D03*
X56355000Y-48850000D03*
X56345000Y-46310000D03*
X53815000Y-48850000D03*
X53805000Y-46310000D03*
X51275000Y-48850000D03*
X51265000Y-46310000D03*
X79195000Y-51390000D03*
X76655000Y-51390000D03*
X74115000Y-51390000D03*
X71575000Y-51390000D03*
X69035000Y-51390000D03*
X61435000Y-51390000D03*
X58895000Y-51390000D03*
X56355000Y-51390000D03*
X53815000Y-51390000D03*
X51275000Y-51390000D03*
X79195000Y-53930000D03*
X76655000Y-53930000D03*
X74115000Y-53930000D03*
X71575000Y-53930000D03*
X69035000Y-53930000D03*
X61435000Y-53930000D03*
X58895000Y-53930000D03*
X56355000Y-53930000D03*
X53815000Y-53930000D03*
X51275000Y-53930000D03*
X79195000Y-56470000D03*
X76655000Y-56470000D03*
X74115000Y-56470000D03*
X71575000Y-56470000D03*
X69035000Y-56470000D03*
X61435000Y-56470000D03*
X58895000Y-56470000D03*
X56355000Y-56470000D03*
X53815000Y-56470000D03*
X51275000Y-56470000D03*
%TD*%
%TO.N,N/C*%
%TO.C,U1*%
X79180000Y-33615000D03*
X76640000Y-33615000D03*
X74100000Y-33615000D03*
X71560000Y-33615000D03*
X69020000Y-33615000D03*
X61420000Y-33615000D03*
X79180000Y-36155000D03*
X76640000Y-36155000D03*
X74100000Y-36155000D03*
X71560000Y-36155000D03*
X69020000Y-36155000D03*
X61420000Y-36155000D03*
X58880000Y-36155000D03*
X58870000Y-33615000D03*
X56340000Y-36155000D03*
X56330000Y-33615000D03*
X53800000Y-36155000D03*
X53790000Y-33615000D03*
X51260000Y-36155000D03*
X51250000Y-33615000D03*
X79180000Y-38695000D03*
X76640000Y-38695000D03*
X74100000Y-38695000D03*
X71560000Y-38695000D03*
X69020000Y-38695000D03*
X61420000Y-38695000D03*
X58880000Y-38695000D03*
X56340000Y-38695000D03*
X53800000Y-38695000D03*
X51260000Y-38695000D03*
X79180000Y-41235000D03*
X76640000Y-41235000D03*
X74100000Y-41235000D03*
X71560000Y-41235000D03*
X69020000Y-41235000D03*
X61420000Y-41235000D03*
X58880000Y-41235000D03*
X56340000Y-41235000D03*
X53800000Y-41235000D03*
X51260000Y-41235000D03*
X79180000Y-43775000D03*
X76640000Y-43775000D03*
X74100000Y-43775000D03*
X71560000Y-43775000D03*
X69020000Y-43775000D03*
X61420000Y-43775000D03*
X58880000Y-43775000D03*
X56340000Y-43775000D03*
X53800000Y-43775000D03*
X51260000Y-43775000D03*
%TD*%
D12*
%TO.N,*%
X75420000Y-66710000D03*
X70730000Y-62760000D03*
X72520000Y-69240000D03*
X58720000Y-60290000D03*
X77665000Y-62725000D03*
X77770000Y-60470000D03*
X77720000Y-61520000D03*
X70720000Y-61570000D03*
X76390000Y-64150000D03*
X76140000Y-69230000D03*
X53570000Y-60000000D03*
X53490000Y-58210000D03*
X58130000Y-58240000D03*
X70880000Y-60150000D03*
X72040000Y-64180000D03*
%TO.N,unconnected-(1-1-UD+-Pad1)*%
X58090000Y-62690000D03*
%TO.N,unconnected-(1-2-UD--Pad2)*%
X56800000Y-61980000D03*
%TO.N,unconnected-(1-3-GND-Pad3)*%
X55600000Y-62030000D03*
%TO.N,unconnected-(1-4-RTS-Pad4)*%
X54305000Y-62765000D03*
%TO.N,unconnected-(1-5-VCC-Pad5)*%
X53390000Y-67900000D03*
%TO.N,unconnected-(1-6-TXD-Pad6)*%
X55570000Y-71010000D03*
%TO.N,unconnected-(1-7-RXD-Pad7)*%
X56840000Y-70980000D03*
%TO.N,unconnected-(1-8-V3-Pad8)*%
X59220000Y-68110000D03*
%TD*%
%TA.AperFunction,Conductor*%
%TO.N,GND*%
G36*
X43930000Y-56039498D02*
G01*
X43822315Y-55990320D01*
X43715763Y-55975000D01*
X43644237Y-55975000D01*
X43537685Y-55990320D01*
X43429999Y-56039498D01*
X43429999Y-54370501D01*
X43537685Y-54419680D01*
X43644237Y-54435000D01*
X43715763Y-54435000D01*
X43822315Y-54419680D01*
X43930000Y-54370501D01*
X43930000Y-56039498D01*
G37*
%TD.AperFunction*%
%TA.AperFunction,Conductor*%
G36*
X43930000Y-53499498D02*
G01*
X43822315Y-53450320D01*
X43715763Y-53435000D01*
X43644237Y-53435000D01*
X43537685Y-53450320D01*
X43429999Y-53499498D01*
X43429999Y-51830501D01*
X43537685Y-51879680D01*
X43644237Y-51895000D01*
X43715763Y-51895000D01*
X43822315Y-51879680D01*
X43930000Y-51830501D01*
X43930000Y-53499498D01*
G37*
%TD.AperFunction*%
%TA.AperFunction,Conductor*%
G36*
X43930000Y-50959498D02*
G01*
X43822315Y-50910320D01*
X43715763Y-50895000D01*
X43644237Y-50895000D01*
X43537685Y-50910320D01*
X43429999Y-50959498D01*
X43429999Y-49290501D01*
X43537685Y-49339680D01*
X43644237Y-49355000D01*
X43715763Y-49355000D01*
X43822315Y-49339680D01*
X43930000Y-49290501D01*
X43930000Y-50959498D01*
G37*
%TD.AperFunction*%
%TA.AperFunction,Conductor*%
G36*
X43930000Y-48419498D02*
G01*
X43822315Y-48370320D01*
X43715763Y-48355000D01*
X43644237Y-48355000D01*
X43537685Y-48370320D01*
X43429999Y-48419498D01*
X43429999Y-46750501D01*
X43537685Y-46799680D01*
X43644237Y-46815000D01*
X43715763Y-46815000D01*
X43822315Y-46799680D01*
X43930000Y-46750501D01*
X43930000Y-48419498D01*
G37*
%TD.AperFunction*%
%TA.AperFunction,Conductor*%
G36*
X43930000Y-45879498D02*
G01*
X43822315Y-45830320D01*
X43715763Y-45815000D01*
X43644237Y-45815000D01*
X43537685Y-45830320D01*
X43429999Y-45879498D01*
X43429999Y-44210501D01*
X43537685Y-44259680D01*
X43644237Y-44275000D01*
X43715763Y-44275000D01*
X43822315Y-44259680D01*
X43930000Y-44210501D01*
X43930000Y-45879498D01*
G37*
%TD.AperFunction*%
%TA.AperFunction,Conductor*%
G36*
X43930000Y-43339498D02*
G01*
X43822315Y-43290320D01*
X43715763Y-43275000D01*
X43644237Y-43275000D01*
X43537685Y-43290320D01*
X43429999Y-43339498D01*
X43429999Y-41670501D01*
X43537685Y-41719680D01*
X43644237Y-41735000D01*
X43715763Y-41735000D01*
X43822315Y-41719680D01*
X43930000Y-41670501D01*
X43930000Y-43339498D01*
G37*
%TD.AperFunction*%
%TA.AperFunction,Conductor*%
G36*
X43930000Y-40799498D02*
G01*
X43822315Y-40750320D01*
X43715763Y-40735000D01*
X43644237Y-40735000D01*
X43537685Y-40750320D01*
X43429999Y-40799498D01*
X43429999Y-39130501D01*
X43537685Y-39179680D01*
X43644237Y-39195000D01*
X43715763Y-39195000D01*
X43822315Y-39179680D01*
X43930000Y-39130501D01*
X43930000Y-40799498D01*
G37*
%TD.AperFunction*%
%TA.AperFunction,Conductor*%
G36*
X43930000Y-38259498D02*
G01*
X43822315Y-38210320D01*
X43715763Y-38195000D01*
X43644237Y-38195000D01*
X43537685Y-38210320D01*
X43429999Y-38259498D01*
X43429999Y-36590501D01*
X43537685Y-36639680D01*
X43644237Y-36655000D01*
X43715763Y-36655000D01*
X43822315Y-36639680D01*
X43930000Y-36590501D01*
X43930000Y-38259498D01*
G37*
%TD.AperFunction*%
%TA.AperFunction,Conductor*%
G36*
X43930000Y-35719498D02*
G01*
X43822315Y-35670320D01*
X43715763Y-35655000D01*
X43644237Y-35655000D01*
X43537685Y-35670320D01*
X43429999Y-35719498D01*
X43429999Y-34050501D01*
X43537685Y-34099680D01*
X43644237Y-34115000D01*
X43715763Y-34115000D01*
X43822315Y-34099680D01*
X43930000Y-34050501D01*
X43930000Y-35719498D01*
G37*
%TD.AperFunction*%
%TA.AperFunction,Conductor*%
G36*
X84480000Y-56039498D02*
G01*
X84372315Y-55990320D01*
X84265763Y-55975000D01*
X84194237Y-55975000D01*
X84087685Y-55990320D01*
X83979999Y-56039498D01*
X83979999Y-54370501D01*
X84087685Y-54419680D01*
X84194237Y-54435000D01*
X84265763Y-54435000D01*
X84372315Y-54419680D01*
X84480000Y-54370501D01*
X84480000Y-56039498D01*
G37*
%TD.AperFunction*%
%TA.AperFunction,Conductor*%
G36*
X84480000Y-53499498D02*
G01*
X84372315Y-53450320D01*
X84265763Y-53435000D01*
X84194237Y-53435000D01*
X84087685Y-53450320D01*
X83979999Y-53499498D01*
X83979999Y-51830501D01*
X84087685Y-51879680D01*
X84194237Y-51895000D01*
X84265763Y-51895000D01*
X84372315Y-51879680D01*
X84480000Y-51830501D01*
X84480000Y-53499498D01*
G37*
%TD.AperFunction*%
%TA.AperFunction,Conductor*%
G36*
X84480000Y-50959498D02*
G01*
X84372315Y-50910320D01*
X84265763Y-50895000D01*
X84194237Y-50895000D01*
X84087685Y-50910320D01*
X83979999Y-50959498D01*
X83979999Y-49290501D01*
X84087685Y-49339680D01*
X84194237Y-49355000D01*
X84265763Y-49355000D01*
X84372315Y-49339680D01*
X84480000Y-49290501D01*
X84480000Y-50959498D01*
G37*
%TD.AperFunction*%
%TA.AperFunction,Conductor*%
G36*
X84480000Y-48419498D02*
G01*
X84372315Y-48370320D01*
X84265763Y-48355000D01*
X84194237Y-48355000D01*
X84087685Y-48370320D01*
X83979999Y-48419498D01*
X83979999Y-46750501D01*
X84087685Y-46799680D01*
X84194237Y-46815000D01*
X84265763Y-46815000D01*
X84372315Y-46799680D01*
X84480000Y-46750501D01*
X84480000Y-48419498D01*
G37*
%TD.AperFunction*%
%TA.AperFunction,Conductor*%
G36*
X84480000Y-45879498D02*
G01*
X84372315Y-45830320D01*
X84265763Y-45815000D01*
X84194237Y-45815000D01*
X84087685Y-45830320D01*
X83979999Y-45879498D01*
X83979999Y-44210501D01*
X84087685Y-44259680D01*
X84194237Y-44275000D01*
X84265763Y-44275000D01*
X84372315Y-44259680D01*
X84480000Y-44210501D01*
X84480000Y-45879498D01*
G37*
%TD.AperFunction*%
%TA.AperFunction,Conductor*%
G36*
X84480000Y-43339498D02*
G01*
X84372315Y-43290320D01*
X84265763Y-43275000D01*
X84194237Y-43275000D01*
X84087685Y-43290320D01*
X83979999Y-43339498D01*
X83979999Y-41670501D01*
X84087685Y-41719680D01*
X84194237Y-41735000D01*
X84265763Y-41735000D01*
X84372315Y-41719680D01*
X84480000Y-41670501D01*
X84480000Y-43339498D01*
G37*
%TD.AperFunction*%
%TA.AperFunction,Conductor*%
G36*
X84480000Y-40799498D02*
G01*
X84372315Y-40750320D01*
X84265763Y-40735000D01*
X84194237Y-40735000D01*
X84087685Y-40750320D01*
X83979999Y-40799498D01*
X83979999Y-39130501D01*
X84087685Y-39179680D01*
X84194237Y-39195000D01*
X84265763Y-39195000D01*
X84372315Y-39179680D01*
X84480000Y-39130501D01*
X84480000Y-40799498D01*
G37*
%TD.AperFunction*%
%TA.AperFunction,Conductor*%
G36*
X84480000Y-38259498D02*
G01*
X84372315Y-38210320D01*
X84265763Y-38195000D01*
X84194237Y-38195000D01*
X84087685Y-38210320D01*
X83979999Y-38259498D01*
X83979999Y-36590501D01*
X84087685Y-36639680D01*
X84194237Y-36655000D01*
X84265763Y-36655000D01*
X84372315Y-36639680D01*
X84480000Y-36590501D01*
X84480000Y-38259498D01*
G37*
%TD.AperFunction*%
%TA.AperFunction,Conductor*%
G36*
X84480000Y-35719498D02*
G01*
X84372315Y-35670320D01*
X84265763Y-35655000D01*
X84194237Y-35655000D01*
X84087685Y-35670320D01*
X83979999Y-35719498D01*
X83979999Y-34050501D01*
X84087685Y-34099680D01*
X84194237Y-34115000D01*
X84265763Y-34115000D01*
X84372315Y-34099680D01*
X84480000Y-34050501D01*
X84480000Y-35719498D01*
G37*
%TD.AperFunction*%
%TA.AperFunction,Conductor*%
G36*
X86218243Y-29725669D02*
G01*
X86348628Y-29732503D01*
X86528910Y-29742628D01*
X86541309Y-29743955D01*
X86690647Y-29767608D01*
X86850321Y-29794737D01*
X86861619Y-29797205D01*
X87011693Y-29837418D01*
X87164188Y-29881351D01*
X87174253Y-29884726D01*
X87319710Y-29940562D01*
X87322599Y-29941714D01*
X87466768Y-30001430D01*
X87475594Y-30005500D01*
X87615064Y-30076565D01*
X87618748Y-30078521D01*
X87708848Y-30128316D01*
X87754548Y-30153574D01*
X87762061Y-30158081D01*
X87893754Y-30243604D01*
X87897947Y-30246452D01*
X88024147Y-30335996D01*
X88030428Y-30340759D01*
X88152567Y-30439665D01*
X88157158Y-30443571D01*
X88272424Y-30546579D01*
X88277478Y-30551358D01*
X88388640Y-30662520D01*
X88393419Y-30667574D01*
X88496427Y-30782840D01*
X88500333Y-30787431D01*
X88599239Y-30909570D01*
X88604002Y-30915851D01*
X88693546Y-31042051D01*
X88696409Y-31046266D01*
X88781907Y-31177921D01*
X88786430Y-31185460D01*
X88861477Y-31321250D01*
X88863433Y-31324934D01*
X88934498Y-31464404D01*
X88938575Y-31473247D01*
X88998259Y-31617337D01*
X88999462Y-31620353D01*
X89055265Y-31765727D01*
X89058655Y-31775836D01*
X89102579Y-31928297D01*
X89142793Y-32078379D01*
X89145262Y-32089685D01*
X89172394Y-32249369D01*
X89196040Y-32398670D01*
X89197371Y-32411108D01*
X89207509Y-32591617D01*
X89214330Y-32721756D01*
X89214500Y-32728246D01*
X89214500Y-69921753D01*
X89214330Y-69928243D01*
X89207509Y-70058382D01*
X89197372Y-70238887D01*
X89196040Y-70251331D01*
X89172394Y-70400629D01*
X89145263Y-70560308D01*
X89142791Y-70571624D01*
X89102579Y-70721701D01*
X89058653Y-70874170D01*
X89055268Y-70884263D01*
X88999462Y-71029645D01*
X88998259Y-71032661D01*
X88938575Y-71176751D01*
X88934498Y-71185594D01*
X88863433Y-71325064D01*
X88861477Y-71328748D01*
X88786430Y-71464538D01*
X88781897Y-71472094D01*
X88696412Y-71603728D01*
X88693546Y-71607947D01*
X88604002Y-71734147D01*
X88599239Y-71740428D01*
X88500333Y-71862567D01*
X88496427Y-71867158D01*
X88393419Y-71982424D01*
X88388640Y-71987478D01*
X88277478Y-72098640D01*
X88272424Y-72103419D01*
X88157158Y-72206427D01*
X88152567Y-72210333D01*
X88030428Y-72309239D01*
X88024147Y-72314002D01*
X87897947Y-72403546D01*
X87893728Y-72406412D01*
X87762094Y-72491897D01*
X87754538Y-72496430D01*
X87618748Y-72571477D01*
X87615064Y-72573433D01*
X87475594Y-72644498D01*
X87466751Y-72648575D01*
X87322661Y-72708259D01*
X87319645Y-72709462D01*
X87174271Y-72765265D01*
X87164162Y-72768655D01*
X87011702Y-72812579D01*
X86861619Y-72852793D01*
X86850313Y-72855262D01*
X86690630Y-72882394D01*
X86541328Y-72906040D01*
X86528890Y-72907371D01*
X86348382Y-72917509D01*
X86218244Y-72924330D01*
X86211754Y-72924500D01*
X43903247Y-72924500D01*
X43896757Y-72924330D01*
X43766617Y-72917509D01*
X43586111Y-72907372D01*
X43573666Y-72906040D01*
X43424369Y-72882394D01*
X43264690Y-72855263D01*
X43253374Y-72852791D01*
X43103298Y-72812579D01*
X42950828Y-72768653D01*
X42940735Y-72765268D01*
X42795353Y-72709462D01*
X42792337Y-72708259D01*
X42648247Y-72648575D01*
X42639404Y-72644498D01*
X42499934Y-72573433D01*
X42496250Y-72571477D01*
X42360460Y-72496430D01*
X42352921Y-72491907D01*
X42221266Y-72406409D01*
X42217051Y-72403546D01*
X42090851Y-72314002D01*
X42084570Y-72309239D01*
X41962431Y-72210333D01*
X41957840Y-72206427D01*
X41842574Y-72103419D01*
X41837520Y-72098640D01*
X41726358Y-71987478D01*
X41721579Y-71982424D01*
X41618571Y-71867158D01*
X41614665Y-71862567D01*
X41534969Y-71764151D01*
X41515757Y-71740426D01*
X41510996Y-71734147D01*
X41421452Y-71607947D01*
X41418604Y-71603754D01*
X41333081Y-71472061D01*
X41328568Y-71464538D01*
X41253521Y-71328748D01*
X41251565Y-71325064D01*
X41180500Y-71185594D01*
X41176430Y-71176768D01*
X41116714Y-71032599D01*
X41115562Y-71029710D01*
X41107996Y-71010000D01*
X54664540Y-71010000D01*
X54684326Y-71198257D01*
X54742820Y-71378284D01*
X54837466Y-71542216D01*
X54964129Y-71682889D01*
X55117269Y-71794151D01*
X55290197Y-71871144D01*
X55475352Y-71910500D01*
X55475354Y-71910500D01*
X55664648Y-71910500D01*
X55805786Y-71880500D01*
X55849803Y-71871144D01*
X56022730Y-71794151D01*
X56152761Y-71699678D01*
X56218566Y-71676199D01*
X56286620Y-71692024D01*
X56298530Y-71699679D01*
X56387269Y-71764151D01*
X56560197Y-71841144D01*
X56745352Y-71880500D01*
X56745354Y-71880500D01*
X56934648Y-71880500D01*
X57058084Y-71854262D01*
X57119803Y-71841144D01*
X57292730Y-71764151D01*
X57334027Y-71734147D01*
X57445870Y-71652889D01*
X57572533Y-71512216D01*
X57667179Y-71348284D01*
X57674724Y-71325064D01*
X57725674Y-71168256D01*
X57745460Y-70980000D01*
X57725674Y-70791744D01*
X57676927Y-70641716D01*
X57667179Y-70611715D01*
X57572533Y-70447783D01*
X57445870Y-70307110D01*
X57292730Y-70195848D01*
X57119802Y-70118855D01*
X56934648Y-70079500D01*
X56934646Y-70079500D01*
X56745354Y-70079500D01*
X56745352Y-70079500D01*
X56560197Y-70118855D01*
X56387269Y-70195848D01*
X56257239Y-70290321D01*
X56191433Y-70313801D01*
X56123379Y-70297976D01*
X56111468Y-70290321D01*
X56022727Y-70225847D01*
X55849802Y-70148855D01*
X55664648Y-70109500D01*
X55664646Y-70109500D01*
X55475354Y-70109500D01*
X55475352Y-70109500D01*
X55290197Y-70148855D01*
X55117269Y-70225848D01*
X54964129Y-70337110D01*
X54837466Y-70477783D01*
X54742820Y-70641715D01*
X54684326Y-70821742D01*
X54664540Y-71010000D01*
X41107996Y-71010000D01*
X41059729Y-70884260D01*
X41056346Y-70874170D01*
X41012414Y-70721679D01*
X40990988Y-70641716D01*
X40972202Y-70571605D01*
X40969738Y-70560323D01*
X40942605Y-70400629D01*
X40922659Y-70274694D01*
X40921136Y-70255070D01*
X40923490Y-69175000D01*
X42324340Y-69175000D01*
X42344936Y-69410407D01*
X42389709Y-69577502D01*
X42406097Y-69638663D01*
X42505965Y-69852830D01*
X42641505Y-70046401D01*
X42808599Y-70213495D01*
X43002170Y-70349035D01*
X43216337Y-70448903D01*
X43444592Y-70510063D01*
X43680000Y-70530659D01*
X43915408Y-70510063D01*
X44143663Y-70448903D01*
X44357830Y-70349035D01*
X44551401Y-70213495D01*
X44718495Y-70046401D01*
X44848426Y-69860839D01*
X44903002Y-69817216D01*
X44972500Y-69810022D01*
X45034855Y-69841545D01*
X45051571Y-69860837D01*
X45181505Y-70046401D01*
X45348599Y-70213495D01*
X45542170Y-70349035D01*
X45756337Y-70448903D01*
X45984592Y-70510063D01*
X46219999Y-70530659D01*
X46219999Y-70530658D01*
X46220000Y-70530659D01*
X46455408Y-70510063D01*
X46683663Y-70448903D01*
X46897830Y-70349035D01*
X47091401Y-70213495D01*
X47258495Y-70046401D01*
X47394035Y-69852830D01*
X47493903Y-69638663D01*
X47555063Y-69410408D01*
X47575659Y-69175000D01*
X47555063Y-68939592D01*
X47493903Y-68711337D01*
X47394035Y-68497171D01*
X47258495Y-68303599D01*
X47091401Y-68136505D01*
X46905839Y-68006573D01*
X46862216Y-67951998D01*
X46855022Y-67882500D01*
X46886545Y-67820145D01*
X46905837Y-67803428D01*
X47091401Y-67673495D01*
X47258495Y-67506401D01*
X47394035Y-67312830D01*
X47493903Y-67098663D01*
X47555063Y-66870408D01*
X47575659Y-66635000D01*
X47555063Y-66399592D01*
X47493903Y-66171337D01*
X47394035Y-65957171D01*
X47258495Y-65763599D01*
X47091401Y-65596505D01*
X46905839Y-65466573D01*
X46862216Y-65411998D01*
X46855022Y-65342500D01*
X46886545Y-65280145D01*
X46905837Y-65263428D01*
X47091401Y-65133495D01*
X47258495Y-64966401D01*
X47394035Y-64772830D01*
X47493903Y-64558663D01*
X47555063Y-64330408D01*
X47575659Y-64095000D01*
X47555063Y-63859592D01*
X47493903Y-63631337D01*
X47394035Y-63417171D01*
X47258495Y-63223599D01*
X47091401Y-63056505D01*
X46905839Y-62926573D01*
X46862217Y-62871998D01*
X46855024Y-62802499D01*
X46886546Y-62740145D01*
X46905837Y-62723428D01*
X47091401Y-62593495D01*
X47258495Y-62426401D01*
X47394035Y-62232830D01*
X47493903Y-62018663D01*
X47555063Y-61790408D01*
X47575659Y-61555000D01*
X47555063Y-61319592D01*
X47493903Y-61091337D01*
X47394035Y-60877171D01*
X47258495Y-60683599D01*
X47091401Y-60516505D01*
X46905839Y-60386573D01*
X46862216Y-60331998D01*
X46855022Y-60262500D01*
X46886545Y-60200145D01*
X46905837Y-60183428D01*
X47091401Y-60053495D01*
X47258495Y-59886401D01*
X47394035Y-59692830D01*
X47493903Y-59478663D01*
X47555063Y-59250408D01*
X47575659Y-59015000D01*
X47557849Y-58811441D01*
X47555063Y-58779592D01*
X47545048Y-58742216D01*
X47493903Y-58551337D01*
X47394035Y-58337171D01*
X47258495Y-58143599D01*
X47091401Y-57976505D01*
X46905839Y-57846573D01*
X46862216Y-57791998D01*
X46855022Y-57722500D01*
X46886545Y-57660145D01*
X46905837Y-57643428D01*
X47091401Y-57513495D01*
X47258495Y-57346401D01*
X47394035Y-57152830D01*
X47493903Y-56938663D01*
X47555063Y-56710408D01*
X47575659Y-56475000D01*
X47555063Y-56239592D01*
X47493903Y-56011337D01*
X47394035Y-55797171D01*
X47258495Y-55603599D01*
X47091401Y-55436505D01*
X46905839Y-55306573D01*
X46862216Y-55251998D01*
X46855022Y-55182500D01*
X46886545Y-55120145D01*
X46905837Y-55103428D01*
X47091401Y-54973495D01*
X47258495Y-54806401D01*
X47394035Y-54612830D01*
X47493903Y-54398663D01*
X47555063Y-54170408D01*
X47575659Y-53935000D01*
X47555063Y-53699592D01*
X47493903Y-53471337D01*
X47394035Y-53257171D01*
X47258495Y-53063599D01*
X47091401Y-52896505D01*
X46905839Y-52766573D01*
X46862216Y-52711998D01*
X46855022Y-52642500D01*
X46886545Y-52580145D01*
X46905837Y-52563428D01*
X47091401Y-52433495D01*
X47258495Y-52266401D01*
X47394035Y-52072830D01*
X47493903Y-51858663D01*
X47555063Y-51630408D01*
X47575659Y-51395000D01*
X47555063Y-51159592D01*
X47493903Y-50931337D01*
X47394035Y-50717171D01*
X47258495Y-50523599D01*
X47091401Y-50356505D01*
X46905839Y-50226573D01*
X46862216Y-50171998D01*
X46855022Y-50102500D01*
X46886545Y-50040145D01*
X46905837Y-50023428D01*
X47091401Y-49893495D01*
X47258495Y-49726401D01*
X47394035Y-49532830D01*
X47493903Y-49318663D01*
X47555063Y-49090408D01*
X47575659Y-48855000D01*
X47575221Y-48849999D01*
X47555063Y-48619592D01*
X47551153Y-48604999D01*
X47493903Y-48391337D01*
X47394035Y-48177171D01*
X47258495Y-47983599D01*
X47091401Y-47816505D01*
X46905839Y-47686573D01*
X46862216Y-47631998D01*
X46855022Y-47562500D01*
X46886545Y-47500145D01*
X46905837Y-47483428D01*
X47091401Y-47353495D01*
X47258495Y-47186401D01*
X47394035Y-46992830D01*
X47493903Y-46778663D01*
X47555063Y-46550408D01*
X47575659Y-46315000D01*
X47555063Y-46079592D01*
X47493903Y-45851337D01*
X47394035Y-45637171D01*
X47258495Y-45443599D01*
X47091401Y-45276505D01*
X46905839Y-45146573D01*
X46862216Y-45091998D01*
X46855022Y-45022500D01*
X46886545Y-44960145D01*
X46905837Y-44943428D01*
X47091401Y-44813495D01*
X47258495Y-44646401D01*
X47394035Y-44452830D01*
X47493903Y-44238663D01*
X47555063Y-44010408D01*
X47575659Y-43775000D01*
X47555063Y-43539592D01*
X47493903Y-43311337D01*
X47394035Y-43097171D01*
X47258495Y-42903599D01*
X47091401Y-42736505D01*
X46905839Y-42606573D01*
X46862216Y-42551998D01*
X46855022Y-42482500D01*
X46886545Y-42420145D01*
X46905837Y-42403428D01*
X47091401Y-42273495D01*
X47258495Y-42106401D01*
X47394035Y-41912830D01*
X47493903Y-41698663D01*
X47555063Y-41470408D01*
X47575659Y-41235000D01*
X47555063Y-40999592D01*
X47493903Y-40771337D01*
X47394035Y-40557171D01*
X47258495Y-40363599D01*
X47091401Y-40196505D01*
X46905839Y-40066573D01*
X46862215Y-40011997D01*
X46855023Y-39942498D01*
X46886545Y-39880144D01*
X46905831Y-39863432D01*
X47091401Y-39733495D01*
X47258495Y-39566401D01*
X47394035Y-39372830D01*
X47493903Y-39158663D01*
X47555063Y-38930408D01*
X47575659Y-38695000D01*
X47555063Y-38459592D01*
X47493903Y-38231337D01*
X47394035Y-38017171D01*
X47258495Y-37823599D01*
X47091401Y-37656505D01*
X46905839Y-37526573D01*
X46862215Y-37471997D01*
X46855023Y-37402498D01*
X46886545Y-37340144D01*
X46905831Y-37323432D01*
X47091401Y-37193495D01*
X47258495Y-37026401D01*
X47394035Y-36832830D01*
X47493903Y-36618663D01*
X47555063Y-36390408D01*
X47575659Y-36155000D01*
X47555063Y-35919592D01*
X47493903Y-35691337D01*
X47394035Y-35477171D01*
X47258495Y-35283599D01*
X47136569Y-35161673D01*
X47103084Y-35100350D01*
X47108068Y-35030658D01*
X47149940Y-34974725D01*
X47180915Y-34957810D01*
X47312331Y-34908796D01*
X47427546Y-34822546D01*
X47513796Y-34707331D01*
X47564091Y-34572483D01*
X47570500Y-34512873D01*
X47570499Y-33615000D01*
X49894340Y-33615000D01*
X49914936Y-33850407D01*
X49921641Y-33875429D01*
X49976097Y-34078663D01*
X50075965Y-34292830D01*
X50211505Y-34486401D01*
X50378599Y-34653495D01*
X50569160Y-34786927D01*
X50612783Y-34841503D01*
X50619976Y-34911002D01*
X50588454Y-34973356D01*
X50569159Y-34990076D01*
X50388595Y-35116508D01*
X50221505Y-35283598D01*
X50085965Y-35477170D01*
X49986097Y-35691336D01*
X49924936Y-35919592D01*
X49904340Y-36155000D01*
X49924936Y-36390407D01*
X49950496Y-36485798D01*
X49986097Y-36618663D01*
X50085965Y-36832830D01*
X50221505Y-37026401D01*
X50388599Y-37193495D01*
X50574160Y-37323426D01*
X50617783Y-37378002D01*
X50624976Y-37447501D01*
X50593454Y-37509855D01*
X50574159Y-37526575D01*
X50388595Y-37656508D01*
X50221505Y-37823598D01*
X50085965Y-38017170D01*
X49986097Y-38231336D01*
X49924936Y-38459592D01*
X49904340Y-38694999D01*
X49924936Y-38930407D01*
X49950496Y-39025798D01*
X49986097Y-39158663D01*
X50085965Y-39372830D01*
X50221505Y-39566401D01*
X50388599Y-39733495D01*
X50574160Y-39863426D01*
X50617783Y-39918002D01*
X50624976Y-39987501D01*
X50593454Y-40049855D01*
X50574159Y-40066575D01*
X50388595Y-40196508D01*
X50221505Y-40363598D01*
X50085965Y-40557170D01*
X49986097Y-40771336D01*
X49924936Y-40999592D01*
X49904340Y-41235000D01*
X49924936Y-41470407D01*
X49950496Y-41565798D01*
X49986097Y-41698663D01*
X50085965Y-41912830D01*
X50221505Y-42106401D01*
X50388599Y-42273495D01*
X50574160Y-42403426D01*
X50617783Y-42458002D01*
X50624976Y-42527501D01*
X50593454Y-42589855D01*
X50574159Y-42606575D01*
X50388595Y-42736508D01*
X50221505Y-42903598D01*
X50085965Y-43097170D01*
X49986097Y-43311336D01*
X49924936Y-43539592D01*
X49904340Y-43775000D01*
X49924936Y-44010407D01*
X49950496Y-44105798D01*
X49986097Y-44238663D01*
X50085965Y-44452830D01*
X50221505Y-44646401D01*
X50388599Y-44813495D01*
X50573089Y-44942676D01*
X50616713Y-44997252D01*
X50623907Y-45066750D01*
X50592384Y-45129105D01*
X50573089Y-45145825D01*
X50393595Y-45271508D01*
X50226505Y-45438598D01*
X50090965Y-45632170D01*
X49991097Y-45846336D01*
X49929936Y-46074592D01*
X49909340Y-46310000D01*
X49929936Y-46545407D01*
X49956836Y-46645798D01*
X49991097Y-46773663D01*
X50090965Y-46987830D01*
X50226505Y-47181401D01*
X50393599Y-47348495D01*
X50584160Y-47481927D01*
X50627783Y-47536503D01*
X50634976Y-47606002D01*
X50603454Y-47668356D01*
X50584159Y-47685076D01*
X50403595Y-47811508D01*
X50236505Y-47978598D01*
X50100965Y-48172170D01*
X50001097Y-48386336D01*
X49939936Y-48614592D01*
X49919340Y-48850000D01*
X49939936Y-49085407D01*
X49966836Y-49185798D01*
X50001097Y-49313663D01*
X50100965Y-49527830D01*
X50236505Y-49721401D01*
X50403599Y-49888495D01*
X50589160Y-50018426D01*
X50632783Y-50073002D01*
X50639976Y-50142501D01*
X50608454Y-50204855D01*
X50589159Y-50221575D01*
X50403595Y-50351508D01*
X50236505Y-50518598D01*
X50100965Y-50712170D01*
X50001097Y-50926336D01*
X49939936Y-51154592D01*
X49919340Y-51389999D01*
X49939936Y-51625407D01*
X49966836Y-51725798D01*
X50001097Y-51853663D01*
X50100965Y-52067830D01*
X50236505Y-52261401D01*
X50403599Y-52428495D01*
X50589160Y-52558426D01*
X50632783Y-52613002D01*
X50639976Y-52682501D01*
X50608454Y-52744855D01*
X50589159Y-52761575D01*
X50403595Y-52891508D01*
X50236505Y-53058598D01*
X50100965Y-53252170D01*
X50001097Y-53466336D01*
X49939936Y-53694592D01*
X49919340Y-53930000D01*
X49939936Y-54165407D01*
X49966836Y-54265798D01*
X50001097Y-54393663D01*
X50100965Y-54607830D01*
X50236505Y-54801401D01*
X50403599Y-54968495D01*
X50589160Y-55098426D01*
X50632783Y-55153002D01*
X50639976Y-55222501D01*
X50608454Y-55284855D01*
X50589159Y-55301575D01*
X50403595Y-55431508D01*
X50236505Y-55598598D01*
X50100965Y-55792170D01*
X50001097Y-56006336D01*
X49939936Y-56234592D01*
X49919340Y-56469999D01*
X49939936Y-56705407D01*
X49966836Y-56805798D01*
X50001097Y-56933663D01*
X50100965Y-57147830D01*
X50236505Y-57341401D01*
X50236508Y-57341404D01*
X50374355Y-57479251D01*
X50407840Y-57540574D01*
X50402856Y-57610266D01*
X50360984Y-57666199D01*
X50330008Y-57683114D01*
X50187669Y-57736204D01*
X50072454Y-57822454D01*
X49986204Y-57937668D01*
X49935910Y-58072515D01*
X49935909Y-58072517D01*
X49929500Y-58132127D01*
X49929500Y-58135448D01*
X49929500Y-58135449D01*
X49929500Y-59924560D01*
X49929500Y-59924578D01*
X49929501Y-59927872D01*
X49929853Y-59931152D01*
X49929854Y-59931159D01*
X49935909Y-59987484D01*
X49960528Y-60053491D01*
X49986204Y-60122331D01*
X50072454Y-60237546D01*
X50187669Y-60323796D01*
X50299907Y-60365658D01*
X50319082Y-60372810D01*
X50375016Y-60414681D01*
X50399433Y-60480146D01*
X50384581Y-60548419D01*
X50363431Y-60576673D01*
X50241503Y-60698601D01*
X50105965Y-60892170D01*
X50006097Y-61106336D01*
X49944936Y-61334592D01*
X49924340Y-61569999D01*
X49944936Y-61805407D01*
X49985333Y-61956169D01*
X50006097Y-62033663D01*
X50105965Y-62247830D01*
X50241505Y-62441401D01*
X50408599Y-62608495D01*
X50594160Y-62738426D01*
X50637783Y-62793002D01*
X50644976Y-62862501D01*
X50613454Y-62924855D01*
X50594158Y-62941575D01*
X50430022Y-63056505D01*
X50408595Y-63071508D01*
X50241505Y-63238598D01*
X50105965Y-63432170D01*
X50006097Y-63646336D01*
X49944936Y-63874592D01*
X49924340Y-64109999D01*
X49944936Y-64345407D01*
X49972631Y-64448765D01*
X50006097Y-64573663D01*
X50105965Y-64787830D01*
X50241505Y-64981401D01*
X50408599Y-65148495D01*
X50594160Y-65278426D01*
X50637783Y-65333002D01*
X50644976Y-65402501D01*
X50613454Y-65464855D01*
X50594158Y-65481575D01*
X50430022Y-65596505D01*
X50408595Y-65611508D01*
X50241505Y-65778598D01*
X50105965Y-65972170D01*
X50006097Y-66186336D01*
X49944936Y-66414592D01*
X49924340Y-66650000D01*
X49944936Y-66885407D01*
X49986053Y-67038856D01*
X50006097Y-67113663D01*
X50105965Y-67327830D01*
X50241505Y-67521401D01*
X50408599Y-67688495D01*
X50594160Y-67818426D01*
X50637783Y-67873002D01*
X50644976Y-67942501D01*
X50613454Y-68004855D01*
X50594158Y-68021575D01*
X50430022Y-68136505D01*
X50408595Y-68151508D01*
X50241505Y-68318598D01*
X50105965Y-68512170D01*
X50006097Y-68726336D01*
X49944936Y-68954592D01*
X49924340Y-69190000D01*
X49944936Y-69425407D01*
X49945700Y-69428257D01*
X50006097Y-69653663D01*
X50105965Y-69867830D01*
X50241505Y-70061401D01*
X50408599Y-70228495D01*
X50602170Y-70364035D01*
X50816337Y-70463903D01*
X51044592Y-70525063D01*
X51280000Y-70545659D01*
X51515408Y-70525063D01*
X51743663Y-70463903D01*
X51957830Y-70364035D01*
X52151401Y-70228495D01*
X52318495Y-70061401D01*
X52454035Y-69867830D01*
X52553903Y-69653663D01*
X52615063Y-69425408D01*
X52635659Y-69190000D01*
X52615063Y-68954592D01*
X52553903Y-68726337D01*
X52508821Y-68629659D01*
X52498330Y-68560587D01*
X52526849Y-68496802D01*
X52585325Y-68458562D01*
X52655193Y-68458007D01*
X52713353Y-68494285D01*
X52784129Y-68572888D01*
X52937269Y-68684151D01*
X53110197Y-68761144D01*
X53295352Y-68800500D01*
X53295354Y-68800500D01*
X53484648Y-68800500D01*
X53608083Y-68774262D01*
X53669803Y-68761144D01*
X53842730Y-68684151D01*
X53995871Y-68572888D01*
X54122533Y-68432216D01*
X54217179Y-68268284D01*
X54275674Y-68088256D01*
X54295460Y-67900000D01*
X54275674Y-67711744D01*
X54238901Y-67598568D01*
X54217179Y-67531715D01*
X54122533Y-67367783D01*
X53995870Y-67227110D01*
X53842730Y-67115848D01*
X53669802Y-67038855D01*
X53484648Y-66999500D01*
X53484646Y-66999500D01*
X53295354Y-66999500D01*
X53295352Y-66999500D01*
X53110197Y-67038855D01*
X52937269Y-67115848D01*
X52784128Y-67227111D01*
X52752041Y-67262747D01*
X52692554Y-67299394D01*
X52622697Y-67298063D01*
X52564649Y-67259175D01*
X52536841Y-67195078D01*
X52547512Y-67127367D01*
X52553903Y-67113663D01*
X52615063Y-66885408D01*
X52635659Y-66650000D01*
X52615063Y-66414592D01*
X52553903Y-66186337D01*
X52454035Y-65972171D01*
X52318495Y-65778599D01*
X52151401Y-65611505D01*
X51965839Y-65481573D01*
X51922217Y-65426998D01*
X51915024Y-65357499D01*
X51946546Y-65295145D01*
X51965837Y-65278428D01*
X52151401Y-65148495D01*
X52318495Y-64981401D01*
X52454035Y-64787830D01*
X52553903Y-64573663D01*
X52615063Y-64345408D01*
X52635659Y-64110000D01*
X52615063Y-63874592D01*
X52553903Y-63646337D01*
X52454035Y-63432171D01*
X52318495Y-63238599D01*
X52151401Y-63071505D01*
X51965839Y-62941573D01*
X51922216Y-62886998D01*
X51915022Y-62817500D01*
X51941563Y-62764999D01*
X53399540Y-62764999D01*
X53419326Y-62953257D01*
X53477820Y-63133284D01*
X53572466Y-63297216D01*
X53699129Y-63437889D01*
X53852269Y-63549151D01*
X54025197Y-63626144D01*
X54210352Y-63665500D01*
X54210354Y-63665500D01*
X54399648Y-63665500D01*
X54523084Y-63639262D01*
X54584803Y-63626144D01*
X54757730Y-63549151D01*
X54766152Y-63543032D01*
X54910870Y-63437889D01*
X54916020Y-63432170D01*
X55037533Y-63297216D01*
X55132179Y-63133284D01*
X55183417Y-62975589D01*
X55222854Y-62917915D01*
X55287213Y-62890716D01*
X55327129Y-62892618D01*
X55505352Y-62930500D01*
X55505354Y-62930500D01*
X55694648Y-62930500D01*
X55818084Y-62904262D01*
X55879803Y-62891144D01*
X55990188Y-62841997D01*
X56052727Y-62814153D01*
X56068766Y-62802500D01*
X56161526Y-62735106D01*
X56227330Y-62711627D01*
X56295384Y-62727452D01*
X56307282Y-62735098D01*
X56347270Y-62764151D01*
X56347271Y-62764151D01*
X56347272Y-62764152D01*
X56520197Y-62841144D01*
X56705352Y-62880500D01*
X56705354Y-62880500D01*
X56894648Y-62880500D01*
X57075792Y-62841997D01*
X57145459Y-62847313D01*
X57201193Y-62889450D01*
X57219504Y-62924969D01*
X57262820Y-63058284D01*
X57357466Y-63222216D01*
X57484129Y-63362889D01*
X57637269Y-63474151D01*
X57810197Y-63551144D01*
X57995352Y-63590500D01*
X57995354Y-63590500D01*
X58184648Y-63590500D01*
X58308084Y-63564262D01*
X58369803Y-63551144D01*
X58542730Y-63474151D01*
X58600512Y-63432170D01*
X58695870Y-63362889D01*
X58735520Y-63318854D01*
X58822533Y-63222216D01*
X58917179Y-63058284D01*
X58975674Y-62878256D01*
X58995460Y-62690000D01*
X58975674Y-62501744D01*
X58917179Y-62321716D01*
X58917179Y-62321715D01*
X58822533Y-62157783D01*
X58695870Y-62017110D01*
X58542730Y-61905848D01*
X58369802Y-61828855D01*
X58184648Y-61789500D01*
X58184646Y-61789500D01*
X57995354Y-61789500D01*
X57995351Y-61789500D01*
X57814207Y-61828002D01*
X57744540Y-61822686D01*
X57688807Y-61780548D01*
X57670496Y-61745030D01*
X57627179Y-61611715D01*
X57532533Y-61447783D01*
X57405870Y-61307110D01*
X57252730Y-61195848D01*
X57079802Y-61118855D01*
X56894648Y-61079500D01*
X56894646Y-61079500D01*
X56705354Y-61079500D01*
X56705352Y-61079500D01*
X56520197Y-61118855D01*
X56347269Y-61195848D01*
X56238475Y-61274892D01*
X56172669Y-61298372D01*
X56104615Y-61282546D01*
X56092704Y-61274892D01*
X56052727Y-61245846D01*
X55879802Y-61168855D01*
X55694648Y-61129500D01*
X55694646Y-61129500D01*
X55505354Y-61129500D01*
X55505352Y-61129500D01*
X55320197Y-61168855D01*
X55147269Y-61245848D01*
X54994129Y-61357110D01*
X54867466Y-61497783D01*
X54772820Y-61661715D01*
X54721583Y-61819409D01*
X54682146Y-61877085D01*
X54617787Y-61904283D01*
X54577872Y-61902382D01*
X54458854Y-61877085D01*
X54399646Y-61864500D01*
X54210354Y-61864500D01*
X54210352Y-61864500D01*
X54025197Y-61903855D01*
X53852269Y-61980848D01*
X53699129Y-62092110D01*
X53572466Y-62232783D01*
X53477820Y-62396715D01*
X53419326Y-62576742D01*
X53399540Y-62764999D01*
X51941563Y-62764999D01*
X51946545Y-62755145D01*
X51965837Y-62738428D01*
X52151401Y-62608495D01*
X52318495Y-62441401D01*
X52454035Y-62247830D01*
X52553903Y-62033663D01*
X52615063Y-61805408D01*
X52635659Y-61570000D01*
X52615063Y-61334592D01*
X52553903Y-61106337D01*
X52454035Y-60892171D01*
X52318495Y-60698599D01*
X52196569Y-60576672D01*
X52163084Y-60515350D01*
X52168068Y-60445658D01*
X52209940Y-60389725D01*
X52240915Y-60372810D01*
X52372331Y-60323796D01*
X52487546Y-60237546D01*
X52490067Y-60234178D01*
X52492631Y-60230754D01*
X52548564Y-60188882D01*
X52618256Y-60183898D01*
X52679579Y-60217383D01*
X52709829Y-60266746D01*
X52742820Y-60368284D01*
X52837466Y-60532216D01*
X52964129Y-60672889D01*
X53117269Y-60784151D01*
X53290197Y-60861144D01*
X53475352Y-60900500D01*
X53475354Y-60900500D01*
X53664648Y-60900500D01*
X53812095Y-60869159D01*
X53849803Y-60861144D01*
X54022730Y-60784151D01*
X54175871Y-60672888D01*
X54302533Y-60532216D01*
X54397179Y-60368284D01*
X54422615Y-60289999D01*
X57814540Y-60289999D01*
X57834326Y-60478257D01*
X57892820Y-60658284D01*
X57987466Y-60822216D01*
X58114129Y-60962889D01*
X58267269Y-61074151D01*
X58440197Y-61151144D01*
X58625352Y-61190500D01*
X58625354Y-61190500D01*
X58814648Y-61190500D01*
X58938083Y-61164262D01*
X58999803Y-61151144D01*
X59172730Y-61074151D01*
X59222785Y-61037784D01*
X59325870Y-60962889D01*
X59452533Y-60822216D01*
X59547179Y-60658284D01*
X59573696Y-60576673D01*
X59605674Y-60478256D01*
X59625460Y-60290000D01*
X59605674Y-60101744D01*
X59572615Y-59999999D01*
X59547179Y-59921715D01*
X59452533Y-59757783D01*
X59325870Y-59617110D01*
X59172730Y-59505848D01*
X58999802Y-59428855D01*
X58814648Y-59389500D01*
X58814646Y-59389500D01*
X58625354Y-59389500D01*
X58625352Y-59389500D01*
X58440197Y-59428855D01*
X58267269Y-59505848D01*
X58114129Y-59617110D01*
X57987466Y-59757783D01*
X57892820Y-59921715D01*
X57834326Y-60101742D01*
X57814540Y-60289999D01*
X54422615Y-60289999D01*
X54455674Y-60188256D01*
X54475460Y-60000000D01*
X54455674Y-59811744D01*
X54397179Y-59631716D01*
X54397179Y-59631715D01*
X54302533Y-59467783D01*
X54175870Y-59327110D01*
X54022734Y-59215850D01*
X53980134Y-59196884D01*
X53926897Y-59151633D01*
X53906576Y-59084784D01*
X53925621Y-59017560D01*
X53957685Y-58983286D01*
X54095870Y-58882889D01*
X54222533Y-58742216D01*
X54317179Y-58578284D01*
X54349501Y-58478808D01*
X54375674Y-58398256D01*
X54395460Y-58210000D01*
X54375674Y-58021744D01*
X54318411Y-57845510D01*
X54316417Y-57775670D01*
X54352497Y-57715837D01*
X54383934Y-57694813D01*
X54492830Y-57644035D01*
X54686401Y-57508495D01*
X54853495Y-57341401D01*
X54983427Y-57155838D01*
X55038001Y-57112216D01*
X55107499Y-57105022D01*
X55169854Y-57136545D01*
X55186572Y-57155838D01*
X55316505Y-57341401D01*
X55483599Y-57508495D01*
X55677170Y-57644035D01*
X55891337Y-57743903D01*
X56119592Y-57805063D01*
X56355000Y-57825659D01*
X56590408Y-57805063D01*
X56818663Y-57743903D01*
X57032830Y-57644035D01*
X57226401Y-57508495D01*
X57393495Y-57341401D01*
X57523426Y-57155839D01*
X57578002Y-57112217D01*
X57647501Y-57105024D01*
X57709855Y-57136546D01*
X57726575Y-57155842D01*
X57788719Y-57244593D01*
X57811046Y-57310799D01*
X57794036Y-57378566D01*
X57743088Y-57426379D01*
X57737581Y-57428995D01*
X57677268Y-57455848D01*
X57524129Y-57567110D01*
X57397466Y-57707783D01*
X57302820Y-57871715D01*
X57244326Y-58051742D01*
X57224540Y-58240000D01*
X57244326Y-58428257D01*
X57302820Y-58608284D01*
X57397466Y-58772216D01*
X57524129Y-58912889D01*
X57677269Y-59024151D01*
X57850197Y-59101144D01*
X58035352Y-59140500D01*
X58035354Y-59140500D01*
X58224648Y-59140500D01*
X58365786Y-59110500D01*
X58409803Y-59101144D01*
X58582730Y-59024151D01*
X58735871Y-58912888D01*
X58862533Y-58772216D01*
X58957179Y-58608284D01*
X59015674Y-58428256D01*
X59035460Y-58240000D01*
X59015674Y-58051744D01*
X58989080Y-57969899D01*
X58987086Y-57900060D01*
X59023166Y-57840227D01*
X59085867Y-57809399D01*
X59096201Y-57808055D01*
X59130408Y-57805063D01*
X59358663Y-57743903D01*
X59572830Y-57644035D01*
X59766401Y-57508495D01*
X59933495Y-57341401D01*
X60063427Y-57155838D01*
X60118001Y-57112216D01*
X60187499Y-57105022D01*
X60249854Y-57136545D01*
X60266572Y-57155838D01*
X60396505Y-57341401D01*
X60396507Y-57341403D01*
X60396508Y-57341404D01*
X60534355Y-57479251D01*
X60567840Y-57540574D01*
X60562856Y-57610266D01*
X60520984Y-57666199D01*
X60490008Y-57683114D01*
X60347669Y-57736204D01*
X60232454Y-57822454D01*
X60146204Y-57937668D01*
X60095910Y-58072515D01*
X60095909Y-58072517D01*
X60089500Y-58132127D01*
X60089500Y-58135448D01*
X60089500Y-58135449D01*
X60089500Y-59924560D01*
X60089500Y-59924578D01*
X60089501Y-59927872D01*
X60089853Y-59931152D01*
X60089854Y-59931159D01*
X60095909Y-59987484D01*
X60120528Y-60053491D01*
X60146204Y-60122331D01*
X60232454Y-60237546D01*
X60347669Y-60323796D01*
X60459907Y-60365658D01*
X60479082Y-60372810D01*
X60535016Y-60414681D01*
X60559433Y-60480146D01*
X60544581Y-60548419D01*
X60523431Y-60576673D01*
X60401503Y-60698601D01*
X60265965Y-60892170D01*
X60166097Y-61106336D01*
X60104936Y-61334592D01*
X60084340Y-61569999D01*
X60104936Y-61805407D01*
X60145333Y-61956169D01*
X60166097Y-62033663D01*
X60265965Y-62247830D01*
X60401505Y-62441401D01*
X60568599Y-62608495D01*
X60754160Y-62738426D01*
X60797783Y-62793002D01*
X60804976Y-62862501D01*
X60773454Y-62924855D01*
X60754158Y-62941575D01*
X60590022Y-63056505D01*
X60568595Y-63071508D01*
X60401505Y-63238598D01*
X60265965Y-63432170D01*
X60166097Y-63646336D01*
X60104936Y-63874592D01*
X60084340Y-64109999D01*
X60104936Y-64345407D01*
X60132631Y-64448765D01*
X60166097Y-64573663D01*
X60265965Y-64787830D01*
X60401505Y-64981401D01*
X60568599Y-65148495D01*
X60754160Y-65278426D01*
X60797783Y-65333002D01*
X60804976Y-65402501D01*
X60773454Y-65464855D01*
X60754158Y-65481575D01*
X60590022Y-65596505D01*
X60568595Y-65611508D01*
X60401505Y-65778598D01*
X60265965Y-65972170D01*
X60166097Y-66186336D01*
X60104936Y-66414592D01*
X60084340Y-66650000D01*
X60104936Y-66885407D01*
X60146053Y-67038856D01*
X60166097Y-67113663D01*
X60265965Y-67327830D01*
X60401505Y-67521401D01*
X60568599Y-67688495D01*
X60754160Y-67818426D01*
X60797783Y-67873002D01*
X60804976Y-67942501D01*
X60773454Y-68004855D01*
X60754158Y-68021575D01*
X60590022Y-68136505D01*
X60568595Y-68151508D01*
X60401508Y-68318595D01*
X60401505Y-68318598D01*
X60401505Y-68318599D01*
X60386870Y-68339500D01*
X60313111Y-68444839D01*
X60258534Y-68488464D01*
X60189035Y-68495656D01*
X60126681Y-68464134D01*
X60091267Y-68403904D01*
X60093605Y-68335397D01*
X60105674Y-68298256D01*
X60125460Y-68110000D01*
X60105674Y-67921744D01*
X60047179Y-67741716D01*
X60047179Y-67741715D01*
X59952533Y-67577783D01*
X59825870Y-67437110D01*
X59672730Y-67325848D01*
X59499802Y-67248855D01*
X59314648Y-67209500D01*
X59314646Y-67209500D01*
X59125354Y-67209500D01*
X59125352Y-67209500D01*
X58940197Y-67248855D01*
X58767269Y-67325848D01*
X58614129Y-67437110D01*
X58487466Y-67577783D01*
X58392820Y-67741715D01*
X58334326Y-67921742D01*
X58314540Y-68110000D01*
X58334326Y-68298257D01*
X58392820Y-68478284D01*
X58487466Y-68642216D01*
X58614129Y-68782889D01*
X58767269Y-68894151D01*
X58940197Y-68971144D01*
X59125352Y-69010500D01*
X59125354Y-69010500D01*
X59314648Y-69010500D01*
X59438083Y-68984262D01*
X59499803Y-68971144D01*
X59672730Y-68894151D01*
X59825871Y-68782888D01*
X59943062Y-68652734D01*
X60002547Y-68616086D01*
X60072404Y-68617416D01*
X60130453Y-68656303D01*
X60158263Y-68720400D01*
X60154986Y-68767800D01*
X60104936Y-68954592D01*
X60084340Y-69190000D01*
X60104936Y-69425407D01*
X60105700Y-69428257D01*
X60166097Y-69653663D01*
X60265965Y-69867830D01*
X60401505Y-70061401D01*
X60568599Y-70228495D01*
X60762170Y-70364035D01*
X60976337Y-70463903D01*
X61148611Y-70510063D01*
X61204592Y-70525063D01*
X61439999Y-70545659D01*
X61439999Y-70545658D01*
X61440000Y-70545659D01*
X61675408Y-70525063D01*
X61903663Y-70463903D01*
X62117830Y-70364035D01*
X62311401Y-70228495D01*
X62478495Y-70061401D01*
X62614035Y-69867830D01*
X62713903Y-69653663D01*
X62775063Y-69425408D01*
X62795659Y-69190000D01*
X62775063Y-68954592D01*
X62713903Y-68726337D01*
X62614035Y-68512171D01*
X62478495Y-68318599D01*
X62311401Y-68151505D01*
X62125839Y-68021573D01*
X62082216Y-67966998D01*
X62075022Y-67897500D01*
X62106545Y-67835145D01*
X62125837Y-67818428D01*
X62311401Y-67688495D01*
X62478495Y-67521401D01*
X62614035Y-67327830D01*
X62713903Y-67113663D01*
X62775063Y-66885408D01*
X62795659Y-66650000D01*
X62775063Y-66414592D01*
X62713903Y-66186337D01*
X62614035Y-65972171D01*
X62478495Y-65778599D01*
X62311401Y-65611505D01*
X62125839Y-65481573D01*
X62082217Y-65426998D01*
X62075024Y-65357499D01*
X62106546Y-65295145D01*
X62125837Y-65278428D01*
X62311401Y-65148495D01*
X62478495Y-64981401D01*
X62614035Y-64787830D01*
X62713903Y-64573663D01*
X62775063Y-64345408D01*
X62795659Y-64110000D01*
X62775063Y-63874592D01*
X62713903Y-63646337D01*
X62614035Y-63432171D01*
X62478495Y-63238599D01*
X62311401Y-63071505D01*
X62125839Y-62941573D01*
X62082216Y-62886998D01*
X62075022Y-62817500D01*
X62106545Y-62755145D01*
X62125837Y-62738428D01*
X62311401Y-62608495D01*
X62478495Y-62441401D01*
X62614035Y-62247830D01*
X62713903Y-62033663D01*
X62775063Y-61805408D01*
X62795659Y-61570000D01*
X62791284Y-61520000D01*
X62775063Y-61334592D01*
X62761117Y-61282546D01*
X62713903Y-61106337D01*
X62614035Y-60892171D01*
X62478495Y-60698599D01*
X62356569Y-60576672D01*
X62323084Y-60515350D01*
X62328068Y-60445658D01*
X62369940Y-60389725D01*
X62400915Y-60372810D01*
X62532331Y-60323796D01*
X62647546Y-60237546D01*
X62733796Y-60122331D01*
X62784091Y-59987483D01*
X62790500Y-59927873D01*
X62790499Y-58132128D01*
X62784091Y-58072517D01*
X62733796Y-57937669D01*
X62647546Y-57822454D01*
X62532331Y-57736204D01*
X62456133Y-57707784D01*
X62382890Y-57680466D01*
X62384591Y-57675903D01*
X62347896Y-57660571D01*
X62308224Y-57603057D01*
X62305945Y-57533224D01*
X62338314Y-57476581D01*
X62473495Y-57341401D01*
X62609035Y-57147830D01*
X62708903Y-56933663D01*
X62770063Y-56705408D01*
X62790659Y-56470000D01*
X62770063Y-56234592D01*
X62708903Y-56006337D01*
X62609035Y-55792171D01*
X62473495Y-55598599D01*
X62306401Y-55431505D01*
X62120839Y-55301573D01*
X62077216Y-55246998D01*
X62070022Y-55177500D01*
X62101545Y-55115145D01*
X62120837Y-55098428D01*
X62306401Y-54968495D01*
X62473495Y-54801401D01*
X62609035Y-54607830D01*
X62708903Y-54393663D01*
X62770063Y-54165408D01*
X62790659Y-53930000D01*
X62770063Y-53694592D01*
X62708903Y-53466337D01*
X62609035Y-53252171D01*
X62473495Y-53058599D01*
X62306401Y-52891505D01*
X62120839Y-52761573D01*
X62077217Y-52706998D01*
X62070024Y-52637499D01*
X62101546Y-52575145D01*
X62120837Y-52558428D01*
X62306401Y-52428495D01*
X62473495Y-52261401D01*
X62609035Y-52067830D01*
X62708903Y-51853663D01*
X62770063Y-51625408D01*
X62790659Y-51390000D01*
X62770063Y-51154592D01*
X62708903Y-50926337D01*
X62609035Y-50712171D01*
X62473495Y-50518599D01*
X62306401Y-50351505D01*
X62120839Y-50221573D01*
X62077216Y-50166998D01*
X62070022Y-50097500D01*
X62101545Y-50035145D01*
X62120837Y-50018428D01*
X62306401Y-49888495D01*
X62473495Y-49721401D01*
X62609035Y-49527830D01*
X62708903Y-49313663D01*
X62770063Y-49085408D01*
X62790659Y-48850000D01*
X62770063Y-48614592D01*
X62708903Y-48386337D01*
X62609035Y-48172171D01*
X62473495Y-47978599D01*
X62306401Y-47811505D01*
X62120839Y-47681573D01*
X62077217Y-47626998D01*
X62070024Y-47557499D01*
X62101546Y-47495145D01*
X62120837Y-47478428D01*
X62306401Y-47348495D01*
X62473495Y-47181401D01*
X62609035Y-46987830D01*
X62708903Y-46773663D01*
X62770063Y-46545408D01*
X62790659Y-46310000D01*
X62770063Y-46074592D01*
X62708903Y-45846337D01*
X62609035Y-45632171D01*
X62473495Y-45438599D01*
X62306401Y-45271505D01*
X62116910Y-45138821D01*
X62073287Y-45084246D01*
X62066094Y-45014747D01*
X62097616Y-44952393D01*
X62116908Y-44935676D01*
X62291401Y-44813495D01*
X62458495Y-44646401D01*
X62594035Y-44452830D01*
X62693903Y-44238663D01*
X62755063Y-44010408D01*
X62775659Y-43775000D01*
X62775659Y-43774999D01*
X67664340Y-43774999D01*
X67684936Y-44010407D01*
X67710496Y-44105798D01*
X67746097Y-44238663D01*
X67845965Y-44452830D01*
X67981505Y-44646401D01*
X68148599Y-44813495D01*
X68338089Y-44946177D01*
X68381713Y-45000753D01*
X68388907Y-45070251D01*
X68357384Y-45132606D01*
X68338089Y-45149326D01*
X68163595Y-45271508D01*
X67996505Y-45438598D01*
X67860965Y-45632170D01*
X67761097Y-45846336D01*
X67699936Y-46074592D01*
X67679340Y-46310000D01*
X67699936Y-46545407D01*
X67726836Y-46645798D01*
X67761097Y-46773663D01*
X67860965Y-46987830D01*
X67996505Y-47181401D01*
X68163599Y-47348495D01*
X68349160Y-47478426D01*
X68392783Y-47533002D01*
X68399976Y-47602501D01*
X68368454Y-47664855D01*
X68349159Y-47681575D01*
X68163595Y-47811508D01*
X67996505Y-47978598D01*
X67860965Y-48172170D01*
X67761097Y-48386336D01*
X67699936Y-48614592D01*
X67679340Y-48850000D01*
X67699936Y-49085407D01*
X67726836Y-49185798D01*
X67761097Y-49313663D01*
X67860965Y-49527830D01*
X67996505Y-49721401D01*
X68163599Y-49888495D01*
X68349160Y-50018426D01*
X68392783Y-50073002D01*
X68399976Y-50142501D01*
X68368454Y-50204855D01*
X68349159Y-50221575D01*
X68163595Y-50351508D01*
X67996505Y-50518598D01*
X67860965Y-50712170D01*
X67761097Y-50926336D01*
X67699936Y-51154592D01*
X67679340Y-51389999D01*
X67699936Y-51625407D01*
X67726836Y-51725798D01*
X67761097Y-51853663D01*
X67860965Y-52067830D01*
X67996505Y-52261401D01*
X68163599Y-52428495D01*
X68349160Y-52558426D01*
X68392783Y-52613002D01*
X68399976Y-52682501D01*
X68368454Y-52744855D01*
X68349159Y-52761575D01*
X68163595Y-52891508D01*
X67996505Y-53058598D01*
X67860965Y-53252170D01*
X67761097Y-53466336D01*
X67699936Y-53694592D01*
X67679340Y-53930000D01*
X67699936Y-54165407D01*
X67726836Y-54265798D01*
X67761097Y-54393663D01*
X67860965Y-54607830D01*
X67996505Y-54801401D01*
X68163599Y-54968495D01*
X68349160Y-55098426D01*
X68392783Y-55153002D01*
X68399976Y-55222501D01*
X68368454Y-55284855D01*
X68349159Y-55301575D01*
X68163595Y-55431508D01*
X67996505Y-55598598D01*
X67860965Y-55792170D01*
X67761097Y-56006336D01*
X67699936Y-56234592D01*
X67679340Y-56470000D01*
X67699936Y-56705407D01*
X67726836Y-56805798D01*
X67761097Y-56933663D01*
X67860965Y-57147830D01*
X67996505Y-57341401D01*
X67996508Y-57341404D01*
X68137072Y-57481968D01*
X68170557Y-57543291D01*
X68165573Y-57612983D01*
X68123701Y-57668916D01*
X68092725Y-57685831D01*
X67957669Y-57736204D01*
X67842454Y-57822454D01*
X67756204Y-57937668D01*
X67705910Y-58072515D01*
X67705909Y-58072517D01*
X67699500Y-58132127D01*
X67699500Y-58135448D01*
X67699500Y-58135449D01*
X67699500Y-59924560D01*
X67699500Y-59924578D01*
X67699501Y-59927872D01*
X67699853Y-59931152D01*
X67699854Y-59931159D01*
X67705909Y-59987484D01*
X67730528Y-60053491D01*
X67756204Y-60122331D01*
X67842454Y-60237546D01*
X67957669Y-60323796D01*
X68069907Y-60365658D01*
X68089082Y-60372810D01*
X68145016Y-60414681D01*
X68169433Y-60480146D01*
X68154581Y-60548419D01*
X68133431Y-60576673D01*
X68011503Y-60698601D01*
X67875965Y-60892170D01*
X67776097Y-61106336D01*
X67714936Y-61334592D01*
X67694340Y-61570000D01*
X67714936Y-61805407D01*
X67755333Y-61956169D01*
X67776097Y-62033663D01*
X67875965Y-62247830D01*
X68011505Y-62441401D01*
X68178599Y-62608495D01*
X68364160Y-62738426D01*
X68407783Y-62793002D01*
X68414976Y-62862501D01*
X68383454Y-62924855D01*
X68364158Y-62941575D01*
X68200022Y-63056505D01*
X68178595Y-63071508D01*
X68011505Y-63238598D01*
X67875965Y-63432170D01*
X67776097Y-63646336D01*
X67714936Y-63874592D01*
X67694340Y-64109999D01*
X67714936Y-64345407D01*
X67742631Y-64448765D01*
X67776097Y-64573663D01*
X67875965Y-64787830D01*
X68011505Y-64981401D01*
X68178599Y-65148495D01*
X68364160Y-65278426D01*
X68407783Y-65333002D01*
X68414976Y-65402501D01*
X68383454Y-65464855D01*
X68364158Y-65481575D01*
X68200022Y-65596505D01*
X68178595Y-65611508D01*
X68011505Y-65778598D01*
X67875965Y-65972170D01*
X67776097Y-66186336D01*
X67714936Y-66414592D01*
X67694340Y-66650000D01*
X67714936Y-66885407D01*
X67756053Y-67038856D01*
X67776097Y-67113663D01*
X67875965Y-67327830D01*
X68011505Y-67521401D01*
X68178599Y-67688495D01*
X68364160Y-67818426D01*
X68407783Y-67873002D01*
X68414976Y-67942501D01*
X68383454Y-68004855D01*
X68364158Y-68021575D01*
X68200022Y-68136505D01*
X68178595Y-68151508D01*
X68011505Y-68318598D01*
X67875965Y-68512170D01*
X67776097Y-68726336D01*
X67714936Y-68954592D01*
X67694340Y-69189999D01*
X67714936Y-69425407D01*
X67715700Y-69428257D01*
X67776097Y-69653663D01*
X67875965Y-69867830D01*
X68011505Y-70061401D01*
X68178599Y-70228495D01*
X68372170Y-70364035D01*
X68586337Y-70463903D01*
X68814592Y-70525063D01*
X69050000Y-70545659D01*
X69285408Y-70525063D01*
X69513663Y-70463903D01*
X69727830Y-70364035D01*
X69921401Y-70228495D01*
X70088495Y-70061401D01*
X70224035Y-69867830D01*
X70323903Y-69653663D01*
X70385063Y-69425408D01*
X70401284Y-69240000D01*
X71614540Y-69240000D01*
X71634326Y-69428257D01*
X71692820Y-69608284D01*
X71787466Y-69772216D01*
X71914129Y-69912889D01*
X72067269Y-70024151D01*
X72240197Y-70101144D01*
X72425352Y-70140500D01*
X72425354Y-70140500D01*
X72614648Y-70140500D01*
X72738083Y-70114262D01*
X72799803Y-70101144D01*
X72972730Y-70024151D01*
X73104737Y-69928243D01*
X73125870Y-69912889D01*
X73166442Y-69867830D01*
X73252533Y-69772216D01*
X73347179Y-69608284D01*
X73405674Y-69428256D01*
X73425460Y-69240000D01*
X73424409Y-69230000D01*
X75234540Y-69230000D01*
X75254326Y-69418257D01*
X75312820Y-69598284D01*
X75407466Y-69762216D01*
X75534129Y-69902889D01*
X75687269Y-70014151D01*
X75860197Y-70091144D01*
X76045352Y-70130500D01*
X76045354Y-70130500D01*
X76234648Y-70130500D01*
X76372756Y-70101144D01*
X76419803Y-70091144D01*
X76592730Y-70014151D01*
X76710973Y-69928243D01*
X76745870Y-69902889D01*
X76790944Y-69852830D01*
X76872533Y-69762216D01*
X76967179Y-69598284D01*
X77025674Y-69418256D01*
X77045460Y-69230000D01*
X77025674Y-69041744D01*
X76977718Y-68894151D01*
X76967179Y-68861715D01*
X76872533Y-68697783D01*
X76745870Y-68557110D01*
X76592730Y-68445848D01*
X76419802Y-68368855D01*
X76234648Y-68329500D01*
X76234646Y-68329500D01*
X76045354Y-68329500D01*
X76045352Y-68329500D01*
X75860197Y-68368855D01*
X75687269Y-68445848D01*
X75534129Y-68557110D01*
X75407466Y-68697783D01*
X75312820Y-68861715D01*
X75254326Y-69041742D01*
X75234540Y-69230000D01*
X73424409Y-69230000D01*
X73405674Y-69051744D01*
X73347179Y-68871716D01*
X73347179Y-68871715D01*
X73252533Y-68707783D01*
X73125870Y-68567110D01*
X72972730Y-68455848D01*
X72799802Y-68378855D01*
X72614648Y-68339500D01*
X72614646Y-68339500D01*
X72425354Y-68339500D01*
X72425352Y-68339500D01*
X72240197Y-68378855D01*
X72067269Y-68455848D01*
X71914129Y-68567110D01*
X71787466Y-68707783D01*
X71692820Y-68871715D01*
X71634326Y-69051742D01*
X71614540Y-69240000D01*
X70401284Y-69240000D01*
X70405659Y-69190000D01*
X70385063Y-68954592D01*
X70323903Y-68726337D01*
X70224035Y-68512171D01*
X70088495Y-68318599D01*
X69921401Y-68151505D01*
X69735839Y-68021573D01*
X69692216Y-67966998D01*
X69685022Y-67897500D01*
X69716545Y-67835145D01*
X69735837Y-67818428D01*
X69921401Y-67688495D01*
X70088495Y-67521401D01*
X70224035Y-67327830D01*
X70323903Y-67113663D01*
X70385063Y-66885408D01*
X70405659Y-66650000D01*
X70385063Y-66414592D01*
X70323903Y-66186337D01*
X70224035Y-65972171D01*
X70088495Y-65778599D01*
X69921401Y-65611505D01*
X69735839Y-65481573D01*
X69692217Y-65426998D01*
X69685024Y-65357499D01*
X69716546Y-65295145D01*
X69735837Y-65278428D01*
X69921401Y-65148495D01*
X70088495Y-64981401D01*
X70224035Y-64787830D01*
X70323903Y-64573663D01*
X70385063Y-64345408D01*
X70405659Y-64110000D01*
X70385063Y-63874592D01*
X70368216Y-63811716D01*
X70361489Y-63786610D01*
X70363152Y-63716760D01*
X70402315Y-63658898D01*
X70466543Y-63631394D01*
X70507043Y-63633226D01*
X70583408Y-63649458D01*
X70635353Y-63660500D01*
X70635354Y-63660500D01*
X70824648Y-63660500D01*
X70977971Y-63627910D01*
X71009803Y-63621144D01*
X71082517Y-63588769D01*
X71151768Y-63579484D01*
X71215044Y-63609112D01*
X71252258Y-63668246D01*
X71251593Y-63738113D01*
X71240342Y-63764047D01*
X71212820Y-63811716D01*
X71154326Y-63991742D01*
X71134540Y-64180000D01*
X71154326Y-64368257D01*
X71212820Y-64548284D01*
X71307466Y-64712216D01*
X71434129Y-64852889D01*
X71587269Y-64964151D01*
X71760197Y-65041144D01*
X71945352Y-65080500D01*
X71945354Y-65080500D01*
X72134648Y-65080500D01*
X72275786Y-65050500D01*
X72319803Y-65041144D01*
X72492730Y-64964151D01*
X72578917Y-64901533D01*
X72645870Y-64852889D01*
X72738403Y-64750121D01*
X72797890Y-64713472D01*
X72867747Y-64714803D01*
X72925795Y-64753689D01*
X72953605Y-64817786D01*
X72950328Y-64865186D01*
X72904936Y-65034592D01*
X72884340Y-65270000D01*
X72904936Y-65505407D01*
X72929346Y-65596505D01*
X72966097Y-65733663D01*
X73065965Y-65947830D01*
X73201505Y-66141401D01*
X73368599Y-66308495D01*
X73562170Y-66444035D01*
X73776337Y-66543903D01*
X74004591Y-66605063D01*
X74004592Y-66605063D01*
X74239999Y-66625659D01*
X74239999Y-66625658D01*
X74240000Y-66625659D01*
X74381864Y-66613247D01*
X74450363Y-66627013D01*
X74500546Y-66675628D01*
X74515992Y-66723813D01*
X74534326Y-66898257D01*
X74592820Y-67078284D01*
X74687466Y-67242216D01*
X74814129Y-67382889D01*
X74967269Y-67494151D01*
X75140197Y-67571144D01*
X75325352Y-67610500D01*
X75325354Y-67610500D01*
X75514648Y-67610500D01*
X75638084Y-67584262D01*
X75699803Y-67571144D01*
X75872730Y-67494151D01*
X76025871Y-67382888D01*
X76152533Y-67242216D01*
X76247179Y-67078284D01*
X76305674Y-66898256D01*
X76325460Y-66710000D01*
X76305674Y-66521744D01*
X76247179Y-66341716D01*
X76247179Y-66341715D01*
X76152533Y-66177783D01*
X76025870Y-66037110D01*
X75872730Y-65925848D01*
X75699803Y-65848855D01*
X75622529Y-65832430D01*
X75561048Y-65799237D01*
X75527271Y-65738074D01*
X75528535Y-65679051D01*
X75575063Y-65505408D01*
X75595659Y-65270000D01*
X75575063Y-65034592D01*
X75539410Y-64901531D01*
X75541073Y-64831683D01*
X75580235Y-64773820D01*
X75644464Y-64746316D01*
X75713366Y-64757902D01*
X75751335Y-64786467D01*
X75784129Y-64822889D01*
X75937269Y-64934151D01*
X76110197Y-65011144D01*
X76295352Y-65050500D01*
X76295354Y-65050500D01*
X76484648Y-65050500D01*
X76608084Y-65024262D01*
X76669803Y-65011144D01*
X76842730Y-64934151D01*
X76954578Y-64852889D01*
X76995870Y-64822889D01*
X77040944Y-64772830D01*
X77122533Y-64682216D01*
X77217179Y-64518284D01*
X77275674Y-64338256D01*
X77295460Y-64150000D01*
X77275674Y-63961744D01*
X77217179Y-63781716D01*
X77217178Y-63781714D01*
X77197883Y-63748294D01*
X77181409Y-63680394D01*
X77204261Y-63614367D01*
X77259182Y-63571176D01*
X77328735Y-63564534D01*
X77355704Y-63573013D01*
X77385199Y-63586145D01*
X77570352Y-63625500D01*
X77772679Y-63625500D01*
X77772679Y-63627910D01*
X77824401Y-63631852D01*
X77880139Y-63673984D01*
X77904251Y-63739561D01*
X77900302Y-63779924D01*
X77874936Y-63874592D01*
X77854340Y-64110000D01*
X77874936Y-64345407D01*
X77902631Y-64448765D01*
X77936097Y-64573663D01*
X78035965Y-64787830D01*
X78171505Y-64981401D01*
X78338599Y-65148495D01*
X78524160Y-65278426D01*
X78567783Y-65333002D01*
X78574976Y-65402501D01*
X78543454Y-65464855D01*
X78524158Y-65481575D01*
X78360022Y-65596505D01*
X78338595Y-65611508D01*
X78171505Y-65778598D01*
X78035965Y-65972170D01*
X77936097Y-66186336D01*
X77874936Y-66414592D01*
X77854340Y-66650000D01*
X77874936Y-66885407D01*
X77916053Y-67038856D01*
X77936097Y-67113663D01*
X78035965Y-67327830D01*
X78171505Y-67521401D01*
X78338599Y-67688495D01*
X78524160Y-67818426D01*
X78567783Y-67873002D01*
X78574976Y-67942501D01*
X78543454Y-68004855D01*
X78524158Y-68021575D01*
X78360022Y-68136505D01*
X78338595Y-68151508D01*
X78171505Y-68318598D01*
X78035965Y-68512170D01*
X77936097Y-68726336D01*
X77874936Y-68954592D01*
X77854340Y-69189999D01*
X77874936Y-69425407D01*
X77875700Y-69428257D01*
X77936097Y-69653663D01*
X78035965Y-69867830D01*
X78171505Y-70061401D01*
X78338599Y-70228495D01*
X78532170Y-70364035D01*
X78746337Y-70463903D01*
X78974592Y-70525063D01*
X79210000Y-70545659D01*
X79445408Y-70525063D01*
X79673663Y-70463903D01*
X79887830Y-70364035D01*
X80081401Y-70228495D01*
X80248495Y-70061401D01*
X80384035Y-69867830D01*
X80483903Y-69653663D01*
X80545063Y-69425408D01*
X80565659Y-69190000D01*
X80564347Y-69174999D01*
X82874340Y-69174999D01*
X82894936Y-69410407D01*
X82939709Y-69577502D01*
X82956097Y-69638663D01*
X83055965Y-69852830D01*
X83191505Y-70046401D01*
X83358599Y-70213495D01*
X83552170Y-70349035D01*
X83766337Y-70448903D01*
X83994592Y-70510063D01*
X84230000Y-70530659D01*
X84465408Y-70510063D01*
X84693663Y-70448903D01*
X84907830Y-70349035D01*
X85101401Y-70213495D01*
X85268495Y-70046401D01*
X85398426Y-69860839D01*
X85453002Y-69817216D01*
X85522500Y-69810022D01*
X85584855Y-69841545D01*
X85601571Y-69860837D01*
X85731505Y-70046401D01*
X85898599Y-70213495D01*
X86092170Y-70349035D01*
X86306337Y-70448903D01*
X86534592Y-70510063D01*
X86769999Y-70530659D01*
X86769999Y-70530658D01*
X86770000Y-70530659D01*
X87005408Y-70510063D01*
X87233663Y-70448903D01*
X87447830Y-70349035D01*
X87641401Y-70213495D01*
X87808495Y-70046401D01*
X87944035Y-69852830D01*
X88043903Y-69638663D01*
X88105063Y-69410408D01*
X88125659Y-69175000D01*
X88105063Y-68939592D01*
X88043903Y-68711337D01*
X87944035Y-68497171D01*
X87808495Y-68303599D01*
X87641401Y-68136505D01*
X87455839Y-68006573D01*
X87412216Y-67951998D01*
X87405022Y-67882500D01*
X87436545Y-67820145D01*
X87455837Y-67803428D01*
X87641401Y-67673495D01*
X87808495Y-67506401D01*
X87944035Y-67312830D01*
X88043903Y-67098663D01*
X88105063Y-66870408D01*
X88125659Y-66635000D01*
X88105063Y-66399592D01*
X88043903Y-66171337D01*
X87944035Y-65957171D01*
X87808495Y-65763599D01*
X87641401Y-65596505D01*
X87455839Y-65466573D01*
X87412216Y-65411998D01*
X87405022Y-65342500D01*
X87436545Y-65280145D01*
X87455837Y-65263428D01*
X87641401Y-65133495D01*
X87808495Y-64966401D01*
X87944035Y-64772830D01*
X88043903Y-64558663D01*
X88105063Y-64330408D01*
X88125659Y-64095000D01*
X88105063Y-63859592D01*
X88043903Y-63631337D01*
X87944035Y-63417171D01*
X87808495Y-63223599D01*
X87641401Y-63056505D01*
X87455839Y-62926573D01*
X87412216Y-62871998D01*
X87405022Y-62802500D01*
X87436545Y-62740145D01*
X87455837Y-62723428D01*
X87641401Y-62593495D01*
X87808495Y-62426401D01*
X87944035Y-62232830D01*
X88043903Y-62018663D01*
X88105063Y-61790408D01*
X88125659Y-61555000D01*
X88105063Y-61319592D01*
X88043903Y-61091337D01*
X87944035Y-60877171D01*
X87808495Y-60683599D01*
X87641401Y-60516505D01*
X87455839Y-60386573D01*
X87412216Y-60331998D01*
X87405022Y-60262500D01*
X87436545Y-60200145D01*
X87455837Y-60183428D01*
X87641401Y-60053495D01*
X87808495Y-59886401D01*
X87944035Y-59692830D01*
X88043903Y-59478663D01*
X88105063Y-59250408D01*
X88125659Y-59015000D01*
X88105063Y-58779592D01*
X88043903Y-58551337D01*
X87944035Y-58337171D01*
X87808495Y-58143599D01*
X87641401Y-57976505D01*
X87455839Y-57846573D01*
X87412216Y-57791998D01*
X87405022Y-57722500D01*
X87436545Y-57660145D01*
X87455837Y-57643428D01*
X87641401Y-57513495D01*
X87808495Y-57346401D01*
X87944035Y-57152830D01*
X88043903Y-56938663D01*
X88105063Y-56710408D01*
X88125659Y-56475000D01*
X88125221Y-56469999D01*
X88105063Y-56239592D01*
X88101153Y-56224999D01*
X88043903Y-56011337D01*
X87944035Y-55797171D01*
X87808495Y-55603599D01*
X87641401Y-55436505D01*
X87455839Y-55306573D01*
X87412216Y-55251998D01*
X87405022Y-55182500D01*
X87436545Y-55120145D01*
X87455837Y-55103428D01*
X87641401Y-54973495D01*
X87808495Y-54806401D01*
X87944035Y-54612830D01*
X88043903Y-54398663D01*
X88105063Y-54170408D01*
X88125659Y-53935000D01*
X88105063Y-53699592D01*
X88043903Y-53471337D01*
X87944035Y-53257171D01*
X87808495Y-53063599D01*
X87641401Y-52896505D01*
X87455839Y-52766573D01*
X87412216Y-52711998D01*
X87405022Y-52642500D01*
X87436545Y-52580145D01*
X87455837Y-52563428D01*
X87641401Y-52433495D01*
X87808495Y-52266401D01*
X87944035Y-52072830D01*
X88043903Y-51858663D01*
X88105063Y-51630408D01*
X88125659Y-51395000D01*
X88125221Y-51389999D01*
X88105063Y-51159592D01*
X88101153Y-51144999D01*
X88043903Y-50931337D01*
X87944035Y-50717171D01*
X87808495Y-50523599D01*
X87641401Y-50356505D01*
X87455839Y-50226573D01*
X87412216Y-50171998D01*
X87405022Y-50102500D01*
X87436545Y-50040145D01*
X87455837Y-50023428D01*
X87641401Y-49893495D01*
X87808495Y-49726401D01*
X87944035Y-49532830D01*
X88043903Y-49318663D01*
X88105063Y-49090408D01*
X88125659Y-48855000D01*
X88105063Y-48619592D01*
X88043903Y-48391337D01*
X87944035Y-48177171D01*
X87808495Y-47983599D01*
X87641401Y-47816505D01*
X87455839Y-47686573D01*
X87412216Y-47631998D01*
X87405022Y-47562500D01*
X87436545Y-47500145D01*
X87455837Y-47483428D01*
X87641401Y-47353495D01*
X87808495Y-47186401D01*
X87944035Y-46992830D01*
X88043903Y-46778663D01*
X88105063Y-46550408D01*
X88125659Y-46315000D01*
X88105063Y-46079592D01*
X88043903Y-45851337D01*
X87944035Y-45637171D01*
X87808495Y-45443599D01*
X87641401Y-45276505D01*
X87455839Y-45146573D01*
X87412216Y-45091998D01*
X87405022Y-45022500D01*
X87436545Y-44960145D01*
X87455837Y-44943428D01*
X87641401Y-44813495D01*
X87808495Y-44646401D01*
X87944035Y-44452830D01*
X88043903Y-44238663D01*
X88105063Y-44010408D01*
X88125659Y-43775000D01*
X88105063Y-43539592D01*
X88043903Y-43311337D01*
X87944035Y-43097171D01*
X87808495Y-42903599D01*
X87641401Y-42736505D01*
X87455839Y-42606573D01*
X87412216Y-42551998D01*
X87405022Y-42482500D01*
X87436545Y-42420145D01*
X87455837Y-42403428D01*
X87641401Y-42273495D01*
X87808495Y-42106401D01*
X87944035Y-41912830D01*
X88043903Y-41698663D01*
X88105063Y-41470408D01*
X88125659Y-41235000D01*
X88105063Y-40999592D01*
X88043903Y-40771337D01*
X87944035Y-40557171D01*
X87808495Y-40363599D01*
X87641401Y-40196505D01*
X87455839Y-40066573D01*
X87412216Y-40011998D01*
X87405022Y-39942500D01*
X87436545Y-39880145D01*
X87455837Y-39863428D01*
X87641401Y-39733495D01*
X87808495Y-39566401D01*
X87944035Y-39372830D01*
X88043903Y-39158663D01*
X88105063Y-38930408D01*
X88125659Y-38695000D01*
X88105063Y-38459592D01*
X88043903Y-38231337D01*
X87944035Y-38017171D01*
X87808495Y-37823599D01*
X87641401Y-37656505D01*
X87455839Y-37526573D01*
X87412216Y-37471998D01*
X87405022Y-37402500D01*
X87436545Y-37340145D01*
X87455837Y-37323428D01*
X87641401Y-37193495D01*
X87808495Y-37026401D01*
X87944035Y-36832830D01*
X88043903Y-36618663D01*
X88105063Y-36390408D01*
X88125659Y-36155000D01*
X88105063Y-35919592D01*
X88043903Y-35691337D01*
X87944035Y-35477171D01*
X87808495Y-35283599D01*
X87686569Y-35161673D01*
X87653084Y-35100350D01*
X87658068Y-35030658D01*
X87699940Y-34974725D01*
X87730915Y-34957810D01*
X87862331Y-34908796D01*
X87977546Y-34822546D01*
X88063796Y-34707331D01*
X88114091Y-34572483D01*
X88120500Y-34512873D01*
X88120499Y-32717128D01*
X88114091Y-32657517D01*
X88063796Y-32522669D01*
X87977546Y-32407454D01*
X87862331Y-32321204D01*
X87727483Y-32270909D01*
X87667873Y-32264500D01*
X87664550Y-32264500D01*
X85875439Y-32264500D01*
X85875420Y-32264500D01*
X85872128Y-32264501D01*
X85868848Y-32264853D01*
X85868840Y-32264854D01*
X85812515Y-32270909D01*
X85677669Y-32321204D01*
X85562454Y-32407454D01*
X85476204Y-32522669D01*
X85426997Y-32654599D01*
X85385125Y-32710532D01*
X85319661Y-32734949D01*
X85251388Y-32720097D01*
X85223134Y-32698946D01*
X85101081Y-32576893D01*
X84907576Y-32441399D01*
X84693492Y-32341569D01*
X84480000Y-32284364D01*
X84480000Y-33179498D01*
X84372315Y-33130320D01*
X84265763Y-33115000D01*
X84194237Y-33115000D01*
X84087685Y-33130320D01*
X83980000Y-33179498D01*
X83980000Y-32284364D01*
X83979999Y-32284364D01*
X83766507Y-32341569D01*
X83552421Y-32441400D01*
X83358921Y-32576890D01*
X83191890Y-32743921D01*
X83056400Y-32937421D01*
X82956569Y-33151507D01*
X82899364Y-33364999D01*
X82899364Y-33365000D01*
X83796314Y-33365000D01*
X83770507Y-33405156D01*
X83730000Y-33543111D01*
X83730000Y-33686889D01*
X83770507Y-33824844D01*
X83796314Y-33865000D01*
X82899364Y-33865000D01*
X82956569Y-34078492D01*
X83056399Y-34292576D01*
X83191893Y-34486081D01*
X83358918Y-34653106D01*
X83545031Y-34783425D01*
X83588656Y-34838002D01*
X83595848Y-34907501D01*
X83564326Y-34969855D01*
X83545031Y-34986575D01*
X83358918Y-35116893D01*
X83191890Y-35283921D01*
X83056400Y-35477421D01*
X82956569Y-35691507D01*
X82899364Y-35904999D01*
X82899364Y-35905000D01*
X83796314Y-35905000D01*
X83770507Y-35945156D01*
X83730000Y-36083111D01*
X83730000Y-36226889D01*
X83770507Y-36364844D01*
X83796314Y-36405000D01*
X82899364Y-36405000D01*
X82956569Y-36618492D01*
X83056399Y-36832576D01*
X83191893Y-37026081D01*
X83358918Y-37193106D01*
X83545031Y-37323425D01*
X83588656Y-37378002D01*
X83595848Y-37447501D01*
X83564326Y-37509855D01*
X83545031Y-37526575D01*
X83358918Y-37656893D01*
X83191890Y-37823921D01*
X83056400Y-38017421D01*
X82956569Y-38231507D01*
X82899364Y-38444999D01*
X82899364Y-38445000D01*
X83796314Y-38445000D01*
X83770507Y-38485156D01*
X83730000Y-38623111D01*
X83730000Y-38766889D01*
X83770507Y-38904844D01*
X83796314Y-38945000D01*
X82899364Y-38945000D01*
X82956569Y-39158492D01*
X83056399Y-39372576D01*
X83191893Y-39566081D01*
X83358918Y-39733106D01*
X83545031Y-39863425D01*
X83588656Y-39918002D01*
X83595848Y-39987501D01*
X83564326Y-40049855D01*
X83545031Y-40066575D01*
X83358918Y-40196893D01*
X83191890Y-40363921D01*
X83056400Y-40557421D01*
X82956569Y-40771507D01*
X82899364Y-40984999D01*
X82899364Y-40985000D01*
X83796314Y-40985000D01*
X83770507Y-41025156D01*
X83730000Y-41163111D01*
X83730000Y-41306889D01*
X83770507Y-41444844D01*
X83796314Y-41485000D01*
X82899364Y-41485000D01*
X82956569Y-41698492D01*
X83056399Y-41912576D01*
X83191893Y-42106081D01*
X83358918Y-42273106D01*
X83545031Y-42403425D01*
X83588656Y-42458002D01*
X83595848Y-42527501D01*
X83564326Y-42589855D01*
X83545031Y-42606575D01*
X83358918Y-42736893D01*
X83191890Y-42903921D01*
X83056400Y-43097421D01*
X82956569Y-43311507D01*
X82899364Y-43524999D01*
X82899364Y-43525000D01*
X83796314Y-43525000D01*
X83770507Y-43565156D01*
X83730000Y-43703111D01*
X83730000Y-43846889D01*
X83770507Y-43984844D01*
X83796314Y-44025000D01*
X82899364Y-44025000D01*
X82956569Y-44238492D01*
X83056399Y-44452576D01*
X83191893Y-44646081D01*
X83358918Y-44813106D01*
X83545031Y-44943425D01*
X83588656Y-44998002D01*
X83595848Y-45067501D01*
X83564326Y-45129855D01*
X83545031Y-45146575D01*
X83358918Y-45276893D01*
X83191890Y-45443921D01*
X83056400Y-45637421D01*
X82956569Y-45851507D01*
X82899364Y-46064999D01*
X82899364Y-46065000D01*
X83796314Y-46065000D01*
X83770507Y-46105156D01*
X83730000Y-46243111D01*
X83730000Y-46386889D01*
X83770507Y-46524844D01*
X83796314Y-46565000D01*
X82899364Y-46565000D01*
X82956569Y-46778492D01*
X83056399Y-46992576D01*
X83191893Y-47186081D01*
X83358918Y-47353106D01*
X83545031Y-47483425D01*
X83588656Y-47538002D01*
X83595848Y-47607501D01*
X83564326Y-47669855D01*
X83545031Y-47686575D01*
X83358918Y-47816893D01*
X83191890Y-47983921D01*
X83056400Y-48177421D01*
X82956569Y-48391507D01*
X82899364Y-48604999D01*
X82899364Y-48605000D01*
X83796314Y-48605000D01*
X83770507Y-48645156D01*
X83730000Y-48783111D01*
X83730000Y-48926889D01*
X83770507Y-49064844D01*
X83796314Y-49105000D01*
X82899364Y-49105000D01*
X82956569Y-49318492D01*
X83056399Y-49532576D01*
X83191893Y-49726081D01*
X83358918Y-49893106D01*
X83545031Y-50023425D01*
X83588656Y-50078002D01*
X83595848Y-50147501D01*
X83564326Y-50209855D01*
X83545031Y-50226575D01*
X83358918Y-50356893D01*
X83191890Y-50523921D01*
X83056400Y-50717421D01*
X82956569Y-50931507D01*
X82899364Y-51144999D01*
X82899364Y-51145000D01*
X83796314Y-51145000D01*
X83770507Y-51185156D01*
X83730000Y-51323111D01*
X83730000Y-51466889D01*
X83770507Y-51604844D01*
X83796314Y-51645000D01*
X82899364Y-51645000D01*
X82956569Y-51858492D01*
X83056399Y-52072576D01*
X83191893Y-52266081D01*
X83358918Y-52433106D01*
X83545031Y-52563425D01*
X83588656Y-52618002D01*
X83595848Y-52687501D01*
X83564326Y-52749855D01*
X83545031Y-52766575D01*
X83358918Y-52896893D01*
X83191890Y-53063921D01*
X83056400Y-53257421D01*
X82956569Y-53471507D01*
X82899364Y-53684999D01*
X82899364Y-53685000D01*
X83796314Y-53685000D01*
X83770507Y-53725156D01*
X83730000Y-53863111D01*
X83730000Y-54006889D01*
X83770507Y-54144844D01*
X83796314Y-54185000D01*
X82899364Y-54185000D01*
X82956569Y-54398492D01*
X83056399Y-54612576D01*
X83191893Y-54806081D01*
X83358918Y-54973106D01*
X83545031Y-55103425D01*
X83588656Y-55158002D01*
X83595848Y-55227501D01*
X83564326Y-55289855D01*
X83545031Y-55306575D01*
X83358918Y-55436893D01*
X83191890Y-55603921D01*
X83056400Y-55797421D01*
X82956569Y-56011507D01*
X82899364Y-56224999D01*
X82899364Y-56225000D01*
X83796314Y-56225000D01*
X83770507Y-56265156D01*
X83730000Y-56403111D01*
X83730000Y-56546889D01*
X83770507Y-56684844D01*
X83796314Y-56725000D01*
X82899364Y-56725000D01*
X82956569Y-56938492D01*
X83056399Y-57152576D01*
X83191893Y-57346081D01*
X83358918Y-57513106D01*
X83544595Y-57643119D01*
X83588219Y-57697696D01*
X83595412Y-57767195D01*
X83563890Y-57829549D01*
X83544595Y-57846269D01*
X83358595Y-57976508D01*
X83191505Y-58143598D01*
X83055965Y-58337170D01*
X82956097Y-58551336D01*
X82894936Y-58779592D01*
X82874340Y-59014999D01*
X82894936Y-59250407D01*
X82925869Y-59365849D01*
X82956097Y-59478663D01*
X83055965Y-59692830D01*
X83191505Y-59886401D01*
X83358599Y-60053495D01*
X83544160Y-60183426D01*
X83587783Y-60238002D01*
X83594976Y-60307501D01*
X83563454Y-60369855D01*
X83544158Y-60386575D01*
X83413225Y-60478256D01*
X83358595Y-60516508D01*
X83191505Y-60683598D01*
X83055965Y-60877170D01*
X82956097Y-61091336D01*
X82894936Y-61319592D01*
X82874340Y-61555000D01*
X82894936Y-61790407D01*
X82925869Y-61905849D01*
X82956097Y-62018663D01*
X83055965Y-62232830D01*
X83191505Y-62426401D01*
X83358599Y-62593495D01*
X83544160Y-62723426D01*
X83587783Y-62778002D01*
X83594976Y-62847501D01*
X83563454Y-62909855D01*
X83544159Y-62926575D01*
X83358595Y-63056508D01*
X83191505Y-63223598D01*
X83055965Y-63417170D01*
X82956097Y-63631336D01*
X82894936Y-63859592D01*
X82874340Y-64095000D01*
X82894936Y-64330407D01*
X82924106Y-64439269D01*
X82956097Y-64558663D01*
X83055965Y-64772830D01*
X83191505Y-64966401D01*
X83358599Y-65133495D01*
X83544160Y-65263426D01*
X83587783Y-65318002D01*
X83594976Y-65387501D01*
X83563454Y-65449855D01*
X83544159Y-65466575D01*
X83358595Y-65596508D01*
X83191505Y-65763598D01*
X83055965Y-65957170D01*
X82956097Y-66171336D01*
X82894936Y-66399592D01*
X82874340Y-66635000D01*
X82894936Y-66870407D01*
X82929527Y-66999500D01*
X82956097Y-67098663D01*
X83055965Y-67312830D01*
X83191505Y-67506401D01*
X83358599Y-67673495D01*
X83544160Y-67803426D01*
X83587783Y-67858002D01*
X83594976Y-67927501D01*
X83563454Y-67989855D01*
X83544159Y-68006575D01*
X83358595Y-68136508D01*
X83191505Y-68303598D01*
X83055965Y-68497170D01*
X82956097Y-68711336D01*
X82894936Y-68939592D01*
X82874340Y-69174999D01*
X80564347Y-69174999D01*
X80545063Y-68954592D01*
X80483903Y-68726337D01*
X80384035Y-68512171D01*
X80248495Y-68318599D01*
X80081401Y-68151505D01*
X79895839Y-68021573D01*
X79852216Y-67966998D01*
X79845022Y-67897500D01*
X79876545Y-67835145D01*
X79895837Y-67818428D01*
X80081401Y-67688495D01*
X80248495Y-67521401D01*
X80384035Y-67327830D01*
X80483903Y-67113663D01*
X80545063Y-66885408D01*
X80565659Y-66650000D01*
X80545063Y-66414592D01*
X80483903Y-66186337D01*
X80384035Y-65972171D01*
X80248495Y-65778599D01*
X80081401Y-65611505D01*
X79895839Y-65481573D01*
X79852217Y-65426998D01*
X79845024Y-65357499D01*
X79876546Y-65295145D01*
X79895837Y-65278428D01*
X80081401Y-65148495D01*
X80248495Y-64981401D01*
X80384035Y-64787830D01*
X80483903Y-64573663D01*
X80545063Y-64345408D01*
X80565659Y-64110000D01*
X80545063Y-63874592D01*
X80483903Y-63646337D01*
X80384035Y-63432171D01*
X80248495Y-63238599D01*
X80081401Y-63071505D01*
X79895839Y-62941573D01*
X79852216Y-62886998D01*
X79845022Y-62817500D01*
X79876545Y-62755145D01*
X79895837Y-62738428D01*
X80081401Y-62608495D01*
X80248495Y-62441401D01*
X80384035Y-62247830D01*
X80483903Y-62033663D01*
X80545063Y-61805408D01*
X80565659Y-61570000D01*
X80561284Y-61520000D01*
X80545063Y-61334592D01*
X80531117Y-61282546D01*
X80483903Y-61106337D01*
X80384035Y-60892171D01*
X80248495Y-60698599D01*
X80126569Y-60576673D01*
X80093084Y-60515350D01*
X80098068Y-60445658D01*
X80139940Y-60389725D01*
X80170915Y-60372810D01*
X80302331Y-60323796D01*
X80417546Y-60237546D01*
X80503796Y-60122331D01*
X80554091Y-59987483D01*
X80560500Y-59927873D01*
X80560499Y-58132128D01*
X80554091Y-58072517D01*
X80503796Y-57937669D01*
X80417546Y-57822454D01*
X80302331Y-57736204D01*
X80226133Y-57707784D01*
X80152890Y-57680466D01*
X80153701Y-57678289D01*
X80109163Y-57659842D01*
X80069314Y-57602450D01*
X80066819Y-57532625D01*
X80099284Y-57475611D01*
X80233495Y-57341401D01*
X80369035Y-57147830D01*
X80468903Y-56933663D01*
X80530063Y-56705408D01*
X80550659Y-56470000D01*
X80530063Y-56234592D01*
X80468903Y-56006337D01*
X80369035Y-55792171D01*
X80233495Y-55598599D01*
X80066401Y-55431505D01*
X79880839Y-55301573D01*
X79837216Y-55246998D01*
X79830022Y-55177500D01*
X79861545Y-55115145D01*
X79880837Y-55098428D01*
X80066401Y-54968495D01*
X80233495Y-54801401D01*
X80369035Y-54607830D01*
X80468903Y-54393663D01*
X80530063Y-54165408D01*
X80550659Y-53930000D01*
X80530063Y-53694592D01*
X80468903Y-53466337D01*
X80369035Y-53252171D01*
X80233495Y-53058599D01*
X80066401Y-52891505D01*
X79880839Y-52761573D01*
X79837217Y-52706998D01*
X79830024Y-52637499D01*
X79861546Y-52575145D01*
X79880837Y-52558428D01*
X80066401Y-52428495D01*
X80233495Y-52261401D01*
X80369035Y-52067830D01*
X80468903Y-51853663D01*
X80530063Y-51625408D01*
X80550659Y-51390000D01*
X80530063Y-51154592D01*
X80468903Y-50926337D01*
X80369035Y-50712171D01*
X80233495Y-50518599D01*
X80066401Y-50351505D01*
X79880839Y-50221573D01*
X79837216Y-50166998D01*
X79830022Y-50097500D01*
X79861545Y-50035145D01*
X79880837Y-50018428D01*
X80066401Y-49888495D01*
X80233495Y-49721401D01*
X80369035Y-49527830D01*
X80468903Y-49313663D01*
X80530063Y-49085408D01*
X80550659Y-48850000D01*
X80530063Y-48614592D01*
X80468903Y-48386337D01*
X80369035Y-48172171D01*
X80233495Y-47978599D01*
X80066401Y-47811505D01*
X79880839Y-47681573D01*
X79837216Y-47626998D01*
X79830022Y-47557500D01*
X79861545Y-47495145D01*
X79880837Y-47478428D01*
X80066401Y-47348495D01*
X80233495Y-47181401D01*
X80369035Y-46987830D01*
X80468903Y-46773663D01*
X80530063Y-46545408D01*
X80550659Y-46310000D01*
X80530063Y-46074592D01*
X80468903Y-45846337D01*
X80369035Y-45632171D01*
X80233495Y-45438599D01*
X80066401Y-45271505D01*
X79876910Y-45138821D01*
X79833287Y-45084246D01*
X79826094Y-45014747D01*
X79857616Y-44952393D01*
X79876908Y-44935676D01*
X80051401Y-44813495D01*
X80218495Y-44646401D01*
X80354035Y-44452830D01*
X80453903Y-44238663D01*
X80515063Y-44010408D01*
X80535659Y-43775000D01*
X80515063Y-43539592D01*
X80453903Y-43311337D01*
X80354035Y-43097171D01*
X80218495Y-42903599D01*
X80051401Y-42736505D01*
X79865839Y-42606573D01*
X79822216Y-42551998D01*
X79815022Y-42482500D01*
X79846545Y-42420145D01*
X79865837Y-42403428D01*
X80051401Y-42273495D01*
X80218495Y-42106401D01*
X80354035Y-41912830D01*
X80453903Y-41698663D01*
X80515063Y-41470408D01*
X80535659Y-41235000D01*
X80515063Y-40999592D01*
X80453903Y-40771337D01*
X80354035Y-40557171D01*
X80218495Y-40363599D01*
X80051401Y-40196505D01*
X79865839Y-40066573D01*
X79822216Y-40011998D01*
X79815022Y-39942500D01*
X79846545Y-39880145D01*
X79865837Y-39863428D01*
X80051401Y-39733495D01*
X80218495Y-39566401D01*
X80354035Y-39372830D01*
X80453903Y-39158663D01*
X80515063Y-38930408D01*
X80535659Y-38695000D01*
X80515063Y-38459592D01*
X80453903Y-38231337D01*
X80354035Y-38017171D01*
X80218495Y-37823599D01*
X80051401Y-37656505D01*
X79865839Y-37526573D01*
X79822216Y-37471998D01*
X79815022Y-37402500D01*
X79846545Y-37340145D01*
X79865837Y-37323428D01*
X80051401Y-37193495D01*
X80218495Y-37026401D01*
X80354035Y-36832830D01*
X80453903Y-36618663D01*
X80515063Y-36390408D01*
X80535659Y-36155000D01*
X80515063Y-35919592D01*
X80453903Y-35691337D01*
X80354035Y-35477171D01*
X80218495Y-35283599D01*
X80051401Y-35116505D01*
X79865839Y-34986573D01*
X79822216Y-34931998D01*
X79815022Y-34862500D01*
X79846545Y-34800145D01*
X79865837Y-34783428D01*
X80051401Y-34653495D01*
X80218495Y-34486401D01*
X80354035Y-34292830D01*
X80453903Y-34078663D01*
X80515063Y-33850408D01*
X80535659Y-33615000D01*
X80515063Y-33379592D01*
X80453903Y-33151337D01*
X80354035Y-32937171D01*
X80218495Y-32743599D01*
X80051401Y-32576505D01*
X79857830Y-32440965D01*
X79643663Y-32341097D01*
X79582501Y-32324709D01*
X79415407Y-32279936D01*
X79180000Y-32259340D01*
X78944592Y-32279936D01*
X78716336Y-32341097D01*
X78502170Y-32440965D01*
X78308598Y-32576505D01*
X78141505Y-32743598D01*
X78011575Y-32929159D01*
X77956998Y-32972784D01*
X77887500Y-32979978D01*
X77825145Y-32948455D01*
X77808425Y-32929159D01*
X77793449Y-32907771D01*
X77678495Y-32743599D01*
X77511401Y-32576505D01*
X77317830Y-32440965D01*
X77103663Y-32341097D01*
X77042502Y-32324709D01*
X76875407Y-32279936D01*
X76640000Y-32259340D01*
X76404592Y-32279936D01*
X76176336Y-32341097D01*
X75962170Y-32440965D01*
X75768598Y-32576505D01*
X75601505Y-32743598D01*
X75471575Y-32929159D01*
X75416998Y-32972784D01*
X75347500Y-32979978D01*
X75285145Y-32948455D01*
X75268425Y-32929159D01*
X75253449Y-32907771D01*
X75138495Y-32743599D01*
X74971401Y-32576505D01*
X74777830Y-32440965D01*
X74563663Y-32341097D01*
X74502502Y-32324709D01*
X74335407Y-32279936D01*
X74100000Y-32259340D01*
X73864592Y-32279936D01*
X73636336Y-32341097D01*
X73422170Y-32440965D01*
X73228598Y-32576505D01*
X73061505Y-32743598D01*
X72931575Y-32929159D01*
X72876998Y-32972784D01*
X72807500Y-32979978D01*
X72745145Y-32948455D01*
X72728425Y-32929159D01*
X72713449Y-32907771D01*
X72598495Y-32743599D01*
X72431401Y-32576505D01*
X72237830Y-32440965D01*
X72023663Y-32341097D01*
X71962502Y-32324709D01*
X71795407Y-32279936D01*
X71560000Y-32259340D01*
X71324592Y-32279936D01*
X71096336Y-32341097D01*
X70882170Y-32440965D01*
X70688598Y-32576505D01*
X70521505Y-32743598D01*
X70391575Y-32929159D01*
X70336998Y-32972784D01*
X70267500Y-32979978D01*
X70205145Y-32948455D01*
X70188425Y-32929159D01*
X70173449Y-32907771D01*
X70058495Y-32743599D01*
X69891401Y-32576505D01*
X69697830Y-32440965D01*
X69483663Y-32341097D01*
X69422502Y-32324709D01*
X69255407Y-32279936D01*
X69019999Y-32259340D01*
X68784592Y-32279936D01*
X68556336Y-32341097D01*
X68342170Y-32440965D01*
X68148598Y-32576505D01*
X67981505Y-32743598D01*
X67845965Y-32937170D01*
X67746097Y-33151336D01*
X67684936Y-33379592D01*
X67664340Y-33614999D01*
X67684936Y-33850407D01*
X67691641Y-33875429D01*
X67746097Y-34078663D01*
X67845965Y-34292830D01*
X67981505Y-34486401D01*
X68148599Y-34653495D01*
X68334160Y-34783426D01*
X68377783Y-34838002D01*
X68384976Y-34907501D01*
X68353454Y-34969855D01*
X68334159Y-34986575D01*
X68148595Y-35116508D01*
X67981505Y-35283598D01*
X67845965Y-35477170D01*
X67746097Y-35691336D01*
X67684936Y-35919592D01*
X67664340Y-36155000D01*
X67684936Y-36390407D01*
X67710496Y-36485798D01*
X67746097Y-36618663D01*
X67845965Y-36832830D01*
X67981505Y-37026401D01*
X68148599Y-37193495D01*
X68334160Y-37323426D01*
X68377783Y-37378002D01*
X68384976Y-37447501D01*
X68353454Y-37509855D01*
X68334159Y-37526575D01*
X68148595Y-37656508D01*
X67981505Y-37823598D01*
X67845965Y-38017170D01*
X67746097Y-38231336D01*
X67684936Y-38459592D01*
X67664340Y-38694999D01*
X67684936Y-38930407D01*
X67710496Y-39025798D01*
X67746097Y-39158663D01*
X67845965Y-39372830D01*
X67981505Y-39566401D01*
X68148599Y-39733495D01*
X68334160Y-39863426D01*
X68377783Y-39918002D01*
X68384976Y-39987501D01*
X68353454Y-40049855D01*
X68334159Y-40066575D01*
X68148595Y-40196508D01*
X67981505Y-40363598D01*
X67845965Y-40557170D01*
X67746097Y-40771336D01*
X67684936Y-40999592D01*
X67664340Y-41235000D01*
X67684936Y-41470407D01*
X67710496Y-41565798D01*
X67746097Y-41698663D01*
X67845965Y-41912830D01*
X67981505Y-42106401D01*
X68148599Y-42273495D01*
X68334160Y-42403426D01*
X68377783Y-42458002D01*
X68384976Y-42527501D01*
X68353454Y-42589855D01*
X68334159Y-42606575D01*
X68148595Y-42736508D01*
X67981505Y-42903598D01*
X67845965Y-43097170D01*
X67746097Y-43311336D01*
X67684936Y-43539592D01*
X67664340Y-43774999D01*
X62775659Y-43774999D01*
X62755063Y-43539592D01*
X62693903Y-43311337D01*
X62594035Y-43097171D01*
X62458495Y-42903599D01*
X62291401Y-42736505D01*
X62105839Y-42606573D01*
X62062215Y-42551997D01*
X62055023Y-42482498D01*
X62086545Y-42420144D01*
X62105831Y-42403432D01*
X62291401Y-42273495D01*
X62458495Y-42106401D01*
X62594035Y-41912830D01*
X62693903Y-41698663D01*
X62755063Y-41470408D01*
X62775659Y-41235000D01*
X62755063Y-40999592D01*
X62693903Y-40771337D01*
X62594035Y-40557171D01*
X62458495Y-40363599D01*
X62291401Y-40196505D01*
X62105839Y-40066573D01*
X62062215Y-40011997D01*
X62055023Y-39942498D01*
X62086545Y-39880144D01*
X62105831Y-39863432D01*
X62291401Y-39733495D01*
X62458495Y-39566401D01*
X62594035Y-39372830D01*
X62693903Y-39158663D01*
X62755063Y-38930408D01*
X62775659Y-38695000D01*
X62755063Y-38459592D01*
X62693903Y-38231337D01*
X62594035Y-38017171D01*
X62458495Y-37823599D01*
X62291401Y-37656505D01*
X62105839Y-37526573D01*
X62062215Y-37471997D01*
X62055023Y-37402498D01*
X62086545Y-37340144D01*
X62105831Y-37323432D01*
X62291401Y-37193495D01*
X62458495Y-37026401D01*
X62594035Y-36832830D01*
X62693903Y-36618663D01*
X62755063Y-36390408D01*
X62775659Y-36155000D01*
X62755063Y-35919592D01*
X62693903Y-35691337D01*
X62594035Y-35477171D01*
X62458495Y-35283599D01*
X62291401Y-35116505D01*
X62105839Y-34986573D01*
X62062216Y-34931998D01*
X62055022Y-34862500D01*
X62086545Y-34800145D01*
X62105837Y-34783428D01*
X62291401Y-34653495D01*
X62458495Y-34486401D01*
X62594035Y-34292830D01*
X62693903Y-34078663D01*
X62755063Y-33850408D01*
X62775659Y-33615000D01*
X62773472Y-33590000D01*
X63234389Y-33590000D01*
X63254804Y-33875429D01*
X63315629Y-34155041D01*
X63415634Y-34423163D01*
X63552772Y-34674313D01*
X63577489Y-34707331D01*
X63724261Y-34903395D01*
X63926605Y-35105739D01*
X64098415Y-35234354D01*
X64155686Y-35277227D01*
X64295435Y-35353535D01*
X64406839Y-35414367D01*
X64674954Y-35514369D01*
X64674957Y-35514369D01*
X64674958Y-35514370D01*
X64700738Y-35519978D01*
X64954572Y-35575196D01*
X65240000Y-35595610D01*
X65525428Y-35575196D01*
X65805046Y-35514369D01*
X66073161Y-35414367D01*
X66324315Y-35277226D01*
X66553395Y-35105739D01*
X66755739Y-34903395D01*
X66927226Y-34674315D01*
X67064367Y-34423161D01*
X67164369Y-34155046D01*
X67225196Y-33875428D01*
X67245610Y-33590000D01*
X67225196Y-33304572D01*
X67164369Y-33024954D01*
X67064367Y-32756839D01*
X66966107Y-32576890D01*
X66927227Y-32505686D01*
X66878777Y-32440965D01*
X66755739Y-32276605D01*
X66553395Y-32074261D01*
X66358410Y-31928297D01*
X66324313Y-31902772D01*
X66073163Y-31765634D01*
X66073162Y-31765633D01*
X66073161Y-31765633D01*
X65898123Y-31700347D01*
X65805041Y-31665629D01*
X65525429Y-31604804D01*
X65240000Y-31584389D01*
X64954570Y-31604804D01*
X64674958Y-31665629D01*
X64406836Y-31765634D01*
X64155686Y-31902772D01*
X63926602Y-32074263D01*
X63724263Y-32276602D01*
X63552772Y-32505686D01*
X63415634Y-32756836D01*
X63315629Y-33024958D01*
X63254804Y-33304570D01*
X63234389Y-33590000D01*
X62773472Y-33590000D01*
X62755063Y-33379592D01*
X62693903Y-33151337D01*
X62594035Y-32937171D01*
X62458495Y-32743599D01*
X62291401Y-32576505D01*
X62097830Y-32440965D01*
X61883663Y-32341097D01*
X61822502Y-32324709D01*
X61655407Y-32279936D01*
X61420000Y-32259340D01*
X61184592Y-32279936D01*
X60956336Y-32341097D01*
X60742170Y-32440965D01*
X60548598Y-32576505D01*
X60381508Y-32743595D01*
X60381505Y-32743598D01*
X60381505Y-32743599D01*
X60251575Y-32929159D01*
X60246575Y-32936300D01*
X60191998Y-32979924D01*
X60122499Y-32987117D01*
X60060145Y-32955595D01*
X60043425Y-32936300D01*
X60038425Y-32929159D01*
X59908495Y-32743599D01*
X59741401Y-32576505D01*
X59547830Y-32440965D01*
X59333663Y-32341097D01*
X59272502Y-32324709D01*
X59105407Y-32279936D01*
X58869999Y-32259340D01*
X58634592Y-32279936D01*
X58406336Y-32341097D01*
X58192170Y-32440965D01*
X57998598Y-32576505D01*
X57831505Y-32743598D01*
X57701575Y-32929159D01*
X57646998Y-32972784D01*
X57577500Y-32979978D01*
X57515145Y-32948455D01*
X57498425Y-32929159D01*
X57483449Y-32907771D01*
X57368495Y-32743599D01*
X57201401Y-32576505D01*
X57007830Y-32440965D01*
X56793663Y-32341097D01*
X56732502Y-32324709D01*
X56565407Y-32279936D01*
X56330000Y-32259340D01*
X56094592Y-32279936D01*
X55866336Y-32341097D01*
X55652170Y-32440965D01*
X55458598Y-32576505D01*
X55291505Y-32743598D01*
X55161575Y-32929159D01*
X55106998Y-32972784D01*
X55037500Y-32979978D01*
X54975145Y-32948455D01*
X54958425Y-32929159D01*
X54943449Y-32907771D01*
X54828495Y-32743599D01*
X54661401Y-32576505D01*
X54467830Y-32440965D01*
X54253663Y-32341097D01*
X54192502Y-32324709D01*
X54025407Y-32279936D01*
X53790000Y-32259340D01*
X53554592Y-32279936D01*
X53326336Y-32341097D01*
X53112170Y-32440965D01*
X52918598Y-32576505D01*
X52751505Y-32743598D01*
X52621575Y-32929159D01*
X52566998Y-32972784D01*
X52497500Y-32979978D01*
X52435145Y-32948455D01*
X52418425Y-32929159D01*
X52403449Y-32907771D01*
X52288495Y-32743599D01*
X52121401Y-32576505D01*
X51927830Y-32440965D01*
X51713663Y-32341097D01*
X51652502Y-32324709D01*
X51485407Y-32279936D01*
X51249999Y-32259340D01*
X51014592Y-32279936D01*
X50786336Y-32341097D01*
X50572170Y-32440965D01*
X50378598Y-32576505D01*
X50211505Y-32743598D01*
X50075965Y-32937170D01*
X49976097Y-33151336D01*
X49914936Y-33379592D01*
X49894340Y-33615000D01*
X47570499Y-33615000D01*
X47570499Y-32717128D01*
X47564091Y-32657517D01*
X47513796Y-32522669D01*
X47427546Y-32407454D01*
X47312331Y-32321204D01*
X47177483Y-32270909D01*
X47117873Y-32264500D01*
X47114550Y-32264500D01*
X45325439Y-32264500D01*
X45325420Y-32264500D01*
X45322128Y-32264501D01*
X45318848Y-32264853D01*
X45318840Y-32264854D01*
X45262515Y-32270909D01*
X45127669Y-32321204D01*
X45012454Y-32407454D01*
X44926204Y-32522669D01*
X44876997Y-32654599D01*
X44835125Y-32710532D01*
X44769661Y-32734949D01*
X44701388Y-32720097D01*
X44673134Y-32698946D01*
X44551081Y-32576893D01*
X44357576Y-32441399D01*
X44143492Y-32341569D01*
X43930000Y-32284364D01*
X43930000Y-33179498D01*
X43822315Y-33130320D01*
X43715763Y-33115000D01*
X43644237Y-33115000D01*
X43537685Y-33130320D01*
X43430000Y-33179498D01*
X43430000Y-32284364D01*
X43429999Y-32284364D01*
X43216507Y-32341569D01*
X43002421Y-32441400D01*
X42808921Y-32576890D01*
X42641890Y-32743921D01*
X42506400Y-32937421D01*
X42406569Y-33151507D01*
X42349364Y-33364999D01*
X42349364Y-33365000D01*
X43246314Y-33365000D01*
X43220507Y-33405156D01*
X43180000Y-33543111D01*
X43180000Y-33686889D01*
X43220507Y-33824844D01*
X43246314Y-33865000D01*
X42349364Y-33865000D01*
X42406569Y-34078492D01*
X42506399Y-34292576D01*
X42641893Y-34486081D01*
X42808918Y-34653106D01*
X42995031Y-34783425D01*
X43038656Y-34838002D01*
X43045848Y-34907501D01*
X43014326Y-34969855D01*
X42995031Y-34986575D01*
X42808918Y-35116893D01*
X42641890Y-35283921D01*
X42506400Y-35477421D01*
X42406569Y-35691507D01*
X42349364Y-35904999D01*
X42349364Y-35905000D01*
X43246314Y-35905000D01*
X43220507Y-35945156D01*
X43180000Y-36083111D01*
X43180000Y-36226889D01*
X43220507Y-36364844D01*
X43246314Y-36405000D01*
X42349364Y-36405000D01*
X42406569Y-36618492D01*
X42506399Y-36832576D01*
X42641893Y-37026081D01*
X42808918Y-37193106D01*
X42995031Y-37323425D01*
X43038656Y-37378002D01*
X43045848Y-37447501D01*
X43014326Y-37509855D01*
X42995031Y-37526575D01*
X42808918Y-37656893D01*
X42641890Y-37823921D01*
X42506400Y-38017421D01*
X42406569Y-38231507D01*
X42349364Y-38444999D01*
X42349364Y-38445000D01*
X43246314Y-38445000D01*
X43220507Y-38485156D01*
X43180000Y-38623111D01*
X43180000Y-38766889D01*
X43220507Y-38904844D01*
X43246314Y-38945000D01*
X42349364Y-38945000D01*
X42406569Y-39158492D01*
X42506399Y-39372576D01*
X42641893Y-39566081D01*
X42808918Y-39733106D01*
X42995031Y-39863425D01*
X43038656Y-39918002D01*
X43045848Y-39987501D01*
X43014326Y-40049855D01*
X42995031Y-40066575D01*
X42808918Y-40196893D01*
X42641890Y-40363921D01*
X42506400Y-40557421D01*
X42406569Y-40771507D01*
X42349364Y-40984999D01*
X42349364Y-40985000D01*
X43246314Y-40985000D01*
X43220507Y-41025156D01*
X43180000Y-41163111D01*
X43180000Y-41306889D01*
X43220507Y-41444844D01*
X43246314Y-41485000D01*
X42349364Y-41485000D01*
X42406569Y-41698492D01*
X42506399Y-41912576D01*
X42641893Y-42106081D01*
X42808918Y-42273106D01*
X42995031Y-42403425D01*
X43038656Y-42458002D01*
X43045848Y-42527501D01*
X43014326Y-42589855D01*
X42995031Y-42606575D01*
X42808918Y-42736893D01*
X42641890Y-42903921D01*
X42506400Y-43097421D01*
X42406569Y-43311507D01*
X42349364Y-43524999D01*
X42349364Y-43525000D01*
X43246314Y-43525000D01*
X43220507Y-43565156D01*
X43180000Y-43703111D01*
X43180000Y-43846889D01*
X43220507Y-43984844D01*
X43246314Y-44025000D01*
X42349364Y-44025000D01*
X42406569Y-44238492D01*
X42506399Y-44452576D01*
X42641893Y-44646081D01*
X42808918Y-44813106D01*
X42995031Y-44943425D01*
X43038656Y-44998002D01*
X43045848Y-45067501D01*
X43014326Y-45129855D01*
X42995031Y-45146575D01*
X42808918Y-45276893D01*
X42641890Y-45443921D01*
X42506400Y-45637421D01*
X42406569Y-45851507D01*
X42349364Y-46064999D01*
X42349364Y-46065000D01*
X43246314Y-46065000D01*
X43220507Y-46105156D01*
X43180000Y-46243111D01*
X43180000Y-46386889D01*
X43220507Y-46524844D01*
X43246314Y-46565000D01*
X42349364Y-46565000D01*
X42406569Y-46778492D01*
X42506399Y-46992576D01*
X42641893Y-47186081D01*
X42808918Y-47353106D01*
X42995031Y-47483425D01*
X43038656Y-47538002D01*
X43045848Y-47607501D01*
X43014326Y-47669855D01*
X42995031Y-47686575D01*
X42808918Y-47816893D01*
X42641890Y-47983921D01*
X42506400Y-48177421D01*
X42406569Y-48391507D01*
X42349364Y-48604999D01*
X42349364Y-48605000D01*
X43246314Y-48605000D01*
X43220507Y-48645156D01*
X43180000Y-48783111D01*
X43180000Y-48926889D01*
X43220507Y-49064844D01*
X43246314Y-49105000D01*
X42349364Y-49105000D01*
X42406569Y-49318492D01*
X42506399Y-49532576D01*
X42641893Y-49726081D01*
X42808918Y-49893106D01*
X42995031Y-50023425D01*
X43038656Y-50078002D01*
X43045848Y-50147501D01*
X43014326Y-50209855D01*
X42995031Y-50226575D01*
X42808918Y-50356893D01*
X42641890Y-50523921D01*
X42506400Y-50717421D01*
X42406569Y-50931507D01*
X42349364Y-51144999D01*
X42349364Y-51145000D01*
X43246314Y-51145000D01*
X43220507Y-51185156D01*
X43180000Y-51323111D01*
X43180000Y-51466889D01*
X43220507Y-51604844D01*
X43246314Y-51645000D01*
X42349364Y-51645000D01*
X42406569Y-51858492D01*
X42506399Y-52072576D01*
X42641893Y-52266081D01*
X42808918Y-52433106D01*
X42995031Y-52563425D01*
X43038656Y-52618002D01*
X43045848Y-52687501D01*
X43014326Y-52749855D01*
X42995031Y-52766575D01*
X42808918Y-52896893D01*
X42641890Y-53063921D01*
X42506400Y-53257421D01*
X42406569Y-53471507D01*
X42349364Y-53684999D01*
X42349364Y-53685000D01*
X43246314Y-53685000D01*
X43220507Y-53725156D01*
X43180000Y-53863111D01*
X43180000Y-54006889D01*
X43220507Y-54144844D01*
X43246314Y-54185000D01*
X42349364Y-54185000D01*
X42406569Y-54398492D01*
X42506399Y-54612576D01*
X42641893Y-54806081D01*
X42808918Y-54973106D01*
X42995031Y-55103425D01*
X43038656Y-55158002D01*
X43045848Y-55227501D01*
X43014326Y-55289855D01*
X42995031Y-55306575D01*
X42808918Y-55436893D01*
X42641890Y-55603921D01*
X42506400Y-55797421D01*
X42406569Y-56011507D01*
X42349364Y-56224999D01*
X42349364Y-56225000D01*
X43246314Y-56225000D01*
X43220507Y-56265156D01*
X43180000Y-56403111D01*
X43180000Y-56546889D01*
X43220507Y-56684844D01*
X43246314Y-56725000D01*
X42349364Y-56725000D01*
X42406569Y-56938492D01*
X42506399Y-57152576D01*
X42641893Y-57346081D01*
X42808918Y-57513106D01*
X42994595Y-57643119D01*
X43038219Y-57697696D01*
X43045412Y-57767195D01*
X43013890Y-57829549D01*
X42994595Y-57846269D01*
X42808595Y-57976508D01*
X42641505Y-58143598D01*
X42505965Y-58337170D01*
X42406097Y-58551336D01*
X42344936Y-58779592D01*
X42324340Y-59014999D01*
X42344936Y-59250407D01*
X42375869Y-59365849D01*
X42406097Y-59478663D01*
X42505965Y-59692830D01*
X42641505Y-59886401D01*
X42808599Y-60053495D01*
X42994160Y-60183426D01*
X43037783Y-60238002D01*
X43044976Y-60307501D01*
X43013454Y-60369855D01*
X42994158Y-60386575D01*
X42863225Y-60478256D01*
X42808595Y-60516508D01*
X42641505Y-60683598D01*
X42505965Y-60877170D01*
X42406097Y-61091336D01*
X42344936Y-61319592D01*
X42324340Y-61555000D01*
X42344936Y-61790407D01*
X42375869Y-61905849D01*
X42406097Y-62018663D01*
X42505965Y-62232830D01*
X42641505Y-62426401D01*
X42808599Y-62593495D01*
X42994160Y-62723426D01*
X43037783Y-62778002D01*
X43044976Y-62847501D01*
X43013454Y-62909855D01*
X42994159Y-62926575D01*
X42808595Y-63056508D01*
X42641505Y-63223598D01*
X42505965Y-63417170D01*
X42406097Y-63631336D01*
X42344936Y-63859592D01*
X42324340Y-64095000D01*
X42344936Y-64330407D01*
X42374106Y-64439269D01*
X42406097Y-64558663D01*
X42505965Y-64772830D01*
X42641505Y-64966401D01*
X42808599Y-65133495D01*
X42994160Y-65263426D01*
X43037783Y-65318002D01*
X43044976Y-65387501D01*
X43013454Y-65449855D01*
X42994159Y-65466575D01*
X42808595Y-65596508D01*
X42641505Y-65763598D01*
X42505965Y-65957170D01*
X42406097Y-66171336D01*
X42344936Y-66399592D01*
X42324340Y-66634999D01*
X42344936Y-66870407D01*
X42379527Y-66999500D01*
X42406097Y-67098663D01*
X42505965Y-67312830D01*
X42641505Y-67506401D01*
X42808599Y-67673495D01*
X42994160Y-67803426D01*
X43037783Y-67858002D01*
X43044976Y-67927501D01*
X43013454Y-67989855D01*
X42994159Y-68006575D01*
X42808595Y-68136508D01*
X42641505Y-68303598D01*
X42505965Y-68497170D01*
X42406097Y-68711336D01*
X42344936Y-68939592D01*
X42324340Y-69175000D01*
X40923490Y-69175000D01*
X40999815Y-34153465D01*
X41004565Y-31973658D01*
X41008789Y-31941849D01*
X41012430Y-31928261D01*
X41056352Y-31775806D01*
X41059724Y-31765753D01*
X41115583Y-31620233D01*
X41116692Y-31617452D01*
X41176439Y-31473212D01*
X41180488Y-31464429D01*
X41251569Y-31324925D01*
X41253521Y-31321250D01*
X41328588Y-31185426D01*
X41333065Y-31177962D01*
X41418633Y-31046199D01*
X41421434Y-31042077D01*
X41511010Y-30915832D01*
X41515733Y-30909603D01*
X41614702Y-30787386D01*
X41618532Y-30782885D01*
X41721613Y-30667537D01*
X41726323Y-30662556D01*
X41837556Y-30551323D01*
X41842537Y-30546613D01*
X41957885Y-30443532D01*
X41962386Y-30439702D01*
X42084603Y-30340733D01*
X42090832Y-30336010D01*
X42217077Y-30246434D01*
X42221199Y-30243633D01*
X42352962Y-30158065D01*
X42360426Y-30153588D01*
X42496255Y-30078517D01*
X42499934Y-30076565D01*
X42639429Y-30005488D01*
X42648212Y-30001439D01*
X42792452Y-29941692D01*
X42795233Y-29940583D01*
X42940753Y-29884724D01*
X42950818Y-29881349D01*
X43103292Y-29837422D01*
X43253407Y-29797198D01*
X43264672Y-29794739D01*
X43424337Y-29767610D01*
X43573688Y-29743955D01*
X43586098Y-29742627D01*
X43766566Y-29732493D01*
X43896756Y-29725669D01*
X43903245Y-29725500D01*
X86211755Y-29725500D01*
X86218243Y-29725669D01*
G37*
%TD.AperFunction*%
%TD*%
M02*
