M48
; DRILL file {KiCad 7.0.2} date Mon Jan 29 22:05:24 2024
; FORMAT={-:-/ absolute / inch / decimal}
; #@! TF.CreationDate,2024-01-29T22:05:24-05:00
; #@! TF.GenerationSoftware,Kicad,Pcbnew,7.0.2
; #@! TF.FileFunction,Plated,1,4,PTH
FMAT,2
INCH
; #@! TA.AperFunction,Plated,PTH,ViaDrill
T1C0.0157
; #@! TA.AperFunction,Plated,PTH,ComponentDrill
T2C0.0394
%
G90
G05
T1
X2.102Y-2.6732
X2.1059Y-2.2917
X2.1091Y-2.3622
X2.138Y-2.4711
X2.1878Y-2.7957
X2.189Y-2.4421
X2.2362Y-2.4402
X2.2378Y-2.7945
X2.287Y-2.4681
X2.2886Y-2.2929
X2.3118Y-2.3736
X2.3315Y-2.6815
X2.7843Y-2.424
X2.7846Y-2.4709
X2.7906Y-2.3681
X2.8362Y-2.5268
X2.8551Y-2.726
X2.9693Y-2.6264
X2.9976Y-2.7256
X3.0075Y-2.5256
X3.0577Y-2.4695
X3.0598Y-2.422
X3.0618Y-2.3807
T2
X1.7197Y-1.3234
X1.7197Y-1.4234
X1.7197Y-1.5234
X1.7197Y-1.6234
X1.7197Y-1.7234
X1.7197Y-1.8234
X1.7197Y-1.9234
X1.7197Y-2.0234
X1.7197Y-2.1234
X1.7197Y-2.2234
X1.7197Y-2.3234
X1.7197Y-2.4234
X1.7197Y-2.5234
X1.7197Y-2.6234
X1.7197Y-2.7234
X1.8197Y-1.3234
X1.8197Y-1.4234
X1.8197Y-1.5234
X1.8197Y-1.6234
X1.8197Y-1.7234
X1.8197Y-1.8234
X1.8197Y-1.9234
X1.8197Y-2.0234
X1.8197Y-2.1234
X1.8197Y-2.2234
X1.8197Y-2.3234
X1.8197Y-2.4234
X1.8197Y-2.5234
X1.8197Y-2.6234
X1.8197Y-2.7234
X2.0177Y-1.3234
X2.0181Y-1.4234
X2.0181Y-1.5234
X2.0181Y-1.6234
X2.0181Y-1.7234
X2.0183Y-1.8232
X2.0187Y-1.9232
X2.0187Y-2.0232
X2.0187Y-2.1232
X2.0187Y-2.2232
X2.0189Y-2.324
X2.0189Y-2.424
X2.0189Y-2.524
X2.0189Y-2.624
X2.0189Y-2.724
X2.1177Y-1.3234
X2.1181Y-1.4234
X2.1181Y-1.5234
X2.1181Y-1.6234
X2.1181Y-1.7234
X2.1183Y-1.8232
X2.1187Y-1.9232
X2.1187Y-2.0232
X2.1187Y-2.1232
X2.1187Y-2.2232
X2.2177Y-1.3234
X2.2181Y-1.4234
X2.2181Y-1.5234
X2.2181Y-1.6234
X2.2181Y-1.7234
X2.2183Y-1.8232
X2.2187Y-1.9232
X2.2187Y-2.0232
X2.2187Y-2.1232
X2.2187Y-2.2232
X2.3177Y-1.3234
X2.3181Y-1.4234
X2.3181Y-1.5234
X2.3181Y-1.6234
X2.3181Y-1.7234
X2.3183Y-1.8232
X2.3187Y-1.9232
X2.3187Y-2.0232
X2.3187Y-2.1232
X2.3187Y-2.2232
X2.4181Y-1.3234
X2.4181Y-1.4234
X2.4181Y-1.5234
X2.4181Y-1.6234
X2.4181Y-1.7234
X2.4187Y-1.8232
X2.4187Y-1.9232
X2.4187Y-2.0232
X2.4187Y-2.1232
X2.4187Y-2.2232
X2.4189Y-2.324
X2.4189Y-2.424
X2.4189Y-2.524
X2.4189Y-2.624
X2.4189Y-2.724
X2.7173Y-1.3234
X2.7173Y-1.4234
X2.7173Y-1.5234
X2.7173Y-1.6234
X2.7173Y-1.7234
X2.7179Y-1.8232
X2.7179Y-1.9232
X2.7179Y-2.0232
X2.7179Y-2.1232
X2.7179Y-2.2232
X2.7185Y-2.324
X2.7185Y-2.424
X2.7185Y-2.524
X2.7185Y-2.624
X2.7185Y-2.724
X2.8173Y-1.3234
X2.8173Y-1.4234
X2.8173Y-1.5234
X2.8173Y-1.6234
X2.8173Y-1.7234
X2.8179Y-1.8232
X2.8179Y-1.9232
X2.8179Y-2.0232
X2.8179Y-2.1232
X2.8179Y-2.2232
X2.9173Y-1.3234
X2.9173Y-1.4234
X2.9173Y-1.5234
X2.9173Y-1.6234
X2.9173Y-1.7234
X2.9179Y-1.8232
X2.9179Y-1.9232
X2.9179Y-2.0232
X2.9179Y-2.1232
X2.9179Y-2.2232
X2.9228Y-2.5697
X3.0173Y-1.3234
X3.0173Y-1.4234
X3.0173Y-1.5234
X3.0173Y-1.6234
X3.0173Y-1.7234
X3.0179Y-1.8232
X3.0179Y-1.9232
X3.0179Y-2.0232
X3.0179Y-2.1232
X3.0179Y-2.2232
X3.1173Y-1.3234
X3.1173Y-1.4234
X3.1173Y-1.5234
X3.1173Y-1.6234
X3.1173Y-1.7234
X3.1179Y-1.8232
X3.1179Y-1.9232
X3.1179Y-2.0232
X3.1179Y-2.1232
X3.1179Y-2.2232
X3.1185Y-2.324
X3.1185Y-2.424
X3.1185Y-2.524
X3.1185Y-2.624
X3.1185Y-2.724
X3.3161Y-1.3234
X3.3161Y-1.4234
X3.3161Y-1.5234
X3.3161Y-1.6234
X3.3161Y-1.7234
X3.3161Y-1.8234
X3.3161Y-1.9234
X3.3161Y-2.0234
X3.3161Y-2.1234
X3.3161Y-2.2234
X3.3161Y-2.3234
X3.3161Y-2.4234
X3.3161Y-2.5234
X3.3161Y-2.6234
X3.3161Y-2.7234
X3.4161Y-1.3234
X3.4161Y-1.4234
X3.4161Y-1.5234
X3.4161Y-1.6234
X3.4161Y-1.7234
X3.4161Y-1.8234
X3.4161Y-1.9234
X3.4161Y-2.0234
X3.4161Y-2.1234
X3.4161Y-2.2234
X3.4161Y-2.3234
X3.4161Y-2.4234
X3.4161Y-2.5234
X3.4161Y-2.6234
X3.4161Y-2.7234
T0
M30
