%TF.GenerationSoftware,KiCad,Pcbnew,7.0.2*%
%TF.CreationDate,2024-01-29T22:05:23-05:00*%
%TF.ProjectId,dpx_perv_5x10-smt,6470785f-7065-4727-965f-357831302d73,rev?*%
%TF.SameCoordinates,Original*%
%TF.FileFunction,Copper,L1,Top*%
%TF.FilePolarity,Positive*%
%FSLAX46Y46*%
G04 Gerber Fmt 4.6, Leading zero omitted, Abs format (unit mm)*
G04 Created by KiCad (PCBNEW 7.0.2) date 2024-01-29 22:05:23*
%MOMM*%
%LPD*%
G01*
G04 APERTURE LIST*
%TA.AperFunction,SMDPad,CuDef*%
%ADD10R,0.800000X0.900000*%
%TD*%
%TA.AperFunction,ComponentPad*%
%ADD11R,1.700000X1.700000*%
%TD*%
%TA.AperFunction,ComponentPad*%
%ADD12O,1.700000X1.700000*%
%TD*%
%TA.AperFunction,SMDPad,CuDef*%
%ADD13R,0.599100X1.901000*%
%TD*%
%TA.AperFunction,SMDPad,CuDef*%
%ADD14R,1.100000X0.400000*%
%TD*%
%TA.AperFunction,SMDPad,CuDef*%
%ADD15R,1.200000X1.200000*%
%TD*%
%TA.AperFunction,SMDPad,CuDef*%
%ADD16R,0.800000X1.200000*%
%TD*%
%TA.AperFunction,ViaPad*%
%ADD17C,0.800000*%
%TD*%
%TA.AperFunction,Conductor*%
%ADD18C,0.200000*%
%TD*%
%TA.AperFunction,Conductor*%
%ADD19C,0.450000*%
%TD*%
%TA.AperFunction,Conductor*%
%ADD20C,0.250000*%
%TD*%
G04 APERTURE END LIST*
D10*
%TO.P,REF\u002A\u002A,1*%
%TO.N,N/C*%
X73310000Y-69230000D03*
%TO.P,REF\u002A\u002A,2*%
X75210000Y-69230000D03*
%TO.P,REF\u002A\u002A,3*%
X74260000Y-67130000D03*
%TD*%
D11*
%TO.P,REF\u002A\u002A,1*%
%TO.N,N/C*%
X51280000Y-59030000D03*
D12*
%TO.P,REF\u002A\u002A,2*%
X51280000Y-61570000D03*
%TO.P,REF\u002A\u002A,3*%
X51280000Y-64110000D03*
%TO.P,REF\u002A\u002A,4*%
X51280000Y-66650000D03*
%TO.P,REF\u002A\u002A,5*%
X51280000Y-69190000D03*
%TD*%
D13*
%TO.P,1,1,1-UD+*%
%TO.N,unconnected-(1-1-UD+-Pad1)*%
X58115000Y-64414600D03*
%TO.P,1,2,2-UD-*%
%TO.N,unconnected-(1-2-UD--Pad2)*%
X56845000Y-64414600D03*
%TO.P,1,3,3-GND*%
%TO.N,unconnected-(1-3-GND-Pad3)*%
X55575000Y-64414600D03*
%TO.P,1,4,4-RTS*%
%TO.N,unconnected-(1-4-RTS-Pad4)*%
X54305000Y-64414600D03*
%TO.P,1,5,5-VCC*%
%TO.N,unconnected-(1-5-VCC-Pad5)*%
X54305000Y-69325400D03*
%TO.P,1,6,6-TXD*%
%TO.N,unconnected-(1-6-TXD-Pad6)*%
X55575000Y-69325400D03*
%TO.P,1,7,7-RXD*%
%TO.N,unconnected-(1-7-RXD-Pad7)*%
X56845000Y-69325400D03*
%TO.P,1,8,8-V3*%
%TO.N,unconnected-(1-8-V3-Pad8)*%
X58115000Y-69325400D03*
%TD*%
D11*
%TO.P,J1,1,Pin_1*%
%TO.N,VCC*%
X46220000Y-33615000D03*
D12*
%TO.P,J1,2,Pin_2*%
%TO.N,GND*%
X43680000Y-33615000D03*
%TO.P,J1,3,Pin_3*%
%TO.N,VCC*%
X46220000Y-36155000D03*
%TO.P,J1,4,Pin_4*%
%TO.N,GND*%
X43680000Y-36155000D03*
%TO.P,J1,5,Pin_5*%
%TO.N,VCC*%
X46220000Y-38695000D03*
%TO.P,J1,6,Pin_6*%
%TO.N,GND*%
X43680000Y-38695000D03*
%TO.P,J1,7,Pin_7*%
%TO.N,VCC*%
X46220000Y-41235000D03*
%TO.P,J1,8,Pin_8*%
%TO.N,GND*%
X43680000Y-41235000D03*
%TO.P,J1,9,Pin_9*%
%TO.N,VCC*%
X46220000Y-43775000D03*
%TO.P,J1,10,Pin_10*%
%TO.N,GND*%
X43680000Y-43775000D03*
%TO.P,J1,11,Pin_11*%
%TO.N,VCC*%
X46220000Y-46315000D03*
%TO.P,J1,12,Pin_12*%
%TO.N,GND*%
X43680000Y-46315000D03*
%TO.P,J1,13,Pin_13*%
%TO.N,VCC*%
X46220000Y-48855000D03*
%TO.P,J1,14,Pin_14*%
%TO.N,GND*%
X43680000Y-48855000D03*
%TO.P,J1,15,Pin_15*%
%TO.N,VCC*%
X46220000Y-51395000D03*
%TO.P,J1,16,Pin_16*%
%TO.N,GND*%
X43680000Y-51395000D03*
%TO.P,J1,17,Pin_17*%
%TO.N,VCC*%
X46220000Y-53935000D03*
%TO.P,J1,18,Pin_18*%
%TO.N,GND*%
X43680000Y-53935000D03*
%TO.P,J1,19,Pin_19*%
%TO.N,VCC*%
X46220000Y-56475000D03*
%TO.P,J1,20,Pin_20*%
%TO.N,GND*%
X43680000Y-56475000D03*
%TO.P,J1,21*%
%TO.N,N/C*%
X46220000Y-59015000D03*
%TO.P,J1,22*%
X43680000Y-59015000D03*
%TO.P,J1,23*%
X46220000Y-61555000D03*
%TO.P,J1,24*%
X43680000Y-61555000D03*
%TO.P,J1,25*%
X46220000Y-64095000D03*
%TO.P,J1,26*%
X43680000Y-64095000D03*
%TO.P,J1,27*%
X46220000Y-66635000D03*
%TO.P,J1,28*%
X43680000Y-66635000D03*
%TO.P,J1,29*%
X46220000Y-69175000D03*
%TO.P,J1,30*%
X43680000Y-69175000D03*
%TD*%
D11*
%TO.P,J2,1,Pin_1*%
%TO.N,VCC*%
X86770000Y-33615000D03*
D12*
%TO.P,J2,2,Pin_2*%
%TO.N,GND*%
X84230000Y-33615000D03*
%TO.P,J2,3,Pin_3*%
%TO.N,VCC*%
X86770000Y-36155000D03*
%TO.P,J2,4,Pin_4*%
%TO.N,GND*%
X84230000Y-36155000D03*
%TO.P,J2,5,Pin_5*%
%TO.N,VCC*%
X86770000Y-38695000D03*
%TO.P,J2,6,Pin_6*%
%TO.N,GND*%
X84230000Y-38695000D03*
%TO.P,J2,7,Pin_7*%
%TO.N,VCC*%
X86770000Y-41235000D03*
%TO.P,J2,8,Pin_8*%
%TO.N,GND*%
X84230000Y-41235000D03*
%TO.P,J2,9,Pin_9*%
%TO.N,VCC*%
X86770000Y-43775000D03*
%TO.P,J2,10,Pin_10*%
%TO.N,GND*%
X84230000Y-43775000D03*
%TO.P,J2,11,Pin_11*%
%TO.N,VCC*%
X86770000Y-46315000D03*
%TO.P,J2,12,Pin_12*%
%TO.N,GND*%
X84230000Y-46315000D03*
%TO.P,J2,13,Pin_13*%
%TO.N,VCC*%
X86770000Y-48855000D03*
%TO.P,J2,14,Pin_14*%
%TO.N,GND*%
X84230000Y-48855000D03*
%TO.P,J2,15,Pin_15*%
%TO.N,VCC*%
X86770000Y-51395000D03*
%TO.P,J2,16,Pin_16*%
%TO.N,GND*%
X84230000Y-51395000D03*
%TO.P,J2,17,Pin_17*%
%TO.N,VCC*%
X86770000Y-53935000D03*
%TO.P,J2,18,Pin_18*%
%TO.N,GND*%
X84230000Y-53935000D03*
%TO.P,J2,19,Pin_19*%
%TO.N,VCC*%
X86770000Y-56475000D03*
%TO.P,J2,20,Pin_20*%
%TO.N,GND*%
X84230000Y-56475000D03*
%TO.P,J2,21*%
%TO.N,N/C*%
X86770000Y-59015000D03*
%TO.P,J2,22*%
X84230000Y-59015000D03*
%TO.P,J2,23*%
X86770000Y-61555000D03*
%TO.P,J2,24*%
X84230000Y-61555000D03*
%TO.P,J2,25*%
X86770000Y-64095000D03*
%TO.P,J2,26*%
X84230000Y-64095000D03*
%TO.P,J2,27*%
X86770000Y-66635000D03*
%TO.P,J2,28*%
X84230000Y-66635000D03*
%TO.P,J2,29*%
X86770000Y-69175000D03*
%TO.P,J2,30*%
X84230000Y-69175000D03*
%TD*%
D11*
%TO.P,REF\u002A\u002A,1*%
%TO.N,N/C*%
X79210000Y-59030000D03*
D12*
%TO.P,REF\u002A\u002A,2*%
X79210000Y-61570000D03*
%TO.P,REF\u002A\u002A,3*%
X79210000Y-64110000D03*
%TO.P,REF\u002A\u002A,4*%
X79210000Y-66650000D03*
%TO.P,REF\u002A\u002A,5*%
X79210000Y-69190000D03*
%TD*%
D14*
%TO.P,REF\u002A\u002A,1*%
%TO.N,N/C*%
X72050000Y-60885000D03*
%TO.P,REF\u002A\u002A,2*%
X72050000Y-61535000D03*
%TO.P,REF\u002A\u002A,3*%
X72050000Y-62185000D03*
%TO.P,REF\u002A\u002A,4*%
X72050000Y-62835000D03*
%TO.P,REF\u002A\u002A,5*%
X76350000Y-62835000D03*
%TO.P,REF\u002A\u002A,6*%
X76350000Y-62185000D03*
%TO.P,REF\u002A\u002A,7*%
X76350000Y-61535000D03*
%TO.P,REF\u002A\u002A,8*%
X76350000Y-60885000D03*
%TD*%
D15*
%TO.P,REF\u002A\u002A,A*%
%TO.N,N/C*%
X55010000Y-60290000D03*
%TO.P,REF\u002A\u002A,C*%
X57110000Y-60290000D03*
%TD*%
D11*
%TO.P,REF\u002A\u002A,1*%
%TO.N,N/C*%
X61440000Y-59030000D03*
D12*
%TO.P,REF\u002A\u002A,2*%
X61440000Y-61570000D03*
%TO.P,REF\u002A\u002A,3*%
X61440000Y-64110000D03*
%TO.P,REF\u002A\u002A,4*%
X61440000Y-66650000D03*
%TO.P,REF\u002A\u002A,5*%
X61440000Y-69190000D03*
%TD*%
%TO.P,,?*%
%TO.N,N/C*%
X74240000Y-65270000D03*
%TD*%
D16*
%TO.P,REF\u002A\u002A,1*%
%TO.N,N/C*%
X55230000Y-58270000D03*
%TO.P,REF\u002A\u002A,2*%
X57030000Y-58270000D03*
%TD*%
D11*
%TO.P,REF\u002A\u002A,1*%
%TO.N,N/C*%
X69050000Y-59030000D03*
D12*
%TO.P,REF\u002A\u002A,2*%
X69050000Y-61570000D03*
%TO.P,REF\u002A\u002A,3*%
X69050000Y-64110000D03*
%TO.P,REF\u002A\u002A,4*%
X69050000Y-66650000D03*
%TO.P,REF\u002A\u002A,5*%
X69050000Y-69190000D03*
%TD*%
%TO.P,U2,1*%
%TO.N,N/C*%
X79195000Y-46310000D03*
%TO.P,U2,2*%
X76655000Y-46310000D03*
%TO.P,U2,3*%
X74115000Y-46310000D03*
%TO.P,U2,4*%
X71575000Y-46310000D03*
%TO.P,U2,5*%
X69035000Y-46310000D03*
%TO.P,U2,6*%
X61435000Y-46310000D03*
%TO.P,U2,11*%
X79195000Y-48850000D03*
%TO.P,U2,12*%
X76655000Y-48850000D03*
%TO.P,U2,13*%
X74115000Y-48850000D03*
%TO.P,U2,14*%
X71575000Y-48850000D03*
%TO.P,U2,15*%
X69035000Y-48850000D03*
%TO.P,U2,16*%
X61435000Y-48850000D03*
%TO.P,U2,17*%
X58895000Y-48850000D03*
X58885000Y-46310000D03*
%TO.P,U2,18*%
X56355000Y-48850000D03*
X56345000Y-46310000D03*
%TO.P,U2,19*%
X53815000Y-48850000D03*
X53805000Y-46310000D03*
%TO.P,U2,20*%
X51275000Y-48850000D03*
X51265000Y-46310000D03*
%TO.P,U2,21*%
X79195000Y-51390000D03*
%TO.P,U2,22*%
X76655000Y-51390000D03*
%TO.P,U2,23*%
X74115000Y-51390000D03*
%TO.P,U2,24*%
X71575000Y-51390000D03*
%TO.P,U2,25*%
X69035000Y-51390000D03*
%TO.P,U2,26*%
X61435000Y-51390000D03*
%TO.P,U2,27*%
X58895000Y-51390000D03*
%TO.P,U2,28*%
X56355000Y-51390000D03*
%TO.P,U2,29*%
X53815000Y-51390000D03*
%TO.P,U2,30*%
X51275000Y-51390000D03*
%TO.P,U2,31*%
X79195000Y-53930000D03*
%TO.P,U2,32*%
X76655000Y-53930000D03*
%TO.P,U2,33*%
X74115000Y-53930000D03*
%TO.P,U2,34*%
X71575000Y-53930000D03*
%TO.P,U2,35*%
X69035000Y-53930000D03*
%TO.P,U2,36*%
X61435000Y-53930000D03*
%TO.P,U2,37*%
X58895000Y-53930000D03*
%TO.P,U2,38*%
X56355000Y-53930000D03*
%TO.P,U2,39*%
X53815000Y-53930000D03*
%TO.P,U2,40*%
X51275000Y-53930000D03*
%TO.P,U2,41*%
X79195000Y-56470000D03*
%TO.P,U2,42*%
X76655000Y-56470000D03*
%TO.P,U2,43*%
X74115000Y-56470000D03*
%TO.P,U2,44*%
X71575000Y-56470000D03*
%TO.P,U2,45*%
X69035000Y-56470000D03*
%TO.P,U2,46*%
X61435000Y-56470000D03*
%TO.P,U2,47*%
X58895000Y-56470000D03*
%TO.P,U2,48*%
X56355000Y-56470000D03*
%TO.P,U2,49*%
X53815000Y-56470000D03*
%TO.P,U2,50*%
X51275000Y-56470000D03*
%TD*%
%TO.P,U1,1*%
%TO.N,N/C*%
X79180000Y-33615000D03*
%TO.P,U1,2*%
X76640000Y-33615000D03*
%TO.P,U1,3*%
X74100000Y-33615000D03*
%TO.P,U1,4*%
X71560000Y-33615000D03*
%TO.P,U1,5*%
X69020000Y-33615000D03*
%TO.P,U1,6*%
X61420000Y-33615000D03*
%TO.P,U1,11*%
X79180000Y-36155000D03*
%TO.P,U1,12*%
X76640000Y-36155000D03*
%TO.P,U1,13*%
X74100000Y-36155000D03*
%TO.P,U1,14*%
X71560000Y-36155000D03*
%TO.P,U1,15*%
X69020000Y-36155000D03*
%TO.P,U1,16*%
X61420000Y-36155000D03*
%TO.P,U1,17*%
X58880000Y-36155000D03*
X58870000Y-33615000D03*
%TO.P,U1,18*%
X56340000Y-36155000D03*
X56330000Y-33615000D03*
%TO.P,U1,19*%
X53800000Y-36155000D03*
X53790000Y-33615000D03*
%TO.P,U1,20*%
X51260000Y-36155000D03*
X51250000Y-33615000D03*
%TO.P,U1,21*%
X79180000Y-38695000D03*
%TO.P,U1,22*%
X76640000Y-38695000D03*
%TO.P,U1,23*%
X74100000Y-38695000D03*
%TO.P,U1,24*%
X71560000Y-38695000D03*
%TO.P,U1,25*%
X69020000Y-38695000D03*
%TO.P,U1,26*%
X61420000Y-38695000D03*
%TO.P,U1,27*%
X58880000Y-38695000D03*
%TO.P,U1,28*%
X56340000Y-38695000D03*
%TO.P,U1,29*%
X53800000Y-38695000D03*
%TO.P,U1,30*%
X51260000Y-38695000D03*
%TO.P,U1,31*%
X79180000Y-41235000D03*
%TO.P,U1,32*%
X76640000Y-41235000D03*
%TO.P,U1,33*%
X74100000Y-41235000D03*
%TO.P,U1,34*%
X71560000Y-41235000D03*
%TO.P,U1,35*%
X69020000Y-41235000D03*
%TO.P,U1,36*%
X61420000Y-41235000D03*
%TO.P,U1,37*%
X58880000Y-41235000D03*
%TO.P,U1,38*%
X56340000Y-41235000D03*
%TO.P,U1,39*%
X53800000Y-41235000D03*
%TO.P,U1,40*%
X51260000Y-41235000D03*
%TO.P,U1,41*%
X79180000Y-43775000D03*
%TO.P,U1,42*%
X76640000Y-43775000D03*
%TO.P,U1,43*%
X74100000Y-43775000D03*
%TO.P,U1,44*%
X71560000Y-43775000D03*
%TO.P,U1,45*%
X69020000Y-43775000D03*
%TO.P,U1,46*%
X61420000Y-43775000D03*
%TO.P,U1,47*%
X58880000Y-43775000D03*
%TO.P,U1,48*%
X56340000Y-43775000D03*
%TO.P,U1,49*%
X53800000Y-43775000D03*
%TO.P,U1,50*%
X51260000Y-43775000D03*
%TD*%
D17*
%TO.N,*%
X75420000Y-66710000D03*
X70730000Y-62760000D03*
X72520000Y-69240000D03*
X58720000Y-60290000D03*
X77665000Y-62725000D03*
X77770000Y-60470000D03*
X77720000Y-61520000D03*
X70720000Y-61570000D03*
X76390000Y-64150000D03*
X76140000Y-69230000D03*
X53570000Y-60000000D03*
X53490000Y-58210000D03*
X58130000Y-58240000D03*
X70880000Y-60150000D03*
X72040000Y-64180000D03*
%TO.N,unconnected-(1-1-UD+-Pad1)*%
X58090000Y-62690000D03*
%TO.N,unconnected-(1-2-UD--Pad2)*%
X56800000Y-61980000D03*
%TO.N,unconnected-(1-3-GND-Pad3)*%
X55600000Y-62030000D03*
%TO.N,unconnected-(1-4-RTS-Pad4)*%
X54305000Y-62765000D03*
%TO.N,unconnected-(1-5-VCC-Pad5)*%
X53390000Y-67900000D03*
%TO.N,unconnected-(1-6-TXD-Pad6)*%
X55570000Y-71010000D03*
%TO.N,unconnected-(1-7-RXD-Pad7)*%
X56840000Y-70980000D03*
%TO.N,unconnected-(1-8-V3-Pad8)*%
X59220000Y-68110000D03*
%TD*%
D18*
%TO.N,*%
X77355000Y-60885000D02*
X76350000Y-60885000D01*
X77770000Y-60470000D02*
X77355000Y-60885000D01*
X77720000Y-61520000D02*
X77705000Y-61535000D01*
X77705000Y-61535000D02*
X76350000Y-61535000D01*
X77125000Y-62185000D02*
X76350000Y-62185000D01*
X77665000Y-62725000D02*
X77125000Y-62185000D01*
X76390000Y-64150000D02*
X76350000Y-64110000D01*
X76350000Y-64110000D02*
X76350000Y-62835000D01*
X72050000Y-64170000D02*
X72050000Y-62835000D01*
X72040000Y-64180000D02*
X72050000Y-64170000D01*
X71305000Y-62185000D02*
X72050000Y-62185000D01*
X70730000Y-62760000D02*
X71305000Y-62185000D01*
X70720000Y-61570000D02*
X70755000Y-61535000D01*
X70755000Y-61535000D02*
X72050000Y-61535000D01*
X71615000Y-60885000D02*
X72050000Y-60885000D01*
X70880000Y-60150000D02*
X71615000Y-60885000D01*
D19*
X72530000Y-69230000D02*
X72520000Y-69240000D01*
X53490000Y-58210000D02*
X55170000Y-58210000D01*
X57110000Y-60290000D02*
X58720000Y-60290000D01*
X53570000Y-60000000D02*
X53860000Y-60290000D01*
X76160000Y-69210000D02*
X76140000Y-69230000D01*
X75210000Y-69230000D02*
X76140000Y-69230000D01*
X57030000Y-58270000D02*
X58100000Y-58270000D01*
X58100000Y-58270000D02*
X58130000Y-58240000D01*
X53860000Y-60290000D02*
X55010000Y-60290000D01*
D20*
X55560000Y-58290000D02*
X55330000Y-58520000D01*
D19*
X73310000Y-69230000D02*
X72530000Y-69230000D01*
X75000000Y-67130000D02*
X75420000Y-66710000D01*
X74260000Y-67130000D02*
X75000000Y-67130000D01*
X55170000Y-58210000D02*
X55230000Y-58270000D01*
%TO.N,unconnected-(1-1-UD+-Pad1)*%
X58115000Y-64414600D02*
X58115000Y-62715000D01*
X58115000Y-62715000D02*
X58090000Y-62690000D01*
%TO.N,unconnected-(1-2-UD--Pad2)*%
X56845000Y-64414600D02*
X56845000Y-62025000D01*
X56845000Y-62025000D02*
X56800000Y-61980000D01*
%TO.N,unconnected-(1-3-GND-Pad3)*%
X55575000Y-64414600D02*
X55575000Y-62055000D01*
X55575000Y-62055000D02*
X55600000Y-62030000D01*
%TO.N,unconnected-(1-4-RTS-Pad4)*%
X54305000Y-62765000D02*
X54305000Y-64414600D01*
%TO.N,unconnected-(1-5-VCC-Pad5)*%
X53420000Y-68990000D02*
X53420000Y-67930000D01*
X53755400Y-69325400D02*
X53420000Y-68990000D01*
X54305000Y-69325400D02*
X53755400Y-69325400D01*
X53420000Y-67930000D02*
X53390000Y-67900000D01*
%TO.N,unconnected-(1-6-TXD-Pad6)*%
X55575000Y-69325400D02*
X55575000Y-71005000D01*
X55575000Y-71005000D02*
X55570000Y-71010000D01*
%TO.N,unconnected-(1-7-RXD-Pad7)*%
X56845000Y-70975000D02*
X56840000Y-70980000D01*
X56845000Y-69325400D02*
X56845000Y-70975000D01*
%TO.N,unconnected-(1-8-V3-Pad8)*%
X59190000Y-69070000D02*
X59190000Y-68140000D01*
X58115000Y-69325400D02*
X58934600Y-69325400D01*
X58934600Y-69325400D02*
X59190000Y-69070000D01*
X59190000Y-68140000D02*
X59220000Y-68110000D01*
%TD*%
M02*
