%TF.GenerationSoftware,KiCad,Pcbnew,7.0.2*%
%TF.CreationDate,2024-01-29T21:10:08-05:00*%
%TF.ProjectId,dpx_perv_5x30-s,6470785f-7065-4727-965f-357833302d73,rev?*%
%TF.SameCoordinates,Original*%
%TF.FileFunction,Soldermask,Top*%
%TF.FilePolarity,Negative*%
%FSLAX46Y46*%
G04 Gerber Fmt 4.6, Leading zero omitted, Abs format (unit mm)*
G04 Created by KiCad (PCBNEW 7.0.2) date 2024-01-29 21:10:08*
%MOMM*%
%LPD*%
G01*
G04 APERTURE LIST*
%ADD10C,0.150000*%
%ADD11R,1.700000X1.700000*%
%ADD12O,1.700000X1.700000*%
G04 APERTURE END LIST*
D10*
X88560000Y-109050000D02*
X88560000Y-31780000D01*
X41880000Y-31660000D02*
X41880000Y-109090000D01*
D11*
%TO.C,J1*%
X46220000Y-33615000D03*
D12*
X43680000Y-33615000D03*
X46220000Y-36155000D03*
X43680000Y-36155000D03*
X46220000Y-38695000D03*
X43680000Y-38695000D03*
X46220000Y-41235000D03*
X43680000Y-41235000D03*
X46220000Y-43775000D03*
X43680000Y-43775000D03*
X46220000Y-46315000D03*
X43680000Y-46315000D03*
X46220000Y-48855000D03*
X43680000Y-48855000D03*
X46220000Y-51395000D03*
X43680000Y-51395000D03*
X46220000Y-53935000D03*
X43680000Y-53935000D03*
X46220000Y-56475000D03*
X43680000Y-56475000D03*
X46220000Y-59015000D03*
X43680000Y-59015000D03*
X46220000Y-61555000D03*
X43680000Y-61555000D03*
X46220000Y-64095000D03*
X43680000Y-64095000D03*
X46220000Y-66635000D03*
X43680000Y-66635000D03*
X46220000Y-69175000D03*
X43680000Y-69175000D03*
X46220000Y-71715000D03*
X43680000Y-71715000D03*
X46220000Y-74255000D03*
X43680000Y-74255000D03*
X46220000Y-76795000D03*
X43680000Y-76795000D03*
X46220000Y-79335000D03*
X43680000Y-79335000D03*
X46220000Y-81875000D03*
X43680000Y-81875000D03*
X46220000Y-84415000D03*
X43680000Y-84415000D03*
X46220000Y-86955000D03*
X43680000Y-86955000D03*
X46220000Y-89495000D03*
X43680000Y-89495000D03*
X46220000Y-92035000D03*
X43680000Y-92035000D03*
X46220000Y-94575000D03*
X43680000Y-94575000D03*
X46220000Y-97115000D03*
X43680000Y-97115000D03*
X46220000Y-99655000D03*
X43680000Y-99655000D03*
X46220000Y-102195000D03*
X43680000Y-102195000D03*
X46220000Y-104735000D03*
X43680000Y-104735000D03*
X46220000Y-107275000D03*
X43680000Y-107275000D03*
%TD*%
D11*
%TO.C,J2*%
X86770000Y-33615000D03*
D12*
X84230000Y-33615000D03*
X86770000Y-36155000D03*
X84230000Y-36155000D03*
X86770000Y-38695000D03*
X84230000Y-38695000D03*
X86770000Y-41235000D03*
X84230000Y-41235000D03*
X86770000Y-43775000D03*
X84230000Y-43775000D03*
X86770000Y-46315000D03*
X84230000Y-46315000D03*
X86770000Y-48855000D03*
X84230000Y-48855000D03*
X86770000Y-51395000D03*
X84230000Y-51395000D03*
X86770000Y-53935000D03*
X84230000Y-53935000D03*
X86770000Y-56475000D03*
X84230000Y-56475000D03*
X86770000Y-59015000D03*
X84230000Y-59015000D03*
X86770000Y-61555000D03*
X84230000Y-61555000D03*
X86770000Y-64095000D03*
X84230000Y-64095000D03*
X86770000Y-66635000D03*
X84230000Y-66635000D03*
X86770000Y-69175000D03*
X84230000Y-69175000D03*
X86770000Y-71715000D03*
X84230000Y-71715000D03*
X86770000Y-74255000D03*
X84230000Y-74255000D03*
X86770000Y-76795000D03*
X84230000Y-76795000D03*
X86770000Y-79335000D03*
X84230000Y-79335000D03*
X86770000Y-81875000D03*
X84230000Y-81875000D03*
X86770000Y-84415000D03*
X84230000Y-84415000D03*
X86770000Y-86955000D03*
X84230000Y-86955000D03*
X86770000Y-89495000D03*
X84230000Y-89495000D03*
X86770000Y-92035000D03*
X84230000Y-92035000D03*
X86770000Y-94575000D03*
X84230000Y-94575000D03*
X86770000Y-97115000D03*
X84230000Y-97115000D03*
X86770000Y-99655000D03*
X84230000Y-99655000D03*
X86770000Y-102195000D03*
X84230000Y-102195000D03*
X86770000Y-104735000D03*
X84230000Y-104735000D03*
X86770000Y-107275000D03*
X84230000Y-107275000D03*
%TD*%
%TO.C,U6*%
X79165000Y-97110000D03*
X76625000Y-97110000D03*
X74085000Y-97110000D03*
X71545000Y-97110000D03*
X69005000Y-97110000D03*
X61405000Y-97110000D03*
X79165000Y-99650000D03*
X76625000Y-99650000D03*
X74085000Y-99650000D03*
X71545000Y-99650000D03*
X69005000Y-99650000D03*
X61405000Y-99650000D03*
X58865000Y-99650000D03*
X58855000Y-97110000D03*
X56325000Y-99650000D03*
X56315000Y-97110000D03*
X53785000Y-99650000D03*
X53775000Y-97110000D03*
X51245000Y-99650000D03*
X51235000Y-97110000D03*
X79165000Y-102190000D03*
X76625000Y-102190000D03*
X74085000Y-102190000D03*
X71545000Y-102190000D03*
X69005000Y-102190000D03*
X61405000Y-102190000D03*
X58865000Y-102190000D03*
X56325000Y-102190000D03*
X53785000Y-102190000D03*
X51245000Y-102190000D03*
X79165000Y-104730000D03*
X76625000Y-104730000D03*
X74085000Y-104730000D03*
X71545000Y-104730000D03*
X69005000Y-104730000D03*
X61405000Y-104730000D03*
X58865000Y-104730000D03*
X56325000Y-104730000D03*
X53785000Y-104730000D03*
X51245000Y-104730000D03*
X79165000Y-107270000D03*
X76625000Y-107270000D03*
X74085000Y-107270000D03*
X71545000Y-107270000D03*
X69005000Y-107270000D03*
X61405000Y-107270000D03*
X58865000Y-107270000D03*
X56325000Y-107270000D03*
X53785000Y-107270000D03*
X51245000Y-107270000D03*
%TD*%
%TO.C,U2*%
X79195000Y-46310000D03*
X76655000Y-46310000D03*
X74115000Y-46310000D03*
X71575000Y-46310000D03*
X69035000Y-46310000D03*
X61435000Y-46310000D03*
X79195000Y-48850000D03*
X76655000Y-48850000D03*
X74115000Y-48850000D03*
X71575000Y-48850000D03*
X69035000Y-48850000D03*
X61435000Y-48850000D03*
X58895000Y-48850000D03*
X58885000Y-46310000D03*
X56355000Y-48850000D03*
X56345000Y-46310000D03*
X53815000Y-48850000D03*
X53805000Y-46310000D03*
X51275000Y-48850000D03*
X51265000Y-46310000D03*
X79195000Y-51390000D03*
X76655000Y-51390000D03*
X74115000Y-51390000D03*
X71575000Y-51390000D03*
X69035000Y-51390000D03*
X61435000Y-51390000D03*
X58895000Y-51390000D03*
X56355000Y-51390000D03*
X53815000Y-51390000D03*
X51275000Y-51390000D03*
X79195000Y-53930000D03*
X76655000Y-53930000D03*
X74115000Y-53930000D03*
X71575000Y-53930000D03*
X69035000Y-53930000D03*
X61435000Y-53930000D03*
X58895000Y-53930000D03*
X56355000Y-53930000D03*
X53815000Y-53930000D03*
X51275000Y-53930000D03*
X79195000Y-56470000D03*
X76655000Y-56470000D03*
X74115000Y-56470000D03*
X71575000Y-56470000D03*
X69035000Y-56470000D03*
X61435000Y-56470000D03*
X58895000Y-56470000D03*
X56355000Y-56470000D03*
X53815000Y-56470000D03*
X51275000Y-56470000D03*
%TD*%
%TO.C,U1*%
X79180000Y-33615000D03*
X76640000Y-33615000D03*
X74100000Y-33615000D03*
X71560000Y-33615000D03*
X69020000Y-33615000D03*
X61420000Y-33615000D03*
X79180000Y-36155000D03*
X76640000Y-36155000D03*
X74100000Y-36155000D03*
X71560000Y-36155000D03*
X69020000Y-36155000D03*
X61420000Y-36155000D03*
X58880000Y-36155000D03*
X58870000Y-33615000D03*
X56340000Y-36155000D03*
X56330000Y-33615000D03*
X53800000Y-36155000D03*
X53790000Y-33615000D03*
X51260000Y-36155000D03*
X51250000Y-33615000D03*
X79180000Y-38695000D03*
X76640000Y-38695000D03*
X74100000Y-38695000D03*
X71560000Y-38695000D03*
X69020000Y-38695000D03*
X61420000Y-38695000D03*
X58880000Y-38695000D03*
X56340000Y-38695000D03*
X53800000Y-38695000D03*
X51260000Y-38695000D03*
X79180000Y-41235000D03*
X76640000Y-41235000D03*
X74100000Y-41235000D03*
X71560000Y-41235000D03*
X69020000Y-41235000D03*
X61420000Y-41235000D03*
X58880000Y-41235000D03*
X56340000Y-41235000D03*
X53800000Y-41235000D03*
X51260000Y-41235000D03*
X79180000Y-43775000D03*
X76640000Y-43775000D03*
X74100000Y-43775000D03*
X71560000Y-43775000D03*
X69020000Y-43775000D03*
X61420000Y-43775000D03*
X58880000Y-43775000D03*
X56340000Y-43775000D03*
X53800000Y-43775000D03*
X51260000Y-43775000D03*
%TD*%
%TO.C,U4*%
X79185000Y-71710000D03*
X76645000Y-71710000D03*
X74105000Y-71710000D03*
X71565000Y-71710000D03*
X69025000Y-71710000D03*
X61425000Y-71710000D03*
X79185000Y-74250000D03*
X76645000Y-74250000D03*
X74105000Y-74250000D03*
X71565000Y-74250000D03*
X69025000Y-74250000D03*
X61425000Y-74250000D03*
X58885000Y-74250000D03*
X58875000Y-71710000D03*
X56345000Y-74250000D03*
X56335000Y-71710000D03*
X53805000Y-74250000D03*
X53795000Y-71710000D03*
X51265000Y-74250000D03*
X51255000Y-71710000D03*
X79185000Y-76790000D03*
X76645000Y-76790000D03*
X74105000Y-76790000D03*
X71565000Y-76790000D03*
X69025000Y-76790000D03*
X61425000Y-76790000D03*
X58885000Y-76790000D03*
X56345000Y-76790000D03*
X53805000Y-76790000D03*
X51265000Y-76790000D03*
X79185000Y-79330000D03*
X76645000Y-79330000D03*
X74105000Y-79330000D03*
X71565000Y-79330000D03*
X69025000Y-79330000D03*
X61425000Y-79330000D03*
X58885000Y-79330000D03*
X56345000Y-79330000D03*
X53805000Y-79330000D03*
X51265000Y-79330000D03*
X79185000Y-81870000D03*
X76645000Y-81870000D03*
X74105000Y-81870000D03*
X71565000Y-81870000D03*
X69025000Y-81870000D03*
X61425000Y-81870000D03*
X58885000Y-81870000D03*
X56345000Y-81870000D03*
X53805000Y-81870000D03*
X51265000Y-81870000D03*
%TD*%
%TO.C,U3*%
X79185000Y-59020000D03*
X76645000Y-59020000D03*
X74105000Y-59020000D03*
X71565000Y-59020000D03*
X69025000Y-59020000D03*
X61425000Y-59020000D03*
X79185000Y-61560000D03*
X76645000Y-61560000D03*
X74105000Y-61560000D03*
X71565000Y-61560000D03*
X69025000Y-61560000D03*
X61425000Y-61560000D03*
X58885000Y-61560000D03*
X58875000Y-59020000D03*
X56345000Y-61560000D03*
X56335000Y-59020000D03*
X53805000Y-61560000D03*
X53795000Y-59020000D03*
X51265000Y-61560000D03*
X51255000Y-59020000D03*
X79185000Y-64100000D03*
X76645000Y-64100000D03*
X74105000Y-64100000D03*
X71565000Y-64100000D03*
X69025000Y-64100000D03*
X61425000Y-64100000D03*
X58885000Y-64100000D03*
X56345000Y-64100000D03*
X53805000Y-64100000D03*
X51265000Y-64100000D03*
X79185000Y-66640000D03*
X76645000Y-66640000D03*
X74105000Y-66640000D03*
X71565000Y-66640000D03*
X69025000Y-66640000D03*
X61425000Y-66640000D03*
X58885000Y-66640000D03*
X56345000Y-66640000D03*
X53805000Y-66640000D03*
X51265000Y-66640000D03*
X79185000Y-69180000D03*
X76645000Y-69180000D03*
X74105000Y-69180000D03*
X71565000Y-69180000D03*
X69025000Y-69180000D03*
X61425000Y-69180000D03*
X58885000Y-69180000D03*
X56345000Y-69180000D03*
X53805000Y-69180000D03*
X51265000Y-69180000D03*
%TD*%
%TO.C,U5*%
X79165000Y-84400000D03*
X76625000Y-84400000D03*
X74085000Y-84400000D03*
X71545000Y-84400000D03*
X69005000Y-84400000D03*
X61405000Y-84400000D03*
X79165000Y-86940000D03*
X76625000Y-86940000D03*
X74085000Y-86940000D03*
X71545000Y-86940000D03*
X69005000Y-86940000D03*
X61405000Y-86940000D03*
X58865000Y-86940000D03*
X58855000Y-84400000D03*
X56325000Y-86940000D03*
X56315000Y-84400000D03*
X53785000Y-86940000D03*
X53775000Y-84400000D03*
X51245000Y-86940000D03*
X51235000Y-84400000D03*
X79165000Y-89480000D03*
X76625000Y-89480000D03*
X74085000Y-89480000D03*
X71545000Y-89480000D03*
X69005000Y-89480000D03*
X61405000Y-89480000D03*
X58865000Y-89480000D03*
X56325000Y-89480000D03*
X53785000Y-89480000D03*
X51245000Y-89480000D03*
X79165000Y-92020000D03*
X76625000Y-92020000D03*
X74085000Y-92020000D03*
X71545000Y-92020000D03*
X69005000Y-92020000D03*
X61405000Y-92020000D03*
X58865000Y-92020000D03*
X56325000Y-92020000D03*
X53785000Y-92020000D03*
X51245000Y-92020000D03*
X79165000Y-94560000D03*
X76625000Y-94560000D03*
X74085000Y-94560000D03*
X71545000Y-94560000D03*
X69005000Y-94560000D03*
X61405000Y-94560000D03*
X58865000Y-94560000D03*
X56325000Y-94560000D03*
X53785000Y-94560000D03*
X51245000Y-94560000D03*
%TD*%
M02*
