%TF.GenerationSoftware,KiCad,Pcbnew,7.0.2*%
%TF.CreationDate,2024-01-29T20:43:43-05:00*%
%TF.ProjectId,dpx_perv_5x15-s,6470785f-7065-4727-965f-357831352d73,rev?*%
%TF.SameCoordinates,Original*%
%TF.FileFunction,Soldermask,Bot*%
%TF.FilePolarity,Negative*%
%FSLAX46Y46*%
G04 Gerber Fmt 4.6, Leading zero omitted, Abs format (unit mm)*
G04 Created by KiCad (PCBNEW 7.0.2) date 2024-01-29 20:43:43*
%MOMM*%
%LPD*%
G01*
G04 APERTURE LIST*
%ADD10R,1.168400X1.600200*%
%ADD11R,1.700000X1.700000*%
%ADD12O,1.700000X1.700000*%
G04 APERTURE END LIST*
D10*
%TO.C,J6*%
X49032000Y-71573500D03*
X47510540Y-71573500D03*
%TD*%
%TO.C,J6*%
X48098540Y-30950000D03*
X49620000Y-30950000D03*
%TD*%
D11*
%TO.C,J1*%
X46220000Y-33615000D03*
D12*
X43680000Y-33615000D03*
X46220000Y-36155000D03*
X43680000Y-36155000D03*
X46220000Y-38695000D03*
X43680000Y-38695000D03*
X46220000Y-41235000D03*
X43680000Y-41235000D03*
X46220000Y-43775000D03*
X43680000Y-43775000D03*
X46220000Y-46315000D03*
X43680000Y-46315000D03*
X46220000Y-48855000D03*
X43680000Y-48855000D03*
X46220000Y-51395000D03*
X43680000Y-51395000D03*
X46220000Y-53935000D03*
X43680000Y-53935000D03*
X46220000Y-56475000D03*
X43680000Y-56475000D03*
X46220000Y-59015000D03*
X43680000Y-59015000D03*
X46220000Y-61555000D03*
X43680000Y-61555000D03*
X46220000Y-64095000D03*
X43680000Y-64095000D03*
X46220000Y-66635000D03*
X43680000Y-66635000D03*
X46220000Y-69175000D03*
X43680000Y-69175000D03*
%TD*%
D11*
%TO.C,J2*%
X86770000Y-33615000D03*
D12*
X84230000Y-33615000D03*
X86770000Y-36155000D03*
X84230000Y-36155000D03*
X86770000Y-38695000D03*
X84230000Y-38695000D03*
X86770000Y-41235000D03*
X84230000Y-41235000D03*
X86770000Y-43775000D03*
X84230000Y-43775000D03*
X86770000Y-46315000D03*
X84230000Y-46315000D03*
X86770000Y-48855000D03*
X84230000Y-48855000D03*
X86770000Y-51395000D03*
X84230000Y-51395000D03*
X86770000Y-53935000D03*
X84230000Y-53935000D03*
X86770000Y-56475000D03*
X84230000Y-56475000D03*
X86770000Y-59015000D03*
X84230000Y-59015000D03*
X86770000Y-61555000D03*
X84230000Y-61555000D03*
X86770000Y-64095000D03*
X84230000Y-64095000D03*
X86770000Y-66635000D03*
X84230000Y-66635000D03*
X86770000Y-69175000D03*
X84230000Y-69175000D03*
%TD*%
%TO.C,U2*%
X51275000Y-56470000D03*
X53815000Y-56470000D03*
X56355000Y-56470000D03*
X58895000Y-56470000D03*
X61435000Y-56470000D03*
X69035000Y-56470000D03*
X71575000Y-56470000D03*
X74115000Y-56470000D03*
X76655000Y-56470000D03*
X79195000Y-56470000D03*
X51275000Y-53930000D03*
X53815000Y-53930000D03*
X56355000Y-53930000D03*
X58895000Y-53930000D03*
X61435000Y-53930000D03*
X69035000Y-53930000D03*
X71575000Y-53930000D03*
X74115000Y-53930000D03*
X76655000Y-53930000D03*
X79195000Y-53930000D03*
X51275000Y-51390000D03*
X53815000Y-51390000D03*
X56355000Y-51390000D03*
X58895000Y-51390000D03*
X61435000Y-51390000D03*
X69035000Y-51390000D03*
X71575000Y-51390000D03*
X74115000Y-51390000D03*
X76655000Y-51390000D03*
X79195000Y-51390000D03*
X51265000Y-46310000D03*
X51275000Y-48850000D03*
X53805000Y-46310000D03*
X53815000Y-48850000D03*
X56345000Y-46310000D03*
X56355000Y-48850000D03*
X58885000Y-46310000D03*
X58895000Y-48850000D03*
X61435000Y-48850000D03*
X69035000Y-48850000D03*
X71575000Y-48850000D03*
X74115000Y-48850000D03*
X76655000Y-48850000D03*
X79195000Y-48850000D03*
X61435000Y-46310000D03*
X69035000Y-46310000D03*
X71575000Y-46310000D03*
X74115000Y-46310000D03*
X76655000Y-46310000D03*
X79195000Y-46310000D03*
%TD*%
%TO.C,U1*%
X51260000Y-43775000D03*
X53800000Y-43775000D03*
X56340000Y-43775000D03*
X58880000Y-43775000D03*
X61420000Y-43775000D03*
X69020000Y-43775000D03*
X71560000Y-43775000D03*
X74100000Y-43775000D03*
X76640000Y-43775000D03*
X79180000Y-43775000D03*
X51260000Y-41235000D03*
X53800000Y-41235000D03*
X56340000Y-41235000D03*
X58880000Y-41235000D03*
X61420000Y-41235000D03*
X69020000Y-41235000D03*
X71560000Y-41235000D03*
X74100000Y-41235000D03*
X76640000Y-41235000D03*
X79180000Y-41235000D03*
X51260000Y-38695000D03*
X53800000Y-38695000D03*
X56340000Y-38695000D03*
X58880000Y-38695000D03*
X61420000Y-38695000D03*
X69020000Y-38695000D03*
X71560000Y-38695000D03*
X74100000Y-38695000D03*
X76640000Y-38695000D03*
X79180000Y-38695000D03*
X51250000Y-33615000D03*
X51260000Y-36155000D03*
X53790000Y-33615000D03*
X53800000Y-36155000D03*
X56330000Y-33615000D03*
X56340000Y-36155000D03*
X58870000Y-33615000D03*
X58880000Y-36155000D03*
X61420000Y-36155000D03*
X69020000Y-36155000D03*
X71560000Y-36155000D03*
X74100000Y-36155000D03*
X76640000Y-36155000D03*
X79180000Y-36155000D03*
X61420000Y-33615000D03*
X69020000Y-33615000D03*
X71560000Y-33615000D03*
X74100000Y-33615000D03*
X76640000Y-33615000D03*
X79180000Y-33615000D03*
%TD*%
%TO.C,U3*%
X51265000Y-69180000D03*
X53805000Y-69180000D03*
X56345000Y-69180000D03*
X58885000Y-69180000D03*
X61425000Y-69180000D03*
X69025000Y-69180000D03*
X71565000Y-69180000D03*
X74105000Y-69180000D03*
X76645000Y-69180000D03*
X79185000Y-69180000D03*
X51265000Y-66640000D03*
X53805000Y-66640000D03*
X56345000Y-66640000D03*
X58885000Y-66640000D03*
X61425000Y-66640000D03*
X69025000Y-66640000D03*
X71565000Y-66640000D03*
X74105000Y-66640000D03*
X76645000Y-66640000D03*
X79185000Y-66640000D03*
X51265000Y-64100000D03*
X53805000Y-64100000D03*
X56345000Y-64100000D03*
X58885000Y-64100000D03*
X61425000Y-64100000D03*
X69025000Y-64100000D03*
X71565000Y-64100000D03*
X74105000Y-64100000D03*
X76645000Y-64100000D03*
X79185000Y-64100000D03*
X51255000Y-59020000D03*
X51265000Y-61560000D03*
X53795000Y-59020000D03*
X53805000Y-61560000D03*
X56335000Y-59020000D03*
X56345000Y-61560000D03*
X58875000Y-59020000D03*
X58885000Y-61560000D03*
X61425000Y-61560000D03*
X69025000Y-61560000D03*
X71565000Y-61560000D03*
X74105000Y-61560000D03*
X76645000Y-61560000D03*
X79185000Y-61560000D03*
X61425000Y-59020000D03*
X69025000Y-59020000D03*
X71565000Y-59020000D03*
X74105000Y-59020000D03*
X76645000Y-59020000D03*
X79185000Y-59020000D03*
%TD*%
G36*
X86218471Y-29725195D02*
G01*
X86543940Y-29743472D01*
X86557759Y-29745029D01*
X86875695Y-29799049D01*
X86889252Y-29802143D01*
X87199148Y-29891423D01*
X87212272Y-29896016D01*
X87510215Y-30019427D01*
X87522744Y-30025460D01*
X87805006Y-30181461D01*
X87816780Y-30188860D01*
X88079783Y-30375471D01*
X88090655Y-30384140D01*
X88331127Y-30599039D01*
X88340960Y-30608872D01*
X88555859Y-30849344D01*
X88564528Y-30860216D01*
X88751139Y-31123219D01*
X88758538Y-31134993D01*
X88914539Y-31417255D01*
X88920572Y-31429784D01*
X89043983Y-31727727D01*
X89048576Y-31740851D01*
X89137856Y-32050747D01*
X89140950Y-32064304D01*
X89194970Y-32382240D01*
X89196527Y-32396058D01*
X89214805Y-32721527D01*
X89215000Y-32728480D01*
X89215000Y-69921519D01*
X89214805Y-69928472D01*
X89196527Y-70253941D01*
X89194970Y-70267759D01*
X89140950Y-70585695D01*
X89137856Y-70599252D01*
X89048576Y-70909148D01*
X89043983Y-70922272D01*
X88920572Y-71220215D01*
X88914539Y-71232744D01*
X88758538Y-71515006D01*
X88751139Y-71526780D01*
X88564528Y-71789783D01*
X88555859Y-71800655D01*
X88340960Y-72041127D01*
X88331127Y-72050960D01*
X88090655Y-72265859D01*
X88079783Y-72274528D01*
X87816780Y-72461139D01*
X87805006Y-72468538D01*
X87522744Y-72624539D01*
X87510215Y-72630572D01*
X87212272Y-72753983D01*
X87199148Y-72758576D01*
X86889252Y-72847856D01*
X86875695Y-72850950D01*
X86557759Y-72904970D01*
X86543941Y-72906527D01*
X86218472Y-72924805D01*
X86211519Y-72925000D01*
X43903481Y-72925000D01*
X43896528Y-72924805D01*
X43571058Y-72906527D01*
X43557240Y-72904970D01*
X43239304Y-72850950D01*
X43225747Y-72847856D01*
X42915851Y-72758576D01*
X42902727Y-72753983D01*
X42604784Y-72630572D01*
X42592255Y-72624539D01*
X42309993Y-72468538D01*
X42298219Y-72461139D01*
X42035216Y-72274528D01*
X42024344Y-72265859D01*
X41783872Y-72050960D01*
X41774039Y-72041127D01*
X41559140Y-71800655D01*
X41550471Y-71789783D01*
X41363860Y-71526780D01*
X41356461Y-71515006D01*
X41200460Y-71232744D01*
X41194427Y-71220215D01*
X41071016Y-70922272D01*
X41066423Y-70909148D01*
X40977143Y-70599252D01*
X40974049Y-70585695D01*
X40920029Y-70267759D01*
X40918472Y-70253940D01*
X40904115Y-69998285D01*
X63326122Y-69998285D01*
X63366392Y-70271913D01*
X63446074Y-70536766D01*
X63563465Y-70787181D01*
X63716073Y-71017849D01*
X63900636Y-71223834D01*
X64113220Y-71400748D01*
X64349304Y-71544827D01*
X64603849Y-71652997D01*
X64871431Y-71722953D01*
X65146345Y-71753202D01*
X65422735Y-71743101D01*
X65694704Y-71692866D01*
X65956475Y-71603562D01*
X66202437Y-71477104D01*
X66427374Y-71316176D01*
X66626480Y-71124214D01*
X66795515Y-70905304D01*
X66930875Y-70664119D01*
X67029678Y-70405790D01*
X67089812Y-70135838D01*
X67110001Y-69859999D01*
X67089812Y-69584161D01*
X67029678Y-69314209D01*
X66930875Y-69055880D01*
X66795515Y-68814695D01*
X66626480Y-68595785D01*
X66427374Y-68403823D01*
X66202437Y-68242895D01*
X65956475Y-68116437D01*
X65694704Y-68027133D01*
X65422735Y-67976898D01*
X65146345Y-67966797D01*
X64871431Y-67997046D01*
X64603849Y-68067002D01*
X64349304Y-68175172D01*
X64113220Y-68319251D01*
X63900636Y-68496165D01*
X63716073Y-68702150D01*
X63563465Y-68932818D01*
X63446074Y-69183233D01*
X63366392Y-69448086D01*
X63326122Y-69721714D01*
X63326122Y-69998285D01*
X40904115Y-69998285D01*
X40900195Y-69928471D01*
X40900000Y-69921519D01*
X40900000Y-44851666D01*
X40936682Y-33728285D01*
X63350588Y-33728285D01*
X63390857Y-34001913D01*
X63470539Y-34266766D01*
X63587930Y-34517181D01*
X63740538Y-34747849D01*
X63925101Y-34953834D01*
X64137685Y-35130748D01*
X64373769Y-35274827D01*
X64628314Y-35382997D01*
X64895896Y-35452953D01*
X65170810Y-35483202D01*
X65447200Y-35473101D01*
X65719169Y-35422866D01*
X65980940Y-35333562D01*
X66226902Y-35207104D01*
X66451839Y-35046176D01*
X66650945Y-34854214D01*
X66819980Y-34635304D01*
X66955340Y-34394119D01*
X67054143Y-34135790D01*
X67114277Y-33865838D01*
X67134466Y-33589999D01*
X67114277Y-33314161D01*
X67054143Y-33044209D01*
X66955340Y-32785880D01*
X66819980Y-32544695D01*
X66650945Y-32325785D01*
X66451839Y-32133823D01*
X66226902Y-31972895D01*
X65980940Y-31846437D01*
X65719169Y-31757133D01*
X65447200Y-31706898D01*
X65170810Y-31696797D01*
X64895896Y-31727046D01*
X64628314Y-31797002D01*
X64373769Y-31905172D01*
X64137685Y-32049251D01*
X63925101Y-32226165D01*
X63740538Y-32432150D01*
X63587930Y-32662818D01*
X63470539Y-32913233D01*
X63390857Y-33178086D01*
X63350588Y-33451714D01*
X63350588Y-33728285D01*
X40936682Y-33728285D01*
X40941505Y-32265900D01*
X40943256Y-32245538D01*
X40974049Y-32064304D01*
X40977143Y-32050747D01*
X41066423Y-31740851D01*
X41071016Y-31727727D01*
X41194427Y-31429784D01*
X41200460Y-31417255D01*
X41356461Y-31134993D01*
X41363860Y-31123219D01*
X41550471Y-30860216D01*
X41559140Y-30849344D01*
X41774039Y-30608872D01*
X41783872Y-30599039D01*
X42024344Y-30384140D01*
X42035216Y-30375471D01*
X42298219Y-30188860D01*
X42309993Y-30181461D01*
X42592255Y-30025460D01*
X42604784Y-30019427D01*
X42902727Y-29896016D01*
X42915851Y-29891423D01*
X43225747Y-29802143D01*
X43239304Y-29799049D01*
X43557240Y-29745029D01*
X43571059Y-29743472D01*
X43896529Y-29725195D01*
X43903481Y-29725000D01*
X86211519Y-29725000D01*
X86218471Y-29725195D01*
G37*
M02*
