M48
; DRILL file {KiCad 7.0.2} date Mon Jan 29 20:43:43 2024
; FORMAT={-:-/ absolute / inch / decimal}
; #@! TF.CreationDate,2024-01-29T20:43:43-05:00
; #@! TF.GenerationSoftware,Kicad,Pcbnew,7.0.2
; #@! TF.FileFunction,Plated,1,2,PTH
FMAT,2
INCH
; #@! TA.AperFunction,Plated,PTH,ViaDrill
T1C0.0157
; #@! TA.AperFunction,Plated,PTH,ComponentDrill
T2C0.0394
%
G90
G05
T1
X1.7457Y-2.8327
X1.8909Y-1.2972
X2.0547Y-2.7929
X2.0709Y-1.1953
T2
X1.7197Y-1.3234
X1.7197Y-1.4234
X1.7197Y-1.5234
X1.7197Y-1.6234
X1.7197Y-1.7234
X1.7197Y-1.8234
X1.7197Y-1.9234
X1.7197Y-2.0234
X1.7197Y-2.1234
X1.7197Y-2.2234
X1.7197Y-2.3234
X1.7197Y-2.4234
X1.7197Y-2.5234
X1.7197Y-2.6234
X1.7197Y-2.7234
X1.8197Y-1.3234
X1.8197Y-1.4234
X1.8197Y-1.5234
X1.8197Y-1.6234
X1.8197Y-1.7234
X1.8197Y-1.8234
X1.8197Y-1.9234
X1.8197Y-2.0234
X1.8197Y-2.1234
X1.8197Y-2.2234
X1.8197Y-2.3234
X1.8197Y-2.4234
X1.8197Y-2.5234
X1.8197Y-2.6234
X1.8197Y-2.7234
X2.0177Y-1.3234
X2.0179Y-2.3236
X2.0181Y-1.4234
X2.0181Y-1.5234
X2.0181Y-1.6234
X2.0181Y-1.7234
X2.0183Y-1.8232
X2.0183Y-2.4236
X2.0183Y-2.5236
X2.0183Y-2.6236
X2.0183Y-2.7236
X2.0187Y-1.9232
X2.0187Y-2.0232
X2.0187Y-2.1232
X2.0187Y-2.2232
X2.1177Y-1.3234
X2.1179Y-2.3236
X2.1181Y-1.4234
X2.1181Y-1.5234
X2.1181Y-1.6234
X2.1181Y-1.7234
X2.1183Y-1.8232
X2.1183Y-2.4236
X2.1183Y-2.5236
X2.1183Y-2.6236
X2.1183Y-2.7236
X2.1187Y-1.9232
X2.1187Y-2.0232
X2.1187Y-2.1232
X2.1187Y-2.2232
X2.2177Y-1.3234
X2.2179Y-2.3236
X2.2181Y-1.4234
X2.2181Y-1.5234
X2.2181Y-1.6234
X2.2181Y-1.7234
X2.2183Y-1.8232
X2.2183Y-2.4236
X2.2183Y-2.5236
X2.2183Y-2.6236
X2.2183Y-2.7236
X2.2187Y-1.9232
X2.2187Y-2.0232
X2.2187Y-2.1232
X2.2187Y-2.2232
X2.3177Y-1.3234
X2.3179Y-2.3236
X2.3181Y-1.4234
X2.3181Y-1.5234
X2.3181Y-1.6234
X2.3181Y-1.7234
X2.3183Y-1.8232
X2.3183Y-2.4236
X2.3183Y-2.5236
X2.3183Y-2.6236
X2.3183Y-2.7236
X2.3187Y-1.9232
X2.3187Y-2.0232
X2.3187Y-2.1232
X2.3187Y-2.2232
X2.4181Y-1.3234
X2.4181Y-1.4234
X2.4181Y-1.5234
X2.4181Y-1.6234
X2.4181Y-1.7234
X2.4183Y-2.3236
X2.4183Y-2.4236
X2.4183Y-2.5236
X2.4183Y-2.6236
X2.4183Y-2.7236
X2.4187Y-1.8232
X2.4187Y-1.9232
X2.4187Y-2.0232
X2.4187Y-2.1232
X2.4187Y-2.2232
X2.7173Y-1.3234
X2.7173Y-1.4234
X2.7173Y-1.5234
X2.7173Y-1.6234
X2.7173Y-1.7234
X2.7175Y-2.3236
X2.7175Y-2.4236
X2.7175Y-2.5236
X2.7175Y-2.6236
X2.7175Y-2.7236
X2.7179Y-1.8232
X2.7179Y-1.9232
X2.7179Y-2.0232
X2.7179Y-2.1232
X2.7179Y-2.2232
X2.8173Y-1.3234
X2.8173Y-1.4234
X2.8173Y-1.5234
X2.8173Y-1.6234
X2.8173Y-1.7234
X2.8175Y-2.3236
X2.8175Y-2.4236
X2.8175Y-2.5236
X2.8175Y-2.6236
X2.8175Y-2.7236
X2.8179Y-1.8232
X2.8179Y-1.9232
X2.8179Y-2.0232
X2.8179Y-2.1232
X2.8179Y-2.2232
X2.9173Y-1.3234
X2.9173Y-1.4234
X2.9173Y-1.5234
X2.9173Y-1.6234
X2.9173Y-1.7234
X2.9175Y-2.3236
X2.9175Y-2.4236
X2.9175Y-2.5236
X2.9175Y-2.6236
X2.9175Y-2.7236
X2.9179Y-1.8232
X2.9179Y-1.9232
X2.9179Y-2.0232
X2.9179Y-2.1232
X2.9179Y-2.2232
X3.0173Y-1.3234
X3.0173Y-1.4234
X3.0173Y-1.5234
X3.0173Y-1.6234
X3.0173Y-1.7234
X3.0175Y-2.3236
X3.0175Y-2.4236
X3.0175Y-2.5236
X3.0175Y-2.6236
X3.0175Y-2.7236
X3.0179Y-1.8232
X3.0179Y-1.9232
X3.0179Y-2.0232
X3.0179Y-2.1232
X3.0179Y-2.2232
X3.1173Y-1.3234
X3.1173Y-1.4234
X3.1173Y-1.5234
X3.1173Y-1.6234
X3.1173Y-1.7234
X3.1175Y-2.3236
X3.1175Y-2.4236
X3.1175Y-2.5236
X3.1175Y-2.6236
X3.1175Y-2.7236
X3.1179Y-1.8232
X3.1179Y-1.9232
X3.1179Y-2.0232
X3.1179Y-2.1232
X3.1179Y-2.2232
X3.3161Y-1.3234
X3.3161Y-1.4234
X3.3161Y-1.5234
X3.3161Y-1.6234
X3.3161Y-1.7234
X3.3161Y-1.8234
X3.3161Y-1.9234
X3.3161Y-2.0234
X3.3161Y-2.1234
X3.3161Y-2.2234
X3.3161Y-2.3234
X3.3161Y-2.4234
X3.3161Y-2.5234
X3.3161Y-2.6234
X3.3161Y-2.7234
X3.4161Y-1.3234
X3.4161Y-1.4234
X3.4161Y-1.5234
X3.4161Y-1.6234
X3.4161Y-1.7234
X3.4161Y-1.8234
X3.4161Y-1.9234
X3.4161Y-2.0234
X3.4161Y-2.1234
X3.4161Y-2.2234
X3.4161Y-2.3234
X3.4161Y-2.4234
X3.4161Y-2.5234
X3.4161Y-2.6234
X3.4161Y-2.7234
T0
M30
