%TF.GenerationSoftware,KiCad,Pcbnew,7.0.2*%
%TF.CreationDate,2024-01-29T20:47:07-05:00*%
%TF.ProjectId,dpx_perv_5x15,6470785f-7065-4727-965f-357831352e6b,rev?*%
%TF.SameCoordinates,Original*%
%TF.FileFunction,Soldermask,Bot*%
%TF.FilePolarity,Negative*%
%FSLAX46Y46*%
G04 Gerber Fmt 4.6, Leading zero omitted, Abs format (unit mm)*
G04 Created by KiCad (PCBNEW 7.0.2) date 2024-01-29 20:47:07*
%MOMM*%
%LPD*%
G01*
G04 APERTURE LIST*
%ADD10R,1.700000X1.700000*%
%ADD11O,1.700000X1.700000*%
G04 APERTURE END LIST*
D10*
%TO.C,J1*%
X46220000Y-33615000D03*
D11*
X43680000Y-33615000D03*
X46220000Y-36155000D03*
X43680000Y-36155000D03*
X46220000Y-38695000D03*
X43680000Y-38695000D03*
X46220000Y-41235000D03*
X43680000Y-41235000D03*
X46220000Y-43775000D03*
X43680000Y-43775000D03*
X46220000Y-46315000D03*
X43680000Y-46315000D03*
X46220000Y-48855000D03*
X43680000Y-48855000D03*
X46220000Y-51395000D03*
X43680000Y-51395000D03*
X46220000Y-53935000D03*
X43680000Y-53935000D03*
X46220000Y-56475000D03*
X43680000Y-56475000D03*
X46220000Y-59015000D03*
X43680000Y-59015000D03*
X46220000Y-61555000D03*
X43680000Y-61555000D03*
X46220000Y-64095000D03*
X43680000Y-64095000D03*
X46220000Y-66635000D03*
X43680000Y-66635000D03*
X46220000Y-69175000D03*
X43680000Y-69175000D03*
%TD*%
D10*
%TO.C,J2*%
X86770000Y-33615000D03*
D11*
X84230000Y-33615000D03*
X86770000Y-36155000D03*
X84230000Y-36155000D03*
X86770000Y-38695000D03*
X84230000Y-38695000D03*
X86770000Y-41235000D03*
X84230000Y-41235000D03*
X86770000Y-43775000D03*
X84230000Y-43775000D03*
X86770000Y-46315000D03*
X84230000Y-46315000D03*
X86770000Y-48855000D03*
X84230000Y-48855000D03*
X86770000Y-51395000D03*
X84230000Y-51395000D03*
X86770000Y-53935000D03*
X84230000Y-53935000D03*
X86770000Y-56475000D03*
X84230000Y-56475000D03*
X86770000Y-59015000D03*
X84230000Y-59015000D03*
X86770000Y-61555000D03*
X84230000Y-61555000D03*
X86770000Y-64095000D03*
X84230000Y-64095000D03*
X86770000Y-66635000D03*
X84230000Y-66635000D03*
X86770000Y-69175000D03*
X84230000Y-69175000D03*
%TD*%
%TO.C,U2*%
X79195000Y-46310000D03*
X76655000Y-46310000D03*
X74115000Y-46310000D03*
X71575000Y-46310000D03*
X69035000Y-46310000D03*
X61435000Y-46310000D03*
X79195000Y-48850000D03*
X76655000Y-48850000D03*
X74115000Y-48850000D03*
X71575000Y-48850000D03*
X69035000Y-48850000D03*
X61435000Y-48850000D03*
X58895000Y-48850000D03*
X58885000Y-46310000D03*
X56355000Y-48850000D03*
X56345000Y-46310000D03*
X53815000Y-48850000D03*
X53805000Y-46310000D03*
X51275000Y-48850000D03*
X51265000Y-46310000D03*
X79195000Y-51390000D03*
X76655000Y-51390000D03*
X74115000Y-51390000D03*
X71575000Y-51390000D03*
X69035000Y-51390000D03*
X61435000Y-51390000D03*
X58895000Y-51390000D03*
X56355000Y-51390000D03*
X53815000Y-51390000D03*
X51275000Y-51390000D03*
X79195000Y-53930000D03*
X76655000Y-53930000D03*
X74115000Y-53930000D03*
X71575000Y-53930000D03*
X69035000Y-53930000D03*
X61435000Y-53930000D03*
X58895000Y-53930000D03*
X56355000Y-53930000D03*
X53815000Y-53930000D03*
X51275000Y-53930000D03*
X79195000Y-56470000D03*
X76655000Y-56470000D03*
X74115000Y-56470000D03*
X71575000Y-56470000D03*
X69035000Y-56470000D03*
X61435000Y-56470000D03*
X58895000Y-56470000D03*
X56355000Y-56470000D03*
X53815000Y-56470000D03*
X51275000Y-56470000D03*
%TD*%
%TO.C,U1*%
X79180000Y-33615000D03*
X76640000Y-33615000D03*
X74100000Y-33615000D03*
X71560000Y-33615000D03*
X69020000Y-33615000D03*
X61420000Y-33615000D03*
X79180000Y-36155000D03*
X76640000Y-36155000D03*
X74100000Y-36155000D03*
X71560000Y-36155000D03*
X69020000Y-36155000D03*
X61420000Y-36155000D03*
X58880000Y-36155000D03*
X58870000Y-33615000D03*
X56340000Y-36155000D03*
X56330000Y-33615000D03*
X53800000Y-36155000D03*
X53790000Y-33615000D03*
X51260000Y-36155000D03*
X51250000Y-33615000D03*
X79180000Y-38695000D03*
X76640000Y-38695000D03*
X74100000Y-38695000D03*
X71560000Y-38695000D03*
X69020000Y-38695000D03*
X61420000Y-38695000D03*
X58880000Y-38695000D03*
X56340000Y-38695000D03*
X53800000Y-38695000D03*
X51260000Y-38695000D03*
X79180000Y-41235000D03*
X76640000Y-41235000D03*
X74100000Y-41235000D03*
X71560000Y-41235000D03*
X69020000Y-41235000D03*
X61420000Y-41235000D03*
X58880000Y-41235000D03*
X56340000Y-41235000D03*
X53800000Y-41235000D03*
X51260000Y-41235000D03*
X79180000Y-43775000D03*
X76640000Y-43775000D03*
X74100000Y-43775000D03*
X71560000Y-43775000D03*
X69020000Y-43775000D03*
X61420000Y-43775000D03*
X58880000Y-43775000D03*
X56340000Y-43775000D03*
X53800000Y-43775000D03*
X51260000Y-43775000D03*
%TD*%
%TO.C,U3*%
X79185000Y-59020000D03*
X76645000Y-59020000D03*
X74105000Y-59020000D03*
X71565000Y-59020000D03*
X69025000Y-59020000D03*
X61425000Y-59020000D03*
X79185000Y-61560000D03*
X76645000Y-61560000D03*
X74105000Y-61560000D03*
X71565000Y-61560000D03*
X69025000Y-61560000D03*
X61425000Y-61560000D03*
X58885000Y-61560000D03*
X58875000Y-59020000D03*
X56345000Y-61560000D03*
X56335000Y-59020000D03*
X53805000Y-61560000D03*
X53795000Y-59020000D03*
X51265000Y-61560000D03*
X51255000Y-59020000D03*
X79185000Y-64100000D03*
X76645000Y-64100000D03*
X74105000Y-64100000D03*
X71565000Y-64100000D03*
X69025000Y-64100000D03*
X61425000Y-64100000D03*
X58885000Y-64100000D03*
X56345000Y-64100000D03*
X53805000Y-64100000D03*
X51265000Y-64100000D03*
X79185000Y-66640000D03*
X76645000Y-66640000D03*
X74105000Y-66640000D03*
X71565000Y-66640000D03*
X69025000Y-66640000D03*
X61425000Y-66640000D03*
X58885000Y-66640000D03*
X56345000Y-66640000D03*
X53805000Y-66640000D03*
X51265000Y-66640000D03*
X79185000Y-69180000D03*
X76645000Y-69180000D03*
X74105000Y-69180000D03*
X71565000Y-69180000D03*
X69025000Y-69180000D03*
X61425000Y-69180000D03*
X58885000Y-69180000D03*
X56345000Y-69180000D03*
X53805000Y-69180000D03*
X51265000Y-69180000D03*
%TD*%
G36*
X86218471Y-29725195D02*
G01*
X86543940Y-29743472D01*
X86557759Y-29745029D01*
X86875695Y-29799049D01*
X86889252Y-29802143D01*
X87199148Y-29891423D01*
X87212272Y-29896016D01*
X87510215Y-30019427D01*
X87522744Y-30025460D01*
X87805006Y-30181461D01*
X87816780Y-30188860D01*
X88079783Y-30375471D01*
X88090655Y-30384140D01*
X88331127Y-30599039D01*
X88340960Y-30608872D01*
X88555859Y-30849344D01*
X88564528Y-30860216D01*
X88751139Y-31123219D01*
X88758538Y-31134993D01*
X88914539Y-31417255D01*
X88920572Y-31429784D01*
X89043983Y-31727727D01*
X89048576Y-31740851D01*
X89137856Y-32050747D01*
X89140950Y-32064304D01*
X89194970Y-32382240D01*
X89196527Y-32396058D01*
X89214805Y-32721527D01*
X89215000Y-32728480D01*
X89215000Y-69921519D01*
X89214805Y-69928472D01*
X89196527Y-70253941D01*
X89194970Y-70267759D01*
X89140950Y-70585695D01*
X89137856Y-70599252D01*
X89048576Y-70909148D01*
X89043983Y-70922272D01*
X88920572Y-71220215D01*
X88914539Y-71232744D01*
X88758538Y-71515006D01*
X88751139Y-71526780D01*
X88564528Y-71789783D01*
X88555859Y-71800655D01*
X88340960Y-72041127D01*
X88331127Y-72050960D01*
X88090655Y-72265859D01*
X88079783Y-72274528D01*
X87816780Y-72461139D01*
X87805006Y-72468538D01*
X87522744Y-72624539D01*
X87510215Y-72630572D01*
X87212272Y-72753983D01*
X87199148Y-72758576D01*
X86889252Y-72847856D01*
X86875695Y-72850950D01*
X86557759Y-72904970D01*
X86543941Y-72906527D01*
X86218472Y-72924805D01*
X86211519Y-72925000D01*
X43903481Y-72925000D01*
X43896528Y-72924805D01*
X43571058Y-72906527D01*
X43557240Y-72904970D01*
X43239304Y-72850950D01*
X43225747Y-72847856D01*
X42915851Y-72758576D01*
X42902727Y-72753983D01*
X42604784Y-72630572D01*
X42592255Y-72624539D01*
X42309993Y-72468538D01*
X42298219Y-72461139D01*
X42035216Y-72274528D01*
X42024344Y-72265859D01*
X41783872Y-72050960D01*
X41774039Y-72041127D01*
X41559140Y-71800655D01*
X41550471Y-71789783D01*
X41363860Y-71526780D01*
X41356461Y-71515006D01*
X41200460Y-71232744D01*
X41194427Y-71220215D01*
X41071016Y-70922272D01*
X41066423Y-70909148D01*
X40977143Y-70599252D01*
X40974049Y-70585695D01*
X40920029Y-70267759D01*
X40918472Y-70253940D01*
X40900195Y-69928471D01*
X40900000Y-69921519D01*
X40900000Y-69120000D01*
X63129999Y-69120000D01*
X63150357Y-69404630D01*
X63211012Y-69683460D01*
X63310738Y-69950833D01*
X63447491Y-70201280D01*
X63618503Y-70429723D01*
X63820276Y-70631496D01*
X64048719Y-70802508D01*
X64299166Y-70939261D01*
X64566539Y-71038987D01*
X64845369Y-71099642D01*
X65130000Y-71120000D01*
X65414630Y-71099642D01*
X65693460Y-71038987D01*
X65960833Y-70939261D01*
X66211280Y-70802508D01*
X66439723Y-70631496D01*
X66641496Y-70429723D01*
X66812508Y-70201280D01*
X66949261Y-69950833D01*
X67048987Y-69683460D01*
X67109642Y-69404630D01*
X67130000Y-69120000D01*
X67109642Y-68835369D01*
X67048987Y-68556539D01*
X66949261Y-68289166D01*
X66812508Y-68038719D01*
X66641496Y-67810276D01*
X66439723Y-67608503D01*
X66211280Y-67437491D01*
X65960833Y-67300738D01*
X65693460Y-67201012D01*
X65414630Y-67140357D01*
X65130000Y-67119999D01*
X64845369Y-67140357D01*
X64566539Y-67201012D01*
X64299166Y-67300738D01*
X64048719Y-67437491D01*
X63820276Y-67608503D01*
X63618503Y-67810276D01*
X63447491Y-68038719D01*
X63310738Y-68289166D01*
X63211012Y-68556539D01*
X63150357Y-68835369D01*
X63129999Y-69120000D01*
X40900000Y-69120000D01*
X40900000Y-44851666D01*
X40937138Y-33589999D01*
X63239999Y-33589999D01*
X63260357Y-33874630D01*
X63321012Y-34153460D01*
X63420738Y-34420833D01*
X63557491Y-34671280D01*
X63728503Y-34899723D01*
X63930276Y-35101496D01*
X64158719Y-35272508D01*
X64409166Y-35409261D01*
X64676539Y-35508987D01*
X64955369Y-35569642D01*
X65239999Y-35590000D01*
X65524630Y-35569642D01*
X65803460Y-35508987D01*
X66070833Y-35409261D01*
X66321280Y-35272508D01*
X66549723Y-35101496D01*
X66751496Y-34899723D01*
X66922508Y-34671280D01*
X67059261Y-34420833D01*
X67158987Y-34153460D01*
X67219642Y-33874630D01*
X67240000Y-33589999D01*
X67219642Y-33305369D01*
X67158987Y-33026539D01*
X67059261Y-32759166D01*
X66922508Y-32508719D01*
X66751496Y-32280276D01*
X66549723Y-32078503D01*
X66321280Y-31907491D01*
X66070833Y-31770738D01*
X65803460Y-31671012D01*
X65524630Y-31610357D01*
X65240000Y-31589999D01*
X64955369Y-31610357D01*
X64676539Y-31671012D01*
X64409166Y-31770738D01*
X64158719Y-31907491D01*
X63930276Y-32078503D01*
X63728503Y-32280276D01*
X63557491Y-32508719D01*
X63420738Y-32759166D01*
X63321012Y-33026539D01*
X63260357Y-33305369D01*
X63239999Y-33589999D01*
X40937138Y-33589999D01*
X40941505Y-32265900D01*
X40943256Y-32245538D01*
X40974049Y-32064304D01*
X40977143Y-32050747D01*
X41066423Y-31740851D01*
X41071016Y-31727727D01*
X41194427Y-31429784D01*
X41200460Y-31417255D01*
X41356461Y-31134993D01*
X41363860Y-31123219D01*
X41550471Y-30860216D01*
X41559140Y-30849344D01*
X41774039Y-30608872D01*
X41783872Y-30599039D01*
X42024344Y-30384140D01*
X42035216Y-30375471D01*
X42298219Y-30188860D01*
X42309993Y-30181461D01*
X42592255Y-30025460D01*
X42604784Y-30019427D01*
X42902727Y-29896016D01*
X42915851Y-29891423D01*
X43225747Y-29802143D01*
X43239304Y-29799049D01*
X43557240Y-29745029D01*
X43571059Y-29743472D01*
X43896529Y-29725195D01*
X43903481Y-29725000D01*
X86211519Y-29725000D01*
X86218471Y-29725195D01*
G37*
M02*
