%TF.GenerationSoftware,KiCad,Pcbnew,7.0.2*%
%TF.CreationDate,2024-01-29T20:47:06-05:00*%
%TF.ProjectId,dpx_perv_5x15,6470785f-7065-4727-965f-357831352e6b,rev?*%
%TF.SameCoordinates,Original*%
%TF.FileFunction,Copper,L1,Top*%
%TF.FilePolarity,Positive*%
%FSLAX46Y46*%
G04 Gerber Fmt 4.6, Leading zero omitted, Abs format (unit mm)*
G04 Created by KiCad (PCBNEW 7.0.2) date 2024-01-29 20:47:06*
%MOMM*%
%LPD*%
G01*
G04 APERTURE LIST*
%TA.AperFunction,ComponentPad*%
%ADD10R,1.700000X1.700000*%
%TD*%
%TA.AperFunction,ComponentPad*%
%ADD11O,1.700000X1.700000*%
%TD*%
G04 APERTURE END LIST*
D10*
%TO.P,J1,1,Pin_1*%
%TO.N,VCC*%
X46220000Y-33615000D03*
D11*
%TO.P,J1,2,Pin_2*%
%TO.N,GND*%
X43680000Y-33615000D03*
%TO.P,J1,3,Pin_3*%
%TO.N,VCC*%
X46220000Y-36155000D03*
%TO.P,J1,4,Pin_4*%
%TO.N,GND*%
X43680000Y-36155000D03*
%TO.P,J1,5,Pin_5*%
%TO.N,VCC*%
X46220000Y-38695000D03*
%TO.P,J1,6,Pin_6*%
%TO.N,GND*%
X43680000Y-38695000D03*
%TO.P,J1,7,Pin_7*%
%TO.N,VCC*%
X46220000Y-41235000D03*
%TO.P,J1,8,Pin_8*%
%TO.N,GND*%
X43680000Y-41235000D03*
%TO.P,J1,9,Pin_9*%
%TO.N,VCC*%
X46220000Y-43775000D03*
%TO.P,J1,10,Pin_10*%
%TO.N,GND*%
X43680000Y-43775000D03*
%TO.P,J1,11,Pin_11*%
%TO.N,VCC*%
X46220000Y-46315000D03*
%TO.P,J1,12,Pin_12*%
%TO.N,GND*%
X43680000Y-46315000D03*
%TO.P,J1,13,Pin_13*%
%TO.N,VCC*%
X46220000Y-48855000D03*
%TO.P,J1,14,Pin_14*%
%TO.N,GND*%
X43680000Y-48855000D03*
%TO.P,J1,15,Pin_15*%
%TO.N,VCC*%
X46220000Y-51395000D03*
%TO.P,J1,16,Pin_16*%
%TO.N,GND*%
X43680000Y-51395000D03*
%TO.P,J1,17,Pin_17*%
%TO.N,VCC*%
X46220000Y-53935000D03*
%TO.P,J1,18,Pin_18*%
%TO.N,GND*%
X43680000Y-53935000D03*
%TO.P,J1,19,Pin_19*%
%TO.N,VCC*%
X46220000Y-56475000D03*
%TO.P,J1,20,Pin_20*%
%TO.N,GND*%
X43680000Y-56475000D03*
%TO.P,J1,21,Pin_21*%
%TO.N,VCC*%
X46220000Y-59015000D03*
%TO.P,J1,22,Pin_22*%
%TO.N,GND*%
X43680000Y-59015000D03*
%TO.P,J1,23,Pin_23*%
%TO.N,VCC*%
X46220000Y-61555000D03*
%TO.P,J1,24,Pin_24*%
%TO.N,GND*%
X43680000Y-61555000D03*
%TO.P,J1,25,Pin_25*%
%TO.N,VCC*%
X46220000Y-64095000D03*
%TO.P,J1,26,Pin_26*%
%TO.N,GND*%
X43680000Y-64095000D03*
%TO.P,J1,27,Pin_27*%
%TO.N,VCC*%
X46220000Y-66635000D03*
%TO.P,J1,28,Pin_28*%
%TO.N,GND*%
X43680000Y-66635000D03*
%TO.P,J1,29,Pin_29*%
%TO.N,VCC*%
X46220000Y-69175000D03*
%TO.P,J1,30,Pin_30*%
%TO.N,GND*%
X43680000Y-69175000D03*
%TD*%
D10*
%TO.P,J2,1,Pin_1*%
%TO.N,VCC*%
X86770000Y-33615000D03*
D11*
%TO.P,J2,2,Pin_2*%
%TO.N,GND*%
X84230000Y-33615000D03*
%TO.P,J2,3,Pin_3*%
%TO.N,VCC*%
X86770000Y-36155000D03*
%TO.P,J2,4,Pin_4*%
%TO.N,GND*%
X84230000Y-36155000D03*
%TO.P,J2,5,Pin_5*%
%TO.N,VCC*%
X86770000Y-38695000D03*
%TO.P,J2,6,Pin_6*%
%TO.N,GND*%
X84230000Y-38695000D03*
%TO.P,J2,7,Pin_7*%
%TO.N,VCC*%
X86770000Y-41235000D03*
%TO.P,J2,8,Pin_8*%
%TO.N,GND*%
X84230000Y-41235000D03*
%TO.P,J2,9,Pin_9*%
%TO.N,VCC*%
X86770000Y-43775000D03*
%TO.P,J2,10,Pin_10*%
%TO.N,GND*%
X84230000Y-43775000D03*
%TO.P,J2,11,Pin_11*%
%TO.N,VCC*%
X86770000Y-46315000D03*
%TO.P,J2,12,Pin_12*%
%TO.N,GND*%
X84230000Y-46315000D03*
%TO.P,J2,13,Pin_13*%
%TO.N,VCC*%
X86770000Y-48855000D03*
%TO.P,J2,14,Pin_14*%
%TO.N,GND*%
X84230000Y-48855000D03*
%TO.P,J2,15,Pin_15*%
%TO.N,VCC*%
X86770000Y-51395000D03*
%TO.P,J2,16,Pin_16*%
%TO.N,GND*%
X84230000Y-51395000D03*
%TO.P,J2,17,Pin_17*%
%TO.N,VCC*%
X86770000Y-53935000D03*
%TO.P,J2,18,Pin_18*%
%TO.N,GND*%
X84230000Y-53935000D03*
%TO.P,J2,19,Pin_19*%
%TO.N,VCC*%
X86770000Y-56475000D03*
%TO.P,J2,20,Pin_20*%
%TO.N,GND*%
X84230000Y-56475000D03*
%TO.P,J2,21,Pin_21*%
%TO.N,VCC*%
X86770000Y-59015000D03*
%TO.P,J2,22,Pin_22*%
%TO.N,GND*%
X84230000Y-59015000D03*
%TO.P,J2,23,Pin_23*%
%TO.N,VCC*%
X86770000Y-61555000D03*
%TO.P,J2,24,Pin_24*%
%TO.N,GND*%
X84230000Y-61555000D03*
%TO.P,J2,25,Pin_25*%
%TO.N,VCC*%
X86770000Y-64095000D03*
%TO.P,J2,26,Pin_26*%
%TO.N,GND*%
X84230000Y-64095000D03*
%TO.P,J2,27,Pin_27*%
%TO.N,VCC*%
X86770000Y-66635000D03*
%TO.P,J2,28,Pin_28*%
%TO.N,GND*%
X84230000Y-66635000D03*
%TO.P,J2,29,Pin_29*%
%TO.N,VCC*%
X86770000Y-69175000D03*
%TO.P,J2,30,Pin_30*%
%TO.N,GND*%
X84230000Y-69175000D03*
%TD*%
%TO.P,U2,1*%
%TO.N,N/C*%
X79195000Y-46310000D03*
%TO.P,U2,2*%
X76655000Y-46310000D03*
%TO.P,U2,3*%
X74115000Y-46310000D03*
%TO.P,U2,4*%
X71575000Y-46310000D03*
%TO.P,U2,5*%
X69035000Y-46310000D03*
%TO.P,U2,6*%
X61435000Y-46310000D03*
%TO.P,U2,11*%
X79195000Y-48850000D03*
%TO.P,U2,12*%
X76655000Y-48850000D03*
%TO.P,U2,13*%
X74115000Y-48850000D03*
%TO.P,U2,14*%
X71575000Y-48850000D03*
%TO.P,U2,15*%
X69035000Y-48850000D03*
%TO.P,U2,16*%
X61435000Y-48850000D03*
%TO.P,U2,17*%
X58895000Y-48850000D03*
X58885000Y-46310000D03*
%TO.P,U2,18*%
X56355000Y-48850000D03*
X56345000Y-46310000D03*
%TO.P,U2,19*%
X53815000Y-48850000D03*
X53805000Y-46310000D03*
%TO.P,U2,20*%
X51275000Y-48850000D03*
X51265000Y-46310000D03*
%TO.P,U2,21*%
X79195000Y-51390000D03*
%TO.P,U2,22*%
X76655000Y-51390000D03*
%TO.P,U2,23*%
X74115000Y-51390000D03*
%TO.P,U2,24*%
X71575000Y-51390000D03*
%TO.P,U2,25*%
X69035000Y-51390000D03*
%TO.P,U2,26*%
X61435000Y-51390000D03*
%TO.P,U2,27*%
X58895000Y-51390000D03*
%TO.P,U2,28*%
X56355000Y-51390000D03*
%TO.P,U2,29*%
X53815000Y-51390000D03*
%TO.P,U2,30*%
X51275000Y-51390000D03*
%TO.P,U2,31*%
X79195000Y-53930000D03*
%TO.P,U2,32*%
X76655000Y-53930000D03*
%TO.P,U2,33*%
X74115000Y-53930000D03*
%TO.P,U2,34*%
X71575000Y-53930000D03*
%TO.P,U2,35*%
X69035000Y-53930000D03*
%TO.P,U2,36*%
X61435000Y-53930000D03*
%TO.P,U2,37*%
X58895000Y-53930000D03*
%TO.P,U2,38*%
X56355000Y-53930000D03*
%TO.P,U2,39*%
X53815000Y-53930000D03*
%TO.P,U2,40*%
X51275000Y-53930000D03*
%TO.P,U2,41*%
X79195000Y-56470000D03*
%TO.P,U2,42*%
X76655000Y-56470000D03*
%TO.P,U2,43*%
X74115000Y-56470000D03*
%TO.P,U2,44*%
X71575000Y-56470000D03*
%TO.P,U2,45*%
X69035000Y-56470000D03*
%TO.P,U2,46*%
X61435000Y-56470000D03*
%TO.P,U2,47*%
X58895000Y-56470000D03*
%TO.P,U2,48*%
X56355000Y-56470000D03*
%TO.P,U2,49*%
X53815000Y-56470000D03*
%TO.P,U2,50*%
X51275000Y-56470000D03*
%TD*%
%TO.P,U1,1*%
%TO.N,N/C*%
X79180000Y-33615000D03*
%TO.P,U1,2*%
X76640000Y-33615000D03*
%TO.P,U1,3*%
X74100000Y-33615000D03*
%TO.P,U1,4*%
X71560000Y-33615000D03*
%TO.P,U1,5*%
X69020000Y-33615000D03*
%TO.P,U1,6*%
X61420000Y-33615000D03*
%TO.P,U1,11*%
X79180000Y-36155000D03*
%TO.P,U1,12*%
X76640000Y-36155000D03*
%TO.P,U1,13*%
X74100000Y-36155000D03*
%TO.P,U1,14*%
X71560000Y-36155000D03*
%TO.P,U1,15*%
X69020000Y-36155000D03*
%TO.P,U1,16*%
X61420000Y-36155000D03*
%TO.P,U1,17*%
X58880000Y-36155000D03*
X58870000Y-33615000D03*
%TO.P,U1,18*%
X56340000Y-36155000D03*
X56330000Y-33615000D03*
%TO.P,U1,19*%
X53800000Y-36155000D03*
X53790000Y-33615000D03*
%TO.P,U1,20*%
X51260000Y-36155000D03*
X51250000Y-33615000D03*
%TO.P,U1,21*%
X79180000Y-38695000D03*
%TO.P,U1,22*%
X76640000Y-38695000D03*
%TO.P,U1,23*%
X74100000Y-38695000D03*
%TO.P,U1,24*%
X71560000Y-38695000D03*
%TO.P,U1,25*%
X69020000Y-38695000D03*
%TO.P,U1,26*%
X61420000Y-38695000D03*
%TO.P,U1,27*%
X58880000Y-38695000D03*
%TO.P,U1,28*%
X56340000Y-38695000D03*
%TO.P,U1,29*%
X53800000Y-38695000D03*
%TO.P,U1,30*%
X51260000Y-38695000D03*
%TO.P,U1,31*%
X79180000Y-41235000D03*
%TO.P,U1,32*%
X76640000Y-41235000D03*
%TO.P,U1,33*%
X74100000Y-41235000D03*
%TO.P,U1,34*%
X71560000Y-41235000D03*
%TO.P,U1,35*%
X69020000Y-41235000D03*
%TO.P,U1,36*%
X61420000Y-41235000D03*
%TO.P,U1,37*%
X58880000Y-41235000D03*
%TO.P,U1,38*%
X56340000Y-41235000D03*
%TO.P,U1,39*%
X53800000Y-41235000D03*
%TO.P,U1,40*%
X51260000Y-41235000D03*
%TO.P,U1,41*%
X79180000Y-43775000D03*
%TO.P,U1,42*%
X76640000Y-43775000D03*
%TO.P,U1,43*%
X74100000Y-43775000D03*
%TO.P,U1,44*%
X71560000Y-43775000D03*
%TO.P,U1,45*%
X69020000Y-43775000D03*
%TO.P,U1,46*%
X61420000Y-43775000D03*
%TO.P,U1,47*%
X58880000Y-43775000D03*
%TO.P,U1,48*%
X56340000Y-43775000D03*
%TO.P,U1,49*%
X53800000Y-43775000D03*
%TO.P,U1,50*%
X51260000Y-43775000D03*
%TD*%
%TO.P,U3,1*%
%TO.N,N/C*%
X79185000Y-59020000D03*
%TO.P,U3,2*%
X76645000Y-59020000D03*
%TO.P,U3,3*%
X74105000Y-59020000D03*
%TO.P,U3,4*%
X71565000Y-59020000D03*
%TO.P,U3,5*%
X69025000Y-59020000D03*
%TO.P,U3,6*%
X61425000Y-59020000D03*
%TO.P,U3,11*%
X79185000Y-61560000D03*
%TO.P,U3,12*%
X76645000Y-61560000D03*
%TO.P,U3,13*%
X74105000Y-61560000D03*
%TO.P,U3,14*%
X71565000Y-61560000D03*
%TO.P,U3,15*%
X69025000Y-61560000D03*
%TO.P,U3,16*%
X61425000Y-61560000D03*
%TO.P,U3,17*%
X58885000Y-61560000D03*
X58875000Y-59020000D03*
%TO.P,U3,18*%
X56345000Y-61560000D03*
X56335000Y-59020000D03*
%TO.P,U3,19*%
X53805000Y-61560000D03*
X53795000Y-59020000D03*
%TO.P,U3,20*%
X51265000Y-61560000D03*
X51255000Y-59020000D03*
%TO.P,U3,21*%
X79185000Y-64100000D03*
%TO.P,U3,22*%
X76645000Y-64100000D03*
%TO.P,U3,23*%
X74105000Y-64100000D03*
%TO.P,U3,24*%
X71565000Y-64100000D03*
%TO.P,U3,25*%
X69025000Y-64100000D03*
%TO.P,U3,26*%
X61425000Y-64100000D03*
%TO.P,U3,27*%
X58885000Y-64100000D03*
%TO.P,U3,28*%
X56345000Y-64100000D03*
%TO.P,U3,29*%
X53805000Y-64100000D03*
%TO.P,U3,30*%
X51265000Y-64100000D03*
%TO.P,U3,31*%
X79185000Y-66640000D03*
%TO.P,U3,32*%
X76645000Y-66640000D03*
%TO.P,U3,33*%
X74105000Y-66640000D03*
%TO.P,U3,34*%
X71565000Y-66640000D03*
%TO.P,U3,35*%
X69025000Y-66640000D03*
%TO.P,U3,36*%
X61425000Y-66640000D03*
%TO.P,U3,37*%
X58885000Y-66640000D03*
%TO.P,U3,38*%
X56345000Y-66640000D03*
%TO.P,U3,39*%
X53805000Y-66640000D03*
%TO.P,U3,40*%
X51265000Y-66640000D03*
%TO.P,U3,41*%
X79185000Y-69180000D03*
%TO.P,U3,42*%
X76645000Y-69180000D03*
%TO.P,U3,43*%
X74105000Y-69180000D03*
%TO.P,U3,44*%
X71565000Y-69180000D03*
%TO.P,U3,45*%
X69025000Y-69180000D03*
%TO.P,U3,46*%
X61425000Y-69180000D03*
%TO.P,U3,47*%
X58885000Y-69180000D03*
%TO.P,U3,48*%
X56345000Y-69180000D03*
%TO.P,U3,49*%
X53805000Y-69180000D03*
%TO.P,U3,50*%
X51265000Y-69180000D03*
%TD*%
M02*
